<?xml version="1.0" encoding="UTF-8" standalone="no"?>
<svg id="svg2" xmlns:rdf="http://www.w3.org/1999/02/22-rdf-syntax-ns#" xmlns="http://www.w3.org/2000/svg" height="13.703mm" viewBox="0 0 21.723684 13.702632" width="21.724mm" version="1.0" xmlns:cc="http://creativecommons.org/ns#" xmlns:dc="http://purl.org/dc/elements/1.1/">
 <metadata id="metadata33">
  <rdf:RDF>
   <cc:Work rdf:about="">
    <dc:format>image/svg+xml</dc:format>
    <dc:type rdf:resource="http://purl.org/dc/dcmitype/StillImage"/>
    <dc:title/>
   </cc:Work>
  </rdf:RDF>
 </metadata>
 <path id="path7" d="m0.43414 0.43181v12.655h20.688v-12.655h-20.688z" fill-rule="evenodd" fill="#cfc"/>
 <path id="path9" stroke-linejoin="round" d="m21.122 13.087h-20.688v-12.655h20.688v12.655z" stroke="#000" stroke-linecap="round" stroke-width=".083488px" fill="none"/>
 <path id="path11" d="m15.946 5.5803v2.3749h2.3877v-2.3749h-2.3877z" fill-rule="evenodd" fill="#fff"/>
 <path id="path13" stroke-linejoin="round" d="m18.334 7.9552h-2.3877v-2.3749h2.3877v2.3749z" stroke="#000" stroke-linecap="round" stroke-width=".083488px" fill="none"/>
 <path id="path15" stroke-linejoin="round" d="m7.5974 6.7594h3.2059" stroke="#000" stroke-linecap="round" stroke-width=".25046px" fill="none"/>
 <path id="path17" d="m10.519 5.6301 3.4397 1.1293-3.4397 1.146v-2.2753z" fill-rule="evenodd"/>
 <path id="path19" d="m2.8219 5.5803v2.3749h2.3878v-2.3749h-2.3878z" fill-rule="evenodd" fill="#fff"/>
 <path id="path21" stroke-linejoin="round" d="m5.2097 7.9552h-2.3878v-2.3749h2.3878v2.3749z" stroke="#000" stroke-linecap="round" stroke-width=".083488px" fill="none"/>
 <path id="path23" d="m2.8219 2.0262v2.3749h2.3878v-2.3749h-2.3878z" fill-rule="evenodd" fill="#fff"/>
 <path id="path25" stroke-linejoin="round" d="m5.2097 4.4011h-2.3878v-2.3749h2.3878v2.3749z" stroke="#000" stroke-linecap="round" stroke-width=".083488px" fill="none"/>
 <path id="path27" d="m2.8219 9.1344v2.375h2.3878v-2.375h-2.3878z" fill-rule="evenodd" fill="#fff"/>
 <path id="path29" stroke-linejoin="round" d="m5.2097 11.509h-2.3878v-2.375h2.3878v2.375z" stroke="#000" stroke-linecap="round" stroke-width=".083488px" fill="none"/>
</svg>
