<?xml version="1.0" encoding="UTF-8" standalone="no"?>
<svg
   xmlns:dc="http://purl.org/dc/elements/1.1/"
   xmlns:cc="http://creativecommons.org/ns#"
   xmlns:rdf="http://www.w3.org/1999/02/22-rdf-syntax-ns#"
   xmlns:svg="http://www.w3.org/2000/svg"
   xmlns="http://www.w3.org/2000/svg"
   xmlns:sodipodi="http://sodipodi.sourceforge.net/DTD/sodipodi-0.dtd"
   xmlns:inkscape="http://www.inkscape.org/namespaces/inkscape"
   version="1.0"
   width="21.723684mm"
   height="13.702632mm"
   id="svg2"
   inkscape:version="0.91 r13725"
   viewBox="0 0 21.723684 13.702632"
   sodipodi:docname="Channel Adapter.svg">
  <metadata
     id="metadata421">
    <rdf:RDF>
      <cc:Work
         rdf:about="">
        <dc:format>image/svg+xml</dc:format>
        <dc:type
           rdf:resource="http://purl.org/dc/dcmitype/StillImage" />
        <dc:title></dc:title>
      </cc:Work>
    </rdf:RDF>
  </metadata>
  <sodipodi:namedview
     pagecolor="#ffffff"
     bordercolor="#666666"
     borderopacity="1"
     objecttolerance="10"
     gridtolerance="10"
     guidetolerance="10"
     inkscape:pageopacity="0"
     inkscape:pageshadow="2"
     inkscape:window-width="1680"
     inkscape:window-height="988"
     id="namedview419"
     inkscape:document-units="mm"
     showgrid="false"
     inkscape:zoom="4.5470085"
     inkscape:cx="38.486842"
     inkscape:cy="24.276316"
     inkscape:window-x="-8"
     inkscape:window-y="-8"
     inkscape:window-maximized="1"
     inkscape:current-layer="svg2" />
  <defs
     id="defs4">
    <clipPath
       clipPathUnits="userSpaceOnUse"
       id="clipWmfPath1">
      <path
         d="m 53.8089,18.4192 21.0403,0 0,11.181 -21.0403,0 z"
         id="path7"
         inkscape:connector-curvature="0" />
    </clipPath>
    <clipPath
       clipPathUnits="userSpaceOnUse"
       id="clipWmfPath2">
      <path
         d="m 55.222656,18.419922 0,0.05859 -1.414062,0 0,11.121093 21.041015,0 0,-11.179687 -19.626953,0 z"
         id="path10"
         inkscape:connector-curvature="0" />
    </clipPath>
    <clipPath
       clipPathUnits="userSpaceOnUse"
       id="clipWmfPath3">
      <path
         d="m 55.222656,18.419922 0,0.05859 -0.117187,0 0,0.05859 -1.296875,0 0,11.0625 21.041015,0 0,-11.179687 -19.626953,0 z"
         id="path13"
         inkscape:connector-curvature="0" />
    </clipPath>
    <clipPath
       clipPathUnits="userSpaceOnUse"
       id="clipWmfPath4">
      <path
         d="m 55.222656,18.419922 0,0.05859 -0.117187,0 0,0.05859 -0.117188,0 0,0.05859 -1.179687,0 0,11.003906 21.041015,0 0,-11.179687 -19.626953,0 z"
         id="path16"
         inkscape:connector-curvature="0" />
    </clipPath>
    <clipPath
       clipPathUnits="userSpaceOnUse"
       id="clipWmfPath5">
      <path
         d="m 55.222656,18.419922 0,0.05859 -0.117187,0 0,0.05859 -0.117188,0 0,0.05859 -0.06055,0 0,0.05859 -1.11914,0 0,10.945312 21.041015,0 0,-11.179687 -19.626953,0 z"
         id="path19"
         inkscape:connector-curvature="0" />
    </clipPath>
    <clipPath
       clipPathUnits="userSpaceOnUse"
       id="clipWmfPath6">
      <path
         d="m 55.222656,18.419922 0,0.05859 -0.117187,0 0,0.05859 -0.117188,0 0,0.05859 -0.06055,0 0,0.05859 -0.05859,0 0,0.05859 -1.060547,0 0,10.886718 21.041015,0 0,-11.179687 -19.626953,0 z"
         id="path22"
         inkscape:connector-curvature="0" />
    </clipPath>
    <clipPath
       clipPathUnits="userSpaceOnUse"
       id="clipWmfPath7">
      <path
         d="m 55.222656,18.419922 0,0.05859 -0.117187,0 0,0.05859 -0.117188,0 0,0.05859 -0.06055,0 0,0.05859 -0.05859,0 0,0.05859 -0.05859,0 0,0.05859 -1.001953,0 0,10.828125 21.041015,0 0,-11.179687 -19.626953,0 z"
         id="path25"
         inkscape:connector-curvature="0" />
    </clipPath>
    <clipPath
       clipPathUnits="userSpaceOnUse"
       id="clipWmfPath8">
      <path
         d="m 55.222656,18.419922 0,0.05859 -0.117187,0 0,0.05859 -0.117188,0 0,0.05859 -0.06055,0 0,0.05859 -0.05859,0 0,0.05859 -0.05859,0 0,0.05859 -0.05859,0 0,0.119141 -0.943359,0 0,10.708984 21.041015,0 0,-11.179687 -19.626953,0 z"
         id="path28"
         inkscape:connector-curvature="0" />
    </clipPath>
    <clipPath
       clipPathUnits="userSpaceOnUse"
       id="clipWmfPath9">
      <path
         d="m 55.222656,18.419922 0,0.05859 -0.117187,0 0,0.05859 -0.117188,0 0,0.05859 -0.06055,0 0,0.05859 -0.05859,0 0,0.05859 -0.05859,0 0,0.05859 -0.05859,0 0,0.119141 -0.05859,0 0,0.05859 -0.884765,0 0,10.65039 21.041015,0 0,-11.179687 -19.626953,0 z"
         id="path31"
         inkscape:connector-curvature="0" />
    </clipPath>
    <clipPath
       clipPathUnits="userSpaceOnUse"
       id="clipWmfPath10">
      <path
         d="m 55.222656,18.419922 0,0.05859 -0.117187,0 0,0.05859 -0.117188,0 0,0.05859 -0.06055,0 0,0.05859 -0.05859,0 0,0.05859 -0.05859,0 0,0.05859 -0.05859,0 0,0.119141 -0.05859,0 0,0.05859 -0.05859,0 0,0.175781 -0.826172,0 0,10.474609 21.041015,0 0,-11.179687 -19.626953,0 z"
         id="path34"
         inkscape:connector-curvature="0" />
    </clipPath>
    <clipPath
       clipPathUnits="userSpaceOnUse"
       id="clipWmfPath11">
      <path
         d="m 55.222656,18.419922 0,0.05859 -0.117187,0 0,0.05859 -0.117188,0 0,0.05859 -0.06055,0 0,0.05859 -0.05859,0 0,0.05859 -0.05859,0 0,0.05859 -0.05859,0 0,0.119141 -0.05859,0 0,0.05859 -0.05859,0 0,0.175781 -0.06055,0 0,0.117188 -0.765625,0 0,10.357421 21.041015,0 0,-11.179687 -19.626953,0 z"
         id="path37"
         inkscape:connector-curvature="0" />
    </clipPath>
    <clipPath
       clipPathUnits="userSpaceOnUse"
       id="clipWmfPath12">
      <path
         d="m 55.222656,18.419922 0,0.05859 -0.117187,0 0,0.05859 -0.117188,0 0,0.05859 -0.06055,0 0,0.05859 -0.05859,0 0,0.05859 -0.05859,0 0,0.05859 -0.05859,0 0,0.119141 -0.05859,0 0,0.05859 -0.05859,0 0,0.175781 -0.06055,0 0,0.117188 -0.05859,0 0,0.11914 -0.707031,0 0,10.238281 21.041015,0 0,-11.179687 -19.626953,0 z"
         id="path40"
         inkscape:connector-curvature="0" />
    </clipPath>
    <clipPath
       clipPathUnits="userSpaceOnUse"
       id="clipWmfPath13">
      <path
         d="m 55.222656,18.419922 0,0.05859 -0.117187,0 0,0.05859 -0.117188,0 0,0.05859 -0.06055,0 0,0.05859 -0.05859,0 0,0.05859 -0.05859,0 0,0.05859 -0.05859,0 0,0.119141 -0.05859,0 0,0.05859 -0.05859,0 0,0.175781 -0.06055,0 0,0.117188 -0.05859,0 0,0.11914 -0.05859,0 0,0.175781 -0.648437,0 0,10.0625 21.041015,0 0,-11.179687 -19.626953,0 z"
         id="path43"
         inkscape:connector-curvature="0" />
    </clipPath>
    <clipPath
       clipPathUnits="userSpaceOnUse"
       id="clipWmfPath14">
      <path
         d="m 55.222656,18.419922 0,0.05859 -0.117187,0 0,0.05859 -0.117188,0 0,0.05859 -0.06055,0 0,0.05859 -0.05859,0 0,0.05859 -0.05859,0 0,0.05859 -0.05859,0 0,0.119141 -0.05859,0 0,0.05859 -0.05859,0 0,0.175781 -0.06055,0 0,0.117188 -0.05859,0 0,0.11914 -0.05859,0 0,0.175781 -0.05859,0 0,0.175782 -0.589844,0 0,9.886718 21.041015,0 0,-11.179687 -19.626953,0 z"
         id="path46"
         inkscape:connector-curvature="0" />
    </clipPath>
    <clipPath
       clipPathUnits="userSpaceOnUse"
       id="clipWmfPath15">
      <path
         d="m 55.222656,18.419922 0,0.05859 -0.117187,0 0,0.05859 -0.117188,0 0,0.05859 -0.06055,0 0,0.05859 -0.05859,0 0,0.05859 -0.05859,0 0,0.05859 -0.05859,0 0,0.119141 -0.05859,0 0,0.05859 -0.05859,0 0,0.175781 -0.06055,0 0,0.117188 -0.05859,0 0,0.11914 -0.05859,0 0,0.175781 -0.05859,0 0,0.175782 -0.05859,0 0,0.177734 -0.53125,0 0,9.708984 21.041015,0 0,-11.179687 -19.626953,0 z"
         id="path49"
         inkscape:connector-curvature="0" />
    </clipPath>
    <clipPath
       clipPathUnits="userSpaceOnUse"
       id="clipWmfPath16">
      <path
         d="m 55.222656,18.419922 0,0.05859 -0.117187,0 0,0.05859 -0.117188,0 0,0.05859 -0.06055,0 0,0.05859 -0.05859,0 0,0.05859 -0.05859,0 0,0.05859 -0.05859,0 0,0.119141 -0.05859,0 0,0.05859 -0.05859,0 0,0.175781 -0.06055,0 0,0.117188 -0.05859,0 0,0.11914 -0.05859,0 0,0.175781 -0.05859,0 0,0.175782 -0.05859,0 0,0.177734 -0.05859,0 0,0.234375 -0.472656,0 0,9.474609 21.041015,0 0,-11.179687 -19.626953,0 z"
         id="path52"
         inkscape:connector-curvature="0" />
    </clipPath>
    <clipPath
       clipPathUnits="userSpaceOnUse"
       id="clipWmfPath17">
      <path
         d="m 55.222656,18.419922 0,0.05859 -0.117187,0 0,0.05859 -0.117188,0 0,0.05859 -0.06055,0 0,0.05859 -0.05859,0 0,0.05859 -0.05859,0 0,0.05859 -0.05859,0 0,0.119141 -0.05859,0 0,0.05859 -0.05859,0 0,0.175781 -0.06055,0 0,0.117188 -0.05859,0 0,0.11914 -0.05859,0 0,0.175781 -0.05859,0 0,0.175782 -0.05859,0 0,0.177734 -0.05859,0 0,0.234375 -0.06055,0 0,0.236328 -0.412109,0 0,9.238281 21.041015,0 0,-11.179687 -19.626953,0 z"
         id="path55"
         inkscape:connector-curvature="0" />
    </clipPath>
    <clipPath
       clipPathUnits="userSpaceOnUse"
       id="clipWmfPath18">
      <path
         d="m 55.222656,18.419922 0,0.05859 -0.117187,0 0,0.05859 -0.117188,0 0,0.05859 -0.06055,0 0,0.05859 -0.05859,0 0,0.05859 -0.05859,0 0,0.05859 -0.05859,0 0,0.119141 -0.05859,0 0,0.05859 -0.05859,0 0,0.175781 -0.06055,0 0,0.117188 -0.05859,0 0,0.11914 -0.05859,0 0,0.175781 -0.05859,0 0,0.175782 -0.05859,0 0,0.177734 -0.05859,0 0,0.234375 -0.06055,0 0,0.236328 -0.05859,0 0,0.294922 -0.353515,0 0,8.943359 21.041015,0 0,-11.179687 -19.626953,0 z"
         id="path58"
         inkscape:connector-curvature="0" />
    </clipPath>
    <clipPath
       clipPathUnits="userSpaceOnUse"
       id="clipWmfPath19">
      <path
         d="m 55.222656,18.419922 0,0.05859 -0.117187,0 0,0.05859 -0.117188,0 0,0.05859 -0.06055,0 0,0.05859 -0.05859,0 0,0.05859 -0.05859,0 0,0.05859 -0.05859,0 0,0.119141 -0.05859,0 0,0.05859 -0.05859,0 0,0.175781 -0.06055,0 0,0.117188 -0.05859,0 0,0.11914 -0.05859,0 0,0.175781 -0.05859,0 0,0.175782 -0.05859,0 0,0.177734 -0.05859,0 0,0.234375 -0.06055,0 0,0.236328 -0.05859,0 0,0.294922 -0.05859,0 0,0.292969 -0.294922,0 0,8.65039 21.041015,0 0,-11.179687 -19.626953,0 z"
         id="path61"
         inkscape:connector-curvature="0" />
    </clipPath>
    <clipPath
       clipPathUnits="userSpaceOnUse"
       id="clipWmfPath20">
      <path
         d="m 55.222656,18.419922 0,0.05859 -0.117187,0 0,0.05859 -0.117188,0 0,0.05859 -0.06055,0 0,0.05859 -0.05859,0 0,0.05859 -0.05859,0 0,0.05859 -0.05859,0 0,0.119141 -0.05859,0 0,0.05859 -0.05859,0 0,0.175781 -0.06055,0 0,0.117188 -0.05859,0 0,0.11914 -0.05859,0 0,0.175781 -0.05859,0 0,0.175782 -0.05859,0 0,0.177734 -0.05859,0 0,0.234375 -0.06055,0 0,0.236328 -0.05859,0 0,0.294922 -0.05859,0 0,0.292969 -0.05859,0 0,0.470703 -0.236328,0 0,8.179687 21.041015,0 0,-11.179687 -19.626953,0 z"
         id="path64"
         inkscape:connector-curvature="0" />
    </clipPath>
    <clipPath
       clipPathUnits="userSpaceOnUse"
       id="clipWmfPath21">
      <path
         d="m 55.222656,18.419922 0,0.05859 -0.117187,0 0,0.05859 -0.117188,0 0,0.05859 -0.06055,0 0,0.05859 -0.05859,0 0,0.05859 -0.05859,0 0,0.05859 -0.05859,0 0,0.119141 -0.05859,0 0,0.05859 -0.05859,0 0,0.175781 -0.06055,0 0,0.117188 -0.05859,0 0,0.11914 -0.05859,0 0,0.175781 -0.05859,0 0,0.175782 -0.05859,0 0,0.177734 -0.05859,0 0,0.234375 -0.06055,0 0,0.236328 -0.05859,0 0,0.294922 -0.05859,0 0,0.292969 -0.05859,0 0,0.470703 -0.05859,0 0,0.412109 -0.177734,0 0,7.767578 21.041015,0 0,-11.179687 -19.626953,0 z"
         id="path67"
         inkscape:connector-curvature="0" />
    </clipPath>
    <clipPath
       clipPathUnits="userSpaceOnUse"
       id="clipWmfPath22">
      <path
         d="m 55.222656,18.419922 0,0.05859 -0.117187,0 0,0.05859 -0.117188,0 0,0.05859 -0.06055,0 0,0.05859 -0.05859,0 0,0.05859 -0.05859,0 0,0.05859 -0.05859,0 0,0.119141 -0.05859,0 0,0.05859 -0.05859,0 0,0.175781 -0.06055,0 0,0.117188 -0.05859,0 0,0.11914 -0.05859,0 0,0.175781 -0.05859,0 0,0.175782 -0.05859,0 0,0.177734 -0.05859,0 0,0.234375 -0.06055,0 0,0.236328 -0.05859,0 0,0.294922 -0.05859,0 0,0.292969 -0.05859,0 0,0.470703 -0.05859,0 0,0.412109 -0.05859,0 0,0.707031 -0.11914,0 0,7.060547 21.041015,0 0,-11.179687 -19.626953,0 z"
         id="path70"
         inkscape:connector-curvature="0" />
    </clipPath>
    <clipPath
       clipPathUnits="userSpaceOnUse"
       id="clipWmfPath23">
      <path
         d="m 55.222656,18.419922 0,0.05859 -0.117187,0 0,0.05859 -0.117188,0 0,0.05859 -0.06055,0 0,0.05859 -0.05859,0 0,0.05859 -0.05859,0 0,0.05859 -0.05859,0 0,0.119141 -0.05859,0 0,0.05859 -0.05859,0 0,0.175781 -0.06055,0 0,0.117188 -0.05859,0 0,0.11914 -0.05859,0 0,0.175781 -0.05859,0 0,0.175782 -0.05859,0 0,0.177734 -0.05859,0 0,0.234375 -0.06055,0 0,0.236328 -0.05859,0 0,0.294922 -0.05859,0 0,0.292969 -0.05859,0 0,0.470703 -0.05859,0 0,0.412109 -0.05859,0 0,0.707031 -0.06055,0 0,1.470704 -0.05859,0 0,5.589843 21.041015,0 0,-11.179687 -19.626953,0 z"
         id="path73"
         inkscape:connector-curvature="0" />
    </clipPath>
    <clipPath
       clipPathUnits="userSpaceOnUse"
       id="clipWmfPath24">
      <path
         d="m 55.222656,18.419922 0,0.05859 -0.117187,0 0,0.05859 -0.117188,0 0,0.05859 -0.06055,0 0,0.05859 -0.05859,0 0,0.05859 -0.05859,0 0,0.05859 -0.05859,0 0,0.119141 -0.05859,0 0,0.05859 -0.05859,0 0,0.175781 -0.06055,0 0,0.117188 -0.05859,0 0,0.11914 -0.05859,0 0,0.175781 -0.05859,0 0,0.175782 -0.05859,0 0,0.177734 -0.05859,0 0,0.234375 -0.06055,0 0,0.236328 -0.05859,0 0,0.294922 -0.05859,0 0,0.292969 -0.05859,0 0,0.470703 -0.05859,0 0,0.412109 -0.05859,0 0,0.707031 -0.06055,0 0,1.470704 -0.05859,0 0,0.05859 0.05859,0 0,1.470703 -0.05859,0 0,4.060547 21.041015,0 0,-11.179687 -19.626953,0 z"
         id="path76"
         inkscape:connector-curvature="0" />
    </clipPath>
    <clipPath
       clipPathUnits="userSpaceOnUse"
       id="clipWmfPath25">
      <path
         d="m 55.222656,18.419922 0,0.05859 -0.117187,0 0,0.05859 -0.117188,0 0,0.05859 -0.06055,0 0,0.05859 -0.05859,0 0,0.05859 -0.05859,0 0,0.05859 -0.05859,0 0,0.119141 -0.05859,0 0,0.05859 -0.05859,0 0,0.175781 -0.06055,0 0,0.117188 -0.05859,0 0,0.11914 -0.05859,0 0,0.175781 -0.05859,0 0,0.175782 -0.05859,0 0,0.177734 -0.05859,0 0,0.234375 -0.06055,0 0,0.236328 -0.05859,0 0,0.294922 -0.05859,0 0,0.292969 -0.05859,0 0,0.470703 -0.05859,0 0,0.412109 -0.05859,0 0,0.707031 -0.06055,0 0,1.470704 -0.05859,0 0,0.05859 0.05859,0 0,1.470703 0.06055,0 0,0.707032 -0.11914,0 0,3.353515 21.041015,0 0,-11.179687 -19.626953,0 z"
         id="path79"
         inkscape:connector-curvature="0" />
    </clipPath>
    <clipPath
       clipPathUnits="userSpaceOnUse"
       id="clipWmfPath26">
      <path
         d="m 55.222656,18.419922 0,0.05859 -0.117187,0 0,0.05859 -0.117188,0 0,0.05859 -0.06055,0 0,0.05859 -0.05859,0 0,0.05859 -0.05859,0 0,0.05859 -0.05859,0 0,0.119141 -0.05859,0 0,0.05859 -0.05859,0 0,0.175781 -0.06055,0 0,0.117188 -0.05859,0 0,0.11914 -0.05859,0 0,0.175781 -0.05859,0 0,0.175782 -0.05859,0 0,0.177734 -0.05859,0 0,0.234375 -0.06055,0 0,0.236328 -0.05859,0 0,0.294922 -0.05859,0 0,0.292969 -0.05859,0 0,0.470703 -0.05859,0 0,0.412109 -0.05859,0 0,0.707031 -0.06055,0 0,1.470704 -0.05859,0 0,0.05859 0.05859,0 0,1.470703 0.06055,0 0,0.707032 0.05859,0 0,0.412109 -0.177734,0 0,2.941406 21.041015,0 0,-11.179687 -19.626953,0 z"
         id="path82"
         inkscape:connector-curvature="0" />
    </clipPath>
    <clipPath
       clipPathUnits="userSpaceOnUse"
       id="clipWmfPath27">
      <path
         d="m 55.222656,18.419922 0,0.05859 -0.117187,0 0,0.05859 -0.117188,0 0,0.05859 -0.06055,0 0,0.05859 -0.05859,0 0,0.05859 -0.05859,0 0,0.05859 -0.05859,0 0,0.119141 -0.05859,0 0,0.05859 -0.05859,0 0,0.175781 -0.06055,0 0,0.117188 -0.05859,0 0,0.11914 -0.05859,0 0,0.175781 -0.05859,0 0,0.175782 -0.05859,0 0,0.177734 -0.05859,0 0,0.234375 -0.06055,0 0,0.236328 -0.05859,0 0,0.294922 -0.05859,0 0,0.292969 -0.05859,0 0,0.470703 -0.05859,0 0,0.412109 -0.05859,0 0,0.707031 -0.06055,0 0,1.470704 -0.05859,0 0,0.05859 0.05859,0 0,1.470703 0.06055,0 0,0.707032 0.05859,0 0,0.412109 0.05859,0 0,0.412109 -0.236328,0 0,2.529297 21.041015,0 0,-11.179687 -19.626953,0 z"
         id="path85"
         inkscape:connector-curvature="0" />
    </clipPath>
    <clipPath
       clipPathUnits="userSpaceOnUse"
       id="clipWmfPath28">
      <path
         d="m 55.222656,18.419922 0,0.05859 -0.117187,0 0,0.05859 -0.117188,0 0,0.05859 -0.06055,0 0,0.05859 -0.05859,0 0,0.05859 -0.05859,0 0,0.05859 -0.05859,0 0,0.119141 -0.05859,0 0,0.05859 -0.05859,0 0,0.175781 -0.06055,0 0,0.117188 -0.05859,0 0,0.11914 -0.05859,0 0,0.175781 -0.05859,0 0,0.175782 -0.05859,0 0,0.177734 -0.05859,0 0,0.234375 -0.06055,0 0,0.236328 -0.05859,0 0,0.294922 -0.05859,0 0,0.292969 -0.05859,0 0,0.470703 -0.05859,0 0,0.412109 -0.05859,0 0,0.707031 -0.06055,0 0,1.470704 -0.05859,0 0,0.05859 0.05859,0 0,1.470703 0.06055,0 0,0.707032 0.05859,0 0,0.412109 0.05859,0 0,0.412109 0.05859,0 0,0.292969 -0.294922,0 0,2.236328 21.041015,0 0,-11.179687 -19.626953,0 z"
         id="path88"
         inkscape:connector-curvature="0" />
    </clipPath>
    <clipPath
       clipPathUnits="userSpaceOnUse"
       id="clipWmfPath29">
      <path
         d="m 55.222656,18.419922 0,0.05859 -0.117187,0 0,0.05859 -0.117188,0 0,0.05859 -0.06055,0 0,0.05859 -0.05859,0 0,0.05859 -0.05859,0 0,0.05859 -0.05859,0 0,0.119141 -0.05859,0 0,0.05859 -0.05859,0 0,0.175781 -0.06055,0 0,0.117188 -0.05859,0 0,0.11914 -0.05859,0 0,0.175781 -0.05859,0 0,0.175782 -0.05859,0 0,0.177734 -0.05859,0 0,0.234375 -0.06055,0 0,0.236328 -0.05859,0 0,0.294922 -0.05859,0 0,0.292969 -0.05859,0 0,0.470703 -0.05859,0 0,0.412109 -0.05859,0 0,0.707031 -0.06055,0 0,1.470704 -0.05859,0 0,0.05859 0.05859,0 0,1.470703 0.06055,0 0,0.707032 0.05859,0 0,0.412109 0.05859,0 0,0.412109 0.05859,0 0,0.292969 0.05859,0 0,0.294922 -0.353515,0 0,1.941406 21.041015,0 0,-11.179687 -19.626953,0 z"
         id="path91"
         inkscape:connector-curvature="0" />
    </clipPath>
    <clipPath
       clipPathUnits="userSpaceOnUse"
       id="clipWmfPath30">
      <path
         d="m 55.222656,18.419922 0,0.05859 -0.117187,0 0,0.05859 -0.117188,0 0,0.05859 -0.06055,0 0,0.05859 -0.05859,0 0,0.05859 -0.05859,0 0,0.05859 -0.05859,0 0,0.119141 -0.05859,0 0,0.05859 -0.05859,0 0,0.175781 -0.06055,0 0,0.117188 -0.05859,0 0,0.11914 -0.05859,0 0,0.175781 -0.05859,0 0,0.175782 -0.05859,0 0,0.177734 -0.05859,0 0,0.234375 -0.06055,0 0,0.236328 -0.05859,0 0,0.294922 -0.05859,0 0,0.292969 -0.05859,0 0,0.470703 -0.05859,0 0,0.412109 -0.05859,0 0,0.707031 -0.06055,0 0,1.470704 -0.05859,0 0,0.05859 0.05859,0 0,1.470703 0.06055,0 0,0.707032 0.05859,0 0,0.412109 0.05859,0 0,0.412109 0.05859,0 0,0.292969 0.05859,0 0,0.294922 0.05859,0 0,0.294922 -0.412109,0 0,1.646484 21.041015,0 0,-11.179687 -19.626953,0 z"
         id="path94"
         inkscape:connector-curvature="0" />
    </clipPath>
    <clipPath
       clipPathUnits="userSpaceOnUse"
       id="clipWmfPath31">
      <path
         d="m 55.222656,18.419922 0,0.05859 -0.117187,0 0,0.05859 -0.117188,0 0,0.05859 -0.06055,0 0,0.05859 -0.05859,0 0,0.05859 -0.05859,0 0,0.05859 -0.05859,0 0,0.119141 -0.05859,0 0,0.05859 -0.05859,0 0,0.175781 -0.06055,0 0,0.117188 -0.05859,0 0,0.11914 -0.05859,0 0,0.175781 -0.05859,0 0,0.175782 -0.05859,0 0,0.177734 -0.05859,0 0,0.234375 -0.06055,0 0,0.236328 -0.05859,0 0,0.294922 -0.05859,0 0,0.292969 -0.05859,0 0,0.470703 -0.05859,0 0,0.412109 -0.05859,0 0,0.707031 -0.06055,0 0,1.470704 -0.05859,0 0,0.05859 0.05859,0 0,1.470703 0.06055,0 0,0.707032 0.05859,0 0,0.412109 0.05859,0 0,0.412109 0.05859,0 0,0.292969 0.05859,0 0,0.294922 0.05859,0 0,0.294922 0.06055,0 0,0.175781 -0.472656,0 0,1.470703 21.041015,0 0,-11.179687 -19.626953,0 z"
         id="path97"
         inkscape:connector-curvature="0" />
    </clipPath>
    <clipPath
       clipPathUnits="userSpaceOnUse"
       id="clipWmfPath32">
      <path
         d="m 55.222656,18.419922 0,0.05859 -0.117187,0 0,0.05859 -0.117188,0 0,0.05859 -0.06055,0 0,0.05859 -0.05859,0 0,0.05859 -0.05859,0 0,0.05859 -0.05859,0 0,0.119141 -0.05859,0 0,0.05859 -0.05859,0 0,0.175781 -0.06055,0 0,0.117188 -0.05859,0 0,0.11914 -0.05859,0 0,0.175781 -0.05859,0 0,0.175782 -0.05859,0 0,0.177734 -0.05859,0 0,0.234375 -0.06055,0 0,0.236328 -0.05859,0 0,0.294922 -0.05859,0 0,0.292969 -0.05859,0 0,0.470703 -0.05859,0 0,0.412109 -0.05859,0 0,0.707031 -0.06055,0 0,1.470704 -0.05859,0 0,0.05859 0.05859,0 0,1.470703 0.06055,0 0,0.707032 0.05859,0 0,0.412109 0.05859,0 0,0.412109 0.05859,0 0,0.292969 0.05859,0 0,0.294922 0.05859,0 0,0.294922 0.06055,0 0,0.175781 0.05859,0 0,0.236328 -0.53125,0 0,1.234375 21.041015,0 0,-11.179687 -19.626953,0 z"
         id="path100"
         inkscape:connector-curvature="0" />
    </clipPath>
    <clipPath
       clipPathUnits="userSpaceOnUse"
       id="clipWmfPath33">
      <path
         d="m 55.222656,18.419922 0,0.05859 -0.117187,0 0,0.05859 -0.117188,0 0,0.05859 -0.06055,0 0,0.05859 -0.05859,0 0,0.05859 -0.05859,0 0,0.05859 -0.05859,0 0,0.119141 -0.05859,0 0,0.05859 -0.05859,0 0,0.175781 -0.06055,0 0,0.117188 -0.05859,0 0,0.11914 -0.05859,0 0,0.175781 -0.05859,0 0,0.175782 -0.05859,0 0,0.177734 -0.05859,0 0,0.234375 -0.06055,0 0,0.236328 -0.05859,0 0,0.294922 -0.05859,0 0,0.292969 -0.05859,0 0,0.470703 -0.05859,0 0,0.412109 -0.05859,0 0,0.707031 -0.06055,0 0,1.470704 -0.05859,0 0,0.05859 0.05859,0 0,1.470703 0.06055,0 0,0.707032 0.05859,0 0,0.412109 0.05859,0 0,0.412109 0.05859,0 0,0.292969 0.05859,0 0,0.294922 0.05859,0 0,0.294922 0.06055,0 0,0.175781 0.05859,0 0,0.236328 0.05859,0 0,0.175782 -0.589844,0 0,1.058593 21.041015,0 0,-11.179687 -19.626953,0 z"
         id="path103"
         inkscape:connector-curvature="0" />
    </clipPath>
    <clipPath
       clipPathUnits="userSpaceOnUse"
       id="clipWmfPath34">
      <path
         d="m 55.222656,18.419922 0,0.05859 -0.117187,0 0,0.05859 -0.117188,0 0,0.05859 -0.06055,0 0,0.05859 -0.05859,0 0,0.05859 -0.05859,0 0,0.05859 -0.05859,0 0,0.119141 -0.05859,0 0,0.05859 -0.05859,0 0,0.175781 -0.06055,0 0,0.117188 -0.05859,0 0,0.11914 -0.05859,0 0,0.175781 -0.05859,0 0,0.175782 -0.05859,0 0,0.177734 -0.05859,0 0,0.234375 -0.06055,0 0,0.236328 -0.05859,0 0,0.294922 -0.05859,0 0,0.292969 -0.05859,0 0,0.470703 -0.05859,0 0,0.412109 -0.05859,0 0,0.707031 -0.06055,0 0,1.470704 -0.05859,0 0,0.05859 0.05859,0 0,1.470703 0.06055,0 0,0.707032 0.05859,0 0,0.412109 0.05859,0 0,0.412109 0.05859,0 0,0.292969 0.05859,0 0,0.294922 0.05859,0 0,0.294922 0.06055,0 0,0.175781 0.05859,0 0,0.236328 0.05859,0 0,0.175782 0.05859,0 0,0.175781 -0.648437,0 0,0.882812 21.041015,0 0,-11.179687 -19.626953,0 z"
         id="path106"
         inkscape:connector-curvature="0" />
    </clipPath>
    <clipPath
       clipPathUnits="userSpaceOnUse"
       id="clipWmfPath35">
      <path
         d="m 55.222656,18.419922 0,0.05859 -0.117187,0 0,0.05859 -0.117188,0 0,0.05859 -0.06055,0 0,0.05859 -0.05859,0 0,0.05859 -0.05859,0 0,0.05859 -0.05859,0 0,0.119141 -0.05859,0 0,0.05859 -0.05859,0 0,0.175781 -0.06055,0 0,0.117188 -0.05859,0 0,0.11914 -0.05859,0 0,0.175781 -0.05859,0 0,0.175782 -0.05859,0 0,0.177734 -0.05859,0 0,0.234375 -0.06055,0 0,0.236328 -0.05859,0 0,0.294922 -0.05859,0 0,0.292969 -0.05859,0 0,0.470703 -0.05859,0 0,0.412109 -0.05859,0 0,0.707031 -0.06055,0 0,1.470704 -0.05859,0 0,0.05859 0.05859,0 0,1.470703 0.06055,0 0,0.707032 0.05859,0 0,0.412109 0.05859,0 0,0.412109 0.05859,0 0,0.292969 0.05859,0 0,0.294922 0.05859,0 0,0.294922 0.06055,0 0,0.175781 0.05859,0 0,0.236328 0.05859,0 0,0.175782 0.05859,0 0,0.175781 0.05859,0 0,0.119141 -0.707031,0 0,0.763671 21.041015,0 0,-11.179687 -19.626953,0 z"
         id="path109"
         inkscape:connector-curvature="0" />
    </clipPath>
    <clipPath
       clipPathUnits="userSpaceOnUse"
       id="clipWmfPath36">
      <path
         d="m 55.222656,18.419922 0,0.05859 -0.117187,0 0,0.05859 -0.117188,0 0,0.05859 -0.06055,0 0,0.05859 -0.05859,0 0,0.05859 -0.05859,0 0,0.05859 -0.05859,0 0,0.119141 -0.05859,0 0,0.05859 -0.05859,0 0,0.175781 -0.06055,0 0,0.117188 -0.05859,0 0,0.11914 -0.05859,0 0,0.175781 -0.05859,0 0,0.175782 -0.05859,0 0,0.177734 -0.05859,0 0,0.234375 -0.06055,0 0,0.236328 -0.05859,0 0,0.294922 -0.05859,0 0,0.292969 -0.05859,0 0,0.470703 -0.05859,0 0,0.412109 -0.05859,0 0,0.707031 -0.06055,0 0,1.470704 -0.05859,0 0,0.05859 0.05859,0 0,1.470703 0.06055,0 0,0.707032 0.05859,0 0,0.412109 0.05859,0 0,0.412109 0.05859,0 0,0.292969 0.05859,0 0,0.294922 0.05859,0 0,0.294922 0.06055,0 0,0.175781 0.05859,0 0,0.236328 0.05859,0 0,0.175782 0.05859,0 0,0.175781 0.05859,0 0,0.119141 0.05859,0 0,0.117187 -0.765625,0 0,0.646484 21.041015,0 0,-11.179687 -19.626953,0 z"
         id="path112"
         inkscape:connector-curvature="0" />
    </clipPath>
    <clipPath
       clipPathUnits="userSpaceOnUse"
       id="clipWmfPath37">
      <path
         d="m 55.222656,18.419922 0,0.05859 -0.117187,0 0,0.05859 -0.117188,0 0,0.05859 -0.06055,0 0,0.05859 -0.05859,0 0,0.05859 -0.05859,0 0,0.05859 -0.05859,0 0,0.119141 -0.05859,0 0,0.05859 -0.05859,0 0,0.175781 -0.06055,0 0,0.117188 -0.05859,0 0,0.11914 -0.05859,0 0,0.175781 -0.05859,0 0,0.175782 -0.05859,0 0,0.177734 -0.05859,0 0,0.234375 -0.06055,0 0,0.236328 -0.05859,0 0,0.294922 -0.05859,0 0,0.292969 -0.05859,0 0,0.470703 -0.05859,0 0,0.412109 -0.05859,0 0,0.707031 -0.06055,0 0,1.470704 -0.05859,0 0,0.05859 0.05859,0 0,1.470703 0.06055,0 0,0.707032 0.05859,0 0,0.412109 0.05859,0 0,0.412109 0.05859,0 0,0.292969 0.05859,0 0,0.294922 0.05859,0 0,0.294922 0.06055,0 0,0.175781 0.05859,0 0,0.236328 0.05859,0 0,0.175782 0.05859,0 0,0.175781 0.05859,0 0,0.119141 0.05859,0 0,0.117187 0.06055,0 0,0.117187 -0.826172,0 0,0.529297 21.041015,0 0,-11.179687 -19.626953,0 z"
         id="path115"
         inkscape:connector-curvature="0" />
    </clipPath>
    <clipPath
       clipPathUnits="userSpaceOnUse"
       id="clipWmfPath38">
      <path
         d="m 55.222656,18.419922 0,0.05859 -0.117187,0 0,0.05859 -0.117188,0 0,0.05859 -0.06055,0 0,0.05859 -0.05859,0 0,0.05859 -0.05859,0 0,0.05859 -0.05859,0 0,0.119141 -0.05859,0 0,0.05859 -0.05859,0 0,0.175781 -0.06055,0 0,0.117188 -0.05859,0 0,0.11914 -0.05859,0 0,0.175781 -0.05859,0 0,0.175782 -0.05859,0 0,0.177734 -0.05859,0 0,0.234375 -0.06055,0 0,0.236328 -0.05859,0 0,0.294922 -0.05859,0 0,0.292969 -0.05859,0 0,0.470703 -0.05859,0 0,0.412109 -0.05859,0 0,0.707031 -0.06055,0 0,1.470704 -0.05859,0 0,0.05859 0.05859,0 0,1.470703 0.06055,0 0,0.707032 0.05859,0 0,0.412109 0.05859,0 0,0.412109 0.05859,0 0,0.292969 0.05859,0 0,0.294922 0.05859,0 0,0.294922 0.06055,0 0,0.175781 0.05859,0 0,0.236328 0.05859,0 0,0.175782 0.05859,0 0,0.175781 0.05859,0 0,0.119141 0.05859,0 0,0.117187 0.06055,0 0,0.117187 0.05859,0 0,0.117188 -0.884765,0 0,0.412109 21.041015,0 0,-11.179687 -19.626953,0 z"
         id="path118"
         inkscape:connector-curvature="0" />
    </clipPath>
    <clipPath
       clipPathUnits="userSpaceOnUse"
       id="clipWmfPath39">
      <path
         d="m 55.222656,18.419922 0,0.05859 -0.117187,0 0,0.05859 -0.117188,0 0,0.05859 -0.06055,0 0,0.05859 -0.05859,0 0,0.05859 -0.05859,0 0,0.05859 -0.05859,0 0,0.119141 -0.05859,0 0,0.05859 -0.05859,0 0,0.175781 -0.06055,0 0,0.117188 -0.05859,0 0,0.11914 -0.05859,0 0,0.175781 -0.05859,0 0,0.175782 -0.05859,0 0,0.177734 -0.05859,0 0,0.234375 -0.06055,0 0,0.236328 -0.05859,0 0,0.294922 -0.05859,0 0,0.292969 -0.05859,0 0,0.470703 -0.05859,0 0,0.412109 -0.05859,0 0,0.707031 -0.06055,0 0,1.470704 -0.05859,0 0,0.05859 0.05859,0 0,1.470703 0.06055,0 0,0.707032 0.05859,0 0,0.412109 0.05859,0 0,0.412109 0.05859,0 0,0.292969 0.05859,0 0,0.294922 0.05859,0 0,0.294922 0.06055,0 0,0.175781 0.05859,0 0,0.236328 0.05859,0 0,0.175782 0.05859,0 0,0.175781 0.05859,0 0,0.119141 0.05859,0 0,0.117187 0.06055,0 0,0.117187 0.05859,0 0,0.117188 0.05859,0 0,0.119141 -0.943359,0 0,0.292968 21.041015,0 0,-11.179687 -19.626953,0 z"
         id="path121"
         inkscape:connector-curvature="0" />
    </clipPath>
    <clipPath
       clipPathUnits="userSpaceOnUse"
       id="clipWmfPath40">
      <path
         d="m 55.222656,18.419922 0,0.05859 -0.117187,0 0,0.05859 -0.117188,0 0,0.05859 -0.06055,0 0,0.05859 -0.05859,0 0,0.05859 -0.05859,0 0,0.05859 -0.05859,0 0,0.119141 -0.05859,0 0,0.05859 -0.05859,0 0,0.175781 -0.06055,0 0,0.117188 -0.05859,0 0,0.11914 -0.05859,0 0,0.175781 -0.05859,0 0,0.175782 -0.05859,0 0,0.177734 -0.05859,0 0,0.234375 -0.06055,0 0,0.236328 -0.05859,0 0,0.294922 -0.05859,0 0,0.292969 -0.05859,0 0,0.470703 -0.05859,0 0,0.412109 -0.05859,0 0,0.707031 -0.06055,0 0,1.470704 -0.05859,0 0,0.05859 0.05859,0 0,1.470703 0.06055,0 0,0.707032 0.05859,0 0,0.412109 0.05859,0 0,0.412109 0.05859,0 0,0.292969 0.05859,0 0,0.294922 0.05859,0 0,0.294922 0.06055,0 0,0.175781 0.05859,0 0,0.236328 0.05859,0 0,0.175782 0.05859,0 0,0.175781 0.05859,0 0,0.119141 0.05859,0 0,0.117187 0.06055,0 0,0.117187 0.05859,0 0,0.117188 0.05859,0 0,0.119141 0.05859,0 0,0.05859 -1.001953,0 0,0.234375 21.041015,0 0,-11.179687 -19.626953,0 z"
         id="path124"
         inkscape:connector-curvature="0" />
    </clipPath>
    <clipPath
       clipPathUnits="userSpaceOnUse"
       id="clipWmfPath41">
      <path
         d="m 55.222656,18.419922 0,0.05859 -0.117187,0 0,0.05859 -0.117188,0 0,0.05859 -0.06055,0 0,0.05859 -0.05859,0 0,0.05859 -0.05859,0 0,0.05859 -0.05859,0 0,0.119141 -0.05859,0 0,0.05859 -0.05859,0 0,0.175781 -0.06055,0 0,0.117188 -0.05859,0 0,0.11914 -0.05859,0 0,0.175781 -0.05859,0 0,0.175782 -0.05859,0 0,0.177734 -0.05859,0 0,0.234375 -0.06055,0 0,0.236328 -0.05859,0 0,0.294922 -0.05859,0 0,0.292969 -0.05859,0 0,0.470703 -0.05859,0 0,0.412109 -0.05859,0 0,0.707031 -0.06055,0 0,1.470704 -0.05859,0 0,0.05859 0.05859,0 0,1.470703 0.06055,0 0,0.707032 0.05859,0 0,0.412109 0.05859,0 0,0.412109 0.05859,0 0,0.292969 0.05859,0 0,0.294922 0.05859,0 0,0.294922 0.06055,0 0,0.175781 0.05859,0 0,0.236328 0.05859,0 0,0.175782 0.05859,0 0,0.175781 0.05859,0 0,0.119141 0.05859,0 0,0.117187 0.06055,0 0,0.117187 0.05859,0 0,0.117188 0.05859,0 0,0.119141 0.05859,0 0,0.05859 0.05859,0 0,0.05859 -1.060547,0 0,0.175781 21.041015,0 0,-11.179687 -19.626953,0 z"
         id="path127"
         inkscape:connector-curvature="0" />
    </clipPath>
    <clipPath
       clipPathUnits="userSpaceOnUse"
       id="clipWmfPath42">
      <path
         d="m 55.222656,18.419922 0,0.05859 -0.117187,0 0,0.05859 -0.117188,0 0,0.05859 -0.06055,0 0,0.05859 -0.05859,0 0,0.05859 -0.05859,0 0,0.05859 -0.05859,0 0,0.119141 -0.05859,0 0,0.05859 -0.05859,0 0,0.175781 -0.06055,0 0,0.117188 -0.05859,0 0,0.11914 -0.05859,0 0,0.175781 -0.05859,0 0,0.175782 -0.05859,0 0,0.177734 -0.05859,0 0,0.234375 -0.06055,0 0,0.236328 -0.05859,0 0,0.294922 -0.05859,0 0,0.292969 -0.05859,0 0,0.470703 -0.05859,0 0,0.412109 -0.05859,0 0,0.707031 -0.06055,0 0,1.470704 -0.05859,0 0,0.05859 0.05859,0 0,1.470703 0.06055,0 0,0.707032 0.05859,0 0,0.412109 0.05859,0 0,0.412109 0.05859,0 0,0.292969 0.05859,0 0,0.294922 0.05859,0 0,0.294922 0.06055,0 0,0.175781 0.05859,0 0,0.236328 0.05859,0 0,0.175782 0.05859,0 0,0.175781 0.05859,0 0,0.119141 0.05859,0 0,0.117187 0.06055,0 0,0.117187 0.05859,0 0,0.117188 0.05859,0 0,0.119141 0.05859,0 0,0.05859 0.05859,0 0,0.05859 0.05859,0 0,0.05859 -1.11914,0 0,0.117187 21.041015,0 0,-11.179687 -19.626953,0 z"
         id="path130"
         inkscape:connector-curvature="0" />
    </clipPath>
    <clipPath
       clipPathUnits="userSpaceOnUse"
       id="clipWmfPath43">
      <path
         d="m 55.222656,18.419922 0,0.05859 -0.117187,0 0,0.05859 -0.117188,0 0,0.05859 -0.06055,0 0,0.05859 -0.05859,0 0,0.05859 -0.05859,0 0,0.05859 -0.05859,0 0,0.119141 -0.05859,0 0,0.05859 -0.05859,0 0,0.175781 -0.06055,0 0,0.117188 -0.05859,0 0,0.11914 -0.05859,0 0,0.175781 -0.05859,0 0,0.175782 -0.05859,0 0,0.177734 -0.05859,0 0,0.234375 -0.06055,0 0,0.236328 -0.05859,0 0,0.294922 -0.05859,0 0,0.292969 -0.05859,0 0,0.470703 -0.05859,0 0,0.412109 -0.05859,0 0,0.707031 -0.06055,0 0,1.470704 -0.05859,0 0,0.05859 0.05859,0 0,1.470703 0.06055,0 0,0.707032 0.05859,0 0,0.412109 0.05859,0 0,0.412109 0.05859,0 0,0.292969 0.05859,0 0,0.294922 0.05859,0 0,0.294922 0.06055,0 0,0.175781 0.05859,0 0,0.236328 0.05859,0 0,0.175782 0.05859,0 0,0.175781 0.05859,0 0,0.119141 0.05859,0 0,0.117187 0.06055,0 0,0.117187 0.05859,0 0,0.117188 0.05859,0 0,0.119141 0.05859,0 0,0.05859 0.05859,0 0,0.05859 0.05859,0 0,0.05859 0.06055,0 0,0.05859 -1.179687,0 0,0.05859 21.041015,0 0,-11.179687 -19.626953,0 z"
         id="path133"
         inkscape:connector-curvature="0" />
    </clipPath>
    <clipPath
       clipPathUnits="userSpaceOnUse"
       id="clipWmfPath44">
      <path
         d="m 55.222656,18.419922 0,0.05859 -0.117187,0 0,0.05859 -0.117188,0 0,0.05859 -0.06055,0 0,0.05859 -0.05859,0 0,0.05859 -0.05859,0 0,0.05859 -0.05859,0 0,0.119141 -0.05859,0 0,0.05859 -0.05859,0 0,0.175781 -0.06055,0 0,0.117188 -0.05859,0 0,0.11914 -0.05859,0 0,0.175781 -0.05859,0 0,0.175782 -0.05859,0 0,0.177734 -0.05859,0 0,0.234375 -0.06055,0 0,0.236328 -0.05859,0 0,0.294922 -0.05859,0 0,0.292969 -0.05859,0 0,0.470703 -0.05859,0 0,0.412109 -0.05859,0 0,0.707031 -0.06055,0 0,1.470704 -0.05859,0 0,0.05859 0.05859,0 0,1.470703 0.06055,0 0,0.707032 0.05859,0 0,0.412109 0.05859,0 0,0.412109 0.05859,0 0,0.292969 0.05859,0 0,0.294922 0.05859,0 0,0.294922 0.06055,0 0,0.175781 0.05859,0 0,0.236328 0.05859,0 0,0.175782 0.05859,0 0,0.175781 0.05859,0 0,0.119141 0.05859,0 0,0.117187 0.06055,0 0,0.117187 0.05859,0 0,0.117188 0.05859,0 0,0.119141 0.05859,0 0,0.05859 0.05859,0 0,0.05859 0.05859,0 0,0.05859 0.06055,0 0,0.05859 0.05859,0 0,0.05859 19.802734,0 0,-11.179687 -19.626953,0 z"
         id="path136"
         inkscape:connector-curvature="0" />
    </clipPath>
    <pattern
       id="WMFhbasepattern"
       patternUnits="userSpaceOnUse"
       width="6"
       height="6"
       x="0"
       y="0" />
  </defs>
  <path
     style="fill:#ccffcc;fill-opacity:1;fill-rule:evenodd;stroke:none"
     d="m 0.51562769,0.43180847 0,12.65528753 20.60847931,0 0,-12.65528753 -20.60847931,0 z"
     id="path139"
     inkscape:connector-curvature="0" />
  <path
     style="fill:none;stroke:#000000;stroke-width:0.08316582px;stroke-linecap:round;stroke-linejoin:round;stroke-miterlimit:4;stroke-dasharray:none;stroke-opacity:1"
     d="m 0.51562769,13.087096 20.60847931,0 0,-12.65528753 -20.60847931,0 0,12.65528753 z"
     id="path141"
     inkscape:connector-curvature="0" />
  <path
     style="fill:#ccffff;fill-opacity:1;fill-rule:evenodd;stroke:none"
     d="m 6.4703106,11.907943 3.5594994,-1.777068 0,-7.1248132 -3.5594994,-1.7770687 0,10.6789499 z"
     id="path143"
     inkscape:connector-curvature="0" />
  <path
     style="fill:none;stroke:#000000;stroke-width:0.24949744px;stroke-linecap:round;stroke-linejoin:round;stroke-miterlimit:4;stroke-dasharray:none;stroke-opacity:1"
     d="m 6.4703106,11.907943 3.5594994,-1.777068 0,-7.1248132 -3.5594994,-1.7770687 0,10.6789499 z"
     id="path145"
     inkscape:connector-curvature="0" />
  <path
     style="fill:#ffff99;fill-opacity:1;fill-rule:evenodd;stroke:none"
     d="m 0.51562769,1.2289931 0,11.0775329 4.75707291,0 0,-11.0775329 -4.75707291,0 z"
     id="path147"
     inkscape:connector-curvature="0" />
  <path
     style="fill:none;stroke:#000000;stroke-width:0.08316582px;stroke-linecap:round;stroke-linejoin:round;stroke-miterlimit:4;stroke-dasharray:none;stroke-opacity:1"
     d="m 0.51562769,12.306526 4.75707291,0 0,-11.0775329 -4.75707291,0 0,11.0775329 z"
     id="path149"
     inkscape:connector-curvature="0" />
  <path
     style="fill:none;stroke:#000000;stroke-width:0.24949744px;stroke-linecap:round;stroke-linejoin:round;stroke-miterlimit:4;stroke-dasharray:none;stroke-opacity:1"
     d="m 5.2727006,6.759448 1.19761,0 -1.19761,0 z"
     id="path151"
     inkscape:connector-curvature="0" />
  <path
     style="fill:none;stroke:#000000;stroke-width:0.24949744px;stroke-linecap:round;stroke-linejoin:round;stroke-miterlimit:4;stroke-dasharray:none;stroke-opacity:1"
     d="m 0.51562769,1.2289931 4.75707291,0 0,11.0775329 -4.75707291,0"
     id="path153"
     inkscape:connector-curvature="0" />
  <path
     style="fill:#000000;fill-opacity:1;fill-rule:evenodd;stroke:none"
     clip-path="url(#clipWmfPath44)"
     d="m 53.6911,18.3015 0,0.0588 21.2171,0 0,-0.0588 -21.2171,0 z"
     id="path155"
     inkscape:connector-curvature="0" />
  <path
     style="fill:#fefefe;fill-opacity:1;fill-rule:evenodd;stroke:none"
     clip-path="url(#clipWmfPath44)"
     d="m 53.6911,18.3603 0,0.0589 21.2171,0 0,-0.0589 -21.2171,0 z"
     id="path157"
     inkscape:connector-curvature="0" />
  <path
     style="fill:#fcfcfc;fill-opacity:1;fill-rule:evenodd;stroke:none"
     clip-path="url(#clipWmfPath44)"
     d="m 53.6911,18.4192 0,0.1177 21.2171,0 0,-0.1177 -21.2171,0 z"
     id="path159"
     inkscape:connector-curvature="0"
     transform="matrix(0.28222222,0,0,0.28222222,-7.7275411e-7,0)" />
  <path
     style="fill:#fafafa;fill-opacity:1;fill-rule:evenodd;stroke:none"
     clip-path="url(#clipWmfPath44)"
     d="m 53.6911,18.5369 0,0.0588 21.2171,0 0,-0.0588 -21.2171,0 z"
     id="path161"
     inkscape:connector-curvature="0"
     transform="matrix(0.28222222,0,0,0.28222222,-7.7275411e-7,0)" />
  <path
     style="fill:#f8f8f8;fill-opacity:1;fill-rule:evenodd;stroke:none"
     clip-path="url(#clipWmfPath44)"
     d="m 53.6911,18.5957 0,0.1177 21.2171,0 0,-0.1177 -21.2171,0 z"
     id="path163"
     inkscape:connector-curvature="0"
     transform="matrix(0.28222222,0,0,0.28222222,-7.7275411e-7,0)" />
  <path
     style="fill:#f6f6f6;fill-opacity:1;fill-rule:evenodd;stroke:none"
     clip-path="url(#clipWmfPath44)"
     d="m 53.6911,18.7134 0,0.0589 21.2171,0 0,-0.0589 -21.2171,0 z"
     id="path165"
     inkscape:connector-curvature="0"
     transform="matrix(0.28222222,0,0,0.28222222,-7.7275411e-7,0)" />
  <path
     style="fill:#f4f4f4;fill-opacity:1;fill-rule:evenodd;stroke:none"
     clip-path="url(#clipWmfPath44)"
     d="m 53.6911,18.7723 0,0.1177 21.2171,0 0,-0.1177 -21.2171,0 z"
     id="path167"
     inkscape:connector-curvature="0"
     transform="matrix(0.28222222,0,0,0.28222222,-7.7275411e-7,0)" />
  <path
     style="fill:#f2f2f2;fill-opacity:1;fill-rule:evenodd;stroke:none"
     clip-path="url(#clipWmfPath44)"
     d="m 53.6911,18.89 0,0.1177 21.2171,0 0,-0.1177 -21.2171,0 z"
     id="path169"
     inkscape:connector-curvature="0"
     transform="matrix(0.28222222,0,0,0.28222222,-7.7275411e-7,0)" />
  <path
     style="fill:#efefef;fill-opacity:1;fill-rule:evenodd;stroke:none"
     clip-path="url(#clipWmfPath44)"
     d="m 53.6911,19.0077 0,0.1177 21.2171,0 0,-0.1177 -21.2171,0 z"
     id="path171"
     inkscape:connector-curvature="0"
     transform="matrix(0.28222222,0,0,0.28222222,-7.7275411e-7,0)" />
  <path
     style="fill:#ededed;fill-opacity:1;fill-rule:evenodd;stroke:none"
     clip-path="url(#clipWmfPath44)"
     d="m 53.6911,19.1254 0,0.0588 21.2171,0 0,-0.0588 -21.2171,0 z"
     id="path173"
     inkscape:connector-curvature="0"
     transform="matrix(0.28222222,0,0,0.28222222,-7.7275411e-7,0)" />
  <path
     style="fill:#ebebeb;fill-opacity:1;fill-rule:evenodd;stroke:none"
     clip-path="url(#clipWmfPath44)"
     d="m 53.6911,19.1842 0,0.1177 21.2171,0 0,-0.1177 -21.2171,0 z"
     id="path175"
     inkscape:connector-curvature="0"
     transform="matrix(0.28222222,0,0,0.28222222,-7.7275411e-7,0)" />
  <path
     style="fill:#e9e9e9;fill-opacity:1;fill-rule:evenodd;stroke:none"
     clip-path="url(#clipWmfPath44)"
     d="m 53.6911,19.3019 0,0.0589 21.2171,0 0,-0.0589 -21.2171,0 z"
     id="path177"
     inkscape:connector-curvature="0"
     transform="matrix(0.28222222,0,0,0.28222222,-7.7275411e-7,0)" />
  <path
     style="fill:#e7e7e7;fill-opacity:1;fill-rule:evenodd;stroke:none"
     clip-path="url(#clipWmfPath44)"
     d="m 53.6911,19.3608 0,0.1176 21.2171,0 0,-0.1176 -21.2171,0 z"
     id="path179"
     inkscape:connector-curvature="0"
     transform="matrix(0.28222222,0,0,0.28222222,-7.7275411e-7,0)" />
  <path
     style="fill:#e5e5e5;fill-opacity:1;fill-rule:evenodd;stroke:none"
     clip-path="url(#clipWmfPath44)"
     d="m 53.6911,19.4784 0,0.0589 21.2171,0 0,-0.0589 -21.2171,0 z"
     id="path181"
     inkscape:connector-curvature="0"
     transform="matrix(0.28222222,0,0,0.28222222,-7.7275411e-7,0)" />
  <path
     style="fill:#e3e3e3;fill-opacity:1;fill-rule:evenodd;stroke:none"
     clip-path="url(#clipWmfPath44)"
     d="m 53.6911,19.5373 0,0.1177 21.2171,0 0,-0.1177 -21.2171,0 z"
     id="path183"
     inkscape:connector-curvature="0"
     transform="matrix(0.28222222,0,0,0.28222222,-7.7275411e-7,0)" />
  <path
     style="fill:#e1e1e1;fill-opacity:1;fill-rule:evenodd;stroke:none"
     clip-path="url(#clipWmfPath44)"
     d="m 53.6911,19.655 0,0.0588 21.2171,0 0,-0.0588 -21.2171,0 z"
     id="path185"
     inkscape:connector-curvature="0"
     transform="matrix(0.28222222,0,0,0.28222222,-7.7275411e-7,0)" />
  <path
     style="fill:#dfdfdf;fill-opacity:1;fill-rule:evenodd;stroke:none"
     clip-path="url(#clipWmfPath44)"
     d="m 53.6911,19.7138 0,0.1177 21.2171,0 0,-0.1177 -21.2171,0 z"
     id="path187"
     inkscape:connector-curvature="0"
     transform="matrix(0.28222222,0,0,0.28222222,-7.7275411e-7,0)" />
  <path
     style="fill:#dddddd;fill-opacity:1;fill-rule:evenodd;stroke:none"
     clip-path="url(#clipWmfPath44)"
     d="m 53.6911,19.8315 0,0.0589 21.2171,0 0,-0.0589 -21.2171,0 z"
     id="path189"
     inkscape:connector-curvature="0"
     transform="matrix(0.28222222,0,0,0.28222222,-7.7275411e-7,0)" />
  <path
     style="fill:#dbdbdb;fill-opacity:1;fill-rule:evenodd;stroke:none"
     clip-path="url(#clipWmfPath44)"
     d="m 53.6911,19.8904 0,0.1177 21.2171,0 0,-0.1177 -21.2171,0 z"
     id="path191"
     inkscape:connector-curvature="0"
     transform="matrix(0.28222222,0,0,0.28222222,-7.7275411e-7,0)" />
  <path
     style="fill:#d9d9d9;fill-opacity:1;fill-rule:evenodd;stroke:none"
     clip-path="url(#clipWmfPath44)"
     d="m 53.6911,20.0081 0,0.0588 21.2171,0 0,-0.0588 -21.2171,0 z"
     id="path193"
     inkscape:connector-curvature="0"
     transform="matrix(0.28222222,0,0,0.28222222,-7.7275411e-7,0)" />
  <path
     style="fill:#d7d7d7;fill-opacity:1;fill-rule:evenodd;stroke:none"
     clip-path="url(#clipWmfPath44)"
     d="m 53.6911,20.0669 0,0.1177 21.2171,0 0,-0.1177 -21.2171,0 z"
     id="path195"
     inkscape:connector-curvature="0"
     transform="matrix(0.28222222,0,0,0.28222222,-7.7275411e-7,0)" />
  <path
     style="fill:#d5d5d5;fill-opacity:1;fill-rule:evenodd;stroke:none"
     clip-path="url(#clipWmfPath44)"
     d="m 53.6911,20.1846 0,0.0589 21.2171,0 0,-0.0589 -21.2171,0 z"
     id="path197"
     inkscape:connector-curvature="0"
     transform="matrix(0.28222222,0,0,0.28222222,-7.7275411e-7,0)" />
  <path
     style="fill:#d3d3d3;fill-opacity:1;fill-rule:evenodd;stroke:none"
     clip-path="url(#clipWmfPath44)"
     d="m 53.6911,20.2435 0,0.1177 21.2171,0 0,-0.1177 -21.2171,0 z"
     id="path199"
     inkscape:connector-curvature="0"
     transform="matrix(0.28222222,0,0,0.28222222,-7.7275411e-7,0)" />
  <path
     style="fill:#d1d1d1;fill-opacity:1;fill-rule:evenodd;stroke:none"
     clip-path="url(#clipWmfPath44)"
     d="m 53.6911,20.3612 0,0.0588 21.2171,0 0,-0.0588 -21.2171,0 z"
     id="path201"
     inkscape:connector-curvature="0"
     transform="matrix(0.28222222,0,0,0.28222222,-7.7275411e-7,0)" />
  <path
     style="fill:#cfcfcf;fill-opacity:1;fill-rule:evenodd;stroke:none"
     clip-path="url(#clipWmfPath44)"
     d="m 53.6911,20.42 0,0.1177 21.2171,0 0,-0.1177 -21.2171,0 z"
     id="path203"
     inkscape:connector-curvature="0"
     transform="matrix(0.28222222,0,0,0.28222222,-7.7275411e-7,0)" />
  <path
     style="fill:#cdcdcd;fill-opacity:1;fill-rule:evenodd;stroke:none"
     clip-path="url(#clipWmfPath44)"
     d="m 53.6911,20.5377 0,0.0588 21.2171,0 0,-0.0588 -21.2171,0 z"
     id="path205"
     inkscape:connector-curvature="0"
     transform="matrix(0.28222222,0,0,0.28222222,-7.7275411e-7,0)" />
  <path
     style="fill:#cbcbcb;fill-opacity:1;fill-rule:evenodd;stroke:none"
     clip-path="url(#clipWmfPath44)"
     d="m 53.6911,20.5965 0,0.1177 21.2171,0 0,-0.1177 -21.2171,0 z"
     id="path207"
     inkscape:connector-curvature="0"
     transform="matrix(0.28222222,0,0,0.28222222,-7.7275411e-7,0)" />
  <path
     style="fill:#c9c9c9;fill-opacity:1;fill-rule:evenodd;stroke:none"
     clip-path="url(#clipWmfPath44)"
     d="m 53.6911,20.7142 0,0.0589 21.2171,0 0,-0.0589 -21.2171,0 z"
     id="path209"
     inkscape:connector-curvature="0"
     transform="matrix(0.28222222,0,0,0.28222222,-7.7275411e-7,0)" />
  <path
     style="fill:#c7c7c7;fill-opacity:1;fill-rule:evenodd;stroke:none"
     clip-path="url(#clipWmfPath44)"
     d="m 53.6911,20.7731 0,0.1177 21.2171,0 0,-0.1177 -21.2171,0 z"
     id="path211"
     inkscape:connector-curvature="0"
     transform="matrix(0.28222222,0,0,0.28222222,-7.7275411e-7,0)" />
  <path
     style="fill:#c5c5c5;fill-opacity:1;fill-rule:evenodd;stroke:none"
     clip-path="url(#clipWmfPath44)"
     d="m 53.6911,20.8908 0,0.0588 21.2171,0 0,-0.0588 -21.2171,0 z"
     id="path213"
     inkscape:connector-curvature="0"
     transform="matrix(0.28222222,0,0,0.28222222,-7.7275411e-7,0)" />
  <path
     style="fill:#c3c3c3;fill-opacity:1;fill-rule:evenodd;stroke:none"
     clip-path="url(#clipWmfPath44)"
     d="m 53.6911,20.9496 0,0.1177 21.2171,0 0,-0.1177 -21.2171,0 z"
     id="path215"
     inkscape:connector-curvature="0"
     transform="matrix(0.28222222,0,0,0.28222222,-7.7275411e-7,0)" />
  <path
     style="fill:#c1c1c1;fill-opacity:1;fill-rule:evenodd;stroke:none"
     clip-path="url(#clipWmfPath44)"
     d="m 53.6911,21.0673 0,0.0589 21.2171,0 0,-0.0589 -21.2171,0 z"
     id="path217"
     inkscape:connector-curvature="0"
     transform="matrix(0.28222222,0,0,0.28222222,-7.7275411e-7,0)" />
  <path
     style="fill:#bfbfbf;fill-opacity:1;fill-rule:evenodd;stroke:none"
     clip-path="url(#clipWmfPath44)"
     d="m 53.6911,21.1262 0,0.1177 21.2171,0 0,-0.1177 -21.2171,0 z"
     id="path219"
     inkscape:connector-curvature="0"
     transform="matrix(0.28222222,0,0,0.28222222,-7.7275411e-7,0)" />
  <path
     style="fill:#bdbdbd;fill-opacity:1;fill-rule:evenodd;stroke:none"
     clip-path="url(#clipWmfPath44)"
     d="m 53.6911,21.2439 0,0.0588 21.2171,0 0,-0.0588 -21.2171,0 z"
     id="path221"
     inkscape:connector-curvature="0"
     transform="matrix(0.28222222,0,0,0.28222222,-7.7275411e-7,0)" />
  <path
     style="fill:#bbbbbb;fill-opacity:1;fill-rule:evenodd;stroke:none"
     clip-path="url(#clipWmfPath44)"
     d="m 53.6911,21.3027 0,0.1177 21.2171,0 0,-0.1177 -21.2171,0 z"
     id="path223"
     inkscape:connector-curvature="0"
     transform="matrix(0.28222222,0,0,0.28222222,-7.7275411e-7,0)" />
  <path
     style="fill:#b9b9b9;fill-opacity:1;fill-rule:evenodd;stroke:none"
     clip-path="url(#clipWmfPath44)"
     d="m 53.6911,21.4204 0,0.0589 21.2171,0 0,-0.0589 -21.2171,0 z"
     id="path225"
     inkscape:connector-curvature="0"
     transform="matrix(0.28222222,0,0,0.28222222,-7.7275411e-7,0)" />
  <path
     style="fill:#b7b7b7;fill-opacity:1;fill-rule:evenodd;stroke:none"
     clip-path="url(#clipWmfPath44)"
     d="m 53.6911,21.4793 0,0.1176 21.2171,0 0,-0.1176 -21.2171,0 z"
     id="path227"
     inkscape:connector-curvature="0"
     transform="matrix(0.28222222,0,0,0.28222222,-7.7275411e-7,0)" />
  <path
     style="fill:#b5b5b5;fill-opacity:1;fill-rule:evenodd;stroke:none"
     clip-path="url(#clipWmfPath44)"
     d="m 53.6911,21.5969 0,0.0589 21.2171,0 0,-0.0589 -21.2171,0 z"
     id="path229"
     inkscape:connector-curvature="0"
     transform="matrix(0.28222222,0,0,0.28222222,-7.7275411e-7,0)" />
  <path
     style="fill:#b3b3b3;fill-opacity:1;fill-rule:evenodd;stroke:none"
     clip-path="url(#clipWmfPath44)"
     d="m 53.6911,21.6558 0,0.1177 21.2171,0 0,-0.1177 -21.2171,0 z"
     id="path231"
     inkscape:connector-curvature="0"
     transform="matrix(0.28222222,0,0,0.28222222,-7.7275411e-7,0)" />
  <path
     style="fill:#b1b1b1;fill-opacity:1;fill-rule:evenodd;stroke:none"
     clip-path="url(#clipWmfPath44)"
     d="m 53.6911,21.7735 0,0.0588 21.2171,0 0,-0.0588 -21.2171,0 z"
     id="path233"
     inkscape:connector-curvature="0"
     transform="matrix(0.28222222,0,0,0.28222222,-7.7275411e-7,0)" />
  <path
     style="fill:#afafaf;fill-opacity:1;fill-rule:evenodd;stroke:none"
     clip-path="url(#clipWmfPath44)"
     d="m 53.6911,21.8323 0,0.1177 21.2171,0 0,-0.1177 -21.2171,0 z"
     id="path235"
     inkscape:connector-curvature="0"
     transform="matrix(0.28222222,0,0,0.28222222,-7.7275411e-7,0)" />
  <path
     style="fill:#adadad;fill-opacity:1;fill-rule:evenodd;stroke:none"
     clip-path="url(#clipWmfPath44)"
     d="m 53.6911,21.95 0,0.0589 21.2171,0 0,-0.0589 -21.2171,0 z"
     id="path237"
     inkscape:connector-curvature="0"
     transform="matrix(0.28222222,0,0,0.28222222,-7.7275411e-7,0)" />
  <path
     style="fill:#ababab;fill-opacity:1;fill-rule:evenodd;stroke:none"
     clip-path="url(#clipWmfPath44)"
     d="m 53.6911,22.0089 0,0.1177 21.2171,0 0,-0.1177 -21.2171,0 z"
     id="path239"
     inkscape:connector-curvature="0"
     transform="matrix(0.28222222,0,0,0.28222222,-7.7275411e-7,0)" />
  <path
     style="fill:#a9a9a9;fill-opacity:1;fill-rule:evenodd;stroke:none"
     clip-path="url(#clipWmfPath44)"
     d="m 53.6911,22.1266 0,0.0588 21.2171,0 0,-0.0588 -21.2171,0 z"
     id="path241"
     inkscape:connector-curvature="0"
     transform="matrix(0.28222222,0,0,0.28222222,-7.7275411e-7,0)" />
  <path
     style="fill:#a7a7a7;fill-opacity:1;fill-rule:evenodd;stroke:none"
     clip-path="url(#clipWmfPath44)"
     d="m 53.6911,22.1854 0,0.1177 21.2171,0 0,-0.1177 -21.2171,0 z"
     id="path243"
     inkscape:connector-curvature="0"
     transform="matrix(0.28222222,0,0,0.28222222,-7.7275411e-7,0)" />
  <path
     style="fill:#a5a5a5;fill-opacity:1;fill-rule:evenodd;stroke:none"
     clip-path="url(#clipWmfPath44)"
     d="m 53.6911,22.3031 0,0.0589 21.2171,0 0,-0.0589 -21.2171,0 z"
     id="path245"
     inkscape:connector-curvature="0"
     transform="matrix(0.28222222,0,0,0.28222222,-7.7275411e-7,0)" />
  <path
     style="fill:#a3a3a3;fill-opacity:1;fill-rule:evenodd;stroke:none"
     clip-path="url(#clipWmfPath44)"
     d="m 53.6911,22.362 0,0.1177 21.2171,0 0,-0.1177 -21.2171,0 z"
     id="path247"
     inkscape:connector-curvature="0"
     transform="matrix(0.28222222,0,0,0.28222222,-7.7275411e-7,0)" />
  <path
     style="fill:#a1a1a1;fill-opacity:1;fill-rule:evenodd;stroke:none"
     clip-path="url(#clipWmfPath44)"
     d="m 53.6911,22.4797 0,0.0588 21.2171,0 0,-0.0588 -21.2171,0 z"
     id="path249"
     inkscape:connector-curvature="0"
     transform="matrix(0.28222222,0,0,0.28222222,-7.7275411e-7,0)" />
  <path
     style="fill:#9f9f9f;fill-opacity:1;fill-rule:evenodd;stroke:none"
     clip-path="url(#clipWmfPath44)"
     d="m 53.6911,22.5385 0,0.1177 21.2171,0 0,-0.1177 -21.2171,0 z"
     id="path251"
     inkscape:connector-curvature="0"
     transform="matrix(0.28222222,0,0,0.28222222,-7.7275411e-7,0)" />
  <path
     style="fill:#9d9d9d;fill-opacity:1;fill-rule:evenodd;stroke:none"
     clip-path="url(#clipWmfPath44)"
     d="m 53.6911,22.6562 0,0.0588 21.2171,0 0,-0.0588 -21.2171,0 z"
     id="path253"
     inkscape:connector-curvature="0"
     transform="matrix(0.28222222,0,0,0.28222222,-7.7275411e-7,0)" />
  <path
     style="fill:#9b9b9b;fill-opacity:1;fill-rule:evenodd;stroke:none"
     clip-path="url(#clipWmfPath44)"
     d="m 53.6911,22.715 0,0.1177 21.2171,0 0,-0.1177 -21.2171,0 z"
     id="path255"
     inkscape:connector-curvature="0"
     transform="matrix(0.28222222,0,0,0.28222222,-7.7275411e-7,0)" />
  <path
     style="fill:#999999;fill-opacity:1;fill-rule:evenodd;stroke:none"
     clip-path="url(#clipWmfPath44)"
     d="m 53.6911,22.8327 0,0.0589 21.2171,0 0,-0.0589 -21.2171,0 z"
     id="path257"
     inkscape:connector-curvature="0"
     transform="matrix(0.28222222,0,0,0.28222222,-7.7275411e-7,0)" />
  <path
     style="fill:#979797;fill-opacity:1;fill-rule:evenodd;stroke:none"
     clip-path="url(#clipWmfPath44)"
     d="m 53.6911,22.8916 0,0.1177 21.2171,0 0,-0.1177 -21.2171,0 z"
     id="path259"
     inkscape:connector-curvature="0"
     transform="matrix(0.28222222,0,0,0.28222222,-7.7275411e-7,0)" />
  <path
     style="fill:#959595;fill-opacity:1;fill-rule:evenodd;stroke:none"
     clip-path="url(#clipWmfPath44)"
     d="m 53.6911,23.0093 0,0.0588 21.2171,0 0,-0.0588 -21.2171,0 z"
     id="path261"
     inkscape:connector-curvature="0"
     transform="matrix(0.28222222,0,0,0.28222222,-7.7275411e-7,0)" />
  <path
     style="fill:#939393;fill-opacity:1;fill-rule:evenodd;stroke:none"
     clip-path="url(#clipWmfPath44)"
     d="m 53.6911,23.0681 0,0.1177 21.2171,0 0,-0.1177 -21.2171,0 z"
     id="path263"
     inkscape:connector-curvature="0"
     transform="matrix(0.28222222,0,0,0.28222222,-7.7275411e-7,0)" />
  <path
     style="fill:#919191;fill-opacity:1;fill-rule:evenodd;stroke:none"
     clip-path="url(#clipWmfPath44)"
     d="m 53.6911,23.1858 0,0.0589 21.2171,0 0,-0.0589 -21.2171,0 z"
     id="path265"
     inkscape:connector-curvature="0"
     transform="matrix(0.28222222,0,0,0.28222222,-7.7275411e-7,0)" />
  <path
     style="fill:#8f8f8f;fill-opacity:1;fill-rule:evenodd;stroke:none"
     clip-path="url(#clipWmfPath44)"
     d="m 53.6911,23.2447 0,0.1177 21.2171,0 0,-0.1177 -21.2171,0 z"
     id="path267"
     inkscape:connector-curvature="0"
     transform="matrix(0.28222222,0,0,0.28222222,-7.7275411e-7,0)" />
  <path
     style="fill:#8d8d8d;fill-opacity:1;fill-rule:evenodd;stroke:none"
     clip-path="url(#clipWmfPath44)"
     d="m 53.6911,23.3624 0,0.1177 21.2171,0 0,-0.1177 -21.2171,0 z"
     id="path269"
     inkscape:connector-curvature="0"
     transform="matrix(0.28222222,0,0,0.28222222,-7.7275411e-7,0)" />
  <path
     style="fill:#8a8a8a;fill-opacity:1;fill-rule:evenodd;stroke:none"
     clip-path="url(#clipWmfPath44)"
     d="m 53.6911,23.4801 0,0.1177 21.2171,0 0,-0.1177 -21.2171,0 z"
     id="path271"
     inkscape:connector-curvature="0"
     transform="matrix(0.28222222,0,0,0.28222222,-7.7275411e-7,0)" />
  <path
     style="fill:#888888;fill-opacity:1;fill-rule:evenodd;stroke:none"
     clip-path="url(#clipWmfPath44)"
     d="m 53.6911,23.5978 0,0.1177 21.2171,0 0,-0.1177 -21.2171,0 z"
     id="path273"
     inkscape:connector-curvature="0"
     transform="matrix(0.28222222,0,0,0.28222222,-7.7275411e-7,0)" />
  <path
     style="fill:#858585;fill-opacity:1;fill-rule:evenodd;stroke:none"
     clip-path="url(#clipWmfPath44)"
     d="m 53.6911,23.7155 0,0.1176 21.2171,0 0,-0.1176 -21.2171,0 z"
     id="path275"
     inkscape:connector-curvature="0"
     transform="matrix(0.28222222,0,0,0.28222222,-7.7275411e-7,0)" />
  <path
     style="fill:#838383;fill-opacity:1;fill-rule:evenodd;stroke:none"
     clip-path="url(#clipWmfPath44)"
     d="m 53.6911,23.8331 0,0.1177 21.2171,0 0,-0.1177 -21.2171,0 z"
     id="path277"
     inkscape:connector-curvature="0"
     transform="matrix(0.28222222,0,0,0.28222222,-7.7275411e-7,0)" />
  <path
     style="fill:#808080;fill-opacity:1;fill-rule:evenodd;stroke:none"
     clip-path="url(#clipWmfPath44)"
     d="m 53.6911,23.9508 0,0.1177 21.2171,0 0,-0.1177 -21.2171,0 z"
     id="path279"
     inkscape:connector-curvature="0"
     transform="matrix(0.28222222,0,0,0.28222222,-7.7275411e-7,0)" />
  <path
     style="fill:#7e7e7e;fill-opacity:1;fill-rule:evenodd;stroke:none"
     clip-path="url(#clipWmfPath44)"
     d="m 53.6911,24.0685 0,0.0589 21.2171,0 0,-0.0589 -21.2171,0 z"
     id="path281"
     inkscape:connector-curvature="0"
     transform="matrix(0.28222222,0,0,0.28222222,-7.7275411e-7,0)" />
  <path
     style="fill:#7c7c7c;fill-opacity:1;fill-rule:evenodd;stroke:none"
     clip-path="url(#clipWmfPath44)"
     d="m 53.6911,24.1274 0,0.1177 21.2171,0 0,-0.1177 -21.2171,0 z"
     id="path283"
     inkscape:connector-curvature="0"
     transform="matrix(0.28222222,0,0,0.28222222,-7.7275411e-7,0)" />
  <path
     style="fill:#7a7a7a;fill-opacity:1;fill-rule:evenodd;stroke:none"
     clip-path="url(#clipWmfPath44)"
     d="m 53.6911,24.2451 0,0.0588 21.2171,0 0,-0.0588 -21.2171,0 z"
     id="path285"
     inkscape:connector-curvature="0"
     transform="matrix(0.28222222,0,0,0.28222222,-7.7275411e-7,0)" />
  <path
     style="fill:#787878;fill-opacity:1;fill-rule:evenodd;stroke:none"
     clip-path="url(#clipWmfPath44)"
     d="m 53.6911,24.3039 0,0.1177 21.2171,0 0,-0.1177 -21.2171,0 z"
     id="path287"
     inkscape:connector-curvature="0"
     transform="matrix(0.28222222,0,0,0.28222222,-7.7275411e-7,0)" />
  <path
     style="fill:#767676;fill-opacity:1;fill-rule:evenodd;stroke:none"
     clip-path="url(#clipWmfPath44)"
     d="m 53.6911,24.4216 0,0.1177 21.2171,0 0,-0.1177 -21.2171,0 z"
     id="path289"
     inkscape:connector-curvature="0"
     transform="matrix(0.28222222,0,0,0.28222222,-7.7275411e-7,0)" />
  <path
     style="fill:#737373;fill-opacity:1;fill-rule:evenodd;stroke:none"
     clip-path="url(#clipWmfPath44)"
     d="m 53.6911,24.5393 0,0.1177 21.2171,0 0,-0.1177 -21.2171,0 z"
     id="path291"
     inkscape:connector-curvature="0"
     transform="matrix(0.28222222,0,0,0.28222222,-7.7275411e-7,0)" />
  <path
     style="fill:#717171;fill-opacity:1;fill-rule:evenodd;stroke:none"
     clip-path="url(#clipWmfPath44)"
     d="m 53.6911,24.657 0,0.0589 21.2171,0 0,-0.0589 -21.2171,0 z"
     id="path293"
     inkscape:connector-curvature="0"
     transform="matrix(0.28222222,0,0,0.28222222,-7.7275411e-7,0)" />
  <path
     style="fill:#6f6f6f;fill-opacity:1;fill-rule:evenodd;stroke:none"
     clip-path="url(#clipWmfPath44)"
     d="m 53.6911,24.7159 0,0.1176 21.2171,0 0,-0.1176 -21.2171,0 z"
     id="path295"
     inkscape:connector-curvature="0"
     transform="matrix(0.28222222,0,0,0.28222222,-7.7275411e-7,0)" />
  <path
     style="fill:#6d6d6d;fill-opacity:1;fill-rule:evenodd;stroke:none"
     clip-path="url(#clipWmfPath44)"
     d="m 53.6911,24.8335 0,0.0589 21.2171,0 0,-0.0589 -21.2171,0 z"
     id="path297"
     inkscape:connector-curvature="0"
     transform="matrix(0.28222222,0,0,0.28222222,-7.7275411e-7,0)" />
  <path
     style="fill:#6b6b6b;fill-opacity:1;fill-rule:evenodd;stroke:none"
     clip-path="url(#clipWmfPath44)"
     d="m 53.6911,24.8924 0,0.1177 21.2171,0 0,-0.1177 -21.2171,0 z"
     id="path299"
     inkscape:connector-curvature="0"
     transform="matrix(0.28222222,0,0,0.28222222,-7.7275411e-7,0)" />
  <path
     style="fill:#696969;fill-opacity:1;fill-rule:evenodd;stroke:none"
     clip-path="url(#clipWmfPath44)"
     d="m 53.6911,25.0101 0,0.0588 21.2171,0 0,-0.0588 -21.2171,0 z"
     id="path301"
     inkscape:connector-curvature="0"
     transform="matrix(0.28222222,0,0,0.28222222,-7.7275411e-7,0)" />
  <path
     style="fill:#676767;fill-opacity:1;fill-rule:evenodd;stroke:none"
     clip-path="url(#clipWmfPath44)"
     d="m 53.6911,25.0689 0,0.1177 21.2171,0 0,-0.1177 -21.2171,0 z"
     id="path303"
     inkscape:connector-curvature="0"
     transform="matrix(0.28222222,0,0,0.28222222,-7.7275411e-7,0)" />
  <path
     style="fill:#656565;fill-opacity:1;fill-rule:evenodd;stroke:none"
     clip-path="url(#clipWmfPath44)"
     d="m 53.6911,25.1866 0,0.0589 21.2171,0 0,-0.0589 -21.2171,0 z"
     id="path305"
     inkscape:connector-curvature="0"
     transform="matrix(0.28222222,0,0,0.28222222,-7.7275411e-7,0)" />
  <path
     style="fill:#636363;fill-opacity:1;fill-rule:evenodd;stroke:none"
     clip-path="url(#clipWmfPath44)"
     d="m 53.6911,25.2455 0,0.1177 21.2171,0 0,-0.1177 -21.2171,0 z"
     id="path307"
     inkscape:connector-curvature="0"
     transform="matrix(0.28222222,0,0,0.28222222,-7.7275411e-7,0)" />
  <path
     style="fill:#616161;fill-opacity:1;fill-rule:evenodd;stroke:none"
     clip-path="url(#clipWmfPath44)"
     d="m 53.6911,25.3632 0,0.0588 21.2171,0 0,-0.0588 -21.2171,0 z"
     id="path309"
     inkscape:connector-curvature="0"
     transform="matrix(0.28222222,0,0,0.28222222,-7.7275411e-7,0)" />
  <path
     style="fill:#5f5f5f;fill-opacity:1;fill-rule:evenodd;stroke:none"
     clip-path="url(#clipWmfPath44)"
     d="m 53.6911,25.422 0,0.1177 21.2171,0 0,-0.1177 -21.2171,0 z"
     id="path311"
     inkscape:connector-curvature="0"
     transform="matrix(0.28222222,0,0,0.28222222,-7.7275411e-7,0)" />
  <path
     style="fill:#5d5d5d;fill-opacity:1;fill-rule:evenodd;stroke:none"
     clip-path="url(#clipWmfPath44)"
     d="m 53.6911,25.5397 0,0.0589 21.2171,0 0,-0.0589 -21.2171,0 z"
     id="path313"
     inkscape:connector-curvature="0"
     transform="matrix(0.28222222,0,0,0.28222222,-7.7275411e-7,0)" />
  <path
     style="fill:#5b5b5b;fill-opacity:1;fill-rule:evenodd;stroke:none"
     clip-path="url(#clipWmfPath44)"
     d="m 53.6911,25.5986 0,0.1177 21.2171,0 0,-0.1177 -21.2171,0 z"
     id="path315"
     inkscape:connector-curvature="0"
     transform="matrix(0.28222222,0,0,0.28222222,-7.7275411e-7,0)" />
  <path
     style="fill:#595959;fill-opacity:1;fill-rule:evenodd;stroke:none"
     clip-path="url(#clipWmfPath44)"
     d="m 53.6911,25.7163 0,0.0588 21.2171,0 0,-0.0588 -21.2171,0 z"
     id="path317"
     inkscape:connector-curvature="0"
     transform="matrix(0.28222222,0,0,0.28222222,-7.7275411e-7,0)" />
  <path
     style="fill:#575757;fill-opacity:1;fill-rule:evenodd;stroke:none"
     clip-path="url(#clipWmfPath44)"
     d="m 53.6911,25.7751 0,0.1177 21.2171,0 0,-0.1177 -21.2171,0 z"
     id="path319"
     inkscape:connector-curvature="0"
     transform="matrix(0.28222222,0,0,0.28222222,-7.7275411e-7,0)" />
  <path
     style="fill:#555555;fill-opacity:1;fill-rule:evenodd;stroke:none"
     clip-path="url(#clipWmfPath44)"
     d="m 53.6911,25.8928 0,0.0588 21.2171,0 0,-0.0588 -21.2171,0 z"
     id="path321"
     inkscape:connector-curvature="0"
     transform="matrix(0.28222222,0,0,0.28222222,-7.7275411e-7,0)" />
  <path
     style="fill:#535353;fill-opacity:1;fill-rule:evenodd;stroke:none"
     clip-path="url(#clipWmfPath44)"
     d="m 53.6911,25.9516 0,0.1177 21.2171,0 0,-0.1177 -21.2171,0 z"
     id="path323"
     inkscape:connector-curvature="0"
     transform="matrix(0.28222222,0,0,0.28222222,-7.7275411e-7,0)" />
  <path
     style="fill:#515151;fill-opacity:1;fill-rule:evenodd;stroke:none"
     clip-path="url(#clipWmfPath44)"
     d="m 53.6911,26.0693 0,0.0589 21.2171,0 0,-0.0589 -21.2171,0 z"
     id="path325"
     inkscape:connector-curvature="0"
     transform="matrix(0.28222222,0,0,0.28222222,-7.7275411e-7,0)" />
  <path
     style="fill:#4f4f4f;fill-opacity:1;fill-rule:evenodd;stroke:none"
     clip-path="url(#clipWmfPath44)"
     d="m 53.6911,26.1282 0,0.1177 21.2171,0 0,-0.1177 -21.2171,0 z"
     id="path327"
     inkscape:connector-curvature="0"
     transform="matrix(0.28222222,0,0,0.28222222,-7.7275411e-7,0)" />
  <path
     style="fill:#4d4d4d;fill-opacity:1;fill-rule:evenodd;stroke:none"
     clip-path="url(#clipWmfPath44)"
     d="m 53.6911,26.2459 0,0.0588 21.2171,0 0,-0.0588 -21.2171,0 z"
     id="path329"
     inkscape:connector-curvature="0"
     transform="matrix(0.28222222,0,0,0.28222222,-7.7275411e-7,0)" />
  <path
     style="fill:#4b4b4b;fill-opacity:1;fill-rule:evenodd;stroke:none"
     clip-path="url(#clipWmfPath44)"
     d="m 53.6911,26.3047 0,0.1177 21.2171,0 0,-0.1177 -21.2171,0 z"
     id="path331"
     inkscape:connector-curvature="0"
     transform="matrix(0.28222222,0,0,0.28222222,-7.7275411e-7,0)" />
  <path
     style="fill:#494949;fill-opacity:1;fill-rule:evenodd;stroke:none"
     clip-path="url(#clipWmfPath44)"
     d="m 53.6911,26.4224 0,0.0589 21.2171,0 0,-0.0589 -21.2171,0 z"
     id="path333"
     inkscape:connector-curvature="0"
     transform="matrix(0.28222222,0,0,0.28222222,-7.7275411e-7,0)" />
  <path
     style="fill:#474747;fill-opacity:1;fill-rule:evenodd;stroke:none"
     clip-path="url(#clipWmfPath44)"
     d="m 53.6911,26.4813 0,0.1177 21.2171,0 0,-0.1177 -21.2171,0 z"
     id="path335"
     inkscape:connector-curvature="0"
     transform="matrix(0.28222222,0,0,0.28222222,-7.7275411e-7,0)" />
  <path
     style="fill:#454545;fill-opacity:1;fill-rule:evenodd;stroke:none"
     clip-path="url(#clipWmfPath44)"
     d="m 53.6911,26.599 0,0.0588 21.2171,0 0,-0.0588 -21.2171,0 z"
     id="path337"
     inkscape:connector-curvature="0"
     transform="matrix(0.28222222,0,0,0.28222222,-7.7275411e-7,0)" />
  <path
     style="fill:#434343;fill-opacity:1;fill-rule:evenodd;stroke:none"
     clip-path="url(#clipWmfPath44)"
     d="m 53.6911,26.6578 0,0.1177 21.2171,0 0,-0.1177 -21.2171,0 z"
     id="path339"
     inkscape:connector-curvature="0"
     transform="matrix(0.28222222,0,0,0.28222222,-7.7275411e-7,0)" />
  <path
     style="fill:#414141;fill-opacity:1;fill-rule:evenodd;stroke:none"
     clip-path="url(#clipWmfPath44)"
     d="m 53.6911,26.7755 0,0.0589 21.2171,0 0,-0.0589 -21.2171,0 z"
     id="path341"
     inkscape:connector-curvature="0"
     transform="matrix(0.28222222,0,0,0.28222222,-7.7275411e-7,0)" />
  <path
     style="fill:#3f3f3f;fill-opacity:1;fill-rule:evenodd;stroke:none"
     clip-path="url(#clipWmfPath44)"
     d="m 53.6911,26.8344 0,0.1177 21.2171,0 0,-0.1177 -21.2171,0 z"
     id="path343"
     inkscape:connector-curvature="0"
     transform="matrix(0.28222222,0,0,0.28222222,-7.7275411e-7,0)" />
  <path
     style="fill:#3d3d3d;fill-opacity:1;fill-rule:evenodd;stroke:none"
     clip-path="url(#clipWmfPath44)"
     d="m 53.6911,26.9521 0,0.0588 21.2171,0 0,-0.0588 -21.2171,0 z"
     id="path345"
     inkscape:connector-curvature="0"
     transform="matrix(0.28222222,0,0,0.28222222,-7.7275411e-7,0)" />
  <path
     style="fill:#3b3b3b;fill-opacity:1;fill-rule:evenodd;stroke:none"
     clip-path="url(#clipWmfPath44)"
     d="m 53.6911,27.0109 0,0.1177 21.2171,0 0,-0.1177 -21.2171,0 z"
     id="path347"
     inkscape:connector-curvature="0"
     transform="matrix(0.28222222,0,0,0.28222222,-7.7275411e-7,0)" />
  <path
     style="fill:#393939;fill-opacity:1;fill-rule:evenodd;stroke:none"
     clip-path="url(#clipWmfPath44)"
     d="m 53.6911,27.1286 0,0.0588 21.2171,0 0,-0.0588 -21.2171,0 z"
     id="path349"
     inkscape:connector-curvature="0"
     transform="matrix(0.28222222,0,0,0.28222222,-7.7275411e-7,0)" />
  <path
     style="fill:#373737;fill-opacity:1;fill-rule:evenodd;stroke:none"
     clip-path="url(#clipWmfPath44)"
     d="m 53.6911,27.1874 0,0.1177 21.2171,0 0,-0.1177 -21.2171,0 z"
     id="path351"
     inkscape:connector-curvature="0"
     transform="matrix(0.28222222,0,0,0.28222222,-7.7275411e-7,0)" />
  <path
     style="fill:#353535;fill-opacity:1;fill-rule:evenodd;stroke:none"
     clip-path="url(#clipWmfPath44)"
     d="m 53.6911,27.3051 0,0.0589 21.2171,0 0,-0.0589 -21.2171,0 z"
     id="path353"
     inkscape:connector-curvature="0"
     transform="matrix(0.28222222,0,0,0.28222222,-7.7275411e-7,0)" />
  <path
     style="fill:#333333;fill-opacity:1;fill-rule:evenodd;stroke:none"
     clip-path="url(#clipWmfPath44)"
     d="m 53.6911,27.364 0,0.1177 21.2171,0 0,-0.1177 -21.2171,0 z"
     id="path355"
     inkscape:connector-curvature="0"
     transform="matrix(0.28222222,0,0,0.28222222,-7.7275411e-7,0)" />
  <path
     style="fill:#313131;fill-opacity:1;fill-rule:evenodd;stroke:none"
     clip-path="url(#clipWmfPath44)"
     d="m 53.6911,27.4817 0,0.0588 21.2171,0 0,-0.0588 -21.2171,0 z"
     id="path357"
     inkscape:connector-curvature="0"
     transform="matrix(0.28222222,0,0,0.28222222,-7.7275411e-7,0)" />
  <path
     style="fill:#2f2f2f;fill-opacity:1;fill-rule:evenodd;stroke:none"
     clip-path="url(#clipWmfPath44)"
     d="m 53.6911,27.5405 0,0.1177 21.2171,0 0,-0.1177 -21.2171,0 z"
     id="path359"
     inkscape:connector-curvature="0"
     transform="matrix(0.28222222,0,0,0.28222222,-7.7275411e-7,0)" />
  <path
     style="fill:#2d2d2d;fill-opacity:1;fill-rule:evenodd;stroke:none"
     clip-path="url(#clipWmfPath44)"
     d="m 53.6911,27.6582 0,0.0589 21.2171,0 0,-0.0589 -21.2171,0 z"
     id="path361"
     inkscape:connector-curvature="0"
     transform="matrix(0.28222222,0,0,0.28222222,-7.7275411e-7,0)" />
  <path
     style="fill:#2b2b2b;fill-opacity:1;fill-rule:evenodd;stroke:none"
     clip-path="url(#clipWmfPath44)"
     d="m 53.6911,27.7171 0,0.1177 21.2171,0 0,-0.1177 -21.2171,0 z"
     id="path363"
     inkscape:connector-curvature="0"
     transform="matrix(0.28222222,0,0,0.28222222,-7.7275411e-7,0)" />
  <path
     style="fill:#292929;fill-opacity:1;fill-rule:evenodd;stroke:none"
     clip-path="url(#clipWmfPath44)"
     d="m 53.6911,27.8348 0,0.0588 21.2171,0 0,-0.0588 -21.2171,0 z"
     id="path365"
     inkscape:connector-curvature="0"
     transform="matrix(0.28222222,0,0,0.28222222,-7.7275411e-7,0)" />
  <path
     style="fill:#272727;fill-opacity:1;fill-rule:evenodd;stroke:none"
     clip-path="url(#clipWmfPath44)"
     d="m 53.6911,27.8936 0,0.1177 21.2171,0 0,-0.1177 -21.2171,0 z"
     id="path367"
     inkscape:connector-curvature="0"
     transform="matrix(0.28222222,0,0,0.28222222,-7.7275411e-7,0)" />
  <path
     style="fill:#252525;fill-opacity:1;fill-rule:evenodd;stroke:none"
     clip-path="url(#clipWmfPath44)"
     d="m 53.6911,28.0113 0,0.0588 21.2171,0 0,-0.0588 -21.2171,0 z"
     id="path369"
     inkscape:connector-curvature="0"
     transform="matrix(0.28222222,0,0,0.28222222,-7.7275411e-7,0)" />
  <path
     style="fill:#232323;fill-opacity:1;fill-rule:evenodd;stroke:none"
     clip-path="url(#clipWmfPath44)"
     d="m 53.6911,28.0701 0,0.1177 21.2171,0 0,-0.1177 -21.2171,0 z"
     id="path371"
     inkscape:connector-curvature="0"
     transform="matrix(0.28222222,0,0,0.28222222,-7.7275411e-7,0)" />
  <path
     style="fill:#212121;fill-opacity:1;fill-rule:evenodd;stroke:none"
     clip-path="url(#clipWmfPath44)"
     d="m 53.6911,28.1878 0,0.0589 21.2171,0 0,-0.0589 -21.2171,0 z"
     id="path373"
     inkscape:connector-curvature="0"
     transform="matrix(0.28222222,0,0,0.28222222,-7.7275411e-7,0)" />
  <path
     style="fill:#1f1f1f;fill-opacity:1;fill-rule:evenodd;stroke:none"
     clip-path="url(#clipWmfPath44)"
     d="m 53.6911,28.2467 0,0.1177 21.2171,0 0,-0.1177 -21.2171,0 z"
     id="path375"
     inkscape:connector-curvature="0"
     transform="matrix(0.28222222,0,0,0.28222222,-7.7275411e-7,0)" />
  <path
     style="fill:#1d1d1d;fill-opacity:1;fill-rule:evenodd;stroke:none"
     clip-path="url(#clipWmfPath44)"
     d="m 53.6911,28.3644 0,0.0588 21.2171,0 0,-0.0588 -21.2171,0 z"
     id="path377"
     inkscape:connector-curvature="0"
     transform="matrix(0.28222222,0,0,0.28222222,-7.7275411e-7,0)" />
  <path
     style="fill:#1b1b1b;fill-opacity:1;fill-rule:evenodd;stroke:none"
     clip-path="url(#clipWmfPath44)"
     d="m 53.6911,28.4232 0,0.1177 21.2171,0 0,-0.1177 -21.2171,0 z"
     id="path379"
     inkscape:connector-curvature="0"
     transform="matrix(0.28222222,0,0,0.28222222,-7.7275411e-7,0)" />
  <path
     style="fill:#191919;fill-opacity:1;fill-rule:evenodd;stroke:none"
     clip-path="url(#clipWmfPath44)"
     d="m 53.6911,28.5409 0,0.0589 21.2171,0 0,-0.0589 -21.2171,0 z"
     id="path381"
     inkscape:connector-curvature="0"
     transform="matrix(0.28222222,0,0,0.28222222,-7.7275411e-7,0)" />
  <path
     style="fill:#171717;fill-opacity:1;fill-rule:evenodd;stroke:none"
     clip-path="url(#clipWmfPath44)"
     d="m 53.6911,28.5998 0,0.1177 21.2171,0 0,-0.1177 -21.2171,0 z"
     id="path383"
     inkscape:connector-curvature="0"
     transform="matrix(0.28222222,0,0,0.28222222,-7.7275411e-7,0)" />
  <path
     style="fill:#151515;fill-opacity:1;fill-rule:evenodd;stroke:none"
     clip-path="url(#clipWmfPath44)"
     d="m 53.6911,28.7175 0,0.0588 21.2171,0 0,-0.0588 -21.2171,0 z"
     id="path385"
     inkscape:connector-curvature="0"
     transform="matrix(0.28222222,0,0,0.28222222,-7.7275411e-7,0)" />
  <path
     style="fill:#131313;fill-opacity:1;fill-rule:evenodd;stroke:none"
     clip-path="url(#clipWmfPath44)"
     d="m 53.6911,28.7763 0,0.1177 21.2171,0 0,-0.1177 -21.2171,0 z"
     id="path387"
     inkscape:connector-curvature="0"
     transform="matrix(0.28222222,0,0,0.28222222,-7.7275411e-7,0)" />
  <path
     style="fill:#111111;fill-opacity:1;fill-rule:evenodd;stroke:none"
     clip-path="url(#clipWmfPath44)"
     d="m 53.6911,28.894 0,0.0589 21.2171,0 0,-0.0589 -21.2171,0 z"
     id="path389"
     inkscape:connector-curvature="0"
     transform="matrix(0.28222222,0,0,0.28222222,-7.7275411e-7,0)" />
  <path
     style="fill:#0f0f0f;fill-opacity:1;fill-rule:evenodd;stroke:none"
     clip-path="url(#clipWmfPath44)"
     d="m 53.6911,28.9529 0,0.1177 21.2171,0 0,-0.1177 -21.2171,0 z"
     id="path391"
     inkscape:connector-curvature="0"
     transform="matrix(0.28222222,0,0,0.28222222,-7.7275411e-7,0)" />
  <path
     style="fill:#0d0d0d;fill-opacity:1;fill-rule:evenodd;stroke:none"
     clip-path="url(#clipWmfPath44)"
     d="m 53.6911,29.0706 0,0.0588 21.2171,0 0,-0.0588 -21.2171,0 z"
     id="path393"
     inkscape:connector-curvature="0"
     transform="matrix(0.28222222,0,0,0.28222222,-7.7275411e-7,0)" />
  <path
     style="fill:#0b0b0b;fill-opacity:1;fill-rule:evenodd;stroke:none"
     clip-path="url(#clipWmfPath44)"
     d="m 53.6911,29.1294 0,0.1177 21.2171,0 0,-0.1177 -21.2171,0 z"
     id="path395"
     inkscape:connector-curvature="0"
     transform="matrix(0.28222222,0,0,0.28222222,-7.7275411e-7,0)" />
  <path
     style="fill:#090909;fill-opacity:1;fill-rule:evenodd;stroke:none"
     clip-path="url(#clipWmfPath44)"
     d="m 53.6911,29.2471 0,0.0588 21.2171,0 0,-0.0588 -21.2171,0 z"
     id="path397"
     inkscape:connector-curvature="0"
     transform="matrix(0.28222222,0,0,0.28222222,-7.7275411e-7,0)" />
  <path
     style="fill:#070707;fill-opacity:1;fill-rule:evenodd;stroke:none"
     clip-path="url(#clipWmfPath44)"
     d="m 53.6911,29.3059 0,0.1177 21.2171,0 0,-0.1177 -21.2171,0 z"
     id="path399"
     inkscape:connector-curvature="0"
     transform="matrix(0.28222222,0,0,0.28222222,-7.7275411e-7,0)" />
  <path
     style="fill:#050505;fill-opacity:1;fill-rule:evenodd;stroke:none"
     clip-path="url(#clipWmfPath44)"
     d="m 53.6911,29.4236 0,0.0589 21.2171,0 0,-0.0589 -21.2171,0 z"
     id="path401"
     inkscape:connector-curvature="0"
     transform="matrix(0.28222222,0,0,0.28222222,-7.7275411e-7,0)" />
  <path
     style="fill:#030303;fill-opacity:1;fill-rule:evenodd;stroke:none"
     clip-path="url(#clipWmfPath44)"
     d="m 53.6911,29.4825 0,0.1177 21.2171,0 0,-0.1177 -21.2171,0 z"
     id="path403"
     inkscape:connector-curvature="0"
     transform="matrix(0.28222222,0,0,0.28222222,-7.7275411e-7,0)" />
  <path
     style="fill:#010101;fill-opacity:1;fill-rule:evenodd;stroke:none"
     clip-path="url(#clipWmfPath44)"
     d="m 53.6911,29.6002 0,0.0588 21.2171,0 0,-0.0588 -21.2171,0 z"
     id="path405"
     inkscape:connector-curvature="0" />
  <path
     style="fill:none;stroke:#000000;stroke-width:0.08316582px;stroke-linecap:round;stroke-linejoin:round;stroke-miterlimit:4;stroke-dasharray:none;stroke-opacity:1"
     d="m 15.568647,5.1816847 -0.06655,0.033218 -0.08317,0.099653 -0.06652,0.1328702 -0.0499,0.1993053 -0.0499,0.2324947 -0.0499,0.2657405 -0.01665,0.2989297 0,0.3155527 0,0.3321756 0.01665,0.2823351 0.0499,0.2823351 0.0499,0.2325229 0.0499,0.1826824 0.06652,0.1494649 0.08317,0.099653 0.06655,0.033217 0,0 5.55546,0 0,-3.1721495 -5.55546,0 0,0"
     id="path407"
     inkscape:connector-curvature="0" />
  <path
     style="fill:none;stroke:#808080;stroke-width:0.24949744px;stroke-linecap:round;stroke-linejoin:round;stroke-miterlimit:4;stroke-dasharray:none;stroke-opacity:1"
     d="m 10.828189,6.759448 3.559499,0"
     id="path409"
     inkscape:connector-curvature="0" />
  <path
     style="fill:#808080;fill-opacity:1;fill-rule:evenodd;stroke:none"
     d="m 14.786891,6.759448 -1.19761,0.5978878 0,-1.1791527 1.19761,0.5812649 z"
     id="path411"
     inkscape:connector-curvature="0" />
  <path
     style="fill:none;stroke:#808080;stroke-width:0.24949744px;stroke-linecap:round;stroke-linejoin:round;stroke-miterlimit:4;stroke-dasharray:none;stroke-opacity:1"
     d="m 14.786891,6.759448 -1.19761,0.5978878 0,-1.1791527 1.19761,0.5812649 z"
     id="path413"
     inkscape:connector-curvature="0" />
  <path
     style="fill:#808080;fill-opacity:1;fill-rule:evenodd;stroke:none"
     d="m 10.428985,6.759448 1.180959,0.5978878 0,-1.1791527 -1.180959,0.5812649 z"
     id="path415"
     inkscape:connector-curvature="0" />
  <path
     style="fill:none;stroke:#808080;stroke-width:0.24949744px;stroke-linecap:round;stroke-linejoin:round;stroke-miterlimit:4;stroke-dasharray:none;stroke-opacity:1"
     d="m 10.428985,6.759448 1.180959,0.5978878 0,-1.1791527 -1.180959,0.5812649 z"
     id="path417"
     inkscape:connector-curvature="0" />
</svg>
