<?xml version="1.0" encoding="UTF-8" standalone="no"?>
<svg
   xmlns:dc="http://purl.org/dc/elements/1.1/"
   xmlns:cc="http://creativecommons.org/ns#"
   xmlns:rdf="http://www.w3.org/1999/02/22-rdf-syntax-ns#"
   xmlns:svg="http://www.w3.org/2000/svg"
   xmlns="http://www.w3.org/2000/svg"
   viewBox="0 0 21.723684 13.702632"
   id="svg2"
   height="13.702632mm"
   width="21.723684mm"
   version="1.0">
  <metadata
     id="metadata449">
    <rdf:RDF>
      <cc:Work
         rdf:about="">
        <dc:format>image/svg+xml</dc:format>
        <dc:type
           rdf:resource="http://purl.org/dc/dcmitype/StillImage" />
        <dc:title></dc:title>
      </cc:Work>
    </rdf:RDF>
  </metadata>
  <defs
     id="defs4">
    <clipPath
       id="clipWmfPath1"
       clipPathUnits="userSpaceOnUse">
      <path
         id="path7"
         d="m 8.63804,24.0097 57.74476,0 0,11.181 -57.74476,0 z" />
    </clipPath>
    <clipPath
       id="clipWmfPath2"
       clipPathUnits="userSpaceOnUse">
      <path
         id="path10"
         d="m 10.650391,24.009766 0,0.05859 -2.0117191,0 0,11.123047 57.7441401,0 0,-11.18164 -55.732421,0 z" />
    </clipPath>
    <clipPath
       id="clipWmfPath3"
       clipPathUnits="userSpaceOnUse">
      <path
         id="path13"
         d="m 10.650391,24.009766 0,0.05859 -0.177735,0 0,0.05859 -1.8339841,0 0,11.064453 57.7441401,0 0,-11.18164 -55.732421,0 z" />
    </clipPath>
    <clipPath
       id="clipWmfPath4"
       clipPathUnits="userSpaceOnUse">
      <path
         id="path16"
         d="m 10.650391,24.009766 0,0.05859 -0.177735,0 0,0.05859 -0.236328,0 0,0.05859 -1.5976561,0 0,11.005859 57.7441401,0 0,-11.18164 -55.732421,0 z" />
    </clipPath>
    <clipPath
       id="clipWmfPath5"
       clipPathUnits="userSpaceOnUse">
      <path
         id="path19"
         d="m 10.650391,24.009766 0,0.05859 -0.177735,0 0,0.05859 -0.236328,0 0,0.05859 -0.06055,0 0,0.05859 -1.5371091,0 0,10.947265 57.7441401,0 0,-11.18164 -55.732421,0 z" />
    </clipPath>
    <clipPath
       id="clipWmfPath6"
       clipPathUnits="userSpaceOnUse">
      <path
         id="path22"
         d="m 10.650391,24.009766 0,0.05859 -0.177735,0 0,0.05859 -0.236328,0 0,0.05859 -0.06055,0 0,0.05859 -0.05859,0 0,0.06055 -1.4785161,0 0,10.886718 57.7441401,0 0,-11.18164 -55.732421,0 z" />
    </clipPath>
    <clipPath
       id="clipWmfPath7"
       clipPathUnits="userSpaceOnUse">
      <path
         id="path25"
         d="m 10.650391,24.009766 0,0.05859 -0.177735,0 0,0.05859 -0.236328,0 0,0.05859 -0.06055,0 0,0.05859 -0.05859,0 0,0.06055 -0.05859,0 0,0.05859 -1.4199221,0 0,10.828125 57.7441401,0 0,-11.18164 -55.732421,0 z" />
    </clipPath>
    <clipPath
       id="clipWmfPath8"
       clipPathUnits="userSpaceOnUse">
      <path
         id="path28"
         d="m 10.650391,24.009766 0,0.05859 -0.177735,0 0,0.05859 -0.236328,0 0,0.05859 -0.06055,0 0,0.05859 -0.05859,0 0,0.06055 -0.05859,0 0,0.05859 -0.060547,0 0,0.05859 -1.359375,0 0,10.769531 57.74414,0 0,-11.18164 -55.732421,0 z" />
    </clipPath>
    <clipPath
       id="clipWmfPath9"
       clipPathUnits="userSpaceOnUse">
      <path
         id="path31"
         d="m 10.650391,24.009766 0,0.05859 -0.177735,0 0,0.05859 -0.236328,0 0,0.05859 -0.06055,0 0,0.05859 -0.05859,0 0,0.06055 -0.05859,0 0,0.05859 -0.060547,0 0,0.05859 -0.058594,0 0,0.05859 -1.3007812,0 0,10.710937 57.7441402,0 0,-11.18164 -55.732421,0 z" />
    </clipPath>
    <clipPath
       id="clipWmfPath10"
       clipPathUnits="userSpaceOnUse">
      <path
         id="path34"
         d="m 10.650391,24.009766 0,0.05859 -0.177735,0 0,0.05859 -0.236328,0 0,0.05859 -0.06055,0 0,0.05859 -0.05859,0 0,0.06055 -0.05859,0 0,0.05859 -0.060547,0 0,0.05859 -0.058594,0 0,0.05859 -0.058594,0 0,0.05859 -1.2421875,0 0,10.652344 57.7441405,0 0,-11.18164 -55.732421,0 z" />
    </clipPath>
    <clipPath
       id="clipWmfPath11"
       clipPathUnits="userSpaceOnUse">
      <path
         id="path37"
         d="m 10.650391,24.009766 0,0.05859 -0.177735,0 0,0.05859 -0.236328,0 0,0.05859 -0.06055,0 0,0.05859 -0.05859,0 0,0.06055 -0.05859,0 0,0.05859 -0.060547,0 0,0.05859 -0.058594,0 0,0.05859 -0.058594,0 0,0.05859 -0.058594,0 0,0.05859 -1.1835937,0 0,10.59375 57.7441397,0 0,-11.18164 -55.732421,0 z" />
    </clipPath>
    <clipPath
       id="clipWmfPath12"
       clipPathUnits="userSpaceOnUse">
      <path
         id="path40"
         d="m 10.650391,24.009766 0,0.05859 -0.177735,0 0,0.05859 -0.236328,0 0,0.05859 -0.06055,0 0,0.05859 -0.05859,0 0,0.06055 -0.05859,0 0,0.05859 -0.060547,0 0,0.05859 -0.058594,0 0,0.05859 -0.058594,0 0,0.05859 -0.058594,0 0,0.05859 -0.060547,0 0,0.119141 -1.1230469,0 0,10.474609 57.7441399,0 0,-11.18164 -55.732421,0 z" />
    </clipPath>
    <clipPath
       id="clipWmfPath13"
       clipPathUnits="userSpaceOnUse">
      <path
         id="path43"
         d="m 10.650391,24.009766 0,0.05859 -0.177735,0 0,0.05859 -0.236328,0 0,0.05859 -0.06055,0 0,0.05859 -0.05859,0 0,0.06055 -0.05859,0 0,0.05859 -0.060547,0 0,0.05859 -0.058594,0 0,0.05859 -0.058594,0 0,0.05859 -0.058594,0 0,0.05859 -0.060547,0 0,0.119141 -0.058594,0 0,0.05859 -1.0644531,0 0,10.416015 57.7441401,0 0,-11.18164 -55.732421,0 z" />
    </clipPath>
    <clipPath
       id="clipWmfPath14"
       clipPathUnits="userSpaceOnUse">
      <path
         id="path46"
         d="m 10.650391,24.009766 0,0.05859 -0.177735,0 0,0.05859 -0.236328,0 0,0.05859 -0.06055,0 0,0.05859 -0.05859,0 0,0.06055 -0.05859,0 0,0.05859 -0.060547,0 0,0.05859 -0.058594,0 0,0.05859 -0.058594,0 0,0.05859 -0.058594,0 0,0.05859 -0.060547,0 0,0.119141 -0.058594,0 0,0.05859 -0.058594,0 0,0.117187 -1.0058593,0 0,10.298828 57.7441403,0 0,-11.18164 -55.732421,0 z" />
    </clipPath>
    <clipPath
       id="clipWmfPath15"
       clipPathUnits="userSpaceOnUse">
      <path
         id="path49"
         d="m 10.650391,24.009766 0,0.05859 -0.177735,0 0,0.05859 -0.236328,0 0,0.05859 -0.06055,0 0,0.05859 -0.05859,0 0,0.06055 -0.05859,0 0,0.05859 -0.060547,0 0,0.05859 -0.058594,0 0,0.05859 -0.058594,0 0,0.05859 -0.058594,0 0,0.05859 -0.060547,0 0,0.119141 -0.058594,0 0,0.05859 -0.058594,0 0,0.117187 -0.060547,0 0,0.05859 -0.9453125,0 0,10.240234 57.7441405,0 0,-11.18164 -55.732421,0 z" />
    </clipPath>
    <clipPath
       id="clipWmfPath16"
       clipPathUnits="userSpaceOnUse">
      <path
         id="path52"
         d="m 10.650391,24.009766 0,0.05859 -0.177735,0 0,0.05859 -0.236328,0 0,0.05859 -0.06055,0 0,0.05859 -0.05859,0 0,0.06055 -0.05859,0 0,0.05859 -0.060547,0 0,0.05859 -0.058594,0 0,0.05859 -0.058594,0 0,0.05859 -0.058594,0 0,0.05859 -0.060547,0 0,0.119141 -0.058594,0 0,0.05859 -0.058594,0 0,0.117187 -0.060547,0 0,0.05859 -0.058594,0 0,0.175781 -0.8867187,0 0,10.064453 57.7441397,0 0,-11.18164 -55.732421,0 z" />
    </clipPath>
    <clipPath
       id="clipWmfPath17"
       clipPathUnits="userSpaceOnUse">
      <path
         id="path55"
         d="m 10.650391,24.009766 0,0.05859 -0.177735,0 0,0.05859 -0.236328,0 0,0.05859 -0.06055,0 0,0.05859 -0.05859,0 0,0.06055 -0.05859,0 0,0.05859 -0.060547,0 0,0.05859 -0.058594,0 0,0.05859 -0.058594,0 0,0.05859 -0.058594,0 0,0.05859 -0.060547,0 0,0.119141 -0.058594,0 0,0.05859 -0.058594,0 0,0.117187 -0.060547,0 0,0.05859 -0.058594,0 0,0.175781 -0.058594,0 0,0.119141 -0.828125,0 0,9.945312 57.74414,0 0,-11.18164 -55.732421,0 z" />
    </clipPath>
    <clipPath
       id="clipWmfPath18"
       clipPathUnits="userSpaceOnUse">
      <path
         id="path58"
         d="m 10.650391,24.009766 0,0.05859 -0.177735,0 0,0.05859 -0.236328,0 0,0.05859 -0.06055,0 0,0.05859 -0.05859,0 0,0.06055 -0.05859,0 0,0.05859 -0.060547,0 0,0.05859 -0.058594,0 0,0.05859 -0.058594,0 0,0.05859 -0.058594,0 0,0.05859 -0.060547,0 0,0.119141 -0.058594,0 0,0.05859 -0.058594,0 0,0.117187 -0.060547,0 0,0.05859 -0.058594,0 0,0.175781 -0.058594,0 0,0.119141 -0.060547,0 0,0.117187 -0.7675781,0 0,9.828125 57.7441401,0 0,-11.18164 -55.732421,0 z" />
    </clipPath>
    <clipPath
       id="clipWmfPath19"
       clipPathUnits="userSpaceOnUse">
      <path
         id="path61"
         d="m 10.650391,24.009766 0,0.05859 -0.177735,0 0,0.05859 -0.236328,0 0,0.05859 -0.06055,0 0,0.05859 -0.05859,0 0,0.06055 -0.05859,0 0,0.05859 -0.060547,0 0,0.05859 -0.058594,0 0,0.05859 -0.058594,0 0,0.05859 -0.058594,0 0,0.05859 -0.060547,0 0,0.119141 -0.058594,0 0,0.05859 -0.058594,0 0,0.117187 -0.060547,0 0,0.05859 -0.058594,0 0,0.175781 -0.058594,0 0,0.119141 -0.060547,0 0,0.117187 -0.058594,0 0,0.175781 -0.7089843,0 0,9.652344 57.7441403,0 0,-11.18164 -55.732421,0 z" />
    </clipPath>
    <clipPath
       id="clipWmfPath20"
       clipPathUnits="userSpaceOnUse">
      <path
         id="path64"
         d="m 10.650391,24.009766 0,0.05859 -0.177735,0 0,0.05859 -0.236328,0 0,0.05859 -0.06055,0 0,0.05859 -0.05859,0 0,0.06055 -0.05859,0 0,0.05859 -0.060547,0 0,0.05859 -0.058594,0 0,0.05859 -0.058594,0 0,0.05859 -0.058594,0 0,0.05859 -0.060547,0 0,0.119141 -0.058594,0 0,0.05859 -0.058594,0 0,0.117187 -0.060547,0 0,0.05859 -0.058594,0 0,0.175781 -0.058594,0 0,0.119141 -0.060547,0 0,0.117187 -0.058594,0 0,0.175781 -0.058594,0 0,0.119141 -0.6503906,0 0,9.533203 57.7441406,0 0,-11.18164 -55.732421,0 z" />
    </clipPath>
    <clipPath
       id="clipWmfPath21"
       clipPathUnits="userSpaceOnUse">
      <path
         id="path67"
         d="m 10.650391,24.009766 0,0.05859 -0.177735,0 0,0.05859 -0.236328,0 0,0.05859 -0.06055,0 0,0.05859 -0.05859,0 0,0.06055 -0.05859,0 0,0.05859 -0.060547,0 0,0.05859 -0.058594,0 0,0.05859 -0.058594,0 0,0.05859 -0.058594,0 0,0.05859 -0.060547,0 0,0.119141 -0.058594,0 0,0.05859 -0.058594,0 0,0.117187 -0.060547,0 0,0.05859 -0.058594,0 0,0.175781 -0.058594,0 0,0.119141 -0.060547,0 0,0.117187 -0.058594,0 0,0.175781 -0.058594,0 0,0.119141 -0.058594,0 0,0.175781 -0.5917969,0 0,9.357422 57.7441399,0 0,-11.18164 -55.732421,0 z" />
    </clipPath>
    <clipPath
       id="clipWmfPath22"
       clipPathUnits="userSpaceOnUse">
      <path
         id="path70"
         d="m 10.650391,24.009766 0,0.05859 -0.177735,0 0,0.05859 -0.236328,0 0,0.05859 -0.06055,0 0,0.05859 -0.05859,0 0,0.06055 -0.05859,0 0,0.05859 -0.060547,0 0,0.05859 -0.058594,0 0,0.05859 -0.058594,0 0,0.05859 -0.058594,0 0,0.05859 -0.060547,0 0,0.119141 -0.058594,0 0,0.05859 -0.058594,0 0,0.117187 -0.060547,0 0,0.05859 -0.058594,0 0,0.175781 -0.058594,0 0,0.119141 -0.060547,0 0,0.117187 -0.058594,0 0,0.175781 -0.058594,0 0,0.119141 -0.058594,0 0,0.175781 -0.060547,0 0,0.175782 -0.53125,0 0,9.18164 57.74414,0 0,-11.18164 -55.732421,0 z" />
    </clipPath>
    <clipPath
       id="clipWmfPath23"
       clipPathUnits="userSpaceOnUse">
      <path
         id="path73"
         d="m 10.650391,24.009766 0,0.05859 -0.177735,0 0,0.05859 -0.236328,0 0,0.05859 -0.06055,0 0,0.05859 -0.05859,0 0,0.06055 -0.05859,0 0,0.05859 -0.060547,0 0,0.05859 -0.058594,0 0,0.05859 -0.058594,0 0,0.05859 -0.058594,0 0,0.05859 -0.060547,0 0,0.119141 -0.058594,0 0,0.05859 -0.058594,0 0,0.117187 -0.060547,0 0,0.05859 -0.058594,0 0,0.175781 -0.058594,0 0,0.119141 -0.060547,0 0,0.117187 -0.058594,0 0,0.175781 -0.058594,0 0,0.119141 -0.058594,0 0,0.175781 -0.060547,0 0,0.175782 -0.058594,0 0,0.236328 -0.4726562,0 0,8.945312 57.7441402,0 0,-11.18164 -55.732421,0 z" />
    </clipPath>
    <clipPath
       id="clipWmfPath24"
       clipPathUnits="userSpaceOnUse">
      <path
         id="path76"
         d="m 10.650391,24.009766 0,0.05859 -0.177735,0 0,0.05859 -0.236328,0 0,0.05859 -0.06055,0 0,0.05859 -0.05859,0 0,0.06055 -0.05859,0 0,0.05859 -0.060547,0 0,0.05859 -0.058594,0 0,0.05859 -0.058594,0 0,0.05859 -0.058594,0 0,0.05859 -0.060547,0 0,0.119141 -0.058594,0 0,0.05859 -0.058594,0 0,0.117187 -0.060547,0 0,0.05859 -0.058594,0 0,0.175781 -0.058594,0 0,0.119141 -0.060547,0 0,0.117187 -0.058594,0 0,0.175781 -0.058594,0 0,0.119141 -0.058594,0 0,0.175781 -0.060547,0 0,0.175782 -0.058594,0 0,0.236328 -0.058594,0 0,0.175781 -0.4140625,0 0,8.769531 57.7441405,0 0,-11.18164 -55.732421,0 z" />
    </clipPath>
    <clipPath
       id="clipWmfPath25"
       clipPathUnits="userSpaceOnUse">
      <path
         id="path79"
         d="m 10.650391,24.009766 0,0.05859 -0.177735,0 0,0.05859 -0.236328,0 0,0.05859 -0.06055,0 0,0.05859 -0.05859,0 0,0.06055 -0.05859,0 0,0.05859 -0.060547,0 0,0.05859 -0.058594,0 0,0.05859 -0.058594,0 0,0.05859 -0.058594,0 0,0.05859 -0.060547,0 0,0.119141 -0.058594,0 0,0.05859 -0.058594,0 0,0.117187 -0.060547,0 0,0.05859 -0.058594,0 0,0.175781 -0.058594,0 0,0.119141 -0.060547,0 0,0.117187 -0.058594,0 0,0.175781 -0.058594,0 0,0.119141 -0.058594,0 0,0.175781 -0.060547,0 0,0.175782 -0.058594,0 0,0.236328 -0.058594,0 0,0.175781 -0.060547,0 0,0.294922 -0.3535156,0 0,8.474609 57.7441406,0 0,-11.18164 -55.732421,0 z" />
    </clipPath>
    <clipPath
       id="clipWmfPath26"
       clipPathUnits="userSpaceOnUse">
      <path
         id="path82"
         d="m 10.650391,24.009766 0,0.05859 -0.177735,0 0,0.05859 -0.236328,0 0,0.05859 -0.06055,0 0,0.05859 -0.05859,0 0,0.06055 -0.05859,0 0,0.05859 -0.060547,0 0,0.05859 -0.058594,0 0,0.05859 -0.058594,0 0,0.05859 -0.058594,0 0,0.05859 -0.060547,0 0,0.119141 -0.058594,0 0,0.05859 -0.058594,0 0,0.117187 -0.060547,0 0,0.05859 -0.058594,0 0,0.175781 -0.058594,0 0,0.119141 -0.060547,0 0,0.117187 -0.058594,0 0,0.175781 -0.058594,0 0,0.119141 -0.058594,0 0,0.175781 -0.060547,0 0,0.175782 -0.058594,0 0,0.236328 -0.058594,0 0,0.175781 -0.060547,0 0,0.294922 -0.058594,0 0,0.294922 -0.2949219,0 0,8.179687 57.7441399,0 0,-11.18164 -55.732421,0 z" />
    </clipPath>
    <clipPath
       id="clipWmfPath27"
       clipPathUnits="userSpaceOnUse">
      <path
         id="path85"
         d="m 10.650391,24.009766 0,0.05859 -0.177735,0 0,0.05859 -0.236328,0 0,0.05859 -0.06055,0 0,0.05859 -0.05859,0 0,0.06055 -0.05859,0 0,0.05859 -0.060547,0 0,0.05859 -0.058594,0 0,0.05859 -0.058594,0 0,0.05859 -0.058594,0 0,0.05859 -0.060547,0 0,0.119141 -0.058594,0 0,0.05859 -0.058594,0 0,0.117187 -0.060547,0 0,0.05859 -0.058594,0 0,0.175781 -0.058594,0 0,0.119141 -0.060547,0 0,0.117187 -0.058594,0 0,0.175781 -0.058594,0 0,0.119141 -0.058594,0 0,0.175781 -0.060547,0 0,0.175782 -0.058594,0 0,0.236328 -0.058594,0 0,0.175781 -0.060547,0 0,0.294922 -0.058594,0 0,0.294922 -0.058594,0 0,0.292969 -0.2363281,0 0,7.886718 57.7441401,0 0,-11.18164 -55.732421,0 z" />
    </clipPath>
    <clipPath
       id="clipWmfPath28"
       clipPathUnits="userSpaceOnUse">
      <path
         id="path88"
         d="m 10.650391,24.009766 0,0.05859 -0.177735,0 0,0.05859 -0.236328,0 0,0.05859 -0.06055,0 0,0.05859 -0.05859,0 0,0.06055 -0.05859,0 0,0.05859 -0.060547,0 0,0.05859 -0.058594,0 0,0.05859 -0.058594,0 0,0.05859 -0.058594,0 0,0.05859 -0.060547,0 0,0.119141 -0.058594,0 0,0.05859 -0.058594,0 0,0.117187 -0.060547,0 0,0.05859 -0.058594,0 0,0.175781 -0.058594,0 0,0.119141 -0.060547,0 0,0.117187 -0.058594,0 0,0.175781 -0.058594,0 0,0.119141 -0.058594,0 0,0.175781 -0.060547,0 0,0.175782 -0.058594,0 0,0.236328 -0.058594,0 0,0.175781 -0.060547,0 0,0.294922 -0.058594,0 0,0.294922 -0.058594,0 0,0.292969 -0.058594,0 0,0.470703 -0.1777343,0 0,7.416015 57.7441403,0 0,-11.18164 -55.732421,0 z" />
    </clipPath>
    <clipPath
       id="clipWmfPath29"
       clipPathUnits="userSpaceOnUse">
      <path
         id="path91"
         d="m 10.650391,24.009766 0,0.05859 -0.177735,0 0,0.05859 -0.236328,0 0,0.05859 -0.06055,0 0,0.05859 -0.05859,0 0,0.06055 -0.05859,0 0,0.05859 -0.060547,0 0,0.05859 -0.058594,0 0,0.05859 -0.058594,0 0,0.05859 -0.058594,0 0,0.05859 -0.060547,0 0,0.119141 -0.058594,0 0,0.05859 -0.058594,0 0,0.117187 -0.060547,0 0,0.05859 -0.058594,0 0,0.175781 -0.058594,0 0,0.119141 -0.060547,0 0,0.117187 -0.058594,0 0,0.175781 -0.058594,0 0,0.119141 -0.058594,0 0,0.175781 -0.060547,0 0,0.175782 -0.058594,0 0,0.236328 -0.058594,0 0,0.175781 -0.060547,0 0,0.294922 -0.058594,0 0,0.294922 -0.058594,0 0,0.292969 -0.058594,0 0,0.470703 -0.060547,0 0,0.529297 -0.1171875,0 0,6.886718 57.7441405,0 0,-11.18164 -55.732421,0 z" />
    </clipPath>
    <clipPath
       id="clipWmfPath30"
       clipPathUnits="userSpaceOnUse">
      <path
         id="path94"
         d="m 10.650391,24.009766 0,0.05859 -0.177735,0 0,0.05859 -0.236328,0 0,0.05859 -0.06055,0 0,0.05859 -0.05859,0 0,0.06055 -0.05859,0 0,0.05859 -0.060547,0 0,0.05859 -0.058594,0 0,0.05859 -0.058594,0 0,0.05859 -0.058594,0 0,0.05859 -0.060547,0 0,0.119141 -0.058594,0 0,0.05859 -0.058594,0 0,0.117187 -0.060547,0 0,0.05859 -0.058594,0 0,0.175781 -0.058594,0 0,0.119141 -0.060547,0 0,0.117187 -0.058594,0 0,0.175781 -0.058594,0 0,0.119141 -0.058594,0 0,0.175781 -0.060547,0 0,0.175782 -0.058594,0 0,0.236328 -0.058594,0 0,0.175781 -0.060547,0 0,0.294922 -0.058594,0 0,0.294922 -0.058594,0 0,0.292969 -0.058594,0 0,0.470703 -0.060547,0 0,0.529297 -0.058594,0 0,1.294921 -0.058594,0 0,5.591797 57.74414,0 0,-11.18164 -55.732421,0 z" />
    </clipPath>
    <clipPath
       id="clipWmfPath31"
       clipPathUnits="userSpaceOnUse">
      <path
         id="path97"
         d="m 10.650391,24.009766 0,0.05859 -0.177735,0 0,0.05859 -0.236328,0 0,0.05859 -0.06055,0 0,0.05859 -0.05859,0 0,0.06055 -0.05859,0 0,0.05859 -0.060547,0 0,0.05859 -0.058594,0 0,0.05859 -0.058594,0 0,0.05859 -0.058594,0 0,0.05859 -0.060547,0 0,0.119141 -0.058594,0 0,0.05859 -0.058594,0 0,0.117187 -0.060547,0 0,0.05859 -0.058594,0 0,0.175781 -0.058594,0 0,0.119141 -0.060547,0 0,0.117187 -0.058594,0 0,0.175781 -0.058594,0 0,0.119141 -0.058594,0 0,0.175781 -0.060547,0 0,0.175782 -0.058594,0 0,0.236328 -0.058594,0 0,0.175781 -0.060547,0 0,0.294922 -0.058594,0 0,0.294922 -0.058594,0 0,0.292969 -0.058594,0 0,0.470703 -0.060547,0 0,0.529297 -0.058594,0 0,1.294921 -0.058594,0 0,0.05859 0.058594,0 0,1.294922 -0.058594,0 0,4.238281 57.74414,0 0,-11.18164 -55.732421,0 z" />
    </clipPath>
    <clipPath
       id="clipWmfPath32"
       clipPathUnits="userSpaceOnUse">
      <path
         id="path100"
         d="m 10.650391,24.009766 0,0.05859 -0.177735,0 0,0.05859 -0.236328,0 0,0.05859 -0.06055,0 0,0.05859 -0.05859,0 0,0.06055 -0.05859,0 0,0.05859 -0.060547,0 0,0.05859 -0.058594,0 0,0.05859 -0.058594,0 0,0.05859 -0.058594,0 0,0.05859 -0.060547,0 0,0.119141 -0.058594,0 0,0.05859 -0.058594,0 0,0.117187 -0.060547,0 0,0.05859 -0.058594,0 0,0.175781 -0.058594,0 0,0.119141 -0.060547,0 0,0.117187 -0.058594,0 0,0.175781 -0.058594,0 0,0.119141 -0.058594,0 0,0.175781 -0.060547,0 0,0.175782 -0.058594,0 0,0.236328 -0.058594,0 0,0.175781 -0.060547,0 0,0.294922 -0.058594,0 0,0.294922 -0.058594,0 0,0.292969 -0.058594,0 0,0.470703 -0.060547,0 0,0.529297 -0.058594,0 0,1.294921 -0.058594,0 0,0.05859 0.058594,0 0,1.294922 0.058594,0 0,0.529297 -0.1171875,0 0,3.708984 57.7441405,0 0,-11.18164 -55.732421,0 z" />
    </clipPath>
    <clipPath
       id="clipWmfPath33"
       clipPathUnits="userSpaceOnUse">
      <path
         id="path103"
         d="m 10.650391,24.009766 0,0.05859 -0.177735,0 0,0.05859 -0.236328,0 0,0.05859 -0.06055,0 0,0.05859 -0.05859,0 0,0.06055 -0.05859,0 0,0.05859 -0.060547,0 0,0.05859 -0.058594,0 0,0.05859 -0.058594,0 0,0.05859 -0.058594,0 0,0.05859 -0.060547,0 0,0.119141 -0.058594,0 0,0.05859 -0.058594,0 0,0.117187 -0.060547,0 0,0.05859 -0.058594,0 0,0.175781 -0.058594,0 0,0.119141 -0.060547,0 0,0.117187 -0.058594,0 0,0.175781 -0.058594,0 0,0.119141 -0.058594,0 0,0.175781 -0.060547,0 0,0.175782 -0.058594,0 0,0.236328 -0.058594,0 0,0.175781 -0.060547,0 0,0.294922 -0.058594,0 0,0.294922 -0.058594,0 0,0.292969 -0.058594,0 0,0.470703 -0.060547,0 0,0.529297 -0.058594,0 0,1.294921 -0.058594,0 0,0.05859 0.058594,0 0,1.294922 0.058594,0 0,0.529297 0.060547,0 0,0.470703 -0.1777343,0 0,3.238281 57.7441403,0 0,-11.18164 -55.732421,0 z" />
    </clipPath>
    <clipPath
       id="clipWmfPath34"
       clipPathUnits="userSpaceOnUse">
      <path
         id="path106"
         d="m 10.650391,24.009766 0,0.05859 -0.177735,0 0,0.05859 -0.236328,0 0,0.05859 -0.06055,0 0,0.05859 -0.05859,0 0,0.06055 -0.05859,0 0,0.05859 -0.060547,0 0,0.05859 -0.058594,0 0,0.05859 -0.058594,0 0,0.05859 -0.058594,0 0,0.05859 -0.060547,0 0,0.119141 -0.058594,0 0,0.05859 -0.058594,0 0,0.117187 -0.060547,0 0,0.05859 -0.058594,0 0,0.175781 -0.058594,0 0,0.119141 -0.060547,0 0,0.117187 -0.058594,0 0,0.175781 -0.058594,0 0,0.119141 -0.058594,0 0,0.175781 -0.060547,0 0,0.175782 -0.058594,0 0,0.236328 -0.058594,0 0,0.175781 -0.060547,0 0,0.294922 -0.058594,0 0,0.294922 -0.058594,0 0,0.292969 -0.058594,0 0,0.470703 -0.060547,0 0,0.529297 -0.058594,0 0,1.294921 -0.058594,0 0,0.05859 0.058594,0 0,1.294922 0.058594,0 0,0.529297 0.060547,0 0,0.470703 0.058594,0 0,0.294922 -0.2363281,0 0,2.943359 57.7441401,0 0,-11.18164 -55.732421,0 z" />
    </clipPath>
    <clipPath
       id="clipWmfPath35"
       clipPathUnits="userSpaceOnUse">
      <path
         id="path109"
         d="m 10.650391,24.009766 0,0.05859 -0.177735,0 0,0.05859 -0.236328,0 0,0.05859 -0.06055,0 0,0.05859 -0.05859,0 0,0.06055 -0.05859,0 0,0.05859 -0.060547,0 0,0.05859 -0.058594,0 0,0.05859 -0.058594,0 0,0.05859 -0.058594,0 0,0.05859 -0.060547,0 0,0.119141 -0.058594,0 0,0.05859 -0.058594,0 0,0.117187 -0.060547,0 0,0.05859 -0.058594,0 0,0.175781 -0.058594,0 0,0.119141 -0.060547,0 0,0.117187 -0.058594,0 0,0.175781 -0.058594,0 0,0.119141 -0.058594,0 0,0.175781 -0.060547,0 0,0.175782 -0.058594,0 0,0.236328 -0.058594,0 0,0.175781 -0.060547,0 0,0.294922 -0.058594,0 0,0.294922 -0.058594,0 0,0.292969 -0.058594,0 0,0.470703 -0.060547,0 0,0.529297 -0.058594,0 0,1.294921 -0.058594,0 0,0.05859 0.058594,0 0,1.294922 0.058594,0 0,0.529297 0.060547,0 0,0.470703 0.058594,0 0,0.294922 0.058594,0 0,0.294922 -0.2949219,0 0,2.648437 57.7441399,0 0,-11.18164 -55.732421,0 z" />
    </clipPath>
    <clipPath
       id="clipWmfPath36"
       clipPathUnits="userSpaceOnUse">
      <path
         id="path112"
         d="m 10.650391,24.009766 0,0.05859 -0.177735,0 0,0.05859 -0.236328,0 0,0.05859 -0.06055,0 0,0.05859 -0.05859,0 0,0.06055 -0.05859,0 0,0.05859 -0.060547,0 0,0.05859 -0.058594,0 0,0.05859 -0.058594,0 0,0.05859 -0.058594,0 0,0.05859 -0.060547,0 0,0.119141 -0.058594,0 0,0.05859 -0.058594,0 0,0.117187 -0.060547,0 0,0.05859 -0.058594,0 0,0.175781 -0.058594,0 0,0.119141 -0.060547,0 0,0.117187 -0.058594,0 0,0.175781 -0.058594,0 0,0.119141 -0.058594,0 0,0.175781 -0.060547,0 0,0.175782 -0.058594,0 0,0.236328 -0.058594,0 0,0.175781 -0.060547,0 0,0.294922 -0.058594,0 0,0.294922 -0.058594,0 0,0.292969 -0.058594,0 0,0.470703 -0.060547,0 0,0.529297 -0.058594,0 0,1.294921 -0.058594,0 0,0.05859 0.058594,0 0,1.294922 0.058594,0 0,0.529297 0.060547,0 0,0.470703 0.058594,0 0,0.294922 0.058594,0 0,0.294922 0.058594,0 0,0.292969 -0.3535156,0 0,2.355468 57.7441406,0 0,-11.18164 -55.732421,0 z" />
    </clipPath>
    <clipPath
       id="clipWmfPath37"
       clipPathUnits="userSpaceOnUse">
      <path
         id="path115"
         d="m 10.650391,24.009766 0,0.05859 -0.177735,0 0,0.05859 -0.236328,0 0,0.05859 -0.06055,0 0,0.05859 -0.05859,0 0,0.06055 -0.05859,0 0,0.05859 -0.060547,0 0,0.05859 -0.058594,0 0,0.05859 -0.058594,0 0,0.05859 -0.058594,0 0,0.05859 -0.060547,0 0,0.119141 -0.058594,0 0,0.05859 -0.058594,0 0,0.117187 -0.060547,0 0,0.05859 -0.058594,0 0,0.175781 -0.058594,0 0,0.119141 -0.060547,0 0,0.117187 -0.058594,0 0,0.175781 -0.058594,0 0,0.119141 -0.058594,0 0,0.175781 -0.060547,0 0,0.175782 -0.058594,0 0,0.236328 -0.058594,0 0,0.175781 -0.060547,0 0,0.294922 -0.058594,0 0,0.294922 -0.058594,0 0,0.292969 -0.058594,0 0,0.470703 -0.060547,0 0,0.529297 -0.058594,0 0,1.294921 -0.058594,0 0,0.05859 0.058594,0 0,1.294922 0.058594,0 0,0.529297 0.060547,0 0,0.470703 0.058594,0 0,0.294922 0.058594,0 0,0.294922 0.058594,0 0,0.292969 0.060547,0 0,0.177734 -0.4140625,0 0,2.177734 57.7441405,0 0,-11.18164 -55.732421,0 z" />
    </clipPath>
    <clipPath
       id="clipWmfPath38"
       clipPathUnits="userSpaceOnUse">
      <path
         id="path118"
         d="m 10.650391,24.009766 0,0.05859 -0.177735,0 0,0.05859 -0.236328,0 0,0.05859 -0.06055,0 0,0.05859 -0.05859,0 0,0.06055 -0.05859,0 0,0.05859 -0.060547,0 0,0.05859 -0.058594,0 0,0.05859 -0.058594,0 0,0.05859 -0.058594,0 0,0.05859 -0.060547,0 0,0.119141 -0.058594,0 0,0.05859 -0.058594,0 0,0.117187 -0.060547,0 0,0.05859 -0.058594,0 0,0.175781 -0.058594,0 0,0.119141 -0.060547,0 0,0.117187 -0.058594,0 0,0.175781 -0.058594,0 0,0.119141 -0.058594,0 0,0.175781 -0.060547,0 0,0.175782 -0.058594,0 0,0.236328 -0.058594,0 0,0.175781 -0.060547,0 0,0.294922 -0.058594,0 0,0.294922 -0.058594,0 0,0.292969 -0.058594,0 0,0.470703 -0.060547,0 0,0.529297 -0.058594,0 0,1.294921 -0.058594,0 0,0.05859 0.058594,0 0,1.294922 0.058594,0 0,0.529297 0.060547,0 0,0.470703 0.058594,0 0,0.294922 0.058594,0 0,0.294922 0.058594,0 0,0.292969 0.060547,0 0,0.177734 0.058594,0 0,0.234375 -0.4726562,0 0,1.943359 57.7441402,0 0,-11.18164 -55.732421,0 z" />
    </clipPath>
    <clipPath
       id="clipWmfPath39"
       clipPathUnits="userSpaceOnUse">
      <path
         id="path121"
         d="m 10.650391,24.009766 0,0.05859 -0.177735,0 0,0.05859 -0.236328,0 0,0.05859 -0.06055,0 0,0.05859 -0.05859,0 0,0.06055 -0.05859,0 0,0.05859 -0.060547,0 0,0.05859 -0.058594,0 0,0.05859 -0.058594,0 0,0.05859 -0.058594,0 0,0.05859 -0.060547,0 0,0.119141 -0.058594,0 0,0.05859 -0.058594,0 0,0.117187 -0.060547,0 0,0.05859 -0.058594,0 0,0.175781 -0.058594,0 0,0.119141 -0.060547,0 0,0.117187 -0.058594,0 0,0.175781 -0.058594,0 0,0.119141 -0.058594,0 0,0.175781 -0.060547,0 0,0.175782 -0.058594,0 0,0.236328 -0.058594,0 0,0.175781 -0.060547,0 0,0.294922 -0.058594,0 0,0.294922 -0.058594,0 0,0.292969 -0.058594,0 0,0.470703 -0.060547,0 0,0.529297 -0.058594,0 0,1.294921 -0.058594,0 0,0.05859 0.058594,0 0,1.294922 0.058594,0 0,0.529297 0.060547,0 0,0.470703 0.058594,0 0,0.294922 0.058594,0 0,0.294922 0.058594,0 0,0.292969 0.060547,0 0,0.177734 0.058594,0 0,0.234375 0.058594,0 0,0.177734 -0.53125,0 0,1.765625 57.74414,0 0,-11.18164 -55.732421,0 z" />
    </clipPath>
    <clipPath
       id="clipWmfPath40"
       clipPathUnits="userSpaceOnUse">
      <path
         id="path124"
         d="m 10.650391,24.009766 0,0.05859 -0.177735,0 0,0.05859 -0.236328,0 0,0.05859 -0.06055,0 0,0.05859 -0.05859,0 0,0.06055 -0.05859,0 0,0.05859 -0.060547,0 0,0.05859 -0.058594,0 0,0.05859 -0.058594,0 0,0.05859 -0.058594,0 0,0.05859 -0.060547,0 0,0.119141 -0.058594,0 0,0.05859 -0.058594,0 0,0.117187 -0.060547,0 0,0.05859 -0.058594,0 0,0.175781 -0.058594,0 0,0.119141 -0.060547,0 0,0.117187 -0.058594,0 0,0.175781 -0.058594,0 0,0.119141 -0.058594,0 0,0.175781 -0.060547,0 0,0.175782 -0.058594,0 0,0.236328 -0.058594,0 0,0.175781 -0.060547,0 0,0.294922 -0.058594,0 0,0.294922 -0.058594,0 0,0.292969 -0.058594,0 0,0.470703 -0.060547,0 0,0.529297 -0.058594,0 0,1.294921 -0.058594,0 0,0.05859 0.058594,0 0,1.294922 0.058594,0 0,0.529297 0.060547,0 0,0.470703 0.058594,0 0,0.294922 0.058594,0 0,0.294922 0.058594,0 0,0.292969 0.060547,0 0,0.177734 0.058594,0 0,0.234375 0.058594,0 0,0.177734 0.060547,0 0,0.175781 -0.5917969,0 0,1.589844 57.7441399,0 0,-11.18164 -55.732421,0 z" />
    </clipPath>
    <clipPath
       id="clipWmfPath41"
       clipPathUnits="userSpaceOnUse">
      <path
         id="path127"
         d="m 10.650391,24.009766 0,0.05859 -0.177735,0 0,0.05859 -0.236328,0 0,0.05859 -0.06055,0 0,0.05859 -0.05859,0 0,0.06055 -0.05859,0 0,0.05859 -0.060547,0 0,0.05859 -0.058594,0 0,0.05859 -0.058594,0 0,0.05859 -0.058594,0 0,0.05859 -0.060547,0 0,0.119141 -0.058594,0 0,0.05859 -0.058594,0 0,0.117187 -0.060547,0 0,0.05859 -0.058594,0 0,0.175781 -0.058594,0 0,0.119141 -0.060547,0 0,0.117187 -0.058594,0 0,0.175781 -0.058594,0 0,0.119141 -0.058594,0 0,0.175781 -0.060547,0 0,0.175782 -0.058594,0 0,0.236328 -0.058594,0 0,0.175781 -0.060547,0 0,0.294922 -0.058594,0 0,0.294922 -0.058594,0 0,0.292969 -0.058594,0 0,0.470703 -0.060547,0 0,0.529297 -0.058594,0 0,1.294921 -0.058594,0 0,0.05859 0.058594,0 0,1.294922 0.058594,0 0,0.529297 0.060547,0 0,0.470703 0.058594,0 0,0.294922 0.058594,0 0,0.294922 0.058594,0 0,0.292969 0.060547,0 0,0.177734 0.058594,0 0,0.234375 0.058594,0 0,0.177734 0.060547,0 0,0.175781 0.058594,0 0,0.117188 -0.6503906,0 0,1.472656 57.7441406,0 0,-11.18164 -55.732421,0 z" />
    </clipPath>
    <clipPath
       id="clipWmfPath42"
       clipPathUnits="userSpaceOnUse">
      <path
         id="path130"
         d="m 10.650391,24.009766 0,0.05859 -0.177735,0 0,0.05859 -0.236328,0 0,0.05859 -0.06055,0 0,0.05859 -0.05859,0 0,0.06055 -0.05859,0 0,0.05859 -0.060547,0 0,0.05859 -0.058594,0 0,0.05859 -0.058594,0 0,0.05859 -0.058594,0 0,0.05859 -0.060547,0 0,0.119141 -0.058594,0 0,0.05859 -0.058594,0 0,0.117187 -0.060547,0 0,0.05859 -0.058594,0 0,0.175781 -0.058594,0 0,0.119141 -0.060547,0 0,0.117187 -0.058594,0 0,0.175781 -0.058594,0 0,0.119141 -0.058594,0 0,0.175781 -0.060547,0 0,0.175782 -0.058594,0 0,0.236328 -0.058594,0 0,0.175781 -0.060547,0 0,0.294922 -0.058594,0 0,0.294922 -0.058594,0 0,0.292969 -0.058594,0 0,0.470703 -0.060547,0 0,0.529297 -0.058594,0 0,1.294921 -0.058594,0 0,0.05859 0.058594,0 0,1.294922 0.058594,0 0,0.529297 0.060547,0 0,0.470703 0.058594,0 0,0.294922 0.058594,0 0,0.294922 0.058594,0 0,0.292969 0.060547,0 0,0.177734 0.058594,0 0,0.234375 0.058594,0 0,0.177734 0.060547,0 0,0.175781 0.058594,0 0,0.117188 0.058594,0 0,0.177734 -0.7089843,0 0,1.294922 57.7441403,0 0,-11.18164 -55.732421,0 z" />
    </clipPath>
    <clipPath
       id="clipWmfPath43"
       clipPathUnits="userSpaceOnUse">
      <path
         id="path133"
         d="m 10.650391,24.009766 0,0.05859 -0.177735,0 0,0.05859 -0.236328,0 0,0.05859 -0.06055,0 0,0.05859 -0.05859,0 0,0.06055 -0.05859,0 0,0.05859 -0.060547,0 0,0.05859 -0.058594,0 0,0.05859 -0.058594,0 0,0.05859 -0.058594,0 0,0.05859 -0.060547,0 0,0.119141 -0.058594,0 0,0.05859 -0.058594,0 0,0.117187 -0.060547,0 0,0.05859 -0.058594,0 0,0.175781 -0.058594,0 0,0.119141 -0.060547,0 0,0.117187 -0.058594,0 0,0.175781 -0.058594,0 0,0.119141 -0.058594,0 0,0.175781 -0.060547,0 0,0.175782 -0.058594,0 0,0.236328 -0.058594,0 0,0.175781 -0.060547,0 0,0.294922 -0.058594,0 0,0.294922 -0.058594,0 0,0.292969 -0.058594,0 0,0.470703 -0.060547,0 0,0.529297 -0.058594,0 0,1.294921 -0.058594,0 0,0.05859 0.058594,0 0,1.294922 0.058594,0 0,0.529297 0.060547,0 0,0.470703 0.058594,0 0,0.294922 0.058594,0 0,0.294922 0.058594,0 0,0.292969 0.060547,0 0,0.177734 0.058594,0 0,0.234375 0.058594,0 0,0.177734 0.060547,0 0,0.175781 0.058594,0 0,0.117188 0.058594,0 0,0.177734 0.058594,0 0,0.117188 -0.7675781,0 0,1.177734 57.7441401,0 0,-11.18164 -55.732421,0 z" />
    </clipPath>
    <clipPath
       id="clipWmfPath44"
       clipPathUnits="userSpaceOnUse">
      <path
         id="path136"
         d="m 10.650391,24.009766 0,0.05859 -0.177735,0 0,0.05859 -0.236328,0 0,0.05859 -0.06055,0 0,0.05859 -0.05859,0 0,0.06055 -0.05859,0 0,0.05859 -0.060547,0 0,0.05859 -0.058594,0 0,0.05859 -0.058594,0 0,0.05859 -0.058594,0 0,0.05859 -0.060547,0 0,0.119141 -0.058594,0 0,0.05859 -0.058594,0 0,0.117187 -0.060547,0 0,0.05859 -0.058594,0 0,0.175781 -0.058594,0 0,0.119141 -0.060547,0 0,0.117187 -0.058594,0 0,0.175781 -0.058594,0 0,0.119141 -0.058594,0 0,0.175781 -0.060547,0 0,0.175782 -0.058594,0 0,0.236328 -0.058594,0 0,0.175781 -0.060547,0 0,0.294922 -0.058594,0 0,0.294922 -0.058594,0 0,0.292969 -0.058594,0 0,0.470703 -0.060547,0 0,0.529297 -0.058594,0 0,1.294921 -0.058594,0 0,0.05859 0.058594,0 0,1.294922 0.058594,0 0,0.529297 0.060547,0 0,0.470703 0.058594,0 0,0.294922 0.058594,0 0,0.294922 0.058594,0 0,0.292969 0.060547,0 0,0.177734 0.058594,0 0,0.234375 0.058594,0 0,0.177734 0.060547,0 0,0.175781 0.058594,0 0,0.117188 0.058594,0 0,0.177734 0.058594,0 0,0.117188 0.060547,0 0,0.117187 -0.828125,0 0,1.060547 57.74414,0 0,-11.18164 -55.732421,0 z" />
    </clipPath>
    <clipPath
       id="clipWmfPath45"
       clipPathUnits="userSpaceOnUse">
      <path
         id="path139"
         d="m 10.650391,24.009766 0,0.05859 -0.177735,0 0,0.05859 -0.236328,0 0,0.05859 -0.06055,0 0,0.05859 -0.05859,0 0,0.06055 -0.05859,0 0,0.05859 -0.060547,0 0,0.05859 -0.058594,0 0,0.05859 -0.058594,0 0,0.05859 -0.058594,0 0,0.05859 -0.060547,0 0,0.119141 -0.058594,0 0,0.05859 -0.058594,0 0,0.117187 -0.060547,0 0,0.05859 -0.058594,0 0,0.175781 -0.058594,0 0,0.119141 -0.060547,0 0,0.117187 -0.058594,0 0,0.175781 -0.058594,0 0,0.119141 -0.058594,0 0,0.175781 -0.060547,0 0,0.175782 -0.058594,0 0,0.236328 -0.058594,0 0,0.175781 -0.060547,0 0,0.294922 -0.058594,0 0,0.294922 -0.058594,0 0,0.292969 -0.058594,0 0,0.470703 -0.060547,0 0,0.529297 -0.058594,0 0,1.294921 -0.058594,0 0,0.05859 0.058594,0 0,1.294922 0.058594,0 0,0.529297 0.060547,0 0,0.470703 0.058594,0 0,0.294922 0.058594,0 0,0.294922 0.058594,0 0,0.292969 0.060547,0 0,0.177734 0.058594,0 0,0.234375 0.058594,0 0,0.177734 0.060547,0 0,0.175781 0.058594,0 0,0.117188 0.058594,0 0,0.177734 0.058594,0 0,0.117188 0.060547,0 0,0.117187 0.058594,0 0,0.177735 -0.8867187,0 0,0.882812 57.7441397,0 0,-11.18164 -55.732421,0 z" />
    </clipPath>
    <clipPath
       id="clipWmfPath46"
       clipPathUnits="userSpaceOnUse">
      <path
         id="path142"
         d="m 10.650391,24.009766 0,0.05859 -0.177735,0 0,0.05859 -0.236328,0 0,0.05859 -0.06055,0 0,0.05859 -0.05859,0 0,0.06055 -0.05859,0 0,0.05859 -0.060547,0 0,0.05859 -0.058594,0 0,0.05859 -0.058594,0 0,0.05859 -0.058594,0 0,0.05859 -0.060547,0 0,0.119141 -0.058594,0 0,0.05859 -0.058594,0 0,0.117187 -0.060547,0 0,0.05859 -0.058594,0 0,0.175781 -0.058594,0 0,0.119141 -0.060547,0 0,0.117187 -0.058594,0 0,0.175781 -0.058594,0 0,0.119141 -0.058594,0 0,0.175781 -0.060547,0 0,0.175782 -0.058594,0 0,0.236328 -0.058594,0 0,0.175781 -0.060547,0 0,0.294922 -0.058594,0 0,0.294922 -0.058594,0 0,0.292969 -0.058594,0 0,0.470703 -0.060547,0 0,0.529297 -0.058594,0 0,1.294921 -0.058594,0 0,0.05859 0.058594,0 0,1.294922 0.058594,0 0,0.529297 0.060547,0 0,0.470703 0.058594,0 0,0.294922 0.058594,0 0,0.294922 0.058594,0 0,0.292969 0.060547,0 0,0.177734 0.058594,0 0,0.234375 0.058594,0 0,0.177734 0.060547,0 0,0.175781 0.058594,0 0,0.117188 0.058594,0 0,0.177734 0.058594,0 0,0.117188 0.060547,0 0,0.117187 0.058594,0 0,0.177735 0.058594,0 0,0.05859 -0.9453125,0 0,0.824218 57.7441405,0 0,-11.18164 -55.732421,0 z" />
    </clipPath>
    <clipPath
       id="clipWmfPath47"
       clipPathUnits="userSpaceOnUse">
      <path
         id="path145"
         d="m 10.650391,24.009766 0,0.05859 -0.177735,0 0,0.05859 -0.236328,0 0,0.05859 -0.06055,0 0,0.05859 -0.05859,0 0,0.06055 -0.05859,0 0,0.05859 -0.060547,0 0,0.05859 -0.058594,0 0,0.05859 -0.058594,0 0,0.05859 -0.058594,0 0,0.05859 -0.060547,0 0,0.119141 -0.058594,0 0,0.05859 -0.058594,0 0,0.117187 -0.060547,0 0,0.05859 -0.058594,0 0,0.175781 -0.058594,0 0,0.119141 -0.060547,0 0,0.117187 -0.058594,0 0,0.175781 -0.058594,0 0,0.119141 -0.058594,0 0,0.175781 -0.060547,0 0,0.175782 -0.058594,0 0,0.236328 -0.058594,0 0,0.175781 -0.060547,0 0,0.294922 -0.058594,0 0,0.294922 -0.058594,0 0,0.292969 -0.058594,0 0,0.470703 -0.060547,0 0,0.529297 -0.058594,0 0,1.294921 -0.058594,0 0,0.05859 0.058594,0 0,1.294922 0.058594,0 0,0.529297 0.060547,0 0,0.470703 0.058594,0 0,0.294922 0.058594,0 0,0.294922 0.058594,0 0,0.292969 0.060547,0 0,0.177734 0.058594,0 0,0.234375 0.058594,0 0,0.177734 0.060547,0 0,0.175781 0.058594,0 0,0.117188 0.058594,0 0,0.177734 0.058594,0 0,0.117188 0.060547,0 0,0.117187 0.058594,0 0,0.177735 0.058594,0 0,0.05859 0.060547,0 0,0.117187 -1.0058593,0 0,0.707031 57.7441403,0 0,-11.18164 -55.732421,0 z" />
    </clipPath>
    <clipPath
       id="clipWmfPath48"
       clipPathUnits="userSpaceOnUse">
      <path
         id="path148"
         d="m 10.650391,24.009766 0,0.05859 -0.177735,0 0,0.05859 -0.236328,0 0,0.05859 -0.06055,0 0,0.05859 -0.05859,0 0,0.06055 -0.05859,0 0,0.05859 -0.060547,0 0,0.05859 -0.058594,0 0,0.05859 -0.058594,0 0,0.05859 -0.058594,0 0,0.05859 -0.060547,0 0,0.119141 -0.058594,0 0,0.05859 -0.058594,0 0,0.117187 -0.060547,0 0,0.05859 -0.058594,0 0,0.175781 -0.058594,0 0,0.119141 -0.060547,0 0,0.117187 -0.058594,0 0,0.175781 -0.058594,0 0,0.119141 -0.058594,0 0,0.175781 -0.060547,0 0,0.175782 -0.058594,0 0,0.236328 -0.058594,0 0,0.175781 -0.060547,0 0,0.294922 -0.058594,0 0,0.294922 -0.058594,0 0,0.292969 -0.058594,0 0,0.470703 -0.060547,0 0,0.529297 -0.058594,0 0,1.294921 -0.058594,0 0,0.05859 0.058594,0 0,1.294922 0.058594,0 0,0.529297 0.060547,0 0,0.470703 0.058594,0 0,0.294922 0.058594,0 0,0.294922 0.058594,0 0,0.292969 0.060547,0 0,0.177734 0.058594,0 0,0.234375 0.058594,0 0,0.177734 0.060547,0 0,0.175781 0.058594,0 0,0.117188 0.058594,0 0,0.177734 0.058594,0 0,0.117188 0.060547,0 0,0.117187 0.058594,0 0,0.177735 0.058594,0 0,0.05859 0.060547,0 0,0.117187 0.058594,0 0,0.05859 -1.0644531,0 0,0.648437 57.7441401,0 0,-11.18164 -55.732421,0 z" />
    </clipPath>
    <clipPath
       id="clipWmfPath49"
       clipPathUnits="userSpaceOnUse">
      <path
         id="path151"
         d="m 10.650391,24.009766 0,0.05859 -0.177735,0 0,0.05859 -0.236328,0 0,0.05859 -0.06055,0 0,0.05859 -0.05859,0 0,0.06055 -0.05859,0 0,0.05859 -0.060547,0 0,0.05859 -0.058594,0 0,0.05859 -0.058594,0 0,0.05859 -0.058594,0 0,0.05859 -0.060547,0 0,0.119141 -0.058594,0 0,0.05859 -0.058594,0 0,0.117187 -0.060547,0 0,0.05859 -0.058594,0 0,0.175781 -0.058594,0 0,0.119141 -0.060547,0 0,0.117187 -0.058594,0 0,0.175781 -0.058594,0 0,0.119141 -0.058594,0 0,0.175781 -0.060547,0 0,0.175782 -0.058594,0 0,0.236328 -0.058594,0 0,0.175781 -0.060547,0 0,0.294922 -0.058594,0 0,0.294922 -0.058594,0 0,0.292969 -0.058594,0 0,0.470703 -0.060547,0 0,0.529297 -0.058594,0 0,1.294921 -0.058594,0 0,0.05859 0.058594,0 0,1.294922 0.058594,0 0,0.529297 0.060547,0 0,0.470703 0.058594,0 0,0.294922 0.058594,0 0,0.294922 0.058594,0 0,0.292969 0.060547,0 0,0.177734 0.058594,0 0,0.234375 0.058594,0 0,0.177734 0.060547,0 0,0.175781 0.058594,0 0,0.117188 0.058594,0 0,0.177734 0.058594,0 0,0.117188 0.060547,0 0,0.117187 0.058594,0 0,0.177735 0.058594,0 0,0.05859 0.060547,0 0,0.117187 0.058594,0 0,0.05859 0.058594,0 0,0.117187 -1.1230469,0 0,0.53125 57.7441399,0 0,-11.18164 -55.732421,0 z" />
    </clipPath>
    <clipPath
       id="clipWmfPath50"
       clipPathUnits="userSpaceOnUse">
      <path
         id="path154"
         d="m 10.650391,24.009766 0,0.05859 -0.177735,0 0,0.05859 -0.236328,0 0,0.05859 -0.06055,0 0,0.05859 -0.05859,0 0,0.06055 -0.05859,0 0,0.05859 -0.060547,0 0,0.05859 -0.058594,0 0,0.05859 -0.058594,0 0,0.05859 -0.058594,0 0,0.05859 -0.060547,0 0,0.119141 -0.058594,0 0,0.05859 -0.058594,0 0,0.117187 -0.060547,0 0,0.05859 -0.058594,0 0,0.175781 -0.058594,0 0,0.119141 -0.060547,0 0,0.117187 -0.058594,0 0,0.175781 -0.058594,0 0,0.119141 -0.058594,0 0,0.175781 -0.060547,0 0,0.175782 -0.058594,0 0,0.236328 -0.058594,0 0,0.175781 -0.060547,0 0,0.294922 -0.058594,0 0,0.294922 -0.058594,0 0,0.292969 -0.058594,0 0,0.470703 -0.060547,0 0,0.529297 -0.058594,0 0,1.294921 -0.058594,0 0,0.05859 0.058594,0 0,1.294922 0.058594,0 0,0.529297 0.060547,0 0,0.470703 0.058594,0 0,0.294922 0.058594,0 0,0.294922 0.058594,0 0,0.292969 0.060547,0 0,0.177734 0.058594,0 0,0.234375 0.058594,0 0,0.177734 0.060547,0 0,0.175781 0.058594,0 0,0.117188 0.058594,0 0,0.177734 0.058594,0 0,0.117188 0.060547,0 0,0.117187 0.058594,0 0,0.177735 0.058594,0 0,0.05859 0.060547,0 0,0.117187 0.058594,0 0,0.05859 0.058594,0 0,0.117187 0.060547,0 0,0.06055 -1.1835937,0 0,0.470703 57.7441397,0 0,-11.18164 -55.732421,0 z" />
    </clipPath>
    <clipPath
       id="clipWmfPath51"
       clipPathUnits="userSpaceOnUse">
      <path
         id="path157"
         d="m 10.650391,24.009766 0,0.05859 -0.177735,0 0,0.05859 -0.236328,0 0,0.05859 -0.06055,0 0,0.05859 -0.05859,0 0,0.06055 -0.05859,0 0,0.05859 -0.060547,0 0,0.05859 -0.058594,0 0,0.05859 -0.058594,0 0,0.05859 -0.058594,0 0,0.05859 -0.060547,0 0,0.119141 -0.058594,0 0,0.05859 -0.058594,0 0,0.117187 -0.060547,0 0,0.05859 -0.058594,0 0,0.175781 -0.058594,0 0,0.119141 -0.060547,0 0,0.117187 -0.058594,0 0,0.175781 -0.058594,0 0,0.119141 -0.058594,0 0,0.175781 -0.060547,0 0,0.175782 -0.058594,0 0,0.236328 -0.058594,0 0,0.175781 -0.060547,0 0,0.294922 -0.058594,0 0,0.294922 -0.058594,0 0,0.292969 -0.058594,0 0,0.470703 -0.060547,0 0,0.529297 -0.058594,0 0,1.294921 -0.058594,0 0,0.05859 0.058594,0 0,1.294922 0.058594,0 0,0.529297 0.060547,0 0,0.470703 0.058594,0 0,0.294922 0.058594,0 0,0.294922 0.058594,0 0,0.292969 0.060547,0 0,0.177734 0.058594,0 0,0.234375 0.058594,0 0,0.177734 0.060547,0 0,0.175781 0.058594,0 0,0.117188 0.058594,0 0,0.177734 0.058594,0 0,0.117188 0.060547,0 0,0.117187 0.058594,0 0,0.177735 0.058594,0 0,0.05859 0.060547,0 0,0.117187 0.058594,0 0,0.05859 0.058594,0 0,0.117187 0.060547,0 0,0.06055 0.058594,0 0,0.05859 -1.2421875,0 0,0.412109 57.7441405,0 0,-11.18164 -55.732421,0 z" />
    </clipPath>
    <clipPath
       id="clipWmfPath52"
       clipPathUnits="userSpaceOnUse">
      <path
         id="path160"
         d="m 10.650391,24.009766 0,0.05859 -0.177735,0 0,0.05859 -0.236328,0 0,0.05859 -0.06055,0 0,0.05859 -0.05859,0 0,0.06055 -0.05859,0 0,0.05859 -0.060547,0 0,0.05859 -0.058594,0 0,0.05859 -0.058594,0 0,0.05859 -0.058594,0 0,0.05859 -0.060547,0 0,0.119141 -0.058594,0 0,0.05859 -0.058594,0 0,0.117187 -0.060547,0 0,0.05859 -0.058594,0 0,0.175781 -0.058594,0 0,0.119141 -0.060547,0 0,0.117187 -0.058594,0 0,0.175781 -0.058594,0 0,0.119141 -0.058594,0 0,0.175781 -0.060547,0 0,0.175782 -0.058594,0 0,0.236328 -0.058594,0 0,0.175781 -0.060547,0 0,0.294922 -0.058594,0 0,0.294922 -0.058594,0 0,0.292969 -0.058594,0 0,0.470703 -0.060547,0 0,0.529297 -0.058594,0 0,1.294921 -0.058594,0 0,0.05859 0.058594,0 0,1.294922 0.058594,0 0,0.529297 0.060547,0 0,0.470703 0.058594,0 0,0.294922 0.058594,0 0,0.294922 0.058594,0 0,0.292969 0.060547,0 0,0.177734 0.058594,0 0,0.234375 0.058594,0 0,0.177734 0.060547,0 0,0.175781 0.058594,0 0,0.117188 0.058594,0 0,0.177734 0.058594,0 0,0.117188 0.060547,0 0,0.117187 0.058594,0 0,0.177735 0.058594,0 0,0.05859 0.060547,0 0,0.117187 0.058594,0 0,0.05859 0.058594,0 0,0.117187 0.060547,0 0,0.06055 0.058594,0 0,0.05859 0.058594,0 0,0.05859 -1.3007812,0 0,0.353515 57.7441402,0 0,-11.18164 -55.732421,0 z" />
    </clipPath>
    <clipPath
       id="clipWmfPath53"
       clipPathUnits="userSpaceOnUse">
      <path
         id="path163"
         d="m 10.650391,24.009766 0,0.05859 -0.177735,0 0,0.05859 -0.236328,0 0,0.05859 -0.06055,0 0,0.05859 -0.05859,0 0,0.06055 -0.05859,0 0,0.05859 -0.060547,0 0,0.05859 -0.058594,0 0,0.05859 -0.058594,0 0,0.05859 -0.058594,0 0,0.05859 -0.060547,0 0,0.119141 -0.058594,0 0,0.05859 -0.058594,0 0,0.117187 -0.060547,0 0,0.05859 -0.058594,0 0,0.175781 -0.058594,0 0,0.119141 -0.060547,0 0,0.117187 -0.058594,0 0,0.175781 -0.058594,0 0,0.119141 -0.058594,0 0,0.175781 -0.060547,0 0,0.175782 -0.058594,0 0,0.236328 -0.058594,0 0,0.175781 -0.060547,0 0,0.294922 -0.058594,0 0,0.294922 -0.058594,0 0,0.292969 -0.058594,0 0,0.470703 -0.060547,0 0,0.529297 -0.058594,0 0,1.294921 -0.058594,0 0,0.05859 0.058594,0 0,1.294922 0.058594,0 0,0.529297 0.060547,0 0,0.470703 0.058594,0 0,0.294922 0.058594,0 0,0.294922 0.058594,0 0,0.292969 0.060547,0 0,0.177734 0.058594,0 0,0.234375 0.058594,0 0,0.177734 0.060547,0 0,0.175781 0.058594,0 0,0.117188 0.058594,0 0,0.177734 0.058594,0 0,0.117188 0.060547,0 0,0.117187 0.058594,0 0,0.177735 0.058594,0 0,0.05859 0.060547,0 0,0.117187 0.058594,0 0,0.05859 0.058594,0 0,0.117187 0.060547,0 0,0.06055 0.058594,0 0,0.05859 0.058594,0 0,0.05859 0.058594,0 0,0.05859 -1.359375,0 0,0.294922 57.74414,0 0,-11.18164 -55.732421,0 z" />
    </clipPath>
    <clipPath
       id="clipWmfPath54"
       clipPathUnits="userSpaceOnUse">
      <path
         id="path166"
         d="m 10.650391,24.009766 0,0.05859 -0.177735,0 0,0.05859 -0.236328,0 0,0.05859 -0.06055,0 0,0.05859 -0.05859,0 0,0.06055 -0.05859,0 0,0.05859 -0.060547,0 0,0.05859 -0.058594,0 0,0.05859 -0.058594,0 0,0.05859 -0.058594,0 0,0.05859 -0.060547,0 0,0.119141 -0.058594,0 0,0.05859 -0.058594,0 0,0.117187 -0.060547,0 0,0.05859 -0.058594,0 0,0.175781 -0.058594,0 0,0.119141 -0.060547,0 0,0.117187 -0.058594,0 0,0.175781 -0.058594,0 0,0.119141 -0.058594,0 0,0.175781 -0.060547,0 0,0.175782 -0.058594,0 0,0.236328 -0.058594,0 0,0.175781 -0.060547,0 0,0.294922 -0.058594,0 0,0.294922 -0.058594,0 0,0.292969 -0.058594,0 0,0.470703 -0.060547,0 0,0.529297 -0.058594,0 0,1.294921 -0.058594,0 0,0.05859 0.058594,0 0,1.294922 0.058594,0 0,0.529297 0.060547,0 0,0.470703 0.058594,0 0,0.294922 0.058594,0 0,0.294922 0.058594,0 0,0.292969 0.060547,0 0,0.177734 0.058594,0 0,0.234375 0.058594,0 0,0.177734 0.060547,0 0,0.175781 0.058594,0 0,0.117188 0.058594,0 0,0.177734 0.058594,0 0,0.117188 0.060547,0 0,0.117187 0.058594,0 0,0.177735 0.058594,0 0,0.05859 0.060547,0 0,0.117187 0.058594,0 0,0.05859 0.058594,0 0,0.117187 0.060547,0 0,0.06055 0.058594,0 0,0.05859 0.058594,0 0,0.05859 0.058594,0 0,0.05859 0.060547,0 0,0.05859 -1.4199221,0 0,0.236328 57.7441401,0 0,-11.18164 -55.732421,0 z" />
    </clipPath>
    <clipPath
       id="clipWmfPath55"
       clipPathUnits="userSpaceOnUse">
      <path
         id="path169"
         d="m 10.650391,24.009766 0,0.05859 -0.177735,0 0,0.05859 -0.236328,0 0,0.05859 -0.06055,0 0,0.05859 -0.05859,0 0,0.06055 -0.05859,0 0,0.05859 -0.060547,0 0,0.05859 -0.058594,0 0,0.05859 -0.058594,0 0,0.05859 -0.058594,0 0,0.05859 -0.060547,0 0,0.119141 -0.058594,0 0,0.05859 -0.058594,0 0,0.117187 -0.060547,0 0,0.05859 -0.058594,0 0,0.175781 -0.058594,0 0,0.119141 -0.060547,0 0,0.117187 -0.058594,0 0,0.175781 -0.058594,0 0,0.119141 -0.058594,0 0,0.175781 -0.060547,0 0,0.175782 -0.058594,0 0,0.236328 -0.058594,0 0,0.175781 -0.060547,0 0,0.294922 -0.058594,0 0,0.294922 -0.058594,0 0,0.292969 -0.058594,0 0,0.470703 -0.060547,0 0,0.529297 -0.058594,0 0,1.294921 -0.058594,0 0,0.05859 0.058594,0 0,1.294922 0.058594,0 0,0.529297 0.060547,0 0,0.470703 0.058594,0 0,0.294922 0.058594,0 0,0.294922 0.058594,0 0,0.292969 0.060547,0 0,0.177734 0.058594,0 0,0.234375 0.058594,0 0,0.177734 0.060547,0 0,0.175781 0.058594,0 0,0.117188 0.058594,0 0,0.177734 0.058594,0 0,0.117188 0.060547,0 0,0.117187 0.058594,0 0,0.177735 0.058594,0 0,0.05859 0.060547,0 0,0.117187 0.058594,0 0,0.05859 0.058594,0 0,0.117187 0.060547,0 0,0.06055 0.058594,0 0,0.05859 0.058594,0 0,0.05859 0.058594,0 0,0.05859 0.060547,0 0,0.05859 0.05859,0 0,0.05859 -1.4785161,0 0,0.177734 57.7441401,0 0,-11.18164 -55.732421,0 z" />
    </clipPath>
    <clipPath
       id="clipWmfPath56"
       clipPathUnits="userSpaceOnUse">
      <path
         id="path172"
         d="m 10.650391,24.009766 0,0.05859 -0.177735,0 0,0.05859 -0.236328,0 0,0.05859 -0.06055,0 0,0.05859 -0.05859,0 0,0.06055 -0.05859,0 0,0.05859 -0.060547,0 0,0.05859 -0.058594,0 0,0.05859 -0.058594,0 0,0.05859 -0.058594,0 0,0.05859 -0.060547,0 0,0.119141 -0.058594,0 0,0.05859 -0.058594,0 0,0.117187 -0.060547,0 0,0.05859 -0.058594,0 0,0.175781 -0.058594,0 0,0.119141 -0.060547,0 0,0.117187 -0.058594,0 0,0.175781 -0.058594,0 0,0.119141 -0.058594,0 0,0.175781 -0.060547,0 0,0.175782 -0.058594,0 0,0.236328 -0.058594,0 0,0.175781 -0.060547,0 0,0.294922 -0.058594,0 0,0.294922 -0.058594,0 0,0.292969 -0.058594,0 0,0.470703 -0.060547,0 0,0.529297 -0.058594,0 0,1.294921 -0.058594,0 0,0.05859 0.058594,0 0,1.294922 0.058594,0 0,0.529297 0.060547,0 0,0.470703 0.058594,0 0,0.294922 0.058594,0 0,0.294922 0.058594,0 0,0.292969 0.060547,0 0,0.177734 0.058594,0 0,0.234375 0.058594,0 0,0.177734 0.060547,0 0,0.175781 0.058594,0 0,0.117188 0.058594,0 0,0.177734 0.058594,0 0,0.117188 0.060547,0 0,0.117187 0.058594,0 0,0.177735 0.058594,0 0,0.05859 0.060547,0 0,0.117187 0.058594,0 0,0.05859 0.058594,0 0,0.117187 0.060547,0 0,0.06055 0.058594,0 0,0.05859 0.058594,0 0,0.05859 0.058594,0 0,0.05859 0.060547,0 0,0.05859 0.05859,0 0,0.05859 0.05859,0 0,0.05859 -1.5371091,0 0,0.11914 57.7441401,0 0,-11.18164 -55.732421,0 z" />
    </clipPath>
    <clipPath
       id="clipWmfPath57"
       clipPathUnits="userSpaceOnUse">
      <path
         id="path175"
         d="m 10.650391,24.009766 0,0.05859 -0.177735,0 0,0.05859 -0.236328,0 0,0.05859 -0.06055,0 0,0.05859 -0.05859,0 0,0.06055 -0.05859,0 0,0.05859 -0.060547,0 0,0.05859 -0.058594,0 0,0.05859 -0.058594,0 0,0.05859 -0.058594,0 0,0.05859 -0.060547,0 0,0.119141 -0.058594,0 0,0.05859 -0.058594,0 0,0.117187 -0.060547,0 0,0.05859 -0.058594,0 0,0.175781 -0.058594,0 0,0.119141 -0.060547,0 0,0.117187 -0.058594,0 0,0.175781 -0.058594,0 0,0.119141 -0.058594,0 0,0.175781 -0.060547,0 0,0.175782 -0.058594,0 0,0.236328 -0.058594,0 0,0.175781 -0.060547,0 0,0.294922 -0.058594,0 0,0.294922 -0.058594,0 0,0.292969 -0.058594,0 0,0.470703 -0.060547,0 0,0.529297 -0.058594,0 0,1.294921 -0.058594,0 0,0.05859 0.058594,0 0,1.294922 0.058594,0 0,0.529297 0.060547,0 0,0.470703 0.058594,0 0,0.294922 0.058594,0 0,0.294922 0.058594,0 0,0.292969 0.060547,0 0,0.177734 0.058594,0 0,0.234375 0.058594,0 0,0.177734 0.060547,0 0,0.175781 0.058594,0 0,0.117188 0.058594,0 0,0.177734 0.058594,0 0,0.117188 0.060547,0 0,0.117187 0.058594,0 0,0.177735 0.058594,0 0,0.05859 0.060547,0 0,0.117187 0.058594,0 0,0.05859 0.058594,0 0,0.117187 0.060547,0 0,0.06055 0.058594,0 0,0.05859 0.058594,0 0,0.05859 0.058594,0 0,0.05859 0.060547,0 0,0.05859 0.05859,0 0,0.05859 0.05859,0 0,0.05859 0.06055,0 0,0.05859 -1.5976561,0 0,0.06055 57.7441401,0 0,-11.18164 -55.732421,0 z" />
    </clipPath>
    <clipPath
       id="clipWmfPath58"
       clipPathUnits="userSpaceOnUse">
      <path
         id="path178"
         d="m 10.650391,24.009766 0,0.05859 -0.177735,0 0,0.05859 -0.236328,0 0,0.05859 -0.06055,0 0,0.05859 -0.05859,0 0,0.06055 -0.05859,0 0,0.05859 -0.060547,0 0,0.05859 -0.058594,0 0,0.05859 -0.058594,0 0,0.05859 -0.058594,0 0,0.05859 -0.060547,0 0,0.119141 -0.058594,0 0,0.05859 -0.058594,0 0,0.117187 -0.060547,0 0,0.05859 -0.058594,0 0,0.175781 -0.058594,0 0,0.119141 -0.060547,0 0,0.117187 -0.058594,0 0,0.175781 -0.058594,0 0,0.119141 -0.058594,0 0,0.175781 -0.060547,0 0,0.175782 -0.058594,0 0,0.236328 -0.058594,0 0,0.175781 -0.060547,0 0,0.294922 -0.058594,0 0,0.294922 -0.058594,0 0,0.292969 -0.058594,0 0,0.470703 -0.060547,0 0,0.529297 -0.058594,0 0,1.294921 -0.058594,0 0,0.05859 0.058594,0 0,1.294922 0.058594,0 0,0.529297 0.060547,0 0,0.470703 0.058594,0 0,0.294922 0.058594,0 0,0.294922 0.058594,0 0,0.292969 0.060547,0 0,0.177734 0.058594,0 0,0.234375 0.058594,0 0,0.177734 0.060547,0 0,0.175781 0.058594,0 0,0.117188 0.058594,0 0,0.177734 0.058594,0 0,0.117188 0.060547,0 0,0.117187 0.058594,0 0,0.177735 0.058594,0 0,0.05859 0.060547,0 0,0.117187 0.058594,0 0,0.05859 0.058594,0 0,0.117187 0.060547,0 0,0.06055 0.058594,0 0,0.05859 0.058594,0 0,0.05859 0.058594,0 0,0.05859 0.060547,0 0,0.05859 0.05859,0 0,0.05859 0.05859,0 0,0.05859 0.06055,0 0,0.05859 0.236328,0 0,0.06055 55.910156,0 0,-11.18164 -55.732421,0 z" />
    </clipPath>
    <pattern
       y="0"
       x="0"
       height="6"
       width="6"
       patternUnits="userSpaceOnUse"
       id="WMFhbasepattern" />
  </defs>
  <path
     id="path181"
     d="m 0.43413603,0.43180847 0,12.65528753 20.68830597,0 0,-12.65528753 -20.68830597,0 z"
     style="fill:#ccffcc;fill-opacity:1;fill-rule:evenodd;stroke:none" />
  <path
     id="path183"
     d="m 0.43413603,13.087096 20.68830597,0 0,-12.65528753 -20.68830597,0 0,12.65528753 z"
     style="fill:none;stroke:#000000;stroke-width:0.08348791px;stroke-linecap:round;stroke-linejoin:round;stroke-miterlimit:4;stroke-dasharray:none;stroke-opacity:1" />
  <path
     id="path185"
     d="m 8.51971,23.892 0,0.0588 57.92219,0 0,-0.0588 -57.92219,0 z"
     clip-path="url(#clipWmfPath58)"
     style="fill:#000000;fill-opacity:1;fill-rule:evenodd;stroke:none" />
  <path
     transform="matrix(0.28222222,0,0,0.28222222,-7.7275411e-7,0)"
     id="path187"
     d="m 8.51971,23.9508 0,0.1177 57.92219,0 0,-0.1177 -57.92219,0 z"
     clip-path="url(#clipWmfPath58)"
     style="fill:#fefefe;fill-opacity:1;fill-rule:evenodd;stroke:none" />
  <path
     transform="matrix(0.28222222,0,0,0.28222222,-7.7275411e-7,0)"
     id="path189"
     d="m 8.51971,24.0685 0,0.1177 57.92219,0 0,-0.1177 -57.92219,0 z"
     clip-path="url(#clipWmfPath58)"
     style="fill:#fbfbfb;fill-opacity:1;fill-rule:evenodd;stroke:none" />
  <path
     transform="matrix(0.28222222,0,0,0.28222222,-7.7275411e-7,0)"
     id="path191"
     d="m 8.51971,24.1862 0,0.0589 57.92219,0 0,-0.0589 -57.92219,0 z"
     clip-path="url(#clipWmfPath58)"
     style="fill:#f9f9f9;fill-opacity:1;fill-rule:evenodd;stroke:none" />
  <path
     transform="matrix(0.28222222,0,0,0.28222222,-7.7275411e-7,0)"
     id="path193"
     d="m 8.51971,24.2451 0,0.1177 57.92219,0 0,-0.1177 -57.92219,0 z"
     clip-path="url(#clipWmfPath58)"
     style="fill:#f7f7f7;fill-opacity:1;fill-rule:evenodd;stroke:none" />
  <path
     transform="matrix(0.28222222,0,0,0.28222222,-7.7275411e-7,0)"
     id="path195"
     d="m 8.51971,24.3628 0,0.1177 57.92219,0 0,-0.1177 -57.92219,0 z"
     clip-path="url(#clipWmfPath58)"
     style="fill:#f5f5f5;fill-opacity:1;fill-rule:evenodd;stroke:none" />
  <path
     transform="matrix(0.28222222,0,0,0.28222222,-7.7275411e-7,0)"
     id="path197"
     d="m 8.51971,24.4805 0,0.1177 57.92219,0 0,-0.1177 -57.92219,0 z"
     clip-path="url(#clipWmfPath58)"
     style="fill:#f2f2f2;fill-opacity:1;fill-rule:evenodd;stroke:none" />
  <path
     transform="matrix(0.28222222,0,0,0.28222222,-7.7275411e-7,0)"
     id="path199"
     d="m 8.51971,24.5982 0,0.0588 57.92219,0 0,-0.0588 -57.92219,0 z"
     clip-path="url(#clipWmfPath58)"
     style="fill:#f0f0f0;fill-opacity:1;fill-rule:evenodd;stroke:none" />
  <path
     transform="matrix(0.28222222,0,0,0.28222222,-7.7275411e-7,0)"
     id="path201"
     d="m 8.51971,24.657 0,0.1177 57.92219,0 0,-0.1177 -57.92219,0 z"
     clip-path="url(#clipWmfPath58)"
     style="fill:#eeeeee;fill-opacity:1;fill-rule:evenodd;stroke:none" />
  <path
     transform="matrix(0.28222222,0,0,0.28222222,-7.7275411e-7,0)"
     id="path203"
     d="m 8.51971,24.7747 0,0.0588 57.92219,0 0,-0.0588 -57.92219,0 z"
     clip-path="url(#clipWmfPath58)"
     style="fill:#ececec;fill-opacity:1;fill-rule:evenodd;stroke:none" />
  <path
     transform="matrix(0.28222222,0,0,0.28222222,-7.7275411e-7,0)"
     id="path205"
     d="m 8.51971,24.8335 0,0.1177 57.92219,0 0,-0.1177 -57.92219,0 z"
     clip-path="url(#clipWmfPath58)"
     style="fill:#eaeaea;fill-opacity:1;fill-rule:evenodd;stroke:none" />
  <path
     transform="matrix(0.28222222,0,0,0.28222222,-7.7275411e-7,0)"
     id="path207"
     d="m 8.51971,24.9512 0,0.0589 57.92219,0 0,-0.0589 -57.92219,0 z"
     clip-path="url(#clipWmfPath58)"
     style="fill:#e8e8e8;fill-opacity:1;fill-rule:evenodd;stroke:none" />
  <path
     transform="matrix(0.28222222,0,0,0.28222222,-7.7275411e-7,0)"
     id="path209"
     d="m 8.51971,25.0101 0,0.1177 57.92219,0 0,-0.1177 -57.92219,0 z"
     clip-path="url(#clipWmfPath58)"
     style="fill:#e6e6e6;fill-opacity:1;fill-rule:evenodd;stroke:none" />
  <path
     transform="matrix(0.28222222,0,0,0.28222222,-7.7275411e-7,0)"
     id="path211"
     d="m 8.51971,25.1278 0,0.0588 57.92219,0 0,-0.0588 -57.92219,0 z"
     clip-path="url(#clipWmfPath58)"
     style="fill:#e4e4e4;fill-opacity:1;fill-rule:evenodd;stroke:none" />
  <path
     transform="matrix(0.28222222,0,0,0.28222222,-7.7275411e-7,0)"
     id="path213"
     d="m 8.51971,25.1866 0,0.1177 57.92219,0 0,-0.1177 -57.92219,0 z"
     clip-path="url(#clipWmfPath58)"
     style="fill:#e2e2e2;fill-opacity:1;fill-rule:evenodd;stroke:none" />
  <path
     transform="matrix(0.28222222,0,0,0.28222222,-7.7275411e-7,0)"
     id="path215"
     d="m 8.51971,25.3043 0,0.0589 57.92219,0 0,-0.0589 -57.92219,0 z"
     clip-path="url(#clipWmfPath58)"
     style="fill:#e0e0e0;fill-opacity:1;fill-rule:evenodd;stroke:none" />
  <path
     transform="matrix(0.28222222,0,0,0.28222222,-7.7275411e-7,0)"
     id="path217"
     d="m 8.51971,25.3632 0,0.1177 57.92219,0 0,-0.1177 -57.92219,0 z"
     clip-path="url(#clipWmfPath58)"
     style="fill:#dedede;fill-opacity:1;fill-rule:evenodd;stroke:none" />
  <path
     transform="matrix(0.28222222,0,0,0.28222222,-7.7275411e-7,0)"
     id="path219"
     d="m 8.51971,25.4809 0,0.0588 57.92219,0 0,-0.0588 -57.92219,0 z"
     clip-path="url(#clipWmfPath58)"
     style="fill:#dcdcdc;fill-opacity:1;fill-rule:evenodd;stroke:none" />
  <path
     transform="matrix(0.28222222,0,0,0.28222222,-7.7275411e-7,0)"
     id="path221"
     d="m 8.51971,25.5397 0,0.1177 57.92219,0 0,-0.1177 -57.92219,0 z"
     clip-path="url(#clipWmfPath58)"
     style="fill:#dadada;fill-opacity:1;fill-rule:evenodd;stroke:none" />
  <path
     transform="matrix(0.28222222,0,0,0.28222222,-7.7275411e-7,0)"
     id="path223"
     d="m 8.51971,25.6574 0,0.0589 57.92219,0 0,-0.0589 -57.92219,0 z"
     clip-path="url(#clipWmfPath58)"
     style="fill:#d8d8d8;fill-opacity:1;fill-rule:evenodd;stroke:none" />
  <path
     transform="matrix(0.28222222,0,0,0.28222222,-7.7275411e-7,0)"
     id="path225"
     d="m 8.51971,25.7163 0,0.1177 57.92219,0 0,-0.1177 -57.92219,0 z"
     clip-path="url(#clipWmfPath58)"
     style="fill:#d6d6d6;fill-opacity:1;fill-rule:evenodd;stroke:none" />
  <path
     transform="matrix(0.28222222,0,0,0.28222222,-7.7275411e-7,0)"
     id="path227"
     d="m 8.51971,25.834 0,0.0588 57.92219,0 0,-0.0588 -57.92219,0 z"
     clip-path="url(#clipWmfPath58)"
     style="fill:#d4d4d4;fill-opacity:1;fill-rule:evenodd;stroke:none" />
  <path
     transform="matrix(0.28222222,0,0,0.28222222,-7.7275411e-7,0)"
     id="path229"
     d="m 8.51971,25.8928 0,0.1177 57.92219,0 0,-0.1177 -57.92219,0 z"
     clip-path="url(#clipWmfPath58)"
     style="fill:#d2d2d2;fill-opacity:1;fill-rule:evenodd;stroke:none" />
  <path
     transform="matrix(0.28222222,0,0,0.28222222,-7.7275411e-7,0)"
     id="path231"
     d="m 8.51971,26.0105 0,0.0588 57.92219,0 0,-0.0588 -57.92219,0 z"
     clip-path="url(#clipWmfPath58)"
     style="fill:#d0d0d0;fill-opacity:1;fill-rule:evenodd;stroke:none" />
  <path
     transform="matrix(0.28222222,0,0,0.28222222,-7.7275411e-7,0)"
     id="path233"
     d="m 8.51971,26.0693 0,0.1177 57.92219,0 0,-0.1177 -57.92219,0 z"
     clip-path="url(#clipWmfPath58)"
     style="fill:#cecece;fill-opacity:1;fill-rule:evenodd;stroke:none" />
  <path
     transform="matrix(0.28222222,0,0,0.28222222,-7.7275411e-7,0)"
     id="path235"
     d="m 8.51971,26.187 0,0.0589 57.92219,0 0,-0.0589 -57.92219,0 z"
     clip-path="url(#clipWmfPath58)"
     style="fill:#cccccc;fill-opacity:1;fill-rule:evenodd;stroke:none" />
  <path
     transform="matrix(0.28222222,0,0,0.28222222,-7.7275411e-7,0)"
     id="path237"
     d="m 8.51971,26.2459 0,0.1177 57.92219,0 0,-0.1177 -57.92219,0 z"
     clip-path="url(#clipWmfPath58)"
     style="fill:#cacaca;fill-opacity:1;fill-rule:evenodd;stroke:none" />
  <path
     transform="matrix(0.28222222,0,0,0.28222222,-7.7275411e-7,0)"
     id="path239"
     d="m 8.51971,26.3636 0,0.0588 57.92219,0 0,-0.0588 -57.92219,0 z"
     clip-path="url(#clipWmfPath58)"
     style="fill:#c8c8c8;fill-opacity:1;fill-rule:evenodd;stroke:none" />
  <path
     transform="matrix(0.28222222,0,0,0.28222222,-7.7275411e-7,0)"
     id="path241"
     d="m 8.51971,26.4224 0,0.1177 57.92219,0 0,-0.1177 -57.92219,0 z"
     clip-path="url(#clipWmfPath58)"
     style="fill:#c6c6c6;fill-opacity:1;fill-rule:evenodd;stroke:none" />
  <path
     transform="matrix(0.28222222,0,0,0.28222222,-7.7275411e-7,0)"
     id="path243"
     d="m 8.51971,26.5401 0,0.0589 57.92219,0 0,-0.0589 -57.92219,0 z"
     clip-path="url(#clipWmfPath58)"
     style="fill:#c4c4c4;fill-opacity:1;fill-rule:evenodd;stroke:none" />
  <path
     transform="matrix(0.28222222,0,0,0.28222222,-7.7275411e-7,0)"
     id="path245"
     d="m 8.51971,26.599 0,0.1177 57.92219,0 0,-0.1177 -57.92219,0 z"
     clip-path="url(#clipWmfPath58)"
     style="fill:#c2c2c2;fill-opacity:1;fill-rule:evenodd;stroke:none" />
  <path
     transform="matrix(0.28222222,0,0,0.28222222,-7.7275411e-7,0)"
     id="path247"
     d="m 8.51971,26.7167 0,0.0588 57.92219,0 0,-0.0588 -57.92219,0 z"
     clip-path="url(#clipWmfPath58)"
     style="fill:#c0c0c0;fill-opacity:1;fill-rule:evenodd;stroke:none" />
  <path
     transform="matrix(0.28222222,0,0,0.28222222,-7.7275411e-7,0)"
     id="path249"
     d="m 8.51971,26.7755 0,0.1177 57.92219,0 0,-0.1177 -57.92219,0 z"
     clip-path="url(#clipWmfPath58)"
     style="fill:#bebebe;fill-opacity:1;fill-rule:evenodd;stroke:none" />
  <path
     transform="matrix(0.28222222,0,0,0.28222222,-7.7275411e-7,0)"
     id="path251"
     d="m 8.51971,26.8932 0,0.0589 57.92219,0 0,-0.0589 -57.92219,0 z"
     clip-path="url(#clipWmfPath58)"
     style="fill:#bcbcbc;fill-opacity:1;fill-rule:evenodd;stroke:none" />
  <path
     transform="matrix(0.28222222,0,0,0.28222222,-7.7275411e-7,0)"
     id="path253"
     d="m 8.51971,26.9521 0,0.1176 57.92219,0 0,-0.1176 -57.92219,0 z"
     clip-path="url(#clipWmfPath58)"
     style="fill:#bababa;fill-opacity:1;fill-rule:evenodd;stroke:none" />
  <path
     transform="matrix(0.28222222,0,0,0.28222222,-7.7275411e-7,0)"
     id="path255"
     d="m 8.51971,27.0697 0,0.0589 57.92219,0 0,-0.0589 -57.92219,0 z"
     clip-path="url(#clipWmfPath58)"
     style="fill:#b8b8b8;fill-opacity:1;fill-rule:evenodd;stroke:none" />
  <path
     transform="matrix(0.28222222,0,0,0.28222222,-7.7275411e-7,0)"
     id="path257"
     d="m 8.51971,27.1286 0,0.1177 57.92219,0 0,-0.1177 -57.92219,0 z"
     clip-path="url(#clipWmfPath58)"
     style="fill:#b6b6b6;fill-opacity:1;fill-rule:evenodd;stroke:none" />
  <path
     transform="matrix(0.28222222,0,0,0.28222222,-7.7275411e-7,0)"
     id="path259"
     d="m 8.51971,27.2463 0,0.0588 57.92219,0 0,-0.0588 -57.92219,0 z"
     clip-path="url(#clipWmfPath58)"
     style="fill:#b4b4b4;fill-opacity:1;fill-rule:evenodd;stroke:none" />
  <path
     transform="matrix(0.28222222,0,0,0.28222222,-7.7275411e-7,0)"
     id="path261"
     d="m 8.51971,27.3051 0,0.1177 57.92219,0 0,-0.1177 -57.92219,0 z"
     clip-path="url(#clipWmfPath58)"
     style="fill:#b2b2b2;fill-opacity:1;fill-rule:evenodd;stroke:none" />
  <path
     transform="matrix(0.28222222,0,0,0.28222222,-7.7275411e-7,0)"
     id="path263"
     d="m 8.51971,27.4228 0,0.0589 57.92219,0 0,-0.0589 -57.92219,0 z"
     clip-path="url(#clipWmfPath58)"
     style="fill:#b0b0b0;fill-opacity:1;fill-rule:evenodd;stroke:none" />
  <path
     transform="matrix(0.28222222,0,0,0.28222222,-7.7275411e-7,0)"
     id="path265"
     d="m 8.51971,27.4817 0,0.1177 57.92219,0 0,-0.1177 -57.92219,0 z"
     clip-path="url(#clipWmfPath58)"
     style="fill:#aeaeae;fill-opacity:1;fill-rule:evenodd;stroke:none" />
  <path
     transform="matrix(0.28222222,0,0,0.28222222,-7.7275411e-7,0)"
     id="path267"
     d="m 8.51971,27.5994 0,0.0588 57.92219,0 0,-0.0588 -57.92219,0 z"
     clip-path="url(#clipWmfPath58)"
     style="fill:#acacac;fill-opacity:1;fill-rule:evenodd;stroke:none" />
  <path
     transform="matrix(0.28222222,0,0,0.28222222,-7.7275411e-7,0)"
     id="path269"
     d="m 8.51971,27.6582 0,0.1177 57.92219,0 0,-0.1177 -57.92219,0 z"
     clip-path="url(#clipWmfPath58)"
     style="fill:#aaaaaa;fill-opacity:1;fill-rule:evenodd;stroke:none" />
  <path
     transform="matrix(0.28222222,0,0,0.28222222,-7.7275411e-7,0)"
     id="path271"
     d="m 8.51971,27.7759 0,0.0589 57.92219,0 0,-0.0589 -57.92219,0 z"
     clip-path="url(#clipWmfPath58)"
     style="fill:#a8a8a8;fill-opacity:1;fill-rule:evenodd;stroke:none" />
  <path
     transform="matrix(0.28222222,0,0,0.28222222,-7.7275411e-7,0)"
     id="path273"
     d="m 8.51971,27.8348 0,0.1177 57.92219,0 0,-0.1177 -57.92219,0 z"
     clip-path="url(#clipWmfPath58)"
     style="fill:#a6a6a6;fill-opacity:1;fill-rule:evenodd;stroke:none" />
  <path
     transform="matrix(0.28222222,0,0,0.28222222,-7.7275411e-7,0)"
     id="path275"
     d="m 8.51971,27.9525 0,0.0588 57.92219,0 0,-0.0588 -57.92219,0 z"
     clip-path="url(#clipWmfPath58)"
     style="fill:#a4a4a4;fill-opacity:1;fill-rule:evenodd;stroke:none" />
  <path
     transform="matrix(0.28222222,0,0,0.28222222,-7.7275411e-7,0)"
     id="path277"
     d="m 8.51971,28.0113 0,0.1177 57.92219,0 0,-0.1177 -57.92219,0 z"
     clip-path="url(#clipWmfPath58)"
     style="fill:#a2a2a2;fill-opacity:1;fill-rule:evenodd;stroke:none" />
  <path
     transform="matrix(0.28222222,0,0,0.28222222,-7.7275411e-7,0)"
     id="path279"
     d="m 8.51971,28.129 0,0.0588 57.92219,0 0,-0.0588 -57.92219,0 z"
     clip-path="url(#clipWmfPath58)"
     style="fill:#a0a0a0;fill-opacity:1;fill-rule:evenodd;stroke:none" />
  <path
     transform="matrix(0.28222222,0,0,0.28222222,-7.7275411e-7,0)"
     id="path281"
     d="m 8.51971,28.1878 0,0.1177 57.92219,0 0,-0.1177 -57.92219,0 z"
     clip-path="url(#clipWmfPath58)"
     style="fill:#9e9e9e;fill-opacity:1;fill-rule:evenodd;stroke:none" />
  <path
     transform="matrix(0.28222222,0,0,0.28222222,-7.7275411e-7,0)"
     id="path283"
     d="m 8.51971,28.3055 0,0.0589 57.92219,0 0,-0.0589 -57.92219,0 z"
     clip-path="url(#clipWmfPath58)"
     style="fill:#9c9c9c;fill-opacity:1;fill-rule:evenodd;stroke:none" />
  <path
     transform="matrix(0.28222222,0,0,0.28222222,-7.7275411e-7,0)"
     id="path285"
     d="m 8.51971,28.3644 0,0.1177 57.92219,0 0,-0.1177 -57.92219,0 z"
     clip-path="url(#clipWmfPath58)"
     style="fill:#9a9a9a;fill-opacity:1;fill-rule:evenodd;stroke:none" />
  <path
     transform="matrix(0.28222222,0,0,0.28222222,-7.7275411e-7,0)"
     id="path287"
     d="m 8.51971,28.4821 0,0.0588 57.92219,0 0,-0.0588 -57.92219,0 z"
     clip-path="url(#clipWmfPath58)"
     style="fill:#989898;fill-opacity:1;fill-rule:evenodd;stroke:none" />
  <path
     transform="matrix(0.28222222,0,0,0.28222222,-7.7275411e-7,0)"
     id="path289"
     d="m 8.51971,28.5409 0,0.1177 57.92219,0 0,-0.1177 -57.92219,0 z"
     clip-path="url(#clipWmfPath58)"
     style="fill:#969696;fill-opacity:1;fill-rule:evenodd;stroke:none" />
  <path
     transform="matrix(0.28222222,0,0,0.28222222,-7.7275411e-7,0)"
     id="path291"
     d="m 8.51971,28.6586 0,0.0589 57.92219,0 0,-0.0589 -57.92219,0 z"
     clip-path="url(#clipWmfPath58)"
     style="fill:#949494;fill-opacity:1;fill-rule:evenodd;stroke:none" />
  <path
     transform="matrix(0.28222222,0,0,0.28222222,-7.7275411e-7,0)"
     id="path293"
     d="m 8.51971,28.7175 0,0.1177 57.92219,0 0,-0.1177 -57.92219,0 z"
     clip-path="url(#clipWmfPath58)"
     style="fill:#929292;fill-opacity:1;fill-rule:evenodd;stroke:none" />
  <path
     transform="matrix(0.28222222,0,0,0.28222222,-7.7275411e-7,0)"
     id="path295"
     d="m 8.51971,28.8352 0,0.0588 57.92219,0 0,-0.0588 -57.92219,0 z"
     clip-path="url(#clipWmfPath58)"
     style="fill:#909090;fill-opacity:1;fill-rule:evenodd;stroke:none" />
  <path
     transform="matrix(0.28222222,0,0,0.28222222,-7.7275411e-7,0)"
     id="path297"
     d="m 8.51971,28.894 0,0.1177 57.92219,0 0,-0.1177 -57.92219,0 z"
     clip-path="url(#clipWmfPath58)"
     style="fill:#8e8e8e;fill-opacity:1;fill-rule:evenodd;stroke:none" />
  <path
     transform="matrix(0.28222222,0,0,0.28222222,-7.7275411e-7,0)"
     id="path299"
     d="m 8.51971,29.0117 0,0.1177 57.92219,0 0,-0.1177 -57.92219,0 z"
     clip-path="url(#clipWmfPath58)"
     style="fill:#8c8c8c;fill-opacity:1;fill-rule:evenodd;stroke:none" />
  <path
     transform="matrix(0.28222222,0,0,0.28222222,-7.7275411e-7,0)"
     id="path301"
     d="m 8.51971,29.1294 0,0.1177 57.92219,0 0,-0.1177 -57.92219,0 z"
     clip-path="url(#clipWmfPath58)"
     style="fill:#898989;fill-opacity:1;fill-rule:evenodd;stroke:none" />
  <path
     transform="matrix(0.28222222,0,0,0.28222222,-7.7275411e-7,0)"
     id="path303"
     d="m 8.51971,29.2471 0,0.1177 57.92219,0 0,-0.1177 -57.92219,0 z"
     clip-path="url(#clipWmfPath58)"
     style="fill:#878787;fill-opacity:1;fill-rule:evenodd;stroke:none" />
  <path
     transform="matrix(0.28222222,0,0,0.28222222,-7.7275411e-7,0)"
     id="path305"
     d="m 8.51971,29.3648 0,0.1177 57.92219,0 0,-0.1177 -57.92219,0 z"
     clip-path="url(#clipWmfPath58)"
     style="fill:#848484;fill-opacity:1;fill-rule:evenodd;stroke:none" />
  <path
     transform="matrix(0.28222222,0,0,0.28222222,-7.7275411e-7,0)"
     id="path307"
     d="m 8.51971,29.4825 0,0.1177 57.92219,0 0,-0.1177 -57.92219,0 z"
     clip-path="url(#clipWmfPath58)"
     style="fill:#828282;fill-opacity:1;fill-rule:evenodd;stroke:none" />
  <path
     transform="matrix(0.28222222,0,0,0.28222222,-7.7275411e-7,0)"
     id="path309"
     d="m 8.51971,29.6002 0,0.1177 57.92219,0 0,-0.1177 -57.92219,0 z"
     clip-path="url(#clipWmfPath58)"
     style="fill:#7f7f7f;fill-opacity:1;fill-rule:evenodd;stroke:none" />
  <path
     transform="matrix(0.28222222,0,0,0.28222222,-7.7275411e-7,0)"
     id="path311"
     d="m 8.51971,29.7179 0,0.0588 57.92219,0 0,-0.0588 -57.92219,0 z"
     clip-path="url(#clipWmfPath58)"
     style="fill:#7d7d7d;fill-opacity:1;fill-rule:evenodd;stroke:none" />
  <path
     transform="matrix(0.28222222,0,0,0.28222222,-7.7275411e-7,0)"
     id="path313"
     d="m 8.51971,29.7767 0,0.1177 57.92219,0 0,-0.1177 -57.92219,0 z"
     clip-path="url(#clipWmfPath58)"
     style="fill:#7b7b7b;fill-opacity:1;fill-rule:evenodd;stroke:none" />
  <path
     transform="matrix(0.28222222,0,0,0.28222222,-7.7275411e-7,0)"
     id="path315"
     d="m 8.51971,29.8944 0,0.0589 57.92219,0 0,-0.0589 -57.92219,0 z"
     clip-path="url(#clipWmfPath58)"
     style="fill:#797979;fill-opacity:1;fill-rule:evenodd;stroke:none" />
  <path
     transform="matrix(0.28222222,0,0,0.28222222,-7.7275411e-7,0)"
     id="path317"
     d="m 8.51971,29.9533 0,0.1177 57.92219,0 0,-0.1177 -57.92219,0 z"
     clip-path="url(#clipWmfPath58)"
     style="fill:#777777;fill-opacity:1;fill-rule:evenodd;stroke:none" />
  <path
     transform="matrix(0.28222222,0,0,0.28222222,-7.7275411e-7,0)"
     id="path319"
     d="m 8.51971,30.071 0,0.1177 57.92219,0 0,-0.1177 -57.92219,0 z"
     clip-path="url(#clipWmfPath58)"
     style="fill:#757575;fill-opacity:1;fill-rule:evenodd;stroke:none" />
  <path
     transform="matrix(0.28222222,0,0,0.28222222,-7.7275411e-7,0)"
     id="path321"
     d="m 8.51971,30.1887 0,0.1176 57.92219,0 0,-0.1176 -57.92219,0 z"
     clip-path="url(#clipWmfPath58)"
     style="fill:#727272;fill-opacity:1;fill-rule:evenodd;stroke:none" />
  <path
     transform="matrix(0.28222222,0,0,0.28222222,-7.7275411e-7,0)"
     id="path323"
     d="m 8.51971,30.3063 0,0.0589 57.92219,0 0,-0.0589 -57.92219,0 z"
     clip-path="url(#clipWmfPath58)"
     style="fill:#707070;fill-opacity:1;fill-rule:evenodd;stroke:none" />
  <path
     transform="matrix(0.28222222,0,0,0.28222222,-7.7275411e-7,0)"
     id="path325"
     d="m 8.51971,30.3652 0,0.1177 57.92219,0 0,-0.1177 -57.92219,0 z"
     clip-path="url(#clipWmfPath58)"
     style="fill:#6e6e6e;fill-opacity:1;fill-rule:evenodd;stroke:none" />
  <path
     transform="matrix(0.28222222,0,0,0.28222222,-7.7275411e-7,0)"
     id="path327"
     d="m 8.51971,30.4829 0,0.0588 57.92219,0 0,-0.0588 -57.92219,0 z"
     clip-path="url(#clipWmfPath58)"
     style="fill:#6c6c6c;fill-opacity:1;fill-rule:evenodd;stroke:none" />
  <path
     transform="matrix(0.28222222,0,0,0.28222222,-7.7275411e-7,0)"
     id="path329"
     d="m 8.51971,30.5417 0,0.1177 57.92219,0 0,-0.1177 -57.92219,0 z"
     clip-path="url(#clipWmfPath58)"
     style="fill:#6a6a6a;fill-opacity:1;fill-rule:evenodd;stroke:none" />
  <path
     transform="matrix(0.28222222,0,0,0.28222222,-7.7275411e-7,0)"
     id="path331"
     d="m 8.51971,30.6594 0,0.0589 57.92219,0 0,-0.0589 -57.92219,0 z"
     clip-path="url(#clipWmfPath58)"
     style="fill:#686868;fill-opacity:1;fill-rule:evenodd;stroke:none" />
  <path
     transform="matrix(0.28222222,0,0,0.28222222,-7.7275411e-7,0)"
     id="path333"
     d="m 8.51971,30.7183 0,0.1177 57.92219,0 0,-0.1177 -57.92219,0 z"
     clip-path="url(#clipWmfPath58)"
     style="fill:#666666;fill-opacity:1;fill-rule:evenodd;stroke:none" />
  <path
     transform="matrix(0.28222222,0,0,0.28222222,-7.7275411e-7,0)"
     id="path335"
     d="m 8.51971,30.836 0,0.0588 57.92219,0 0,-0.0588 -57.92219,0 z"
     clip-path="url(#clipWmfPath58)"
     style="fill:#646464;fill-opacity:1;fill-rule:evenodd;stroke:none" />
  <path
     transform="matrix(0.28222222,0,0,0.28222222,-7.7275411e-7,0)"
     id="path337"
     d="m 8.51971,30.8948 0,0.1177 57.92219,0 0,-0.1177 -57.92219,0 z"
     clip-path="url(#clipWmfPath58)"
     style="fill:#626262;fill-opacity:1;fill-rule:evenodd;stroke:none" />
  <path
     transform="matrix(0.28222222,0,0,0.28222222,-7.7275411e-7,0)"
     id="path339"
     d="m 8.51971,31.0125 0,0.0589 57.92219,0 0,-0.0589 -57.92219,0 z"
     clip-path="url(#clipWmfPath58)"
     style="fill:#606060;fill-opacity:1;fill-rule:evenodd;stroke:none" />
  <path
     transform="matrix(0.28222222,0,0,0.28222222,-7.7275411e-7,0)"
     id="path341"
     d="m 8.51971,31.0714 0,0.1177 57.92219,0 0,-0.1177 -57.92219,0 z"
     clip-path="url(#clipWmfPath58)"
     style="fill:#5e5e5e;fill-opacity:1;fill-rule:evenodd;stroke:none" />
  <path
     transform="matrix(0.28222222,0,0,0.28222222,-7.7275411e-7,0)"
     id="path343"
     d="m 8.51971,31.1891 0,0.0588 57.92219,0 0,-0.0588 -57.92219,0 z"
     clip-path="url(#clipWmfPath58)"
     style="fill:#5c5c5c;fill-opacity:1;fill-rule:evenodd;stroke:none" />
  <path
     transform="matrix(0.28222222,0,0,0.28222222,-7.7275411e-7,0)"
     id="path345"
     d="m 8.51971,31.2479 0,0.1177 57.92219,0 0,-0.1177 -57.92219,0 z"
     clip-path="url(#clipWmfPath58)"
     style="fill:#5a5a5a;fill-opacity:1;fill-rule:evenodd;stroke:none" />
  <path
     transform="matrix(0.28222222,0,0,0.28222222,-7.7275411e-7,0)"
     id="path347"
     d="m 8.51971,31.3656 0,0.0588 57.92219,0 0,-0.0588 -57.92219,0 z"
     clip-path="url(#clipWmfPath58)"
     style="fill:#585858;fill-opacity:1;fill-rule:evenodd;stroke:none" />
  <path
     transform="matrix(0.28222222,0,0,0.28222222,-7.7275411e-7,0)"
     id="path349"
     d="m 8.51971,31.4244 0,0.1177 57.92219,0 0,-0.1177 -57.92219,0 z"
     clip-path="url(#clipWmfPath58)"
     style="fill:#565656;fill-opacity:1;fill-rule:evenodd;stroke:none" />
  <path
     transform="matrix(0.28222222,0,0,0.28222222,-7.7275411e-7,0)"
     id="path351"
     d="m 8.51971,31.5421 0,0.0589 57.92219,0 0,-0.0589 -57.92219,0 z"
     clip-path="url(#clipWmfPath58)"
     style="fill:#545454;fill-opacity:1;fill-rule:evenodd;stroke:none" />
  <path
     transform="matrix(0.28222222,0,0,0.28222222,-7.7275411e-7,0)"
     id="path353"
     d="m 8.51971,31.601 0,0.1177 57.92219,0 0,-0.1177 -57.92219,0 z"
     clip-path="url(#clipWmfPath58)"
     style="fill:#525252;fill-opacity:1;fill-rule:evenodd;stroke:none" />
  <path
     transform="matrix(0.28222222,0,0,0.28222222,-7.7275411e-7,0)"
     id="path355"
     d="m 8.51971,31.7187 0,0.0588 57.92219,0 0,-0.0588 -57.92219,0 z"
     clip-path="url(#clipWmfPath58)"
     style="fill:#505050;fill-opacity:1;fill-rule:evenodd;stroke:none" />
  <path
     transform="matrix(0.28222222,0,0,0.28222222,-7.7275411e-7,0)"
     id="path357"
     d="m 8.51971,31.7775 0,0.1177 57.92219,0 0,-0.1177 -57.92219,0 z"
     clip-path="url(#clipWmfPath58)"
     style="fill:#4e4e4e;fill-opacity:1;fill-rule:evenodd;stroke:none" />
  <path
     transform="matrix(0.28222222,0,0,0.28222222,-7.7275411e-7,0)"
     id="path359"
     d="m 8.51971,31.8952 0,0.0589 57.92219,0 0,-0.0589 -57.92219,0 z"
     clip-path="url(#clipWmfPath58)"
     style="fill:#4c4c4c;fill-opacity:1;fill-rule:evenodd;stroke:none" />
  <path
     transform="matrix(0.28222222,0,0,0.28222222,-7.7275411e-7,0)"
     id="path361"
     d="m 8.51971,31.9541 0,0.1177 57.92219,0 0,-0.1177 -57.92219,0 z"
     clip-path="url(#clipWmfPath58)"
     style="fill:#4a4a4a;fill-opacity:1;fill-rule:evenodd;stroke:none" />
  <path
     transform="matrix(0.28222222,0,0,0.28222222,-7.7275411e-7,0)"
     id="path363"
     d="m 8.51971,32.0718 0,0.0588 57.92219,0 0,-0.0588 -57.92219,0 z"
     clip-path="url(#clipWmfPath58)"
     style="fill:#484848;fill-opacity:1;fill-rule:evenodd;stroke:none" />
  <path
     transform="matrix(0.28222222,0,0,0.28222222,-7.7275411e-7,0)"
     id="path365"
     d="m 8.51971,32.1306 0,0.1177 57.92219,0 0,-0.1177 -57.92219,0 z"
     clip-path="url(#clipWmfPath58)"
     style="fill:#464646;fill-opacity:1;fill-rule:evenodd;stroke:none" />
  <path
     transform="matrix(0.28222222,0,0,0.28222222,-7.7275411e-7,0)"
     id="path367"
     d="m 8.51971,32.2483 0,0.0589 57.92219,0 0,-0.0589 -57.92219,0 z"
     clip-path="url(#clipWmfPath58)"
     style="fill:#444444;fill-opacity:1;fill-rule:evenodd;stroke:none" />
  <path
     transform="matrix(0.28222222,0,0,0.28222222,-7.7275411e-7,0)"
     id="path369"
     d="m 8.51971,32.3072 0,0.1176 57.92219,0 0,-0.1176 -57.92219,0 z"
     clip-path="url(#clipWmfPath58)"
     style="fill:#424242;fill-opacity:1;fill-rule:evenodd;stroke:none" />
  <path
     transform="matrix(0.28222222,0,0,0.28222222,-7.7275411e-7,0)"
     id="path371"
     d="m 8.51971,32.4248 0,0.0589 57.92219,0 0,-0.0589 -57.92219,0 z"
     clip-path="url(#clipWmfPath58)"
     style="fill:#404040;fill-opacity:1;fill-rule:evenodd;stroke:none" />
  <path
     transform="matrix(0.28222222,0,0,0.28222222,-7.7275411e-7,0)"
     id="path373"
     d="m 8.51971,32.4837 0,0.1177 57.92219,0 0,-0.1177 -57.92219,0 z"
     clip-path="url(#clipWmfPath58)"
     style="fill:#3e3e3e;fill-opacity:1;fill-rule:evenodd;stroke:none" />
  <path
     transform="matrix(0.28222222,0,0,0.28222222,-7.7275411e-7,0)"
     id="path375"
     d="m 8.51971,32.6014 0,0.0588 57.92219,0 0,-0.0588 -57.92219,0 z"
     clip-path="url(#clipWmfPath58)"
     style="fill:#3c3c3c;fill-opacity:1;fill-rule:evenodd;stroke:none" />
  <path
     transform="matrix(0.28222222,0,0,0.28222222,-7.7275411e-7,0)"
     id="path377"
     d="m 8.51971,32.6602 0,0.1177 57.92219,0 0,-0.1177 -57.92219,0 z"
     clip-path="url(#clipWmfPath58)"
     style="fill:#3a3a3a;fill-opacity:1;fill-rule:evenodd;stroke:none" />
  <path
     transform="matrix(0.28222222,0,0,0.28222222,-7.7275411e-7,0)"
     id="path379"
     d="m 8.51971,32.7779 0,0.0589 57.92219,0 0,-0.0589 -57.92219,0 z"
     clip-path="url(#clipWmfPath58)"
     style="fill:#383838;fill-opacity:1;fill-rule:evenodd;stroke:none" />
  <path
     transform="matrix(0.28222222,0,0,0.28222222,-7.7275411e-7,0)"
     id="path381"
     d="m 8.51971,32.8368 0,0.1177 57.92219,0 0,-0.1177 -57.92219,0 z"
     clip-path="url(#clipWmfPath58)"
     style="fill:#363636;fill-opacity:1;fill-rule:evenodd;stroke:none" />
  <path
     transform="matrix(0.28222222,0,0,0.28222222,-7.7275411e-7,0)"
     id="path383"
     d="m 8.51971,32.9545 0,0.0588 57.92219,0 0,-0.0588 -57.92219,0 z"
     clip-path="url(#clipWmfPath58)"
     style="fill:#343434;fill-opacity:1;fill-rule:evenodd;stroke:none" />
  <path
     transform="matrix(0.28222222,0,0,0.28222222,-7.7275411e-7,0)"
     id="path385"
     d="m 8.51971,33.0133 0,0.1177 57.92219,0 0,-0.1177 -57.92219,0 z"
     clip-path="url(#clipWmfPath58)"
     style="fill:#323232;fill-opacity:1;fill-rule:evenodd;stroke:none" />
  <path
     transform="matrix(0.28222222,0,0,0.28222222,-7.7275411e-7,0)"
     id="path387"
     d="m 8.51971,33.131 0,0.0589 57.92219,0 0,-0.0589 -57.92219,0 z"
     clip-path="url(#clipWmfPath58)"
     style="fill:#303030;fill-opacity:1;fill-rule:evenodd;stroke:none" />
  <path
     transform="matrix(0.28222222,0,0,0.28222222,-7.7275411e-7,0)"
     id="path389"
     d="m 8.51971,33.1899 0,0.1177 57.92219,0 0,-0.1177 -57.92219,0 z"
     clip-path="url(#clipWmfPath58)"
     style="fill:#2e2e2e;fill-opacity:1;fill-rule:evenodd;stroke:none" />
  <path
     transform="matrix(0.28222222,0,0,0.28222222,-7.7275411e-7,0)"
     id="path391"
     d="m 8.51971,33.3076 0,0.0588 57.92219,0 0,-0.0588 -57.92219,0 z"
     clip-path="url(#clipWmfPath58)"
     style="fill:#2c2c2c;fill-opacity:1;fill-rule:evenodd;stroke:none" />
  <path
     transform="matrix(0.28222222,0,0,0.28222222,-7.7275411e-7,0)"
     id="path393"
     d="m 8.51971,33.3664 0,0.1177 57.92219,0 0,-0.1177 -57.92219,0 z"
     clip-path="url(#clipWmfPath58)"
     style="fill:#2a2a2a;fill-opacity:1;fill-rule:evenodd;stroke:none" />
  <path
     transform="matrix(0.28222222,0,0,0.28222222,-7.7275411e-7,0)"
     id="path395"
     d="m 8.51971,33.4841 0,0.0588 57.92219,0 0,-0.0588 -57.92219,0 z"
     clip-path="url(#clipWmfPath58)"
     style="fill:#282828;fill-opacity:1;fill-rule:evenodd;stroke:none" />
  <path
     transform="matrix(0.28222222,0,0,0.28222222,-7.7275411e-7,0)"
     id="path397"
     d="m 8.51971,33.5429 0,0.1177 57.92219,0 0,-0.1177 -57.92219,0 z"
     clip-path="url(#clipWmfPath58)"
     style="fill:#262626;fill-opacity:1;fill-rule:evenodd;stroke:none" />
  <path
     transform="matrix(0.28222222,0,0,0.28222222,-7.7275411e-7,0)"
     id="path399"
     d="m 8.51971,33.6606 0,0.0589 57.92219,0 0,-0.0589 -57.92219,0 z"
     clip-path="url(#clipWmfPath58)"
     style="fill:#242424;fill-opacity:1;fill-rule:evenodd;stroke:none" />
  <path
     transform="matrix(0.28222222,0,0,0.28222222,-7.7275411e-7,0)"
     id="path401"
     d="m 8.51971,33.7195 0,0.1177 57.92219,0 0,-0.1177 -57.92219,0 z"
     clip-path="url(#clipWmfPath58)"
     style="fill:#222222;fill-opacity:1;fill-rule:evenodd;stroke:none" />
  <path
     transform="matrix(0.28222222,0,0,0.28222222,-7.7275411e-7,0)"
     id="path403"
     d="m 8.51971,33.8372 0,0.0588 57.92219,0 0,-0.0588 -57.92219,0 z"
     clip-path="url(#clipWmfPath58)"
     style="fill:#202020;fill-opacity:1;fill-rule:evenodd;stroke:none" />
  <path
     transform="matrix(0.28222222,0,0,0.28222222,-7.7275411e-7,0)"
     id="path405"
     d="m 8.51971,33.896 0,0.1177 57.92219,0 0,-0.1177 -57.92219,0 z"
     clip-path="url(#clipWmfPath58)"
     style="fill:#1e1e1e;fill-opacity:1;fill-rule:evenodd;stroke:none" />
  <path
     transform="matrix(0.28222222,0,0,0.28222222,-7.7275411e-7,0)"
     id="path407"
     d="m 8.51971,34.0137 0,0.0589 57.92219,0 0,-0.0589 -57.92219,0 z"
     clip-path="url(#clipWmfPath58)"
     style="fill:#1c1c1c;fill-opacity:1;fill-rule:evenodd;stroke:none" />
  <path
     transform="matrix(0.28222222,0,0,0.28222222,-7.7275411e-7,0)"
     id="path409"
     d="m 8.51971,34.0726 0,0.1177 57.92219,0 0,-0.1177 -57.92219,0 z"
     clip-path="url(#clipWmfPath58)"
     style="fill:#1a1a1a;fill-opacity:1;fill-rule:evenodd;stroke:none" />
  <path
     transform="matrix(0.28222222,0,0,0.28222222,-7.7275411e-7,0)"
     id="path411"
     d="m 8.51971,34.1903 0,0.0588 57.92219,0 0,-0.0588 -57.92219,0 z"
     clip-path="url(#clipWmfPath58)"
     style="fill:#181818;fill-opacity:1;fill-rule:evenodd;stroke:none" />
  <path
     transform="matrix(0.28222222,0,0,0.28222222,-7.7275411e-7,0)"
     id="path413"
     d="m 8.51971,34.2491 0,0.1177 57.92219,0 0,-0.1177 -57.92219,0 z"
     clip-path="url(#clipWmfPath58)"
     style="fill:#161616;fill-opacity:1;fill-rule:evenodd;stroke:none" />
  <path
     transform="matrix(0.28222222,0,0,0.28222222,-7.7275411e-7,0)"
     id="path415"
     d="m 8.51971,34.3668 0,0.0589 57.92219,0 0,-0.0589 -57.92219,0 z"
     clip-path="url(#clipWmfPath58)"
     style="fill:#141414;fill-opacity:1;fill-rule:evenodd;stroke:none" />
  <path
     transform="matrix(0.28222222,0,0,0.28222222,-7.7275411e-7,0)"
     id="path417"
     d="m 8.51971,34.4257 0,0.1176 57.92219,0 0,-0.1176 -57.92219,0 z"
     clip-path="url(#clipWmfPath58)"
     style="fill:#121212;fill-opacity:1;fill-rule:evenodd;stroke:none" />
  <path
     transform="matrix(0.28222222,0,0,0.28222222,-7.7275411e-7,0)"
     id="path419"
     d="m 8.51971,34.5433 0,0.0589 57.92219,0 0,-0.0589 -57.92219,0 z"
     clip-path="url(#clipWmfPath58)"
     style="fill:#101010;fill-opacity:1;fill-rule:evenodd;stroke:none" />
  <path
     transform="matrix(0.28222222,0,0,0.28222222,-7.7275411e-7,0)"
     id="path421"
     d="m 8.51971,34.6022 0,0.1177 57.92219,0 0,-0.1177 -57.92219,0 z"
     clip-path="url(#clipWmfPath58)"
     style="fill:#0e0e0e;fill-opacity:1;fill-rule:evenodd;stroke:none" />
  <path
     transform="matrix(0.28222222,0,0,0.28222222,-7.7275411e-7,0)"
     id="path423"
     d="m 8.51971,34.7199 0,0.0588 57.92219,0 0,-0.0588 -57.92219,0 z"
     clip-path="url(#clipWmfPath58)"
     style="fill:#0c0c0c;fill-opacity:1;fill-rule:evenodd;stroke:none" />
  <path
     transform="matrix(0.28222222,0,0,0.28222222,-7.7275411e-7,0)"
     id="path425"
     d="m 8.51971,34.7787 0,0.1177 57.92219,0 0,-0.1177 -57.92219,0 z"
     clip-path="url(#clipWmfPath58)"
     style="fill:#0a0a0a;fill-opacity:1;fill-rule:evenodd;stroke:none" />
  <path
     transform="matrix(0.28222222,0,0,0.28222222,-7.7275411e-7,0)"
     id="path427"
     d="m 8.51971,34.8964 0,0.0589 57.92219,0 0,-0.0589 -57.92219,0 z"
     clip-path="url(#clipWmfPath58)"
     style="fill:#080808;fill-opacity:1;fill-rule:evenodd;stroke:none" />
  <path
     transform="matrix(0.28222222,0,0,0.28222222,-7.7275411e-7,0)"
     id="path429"
     d="m 8.51971,34.9553 0,0.1177 57.92219,0 0,-0.1177 -57.92219,0 z"
     clip-path="url(#clipWmfPath58)"
     style="fill:#060606;fill-opacity:1;fill-rule:evenodd;stroke:none" />
  <path
     transform="matrix(0.28222222,0,0,0.28222222,-7.7275411e-7,0)"
     id="path431"
     d="m 8.51971,35.073 0,0.0588 57.92219,0 0,-0.0588 -57.92219,0 z"
     clip-path="url(#clipWmfPath58)"
     style="fill:#040404;fill-opacity:1;fill-rule:evenodd;stroke:none" />
  <path
     transform="matrix(0.28222222,0,0,0.28222222,-7.7275411e-7,0)"
     id="path433"
     d="m 8.51971,35.1318 0,0.1177 57.92219,0 0,-0.1177 -57.92219,0 z"
     clip-path="url(#clipWmfPath58)"
     style="fill:#010101;fill-opacity:1;fill-rule:evenodd;stroke:none" />
  <path
     id="path435"
     d="M 2.9888737,6.759448 2.8719772,6.792666 2.7717968,6.892319 2.6716136,7.0417839 l -0.08349,0.1827107 -0.066791,0.2324946 -0.050092,0.2823352 -0.033395,0.2823351 -0.016696,0.3321755 0.016696,0.3155527 0.033395,0.2989298 0.050092,0.2657404 0.066791,0.2324947 0.08349,0.1993053 0.1001832,0.1328702 0.1001804,0.099653 0.1168965,0.033218 0,0 15.7458273,0 0,-3.1721496 -15.7458273,0 0,0"
     style="fill:none;stroke:#000000;stroke-width:0.08348791px;stroke-linecap:round;stroke-linejoin:round;stroke-miterlimit:4;stroke-dasharray:none;stroke-opacity:1" />
  <path
     id="path437"
     d="m 19.135428,8.3538342 -0.01671,-0.3321755 -0.01668,-0.2823351 -0.03342,-0.2823352 -0.05007,-0.2324946 -0.0668,-0.1827107 -0.0668,-0.1494649 -0.06677,-0.099653 -0.08348,-0.033218 -0.08351,0.033218 -0.06677,0.099653 -0.08351,0.1494649 -0.05007,0.1827107 -0.05009,0.2324946 -0.03341,0.2823352 -0.03339,0.2823351 0,0.3321755 0,0.3155527 0.03339,0.2989298 0.03341,0.2657404 0.05009,0.2324947 0.05007,0.1993053 0.08351,0.1328702 0.06677,0.099653 0.08351,0.033218 0.08348,-0.033218 0.06677,-0.099653 0.0668,-0.1328702 0.0668,-0.1993053 0.05007,-0.2324947 0.03342,-0.2657404 0.01668,-0.2989298 0.01671,-0.3155527 z"
     style="fill:#e6e6e6;fill-opacity:1;fill-rule:evenodd;stroke:none" />
  <path
     id="path439"
     d="m 19.135428,8.3538342 -0.01671,-0.3321755 -0.01668,-0.2823351 -0.03342,-0.2823352 -0.05007,-0.2324946 -0.0668,-0.1827107 -0.0668,-0.1494649 -0.06677,-0.099653 -0.08348,-0.033218 -0.08351,0.033218 -0.06677,0.099653 -0.08351,0.1494649 -0.05007,0.1827107 -0.05009,0.2324946 -0.03341,0.2823352 -0.03339,0.2823351 0,0.3321755 0,0.3155527 0.03339,0.2989298 0.03341,0.2657404 0.05009,0.2324947 0.05007,0.1993053 0.08351,0.1328702 0.06677,0.099653 0.08351,0.033218 0.08348,-0.033218 0.06677,-0.099653 0.0668,-0.1328702 0.0668,-0.1993053 0.05007,-0.2324947 0.03342,-0.2657404 0.01668,-0.2989298 0.01671,-0.3155527"
     style="fill:none;stroke:#000000;stroke-width:0.08348791px;stroke-linecap:round;stroke-linejoin:round;stroke-miterlimit:4;stroke-dasharray:none;stroke-opacity:1" />
  <path
     id="path441"
     d="m 3.6233657,4.4011144 14.3098233,0"
     style="fill:none;stroke:#808080;stroke-width:0.25046375px;stroke-linecap:round;stroke-linejoin:round;stroke-miterlimit:4;stroke-dasharray:none;stroke-opacity:1" />
  <path
     id="path443"
     d="m 17.933189,4.4011144 -1.185502,0.5812932 0,-1.1791809 1.185502,0.5978877 z"
     style="fill:#808080;fill-opacity:1;fill-rule:evenodd;stroke:none" />
  <path
     id="path445"
     d="m 17.933189,4.4011144 -1.185502,0.5812932 0,-1.1791809 1.185502,0.5978877 z"
     style="fill:none;stroke:#808080;stroke-width:0.25046375px;stroke-linecap:round;stroke-linejoin:round;stroke-miterlimit:4;stroke-dasharray:none;stroke-opacity:1" />
</svg>
