<?xml version="1.0" encoding="UTF-8" standalone="no"?>
<svg
   xmlns:dc="http://purl.org/dc/elements/1.1/"
   xmlns:cc="http://creativecommons.org/ns#"
   xmlns:rdf="http://www.w3.org/1999/02/22-rdf-syntax-ns#"
   xmlns:svg="http://www.w3.org/2000/svg"
   xmlns="http://www.w3.org/2000/svg"
   viewBox="0 0 21.599998 13.6"
   id="svg2"
   height="13.6mm"
   width="21.599998mm"
   version="1.0">
  <metadata
     id="metadata51">
    <rdf:RDF>
      <cc:Work
         rdf:about="">
        <dc:format>image/svg+xml</dc:format>
        <dc:type
           rdf:resource="http://purl.org/dc/dcmitype/StillImage" />
        <dc:title></dc:title>
      </cc:Work>
    </rdf:RDF>
  </metadata>
  <defs
     id="defs4">
    <pattern
       y="0"
       x="0"
       height="6"
       width="6"
       patternUnits="userSpaceOnUse"
       id="WMFhbasepattern" />
  </defs>
  <path
     id="path7"
     d="m 0.43754527,0.43416784 0,12.53165716 20.52490473,0 0,-12.53165716 -20.52490473,0 z"
     style="fill:#ccffcc;fill-opacity:1;fill-rule:evenodd;stroke:none" />
  <path
     id="path9"
     d="m 20.96245,12.965825 -20.52490473,0 0,-12.53165716 20.52490473,0 0,12.53165716 z"
     style="fill:none;stroke:#000000;stroke-width:0.0795539px;stroke-linecap:round;stroke-linejoin:round;stroke-miterlimit:4;stroke-dasharray:none;stroke-opacity:1" />
  <path
     id="path11"
     d="m 15.831227,5.52577 0,2.3484558 2.366715,0 0,-2.3484558 -2.366715,0 z"
     style="fill:#ffffff;fill-opacity:1;fill-rule:evenodd;stroke:none" />
  <path
     id="path13"
     d="m 18.197942,7.8742258 -2.366715,0 0,-2.3484558 2.366715,0 0,2.3484558 z"
     style="fill:none;stroke:#000000;stroke-width:0.0795539px;stroke-linecap:round;stroke-linejoin:round;stroke-miterlimit:4;stroke-dasharray:none;stroke-opacity:1" />
  <path
     id="path15"
     d="m 8.3332594,6.7098616 3.1821686,0"
     style="fill:none;stroke:#000000;stroke-width:0.2585502px;stroke-linecap:round;stroke-linejoin:round;stroke-miterlimit:4;stroke-dasharray:none;stroke-opacity:1" />
  <path
     id="path17"
     d="m 11.236987,7.8347429 3.400919,-1.1248813 -3.400919,-1.1446087 0,2.26949 z"
     style="fill:#000000;fill-opacity:1;fill-rule:evenodd;stroke:none" />
  <path
     id="path19"
     d="m 1.6308542,3.966718 0,5.4665598 5.5091132,0 0,-5.4665598 -5.5091132,0 z"
     style="fill:#ffffff;fill-opacity:1;fill-rule:evenodd;stroke:none" />
  <path
     id="path21"
     d="m 7.1399674,9.4332778 -5.5091132,0 0,-5.4665598 5.5091132,0 0,5.4665598 z"
     style="fill:none;stroke:#000000;stroke-width:0.0795539px;stroke-linecap:round;stroke-linejoin:round;stroke-miterlimit:4;stroke-dasharray:none;stroke-opacity:1" />
  <path
     id="path23"
     d="m 15.632345,9.8674484 0.07956,0"
     style="fill:none;stroke:#000000;stroke-width:0.01988847px;stroke-linecap:round;stroke-linejoin:round;stroke-miterlimit:4;stroke-dasharray:none;stroke-opacity:1" />
  <path
     id="path25"
     d="m 16.149432,9.8674484 0,0.3157506 3.918035,0 0,0.552591 -0.676205,0 0,0.157875 0.417661,0 0,0.296023 -0.417661,0 0,0.236812 0.417661,0 0,0.453898 -0.91488,0 0,-1.144608 -2.744611,0 0,0.355233 -0.974513,0 0,-0.355233 -0.656336,0 0,0 0.0199,0.01973 0,0.01973 0.0199,0.01976 0,0.01973 0.01987,0.03948 0.0199,0.01973 0.0199,0.03945 0.01987,0.05921 0.0199,0.03948 0,0.05918 0.0199,0.03948 0.0199,0.05921 0,0.05921 0.01987,0.05918 0,0.05921 0,0.05921 0,0.07894 0,0.05921 -0.01987,0.05921 -0.0199,0.05921 -0.0199,0.05918 -0.03976,0.05921 -0.03979,0.05921 -0.03977,0.05921 -0.05966,0.03946 -0.05966,0.05921 -0.07956,0.03948 -0.07956,0.03945 -0.09946,0.03948 -0.09943,0.03946 -0.119324,0.01976 -0.09946,0 -0.09946,-0.01976 -0.07953,-0.01973 -0.07956,-0.01973 -0.05966,-0.03948 -0.05966,-0.01973 -0.05969,-0.03948 -0.05966,-0.03945 -0.03977,-0.03948 -0.03979,-0.03946 -0.03977,-0.03948 -0.0199,-0.03946 -0.03977,-0.05921 -0.0199,-0.03948 -0.0199,-0.03945 0,-0.05921 -0.01987,-0.03948 0,-0.03946 -0.0199,-0.05921 0,-0.03946 0,-0.03948 0,-0.03946 0,-0.03948 0,-0.03948 0,-0.01973 0.0199,-0.03945 0,-0.01976 0,-0.01973 0,-0.01973 0,-0.01973 0,0 0,-0.01975 0,0 0,0.01975 -0.0199,0 0,0 -0.0199,0 -0.05966,0 -0.0199,0 -0.03976,0 -0.0199,-0.01975 -0.03977,0 -0.03977,0 -0.0199,0 -0.03979,-0.01973 -0.03976,0 -0.03977,-0.01973 -0.03979,-0.01976 -0.03977,-0.01973 -0.03979,-0.01973 -0.03977,-0.01973 -0.03979,-0.01975 -0.01987,-0.03946 -0.03979,-0.01973 -0.03977,-0.03948 -0.0199,-0.03946 -0.0199,-0.03948 -0.01987,-0.05921 -0.03979,-0.03945 0,-0.05921 -0.01987,-0.05921 0,-0.07894 -0.0199,-0.05921 0.0199,-0.07894 0,-0.05921 0.01987,-0.05921 0.0199,-0.03945 0.03977,-0.05921 0.0199,-0.03945 0.0199,-0.03948 0.03977,-0.03946 0.0199,-0.01975 0.03977,-0.039455 0.03979,-0.019756 0.03977,-0.019727 0.0199,-0.019727 0.03977,-0.019727 0.03979,-0.019756 0.03977,0 0.03979,-0.019727 0.03977,0 0.03979,0 0.01987,-0.019727 0.03979,0 0.03977,0 0.05966,0 0.0199,0 0.0199,0 0.01987,0 0.0199,0 0.0199,0.019727 0,0 0,0 0,0 0,-0.019727 0,-0.019727 0,0 0,-0.039483 0,-0.019727 0,-0.019727 -0.0199,-0.039483 0,-0.039483 0,-0.039455 0,-0.039483 0.0199,-0.039455 0,-0.039483 0,-0.039455 0.01987,-0.05921 0,-0.039483 0.0199,-0.039455 0.0199,-0.05921 0.0199,-0.039455 0.01987,-0.039483 0.03979,-0.05921 0.01987,-0.039455 0.03979,-0.039483 0.05966,-0.039455 0.03977,-0.039483 0.05969,-0.039455 0.05966,-0.019756 0.05966,-0.039455 0.05966,-0.019756 0.07956,-0.019727 0.07956,-0.019727 0.09943,0 0.119324,0.019727 0.09945,0.039483 0.07956,0.039455 0.07956,0.039483 0.07953,0.039455 0.05969,0.039483 0.05966,0.05921 0.03976,0.039455 0.03979,0.05921 0.03976,0.05921 0.0199,0.05921 0.01987,0.059182 0.0199,0.05921 0.0199,0.05921 0,0.05921 0,0.05921 0,0.059182 0,0.039483 -0.0199,0.05921 0,0.05921 -0.0199,0.059182 0,0.039483 -0.01987,0.039455 -0.0199,0.059211 0,0.01975 -0.0199,0.03946 -0.01987,0.03948 0,0.01973 -0.0199,0.01973 0,0.01973 -0.0199,0 0,0 0.656336,0 0,-0.3157506 0.974513,0 z"
     style="fill:#ffff00;fill-opacity:1;fill-rule:evenodd;stroke:none" />
  <path
     id="path27"
     d="m 16.149432,9.8674484 0,0.3157506 3.918035,0 0,0.552591 -0.676205,0 0,0.157875 0.417661,0 0,0.296023 -0.417661,0 0,0.236812 0.417661,0 0,0.453898 -0.91488,0 0,-1.144608 -2.744611,0 0,0.355233 -0.974513,0 0,-0.355233 -0.656336,0 0,0 0.0199,0.01973 0,0.01973 0.0199,0.01976 0,0.01973 0.01987,0.03948 0.0199,0.01973 0.0199,0.03945 0.01987,0.05921 0.0199,0.03948 0,0.05918 0.0199,0.03948 0.0199,0.05921 0,0.05921 0.01987,0.05918 0,0.05921 0,0.05921 0,0.07894 0,0.05921 -0.01987,0.05921 -0.0199,0.05921 -0.0199,0.05918 -0.03976,0.05921 -0.03979,0.05921 -0.03977,0.05921 -0.05966,0.03946 -0.05966,0.05921 -0.07956,0.03948 -0.07956,0.03945 -0.09946,0.03948 -0.09943,0.03946 -0.119324,0.01976 -0.09946,0 -0.09946,-0.01976 -0.07953,-0.01973 -0.07956,-0.01973 -0.05966,-0.03948 -0.05966,-0.01973 -0.05969,-0.03948 -0.05966,-0.03945 -0.03977,-0.03948 -0.03979,-0.03946 -0.03977,-0.03948 -0.0199,-0.03946 -0.03977,-0.05921 -0.0199,-0.03948 -0.0199,-0.03945 0,-0.05921 -0.01987,-0.03948 0,-0.03946 -0.0199,-0.05921 0,-0.03946 0,-0.03948 0,-0.03946 0,-0.03948 0,-0.03948 0,-0.01973 0.0199,-0.03945 0,-0.01976 0,-0.01973 0,-0.01973 0,-0.01973 0,0 0,-0.01975 0,0 0,0.01975 -0.0199,0 0,0 -0.0199,0 -0.05966,0 -0.0199,0 -0.03976,0 -0.0199,-0.01975 -0.03977,0 -0.03977,0 -0.0199,0 -0.03979,-0.01973 -0.03976,0 -0.03977,-0.01973 -0.03979,-0.01976 -0.03977,-0.01973 -0.03979,-0.01973 -0.03977,-0.01973 -0.03979,-0.01975 -0.01987,-0.03946 -0.03979,-0.01973 -0.03977,-0.03948 -0.0199,-0.03946 -0.0199,-0.03948 -0.01987,-0.05921 -0.03979,-0.03945 0,-0.05921 -0.01987,-0.05921 0,-0.07894 -0.0199,-0.05921 0.0199,-0.07894 0,-0.05921 0.01987,-0.05921 0.0199,-0.03945 0.03977,-0.05921 0.0199,-0.03945 0.0199,-0.03948 0.03977,-0.03946 0.0199,-0.01975 0.03977,-0.039455 0.03979,-0.019756 0.03977,-0.019727 0.0199,-0.019727 0.03977,-0.019727 0.03979,-0.019756 0.03977,0 0.03979,-0.019727 0.03977,0 0.03979,0 0.01987,-0.019727 0.03979,0 0.03977,0 0.05966,0 0.0199,0 0.0199,0 0.01987,0 0.0199,0 0.0199,0.019727 0,0 0,0 0,0 0,-0.019727 0,-0.019727 0,0 0,-0.039483 0,-0.019727 0,-0.019727 -0.0199,-0.039483 0,-0.039483 0,-0.039455 0,-0.039483 0.0199,-0.039455 0,-0.039483 0,-0.039455 0.01987,-0.05921 0,-0.039483 0.0199,-0.039455 0.0199,-0.05921 0.0199,-0.039455 0.01987,-0.039483 0.03979,-0.05921 0.01987,-0.039455 0.03979,-0.039483 0.05966,-0.039455 0.03977,-0.039483 0.05969,-0.039455 0.05966,-0.019756 0.05966,-0.039455 0.05966,-0.019756 0.07956,-0.019727 0.07956,-0.019727 0.09943,0 0.119324,0.019727 0.09945,0.039483 0.07956,0.039455 0.07956,0.039483 0.07953,0.039455 0.05969,0.039483 0.05966,0.05921 0.03976,0.039455 0.03979,0.05921 0.03976,0.05921 0.0199,0.05921 0.01987,0.059182 0.0199,0.05921 0.0199,0.05921 0,0.05921 0,0.05921 0,0.059182 0,0.039483 -0.0199,0.05921 0,0.05921 -0.0199,0.059182 0,0.039483 -0.01987,0.039455 -0.0199,0.059211 0,0.01975 -0.0199,0.03946 -0.01987,0.03948 0,0.01973 -0.0199,0.01973 0,0.01973 -0.0199,0 0,0 0.656336,0 0,-0.3157506 0.974513,0 z"
     style="fill:none;stroke:#000000;stroke-width:0.01988847px;stroke-linecap:round;stroke-linejoin:round;stroke-miterlimit:4;stroke-dasharray:none;stroke-opacity:1" />
  <path
     id="path29"
     d="m 16.149432,9.8674484 0,0.3157506 3.918035,0 0,0.552591 -0.676205,0 0,0.157875 0.417661,0 0,0.296023 -0.417661,0 0,0.236812 0.417661,0 0,0.453898 -0.91488,0 0,-1.144608 -2.744611,0 0,0.355233 -0.974513,0 0,-0.355233 -0.656336,0 0,0 0.0199,0.01973 0,0.01973 0.0199,0.01976 0,0.01973 0.01987,0.03948 0.0199,0.01973 0.0199,0.03945 0.01987,0.05921 0.0199,0.03948 0,0.05918 0.0199,0.03948 0.0199,0.05921 0,0.05921 0.01987,0.05918 0,0.05921 0,0.05921 0,0.07894 0,0.05921 -0.01987,0.05921 -0.0199,0.05921 -0.0199,0.05918 -0.03976,0.05921 -0.03979,0.05921 -0.03977,0.05921 -0.05966,0.03946 -0.05966,0.05921 -0.07956,0.03948 -0.07956,0.03945 -0.09946,0.03948 -0.09943,0.03946 -0.119324,0.01976 -0.09946,0 -0.09946,-0.01976 -0.07953,-0.01973 -0.07956,-0.01973 -0.05966,-0.03948 -0.05966,-0.01973 -0.05969,-0.03948 -0.05966,-0.03945 -0.03977,-0.03948 -0.03979,-0.03946 -0.03977,-0.03948 -0.0199,-0.03946 -0.03977,-0.05921 -0.0199,-0.03948 -0.0199,-0.03945 0,-0.05921 -0.01987,-0.03948 0,-0.03946 -0.0199,-0.05921 0,-0.03946 0,-0.03948 0,-0.03946 0,-0.03948 0,-0.03948 0,-0.01973 0.0199,-0.03945 0,-0.01976 0,-0.01973 0,-0.01973 0,-0.01973 0,0 0,-0.01975 0,0 0,0.01975 -0.0199,0 0,0 -0.0199,0 -0.05966,0 -0.0199,0 -0.03976,0 -0.0199,-0.01975 -0.03977,0 -0.03977,0 -0.0199,0 -0.03979,-0.01973 -0.03976,0 -0.03977,-0.01973 -0.03979,-0.01976 -0.03977,-0.01973 -0.03979,-0.01973 -0.03977,-0.01973 -0.03979,-0.01975 -0.01987,-0.03946 -0.03979,-0.01973 -0.03977,-0.03948 -0.0199,-0.03946 -0.0199,-0.03948 -0.01987,-0.05921 -0.03979,-0.03945 0,-0.05921 -0.01987,-0.05921 0,-0.07894 -0.0199,-0.05921 0.0199,-0.07894 0,-0.05921 0.01987,-0.05921 0.0199,-0.03945 0.03977,-0.05921 0.0199,-0.03945 0.0199,-0.03948 0.03977,-0.03946 0.0199,-0.01975 0.03977,-0.039455 0.03979,-0.019756 0.03977,-0.019727 0.0199,-0.019727 0.03977,-0.019727 0.03979,-0.019756 0.03977,0 0.03979,-0.019727 0.03977,0 0.03979,0 0.01987,-0.019727 0.03979,0 0.03977,0 0.05966,0 0.0199,0 0.0199,0 0.01987,0 0.0199,0 0.0199,0.019727 0,0 0,0 0,0 0,-0.019727 0,-0.019727 0,0 0,-0.039483 0,-0.019727 0,-0.019727 -0.0199,-0.039483 0,-0.039483 0,-0.039455 0,-0.039483 0.0199,-0.039455 0,-0.039483 0,-0.039455 0.01987,-0.05921 0,-0.039483 0.0199,-0.039455 0.0199,-0.05921 0.0199,-0.039455 0.01987,-0.039483 0.03979,-0.05921 0.01987,-0.039455 0.03979,-0.039483 0.05966,-0.039455 0.03977,-0.039483 0.05969,-0.039455 0.05966,-0.019756 0.05966,-0.039455 0.05966,-0.019756 0.07956,-0.019727 0.07956,-0.019727 0.09943,0 0.119324,0.019727 0.09945,0.039483 0.07956,0.039455 0.07956,0.039483 0.07953,0.039455 0.05969,0.039483 0.05966,0.05921 0.03976,0.039455 0.03979,0.05921 0.03976,0.05921 0.0199,0.05921 0.01987,0.059182 0.0199,0.05921 0.0199,0.05921 0,0.05921 0,0.05921 0,0.059182 0,0.039483 -0.0199,0.05921 0,0.05921 -0.0199,0.059182 0,0.039483 -0.01987,0.039455 -0.0199,0.059211 0,0.01975 -0.0199,0.03946 -0.01987,0.03948 0,0.01973 -0.0199,0.01973 0,0.01973 -0.0199,0 0,0 0.656336,0 0,-0.3157506 0.974513,0 z"
     style="fill:none;stroke:#000000;stroke-width:0.01988847px;stroke-linecap:round;stroke-linejoin:round;stroke-miterlimit:4;stroke-dasharray:none;stroke-opacity:1" />
  <path
     id="path31"
     d="m 14.458921,9.6306358 0,0.1184204 -0.03977,0.098665 -0.119352,0.1776029 -0.178985,0.11842 -0.09945,0.03946 -0.119324,0 -0.119323,0 -0.09946,-0.03946 -0.178985,-0.11842 -0.119323,-0.1776029 -0.03979,-0.098665 0,-0.1184204 0,-0.098665 0.03979,-0.1184205 0.119323,-0.1776024 0.178985,-0.1184204 0.09946,-0.019727 0.119323,-0.019756 0.119324,0.019756 0.09945,0.019727 0.178985,0.1184204 0.119352,0.1776024 0.03977,0.1184205 0,0.098665 z"
     style="fill:#ffffff;fill-opacity:1;fill-rule:evenodd;stroke:none" />
  <path
     id="path33"
     d="m 14.458921,9.6306358 0,0.1184204 -0.03977,0.098665 -0.119352,0.1776028 -0.178985,0.11842 -0.09945,0.03946 -0.119324,0 -0.119323,0 -0.09946,-0.03946 -0.178985,-0.11842 -0.119323,-0.1776028 -0.03979,-0.098665 0,-0.1184204 0,-0.098665 0.03979,-0.1184205 0.119323,-0.1776024 0.178985,-0.1184204 0.09946,-0.019727 0.119323,-0.019756 0.119324,0.019756 0.09945,0.019727 0.178985,0.1184204 0.119352,0.1776024 0.03977,0.1184205 0,0.098665"
     style="fill:none;stroke:#000000;stroke-width:0.01988847px;stroke-linecap:round;stroke-linejoin:round;stroke-miterlimit:4;stroke-dasharray:none;stroke-opacity:1" />
  <path
     id="path35"
     d="m 14.458921,9.6306358 0,0.1184204 -0.03977,0.098665 -0.119352,0.1776028 -0.178985,0.11842 -0.09945,0.03946 -0.119324,0 -0.119323,0 -0.09946,-0.03946 -0.178985,-0.11842 -0.119323,-0.1776028 -0.03979,-0.098665 0,-0.1184204 0,-0.098665 0.03979,-0.1184205 0.119323,-0.1776024 0.178985,-0.1184204 0.09946,-0.019727 0.119323,-0.019756 0.119324,0.019756 0.09945,0.019727 0.178985,0.1184204 0.119352,0.1776024 0.03977,0.1184205 0,0.098665"
     style="fill:none;stroke:#000000;stroke-width:0.01988847px;stroke-linecap:round;stroke-linejoin:round;stroke-miterlimit:4;stroke-dasharray:none;stroke-opacity:1" />
  <path
     id="path37"
     d="m 14.458921,11.387046 0,0.118392 -0.03977,0.09869 -0.119352,0.177603 -0.178985,0.11842 -0.09945,0.03946 -0.119324,0 -0.119323,0 -0.09946,-0.03946 -0.178985,-0.11842 -0.119323,-0.177603 -0.03979,-0.09869 0,-0.118392 0,-0.118421 0.03979,-0.09867 0.119323,-0.17763 0.178985,-0.118392 0.09946,-0.03948 0.119323,0 0.119324,0 0.09945,0.03948 0.178985,0.118392 0.119352,0.17763 0.03977,0.09867 0,0.118421 z"
     style="fill:#ffffff;fill-opacity:1;fill-rule:evenodd;stroke:none" />
  <path
     id="path39"
     d="m 14.458921,11.387046 0,0.118392 -0.03977,0.09869 -0.119352,0.177603 -0.178985,0.11842 -0.09945,0.03946 -0.119324,0 -0.119323,0 -0.09946,-0.03946 -0.178985,-0.11842 -0.119323,-0.177603 -0.03979,-0.09869 0,-0.118392 0,-0.118421 0.03979,-0.09867 0.119323,-0.17763 0.178985,-0.118392 0.09946,-0.03948 0.119323,0 0.119324,0 0.09945,0.03948 0.178985,0.118392 0.119352,0.17763 0.03977,0.09867 0,0.118421"
     style="fill:none;stroke:#000000;stroke-width:0.01988847px;stroke-linecap:round;stroke-linejoin:round;stroke-miterlimit:4;stroke-dasharray:none;stroke-opacity:1" />
  <path
     id="path41"
     d="m 14.458921,11.387046 0,0.118392 -0.03977,0.09869 -0.119352,0.177603 -0.178985,0.11842 -0.09945,0.03946 -0.119324,0 -0.119323,0 -0.09946,-0.03946 -0.178985,-0.11842 -0.119323,-0.177603 -0.03979,-0.09869 0,-0.118392 0,-0.118421 0.03979,-0.09867 0.119323,-0.17763 0.178985,-0.118392 0.09946,-0.03948 0.119323,0 0.119324,0 0.09945,0.03948 0.178985,0.118392 0.119352,0.17763 0.03977,0.09867 0,0.118421"
     style="fill:none;stroke:#000000;stroke-width:0.01988847px;stroke-linecap:round;stroke-linejoin:round;stroke-miterlimit:4;stroke-dasharray:none;stroke-opacity:1" />
  <path
     id="path43"
     d="m 13.365056,10.479222 -0.0199,0.17763 -0.09943,0.138148 -0.13922,0.07894 -0.159117,0.03945 -0.159117,-0.03945 -0.13922,-0.07894 -0.09943,-0.138148 -0.0199,-0.17763 0.0199,-0.157876 0.09943,-0.138147 0.13922,-0.07894 0.159117,-0.03945 0.159117,0.03945 0.13922,0.07894 0.09943,0.138147 0.0199,0.157876 z"
     style="fill:#ffffff;fill-opacity:1;fill-rule:evenodd;stroke:none" />
  <path
     id="path45"
     d="m 13.365056,10.479222 -0.0199,0.17763 -0.09943,0.138148 -0.13922,0.07894 -0.159117,0.03945 -0.159117,-0.03945 -0.13922,-0.07894 -0.09943,-0.138148 -0.0199,-0.17763 0.0199,-0.157876 0.09943,-0.138147 0.13922,-0.07894 0.159117,-0.03945 0.159117,0.03945 0.13922,0.07894 0.09943,0.138147 0.0199,0.157876"
     style="fill:none;stroke:#000000;stroke-width:0.01988847px;stroke-linecap:round;stroke-linejoin:round;stroke-miterlimit:4;stroke-dasharray:none;stroke-opacity:1" />
  <path
     id="path47"
     d="m 13.365056,10.479222 -0.0199,0.17763 -0.09943,0.138148 -0.13922,0.07894 -0.159117,0.03945 -0.159117,-0.03945 -0.13922,-0.07894 -0.09943,-0.138148 -0.0199,-0.17763 0.0199,-0.157876 0.09943,-0.138147 0.13922,-0.07894 0.159117,-0.03945 0.159117,0.03945 0.13922,0.07894 0.09943,0.138147 0.0199,0.157876"
     style="fill:none;stroke:#000000;stroke-width:0.01988847px;stroke-linecap:round;stroke-linejoin:round;stroke-miterlimit:4;stroke-dasharray:none;stroke-opacity:1" />
</svg>
