<?xml version="1.0" encoding="UTF-8" standalone="no"?>
<svg
   xmlns:dc="http://purl.org/dc/elements/1.1/"
   xmlns:cc="http://creativecommons.org/ns#"
   xmlns:rdf="http://www.w3.org/1999/02/22-rdf-syntax-ns#"
   xmlns:svg="http://www.w3.org/2000/svg"
   xmlns="http://www.w3.org/2000/svg"
   viewBox="0 0 8.5223684 11.697368"
   id="svg2"
   height="11.697368mm"
   width="8.5223684mm"
   version="1.0">
  <metadata
     id="metadata25">
    <rdf:RDF>
      <cc:Work
         rdf:about="">
        <dc:format>image/svg+xml</dc:format>
        <dc:type
           rdf:resource="http://purl.org/dc/dcmitype/StillImage" />
        <dc:title></dc:title>
      </cc:Work>
    </rdf:RDF>
  </metadata>
  <defs
     id="defs4">
    <pattern
       y="0"
       x="0"
       height="6"
       width="6"
       patternUnits="userSpaceOnUse"
       id="WMFhbasepattern" />
  </defs>
  <path
     id="path7"
     d="m 2.6079053,2.5860728 0,6.4569481 3.255741,0"
     style="fill:none;stroke:#ff0000;stroke-width:0.24916291px;stroke-linecap:round;stroke-linejoin:round;stroke-miterlimit:4;stroke-dasharray:none;stroke-opacity:1" />
  <path
     id="path9"
     d="m 3.8869336,7.0828747 0,3.9202923 3.9533971,0 0,-3.9202923 -3.9533971,0 z"
     style="fill:#ffffff;fill-opacity:1;fill-rule:evenodd;stroke:none" />
  <path
     id="path11"
     d="m 3.8869336,11.003167 3.9533971,0 0,-3.9202923 -3.9533971,0 0,3.9202923 z"
     style="fill:none;stroke:#000000;stroke-width:0.24916291px;stroke-linecap:round;stroke-linejoin:round;stroke-miterlimit:4;stroke-dasharray:none;stroke-opacity:1" />
  <path
     id="path13"
     d="m 0.51493683,2.5860728 0.0166116,-0.2141333 0.0332204,-0.2141333 0.049832,-0.1976628 0.0664436,-0.1811895 0.0996668,-0.1811895 0.099664,-0.1647162 0.2491627,-0.3129646 0.3156063,-0.24707713 0.1661104,-0.0988314 0.1827191,-0.0988314 0.1827191,-0.0658876 0.1993308,-0.0494143 0.2159395,-0.0329438 0.2159423,-0.0164733 0.1993307,0.0164733 0.2159283,0.0329438 0.1993335,0.0494143 0.1827389,0.0658876 0.1827107,0.0988314 0.166116,0.0988314 0.3156091,0.24707713 0.2491458,0.3129646 0.099681,0.1647162 0.099653,0.1811895 0.066435,0.1811895 0.049841,0.1976628 0.033218,0.2141333 0.016623,0.2141333 0,0 L 4.6676449,2.7837356 4.6344274,2.9978773 4.5845869,3.1955176 4.5181518,3.3767324 4.4184991,3.5579191 4.3188183,3.722624 4.0696725,4.0355802 3.7540634,4.2826658 3.5879474,4.3815 3.4052367,4.4803342 3.2224978,4.5462049 3.0231643,4.595622 2.807236,4.6285856 2.6079053,4.6450391 2.391963,4.6285856 2.1760235,4.595622 1.9766927,4.5462049 1.7939736,4.4803342 1.6112545,4.3815 1.4451441,4.2826658 1.1295378,4.0355802 0.8803751,3.722624 0.78071114,3.5579191 0.68104436,3.3767324 0.61460078,3.1955176 0.56476881,2.9978773 0.53154843,2.7837356 0.51493683,2.5860728 Z"
     style="fill:#d8d8d8;fill-opacity:1;fill-rule:evenodd;stroke:none" />
  <path
     id="path15"
     d="m 0.51493683,2.5860728 0.0166116,-0.2141333 0.0332204,-0.2141333 0.049832,-0.1976628 0.0664436,-0.1811895 0.0996668,-0.1811895 0.099664,-0.1647162 0.24916267,-0.3129646 0.3156063,-0.24707713 0.1661104,-0.0988314 0.1827191,-0.0988314 0.1827191,-0.0658876 0.1993308,-0.0494143 0.2159395,-0.0329438 0.2159423,-0.0164733 0.1993307,0.0164733 0.2159283,0.0329438 0.1993335,0.0494143 0.1827389,0.0658876 0.1827107,0.0988314 0.166116,0.0988314 0.3156091,0.24707713 0.2491458,0.3129646 0.099681,0.1647162 0.099653,0.1811895 0.066435,0.1811895 0.049841,0.1976628 0.033218,0.2141333 0.016623,0.2141333 0,0 L 4.6676449,2.7837356 4.6344274,2.9978773 4.5845869,3.1955176 4.5181518,3.3767324 4.4184991,3.5579191 4.3188183,3.722624 4.0696725,4.0355802 3.7540634,4.2826658 3.5879474,4.3815 3.4052367,4.4803342 3.2224978,4.5462049 3.0231643,4.595622 2.807236,4.6285856 2.6079053,4.6450391 2.391963,4.6285856 2.1760235,4.595622 1.9766927,4.5462049 1.7939736,4.4803342 1.6112545,4.3815 1.4451441,4.2826658 1.1295378,4.0355802 0.8803751,3.722624 0.78071114,3.5579191 0.68104436,3.3767324 0.61460078,3.1955176 0.56476881,2.9978773 0.53154843,2.7837356 0.51493683,2.5860728"
     style="fill:none;stroke:#000000;stroke-width:0.24916291px;stroke-linecap:round;stroke-linejoin:round;stroke-miterlimit:4;stroke-dasharray:none;stroke-opacity:1" />
  <text
     id="text17"
     y="10.160849 10.160849"
     x="4.6095562 4.6095562"
     style="font-style:normal;font-variant:normal;font-weight:400;font-size:3.38666677px;font-family:Arial;text-align:start;letter-spacing:0px;word-spacing:0px;text-anchor:start;fill:#000000;fill-opacity:1;stroke:none"
     xml:space="preserve"><tspan
       id="tspan19"
       y="10.160849 10.160849"
       x="4.6095562 4.6095562"><tspan
         id="tspan21"
         style="font-style:normal;font-variant:normal;font-weight:400;font-family:Arial;fill:#000000"
         dy="0 0"
         dx="0 0">C</tspan></tspan></text>
</svg>
