<?xml version="1.0" encoding="UTF-8" standalone="no"?>
<svg
   xmlns:dc="http://purl.org/dc/elements/1.1/"
   xmlns:cc="http://creativecommons.org/ns#"
   xmlns:rdf="http://www.w3.org/1999/02/22-rdf-syntax-ns#"
   xmlns:svg="http://www.w3.org/2000/svg"
   xmlns="http://www.w3.org/2000/svg"
   viewBox="0 0 21.723684 13.702632"
   id="svg2"
   height="13.702632mm"
   width="21.723684mm"
   version="1.0">
  <metadata
     id="metadata49">
    <rdf:RDF>
      <cc:Work
         rdf:about="">
        <dc:format>image/svg+xml</dc:format>
        <dc:type
           rdf:resource="http://purl.org/dc/dcmitype/StillImage" />
        <dc:title></dc:title>
      </cc:Work>
    </rdf:RDF>
  </metadata>
  <defs
     id="defs4">
    <pattern
       y="0"
       x="0"
       height="6"
       width="6"
       patternUnits="userSpaceOnUse"
       id="WMFhbasepattern" />
  </defs>
  <path
     id="path7"
     d="m 0.51562769,0.43180847 0,12.65528753 20.60847931,0 0,-12.65528753 -20.60847931,0 z"
     style="fill:#ccffcc;fill-opacity:1;fill-rule:evenodd;stroke:none" />
  <path
     id="path9"
     d="m 0.51562769,13.087096 20.60847931,0 0,-12.65528753 -20.60847931,0 0,12.65528753 z"
     style="fill:none;stroke:#000000;stroke-width:0.08316582px;stroke-linecap:round;stroke-linejoin:round;stroke-miterlimit:4;stroke-dasharray:none;stroke-opacity:1" />
  <path
     id="path11"
     d="m 0.51562769,6.759448 6.33723511,0"
     style="fill:none;stroke:#808080;stroke-width:0.24949744px;stroke-linecap:round;stroke-linejoin:round;stroke-miterlimit:4;stroke-dasharray:none;stroke-opacity:1" />
  <path
     id="path13"
     d="m 9.2314034,6.759448 -2.3785406,1.1957756 0,-2.3749283 2.3785406,1.1791527 z"
     style="fill:#808080;fill-opacity:1;fill-rule:evenodd;stroke:none" />
  <path
     id="path15"
     d="m 9.2314034,6.759448 -2.3785406,1.1957756 0,-2.3749283 2.3785406,1.1791527 z"
     style="fill:none;stroke:#808080;stroke-width:0.24949744px;stroke-linecap:round;stroke-linejoin:round;stroke-miterlimit:4;stroke-dasharray:none;stroke-opacity:1" />
  <path
     id="path17"
     d="M 16.03437,3.6039496 17.165432,2.491201 16.03437,1.3618577 14.919959,2.491201 16.03437,3.6039496 Z"
     style="fill:#000000;fill-opacity:1;fill-rule:evenodd;stroke:none" />
  <path
     id="path19"
     d="M 16.03437,3.6039496 17.165432,2.491201 16.03437,1.3618577 14.919959,2.491201 16.03437,3.6039496 Z"
     style="fill:none;stroke:#000000;stroke-width:0.24949744px;stroke-linecap:round;stroke-linejoin:round;stroke-miterlimit:4;stroke-dasharray:none;stroke-opacity:1" />
  <path
     id="path21"
     d="M 18.745566,7.8888167 19.860005,6.759448 18.745566,5.6467304 17.631155,6.759448 18.745566,7.8888167 Z"
     style="fill:#000000;fill-opacity:1;fill-rule:evenodd;stroke:none" />
  <path
     id="path23"
     d="M 18.745566,7.8888167 19.860005,6.759448 18.745566,5.6467304 17.631155,6.759448 18.745566,7.8888167 Z"
     style="fill:none;stroke:#000000;stroke-width:0.24949744px;stroke-linecap:round;stroke-linejoin:round;stroke-miterlimit:4;stroke-dasharray:none;stroke-opacity:1" />
  <path
     id="path25"
     d="M 16.03437,12.173684 17.165432,11.044315 16.03437,9.9315976 14.919959,11.044315 16.03437,12.173684 Z"
     style="fill:#000000;fill-opacity:1;fill-rule:evenodd;stroke:none" />
  <path
     id="path27"
     d="M 16.03437,12.173684 17.165432,11.044315 16.03437,9.9315976 14.919959,11.044315 16.03437,12.173684 Z"
     style="fill:none;stroke:#000000;stroke-width:0.24949744px;stroke-linecap:round;stroke-linejoin:round;stroke-miterlimit:4;stroke-dasharray:none;stroke-opacity:1" />
  <path
     id="path29"
     d="M 16.633161,1.9597455 9.2314034,5.5802953"
     style="fill:none;stroke:#000000;stroke-width:0.24949744px;stroke-linecap:round;stroke-linejoin:round;stroke-miterlimit:4;stroke-dasharray:none;stroke-opacity:1" />
  <path
     id="path31"
     d="m 19.860005,6.759448 -9.031816,0"
     style="fill:none;stroke:#000000;stroke-width:0.24949744px;stroke-linecap:round;stroke-linejoin:round;stroke-miterlimit:4;stroke-dasharray:none;stroke-opacity:1" />
  <path
     id="path33"
     d="M 16.566641,11.642203 9.2314034,7.5566411"
     style="fill:none;stroke:#000000;stroke-width:0.24949744px;stroke-linecap:round;stroke-linejoin:round;stroke-miterlimit:4;stroke-dasharray:none;stroke-opacity:1" />
  <path
     id="path35"
     d="m 10.229398,6.759448 1.180959,0.5978878 0,-1.1791527 -1.180959,0.5812649 z"
     style="fill:#000000;fill-opacity:1;fill-rule:evenodd;stroke:none" />
  <path
     id="path37"
     d="m 10.229398,6.759448 1.180959,0.5978878 0,-1.1791527 -1.180959,0.5812649 z"
     style="fill:none;stroke:#000000;stroke-width:0.24949744px;stroke-linecap:round;stroke-linejoin:round;stroke-miterlimit:4;stroke-dasharray:none;stroke-opacity:1" />
  <path
     id="path39"
     d="M 8.6991323,5.9788778 10.02981,5.895848 9.430991,4.8661602 8.6991323,5.9788778 Z"
     style="fill:#000000;fill-opacity:1;fill-rule:evenodd;stroke:none" />
  <path
     id="path41"
     d="M 8.6991323,5.9788778 10.02981,5.895848 9.430991,4.8661602 8.6991323,5.9788778 Z"
     style="fill:none;stroke:#000000;stroke-width:0.24949744px;stroke-linecap:round;stroke-linejoin:round;stroke-miterlimit:4;stroke-dasharray:none;stroke-opacity:1" />
  <path
     id="path43"
     d="M 9.1648837,7.5068289 10.495533,7.5898587 9.8967423,8.6195464 9.1648837,7.5068289 Z"
     style="fill:#000000;fill-opacity:1;fill-rule:evenodd;stroke:none" />
  <path
     id="path45"
     d="M 9.1648837,7.5068289 10.495533,7.5898587 9.8967423,8.6195464 9.1648837,7.5068289 Z"
     style="fill:none;stroke:#000000;stroke-width:0.24949744px;stroke-linecap:round;stroke-linejoin:round;stroke-miterlimit:4;stroke-dasharray:none;stroke-opacity:1" />
</svg>
