<?xml version="1.0" encoding="UTF-8" standalone="no"?>
<svg
   xmlns:dc="http://purl.org/dc/elements/1.1/"
   xmlns:cc="http://creativecommons.org/ns#"
   xmlns:rdf="http://www.w3.org/1999/02/22-rdf-syntax-ns#"
   xmlns:svg="http://www.w3.org/2000/svg"
   xmlns="http://www.w3.org/2000/svg"
   viewBox="0 0 21.723684 13.702632"
   id="svg2"
   height="13.702632mm"
   width="21.723684mm"
   version="1.0">
  <metadata
     id="metadata25">
    <rdf:RDF>
      <cc:Work
         rdf:about="">
        <dc:format>image/svg+xml</dc:format>
        <dc:type
           rdf:resource="http://purl.org/dc/dcmitype/StillImage" />
        <dc:title></dc:title>
      </cc:Work>
    </rdf:RDF>
  </metadata>
  <defs
     id="defs4">
    <pattern
       y="0"
       x="0"
       height="6"
       width="6"
       patternUnits="userSpaceOnUse"
       id="WMFhbasepattern" />
  </defs>
  <path
     id="path7"
     d="m 0.43413603,0.43180847 0,12.65528753 20.68830597,0 0,-12.65528753 -20.68830597,0 z"
     style="fill:#ccffcc;fill-opacity:1;fill-rule:evenodd;stroke:none" />
  <path
     id="path9"
     d="m 0.43413603,13.087096 20.68830597,0 0,-12.65528753 -20.68830597,0 0,12.65528753 z"
     style="fill:none;stroke:#000000;stroke-width:0.08348791px;stroke-linecap:round;stroke-linejoin:round;stroke-miterlimit:4;stroke-dasharray:none;stroke-opacity:1" />
  <path
     id="path11"
     d="m 3.2226383,5.5802953 0,2.3749283 2.3877411,0 0,-2.3749283 -2.3877411,0 z"
     style="fill:#ffffff;fill-opacity:1;fill-rule:evenodd;stroke:none" />
  <path
     id="path13"
     d="m 3.2226383,7.9552236 2.3877411,0 0,-2.3749283 -2.3877411,0 0,2.3749283 z"
     style="fill:none;stroke:#000000;stroke-width:0.08348791px;stroke-linecap:round;stroke-linejoin:round;stroke-miterlimit:4;stroke-dasharray:none;stroke-opacity:1" />
  <path
     id="path15"
     d="m 6.7959103,6.759448 3.2226387,0"
     style="fill:none;stroke:#000000;stroke-width:0.25046375px;stroke-linecap:round;stroke-linejoin:round;stroke-miterlimit:4;stroke-dasharray:none;stroke-opacity:1" />
  <path
     id="path17"
     d="m 9.7346903,5.6301076 3.4230167,1.1293404 -3.4230167,1.1459633 0,-2.2753037 z"
     style="fill:#000000;fill-opacity:1;fill-rule:evenodd;stroke:none" />
  <path
     id="path19"
     d="m 14.359917,4.002532 0,5.5304549 5.560286,0 0,-5.5304549 -5.560286,0 z"
     style="fill:#ffffff;fill-opacity:1;fill-rule:evenodd;stroke:none" />
  <path
     id="path21"
     d="m 14.359917,9.5329869 5.560286,0 0,-5.5304549 -5.560286,0 0,5.5304549 z"
     style="fill:none;stroke:#000000;stroke-width:0.08348791px;stroke-linecap:round;stroke-linejoin:round;stroke-miterlimit:4;stroke-dasharray:none;stroke-opacity:1" />
</svg>
