<?xml version="1.0" encoding="UTF-8" standalone="no"?>
<svg
   xmlns:dc="http://purl.org/dc/elements/1.1/"
   xmlns:cc="http://creativecommons.org/ns#"
   xmlns:rdf="http://www.w3.org/1999/02/22-rdf-syntax-ns#"
   xmlns:svg="http://www.w3.org/2000/svg"
   xmlns="http://www.w3.org/2000/svg"
   viewBox="0 0 21.723684 13.702632"
   id="svg2"
   height="13.702632mm"
   width="21.723684mm"
   version="1.0">
  <metadata
     id="metadata31">
    <rdf:RDF>
      <cc:Work
         rdf:about="">
        <dc:format>image/svg+xml</dc:format>
        <dc:type
           rdf:resource="http://purl.org/dc/dcmitype/StillImage" />
        <dc:title></dc:title>
      </cc:Work>
    </rdf:RDF>
  </metadata>
  <defs
     id="defs4">
    <pattern
       y="0"
       x="0"
       height="6"
       width="6"
       patternUnits="userSpaceOnUse"
       id="WMFhbasepattern" />
  </defs>
  <path
     id="path7"
     d="m 0.43413603,0.43180847 0,12.65528753 20.68830597,0 0,-12.65528753 -20.68830597,0 z"
     style="fill:#ccffcc;fill-opacity:1;fill-rule:evenodd;stroke:none" />
  <path
     id="path9"
     d="m 0.43413603,13.087096 20.68830597,0 0,-12.65528753 -20.68830597,0 0,12.65528753 z"
     style="fill:none;stroke:#000000;stroke-width:0.08348791px;stroke-linecap:round;stroke-linejoin:round;stroke-miterlimit:4;stroke-dasharray:none;stroke-opacity:1" />
  <path
     id="path11"
     d="m 7.1966659,10.728762 7.1632511,0 0.317246,-0.03322 0.300567,-0.09962 0.267152,-0.149493 0.233764,-0.182682 0.200378,-0.232495 0.150283,-0.2823631 0.08348,-0.2989298 0.03341,-0.3155527 0,0 0,-4.8329426 L 15.912789,3.9859091 15.829307,3.6869793 15.679024,3.4212389 15.478646,3.1887442 15.244882,2.9894389 14.97773,2.839974 l -0.300567,-0.083044 -0.150255,-0.033218 -0.166991,0 -7.1632511,0 -0.1669909,0 L 6.8793917,2.7569301 6.5788532,2.839974 6.3116734,2.9894389 6.0779088,3.1887442 5.8775592,3.4212389 5.7272759,3.6869793 l -0.083481,0.2989298 -0.033415,0.3155527 0,0 0,4.8329426 0.033415,0.3155527 0.083481,0.2989298 0.1502833,0.2823631 0.2003496,0.232495 0.2337646,0.182682 0.2671798,0.149493 0.3005385,0.09962 0.3172742,0.03322 0,0 z"
     style="fill:#c0c0c0;fill-opacity:1;fill-rule:evenodd;stroke:none" />
  <path
     id="path13"
     d="m 7.1966659,10.728762 7.1632511,0 0.317246,-0.03322 0.300567,-0.09962 0.267152,-0.149493 0.233764,-0.182682 0.200378,-0.232495 0.150283,-0.2823631 0.08348,-0.2989298 0.03341,-0.3155527 0,0 0,-4.8329426 L 15.912789,3.9859091 15.829307,3.6869793 15.679024,3.4212389 15.478646,3.1887442 15.244882,2.9894389 14.97773,2.839974 14.677163,2.75693 14.526908,2.723712 l -0.166991,0 -7.1632511,0 -0.1669909,0 L 6.8793917,2.7569301 6.5788532,2.839974 6.3116734,2.9894389 6.0779088,3.1887442 5.8775592,3.4212389 5.7272759,3.6869793 l -0.083481,0.2989298 -0.033415,0.3155527 0,0 0,4.8329426 0.033415,0.3155527 0.083481,0.2989298 0.1502833,0.2823631 0.2003496,0.232495 0.2337646,0.182682 0.2671798,0.149493 0.3005385,0.09962 0.3172742,0.03322 0,0"
     style="fill:none;stroke:#000000;stroke-width:0.25046375px;stroke-linecap:round;stroke-linejoin:round;stroke-miterlimit:4;stroke-dasharray:none;stroke-opacity:1" />
  <path
     id="path15"
     d="m 7.7810634,10.147498 4.8589916,0 0.150284,0 0.16699,-0.03322 0.300539,-0.08303 0.26718,-0.1494929 0.233764,-0.1992771 0.200378,-0.2325229 0.133576,-0.2657404 0.100189,-0.2989298 0.03339,-0.3155527 0,0 0,-3.6869793 L 14.192955,4.5506076 14.092766,4.2682442 13.95919,3.9859091 13.758812,3.7534144 13.525048,3.570732 l -0.26718,-0.1494931 -0.300539,-0.099625 -0.317274,-0.033218 0,0 -4.8589916,0 L 7.4471099,3.3216144 7.1632508,3.4212389 6.8793917,3.570732 6.645627,3.7534144 6.4619568,3.9859091 6.3116734,4.2682442 6.2115128,4.5506076 l -0.016708,0.1660595 -0.016707,0.1660878 0,0 0,3.6869793 0.016707,0.1660878 0.016708,0.1494649 0.1001606,0.2989298 0.1502834,0.2657404 0.1836702,0.2325229 0.2337647,0.1992771 0.2838591,0.1494929 0.2838591,0.08303 0.1669909,0.03322 0.1669626,0 0,0 z"
     style="fill:#333333;fill-opacity:1;fill-rule:evenodd;stroke:none" />
  <path
     id="path17"
     d="m 7.7810634,10.147498 4.8589916,0 0.150284,0 0.16699,-0.03322 0.300539,-0.08303 0.26718,-0.1494929 0.233764,-0.1992771 0.200378,-0.2325229 0.133576,-0.2657404 0.100189,-0.2989298 0.03339,-0.3155527 0,0 0,-3.6869793 L 14.192955,4.5506076 14.092766,4.2682442 13.95919,3.9859091 13.758812,3.7534144 13.525048,3.570732 l -0.26718,-0.1494931 -0.300539,-0.099625 -0.317274,-0.033218 0,0 -4.8589916,0 L 7.4471099,3.3216144 7.1632508,3.4212389 6.8793917,3.570732 6.645627,3.7534144 6.4619568,3.9859091 6.3116734,4.2682442 6.2115128,4.5506076 l -0.016708,0.1660595 -0.016707,0.1660878 0,0 0,3.6869793 0.016707,0.1660878 0.016708,0.1494649 0.1001606,0.2989298 0.1502834,0.2657404 0.1836702,0.2325229 0.2337647,0.1992771 0.2838591,0.1494929 0.2838591,0.08303 0.1669909,0.03322 0.1669626,0 0,0"
     style="fill:none;stroke:#000000;stroke-width:0.25046375px;stroke-linecap:round;stroke-linejoin:round;stroke-miterlimit:4;stroke-dasharray:none;stroke-opacity:1" />
  <path
     id="path19"
     d="m 15.512061,9.4333624 0,-0.083058 -0.03341,-0.08303 -0.08348,-0.1328703 -0.133576,-0.099653 -0.08348,-0.016595 -0.08348,-0.016623 -0.100189,0.016623 -0.08351,0.016595 -0.133576,0.099653 -0.08348,0.1328703 -0.03339,0.08303 0,0.083058 0,0.08303 0.03339,0.08303 0.08348,0.1328702 0.133576,0.099653 0.08351,0.016595 0.100189,0.016623 0.08348,-0.016623 0.08348,-0.016595 0.133576,-0.099653 0.08348,-0.1328702 0.03341,-0.08303 0,-0.08303 z"
     style="fill:#000000;fill-opacity:1;fill-rule:evenodd;stroke:none" />
  <path
     id="path21"
     d="m 15.512061,9.4333624 0,-0.083058 -0.03341,-0.08303 -0.08348,-0.1328703 -0.133576,-0.099653 -0.08348,-0.016595 -0.08348,-0.016623 -0.100189,0.016623 -0.08351,0.016595 -0.133576,0.099653 -0.08348,0.1328703 -0.03339,0.08303 0,0.083058 0,0.08303 0.03339,0.08303 0.08348,0.1328702 0.133576,0.099653 0.08351,0.016595 0.100189,0.016623 0.08348,-0.016623 0.08348,-0.016595 0.133576,-0.099653 0.08348,-0.1328702 0.03341,-0.08303 0,-0.08303"
     style="fill:none;stroke:#000000;stroke-width:0.25046375px;stroke-linecap:round;stroke-linejoin:round;stroke-miterlimit:4;stroke-dasharray:none;stroke-opacity:1" />
  <path
     id="path23"
     d="m 15.512061,8.1545289 0,-0.08303 -0.03341,-0.083058 -0.08348,-0.132842 -0.133576,-0.099653 -0.08348,-0.033218 -0.08348,0 -0.100189,0 -0.08351,0.033218 -0.133576,0.099653 -0.08348,0.132842 -0.03339,0.083058 0,0.08303 0,0.08303 0.03339,0.083058 0.08348,0.1328702 0.133576,0.099624 0.08351,0.016623 0.100189,0.016595 0.08348,-0.016595 0.08348,-0.016623 0.133576,-0.099624 0.08348,-0.1328702 0.03341,-0.083058 0,-0.08303 z"
     style="fill:#000000;fill-opacity:1;fill-rule:evenodd;stroke:none" />
  <path
     id="path25"
     d="m 15.512061,8.1545289 0,-0.08303 -0.03341,-0.083058 -0.08348,-0.132842 -0.133576,-0.099653 -0.08348,-0.033218 -0.08348,0 -0.100189,0 -0.08351,0.033218 -0.133576,0.099653 -0.08348,0.132842 -0.03339,0.083058 0,0.08303 0,0.08303 0.03339,0.083058 0.08348,0.1328702 0.133576,0.099624 0.08351,0.016623 0.100189,0.016595 0.08348,-0.016595 0.08348,-0.016623 0.133576,-0.099624 0.08348,-0.1328702 0.03341,-0.083058 0,-0.08303"
     style="fill:none;stroke:#000000;stroke-width:0.25046375px;stroke-linecap:round;stroke-linejoin:round;stroke-miterlimit:4;stroke-dasharray:none;stroke-opacity:1" />
  <path
     id="path27"
     d="m 6.7625234,8.7191991 0.5677183,-0.5646702 1.1521157,-4.002532 0.5677183,4.434332 0.4341424,-0.4318 1.8701459,-0.2823351 1.152115,-3.7201969 0.851578,4.5672022 0.434142,-0.4318"
     style="fill:none;stroke:#00ff00;stroke-width:0.41743955px;stroke-linecap:round;stroke-linejoin:round;stroke-miterlimit:4;stroke-dasharray:none;stroke-opacity:1" />
</svg>
