<?xml version="1.0" encoding="UTF-8" standalone="no"?>
<svg
   xmlns:dc="http://purl.org/dc/elements/1.1/"
   xmlns:cc="http://creativecommons.org/ns#"
   xmlns:rdf="http://www.w3.org/1999/02/22-rdf-syntax-ns#"
   xmlns:svg="http://www.w3.org/2000/svg"
   xmlns="http://www.w3.org/2000/svg"
   viewBox="0 0 21.723684 13.702632"
   id="svg2"
   height="13.702632mm"
   width="21.723684mm"
   version="1.0">
  <metadata
     id="metadata31">
    <rdf:RDF>
      <cc:Work
         rdf:about="">
        <dc:format>image/svg+xml</dc:format>
        <dc:type
           rdf:resource="http://purl.org/dc/dcmitype/StillImage" />
        <dc:title></dc:title>
      </cc:Work>
    </rdf:RDF>
  </metadata>
  <defs
     id="defs4">
    <pattern
       y="0"
       x="0"
       height="6"
       width="6"
       patternUnits="userSpaceOnUse"
       id="WMFhbasepattern" />
  </defs>
  <path
     id="path7"
     d="m 0.43413603,0.43180847 0,12.65528753 20.68830597,0 0,-12.65528753 -20.68830597,0 z"
     style="fill:#ccffcc;fill-opacity:1;fill-rule:evenodd;stroke:none" />
  <path
     id="path9"
     d="m 0.43413603,13.087096 20.68830597,0 0,-12.65528753 -20.68830597,0 0,12.65528753 z"
     style="fill:none;stroke:#000000;stroke-width:0.08348791px;stroke-linecap:round;stroke-linejoin:round;stroke-miterlimit:4;stroke-dasharray:none;stroke-opacity:1" />
  <path
     id="path11"
     d="m 2.0371046,6.759448 3.9740304,0"
     style="fill:none;stroke:#000000;stroke-width:0.25046375px;stroke-linecap:round;stroke-linejoin:round;stroke-miterlimit:4;stroke-dasharray:none;stroke-opacity:1" />
  <path
     id="path13"
     d="m 5.1428501,6.759448 0.016708,0.1827107 0.050094,0.1494649 0.083481,0.1494648 0.1001889,0.1328703 0.1335758,0.099653 0.1502833,0.08303 0.1502834,0.049841 0.1836702,0.016595 0.1669627,-0.016595 0.1669909,-0.049841 0.1502833,-0.08303 0.1168682,-0.099653 0.1001889,-0.1328703 0.083481,-0.1494648 0.050095,-0.1494649 0.016707,-0.1827107 0,0 L 6.8460048,6.5933884 6.7959103,6.4273007 6.712429,6.2944304 6.6122401,6.1615602 6.4953719,6.0619358 6.3450886,5.9788778 6.1780977,5.9290656 6.011135,5.9124427 5.8274648,5.9290656 5.6771814,5.9788778 5.5268981,6.0619358 5.3933223,6.1615602 5.2931334,6.2944304 5.2096521,6.4273007 5.1595577,6.5933884 5.1428501,6.759448 Z"
     style="fill:#000000;fill-opacity:1;fill-rule:evenodd;stroke:none" />
  <path
     id="path15"
     d="m 15.545448,2.8067536 3.974028,0"
     style="fill:none;stroke:#000000;stroke-width:0.25046375px;stroke-linecap:round;stroke-linejoin:round;stroke-miterlimit:4;stroke-dasharray:none;stroke-opacity:1" />
  <path
     id="path17"
     d="m 16.413733,2.8067536 -0.01671,-0.1660793 -0.05009,-0.1660821 -0.08348,-0.1328618 -0.100189,-0.1328646 -0.133576,-0.09965 -0.150283,-0.083038 -0.150283,-0.049824 -0.183671,-0.016609 -0.166962,0.016609 -0.166991,0.049824 -0.133576,0.083038 -0.133576,0.09965 -0.100189,0.1328646 -0.08348,0.1328618 -0.05009,0.1660821 -0.01671,0.1660793 0,0 0.01671,0.1826853 0.05009,0.1494649 0.08348,0.1494931 0.100189,0.132842 0.133576,0.099653 0.133576,0.083058 0.166991,0.049812 0.166962,0.016595 0.183671,-0.016595 0.150283,-0.049812 0.150283,-0.083058 0.133576,-0.099653 0.100189,-0.132842 0.08348,-0.1494931 0.05009,-0.1494649 0.01671,-0.1826853 z"
     style="fill:#000000;fill-opacity:1;fill-rule:evenodd;stroke:none" />
  <path
     id="path19"
     d="m 15.545448,6.759448 3.974028,0"
     style="fill:none;stroke:#000000;stroke-width:0.25046375px;stroke-linecap:round;stroke-linejoin:round;stroke-miterlimit:4;stroke-dasharray:none;stroke-opacity:1" />
  <path
     id="path21"
     d="m 16.413733,6.759448 -0.01671,-0.1660596 -0.05009,-0.1660877 -0.08348,-0.1328703 -0.100189,-0.1328702 -0.133576,-0.099624 -0.150283,-0.083058 -0.150283,-0.049812 -0.183671,-0.016623 -0.166962,0.016623 -0.166991,0.049812 -0.133576,0.083058 -0.133576,0.099624 -0.100189,0.1328702 -0.08348,0.1328703 -0.05009,0.1660877 -0.01671,0.1660596 0,0 0.01671,0.1827107 0.05009,0.1494649 0.08348,0.1494648 0.100189,0.1328703 0.133576,0.099653 0.133576,0.08303 0.166991,0.049841 0.166962,0.016595 0.183671,-0.016595 0.150283,-0.049841 0.150283,-0.08303 0.133576,-0.099653 0.100189,-0.1328703 0.08348,-0.1494648 0.05009,-0.1494649 0.01671,-0.1827107 z"
     style="fill:#000000;fill-opacity:1;fill-rule:evenodd;stroke:none" />
  <path
     id="path23"
     d="m 15.545448,10.728762 3.974028,0"
     style="fill:none;stroke:#000000;stroke-width:0.25046375px;stroke-linecap:round;stroke-linejoin:round;stroke-miterlimit:4;stroke-dasharray:none;stroke-opacity:1" />
  <path
     id="path25"
     d="m 16.413733,10.728762 -0.01671,-0.182682 -0.05009,-0.149465 -0.08348,-0.149465 -0.100189,-0.13287 -0.133576,-0.09965 -0.150283,-0.083029 -0.150283,-0.049841 -0.183671,-0.016595 -0.166962,0.016595 -0.166991,0.049841 -0.133576,0.083029 -0.133576,0.09965 -0.100189,0.13287 -0.08348,0.149465 -0.05009,0.149465 -0.01671,0.182682 0,0 0.01671,0.166088 0.05009,0.166088 0.08348,0.13287 0.100189,0.132842 0.133576,0.09965 0.133576,0.08306 0.166991,0.04981 0.166962,0.0166 0.183671,-0.0166 0.150283,-0.04981 0.150283,-0.08306 0.133576,-0.09965 0.100189,-0.132842 0.08348,-0.13287 0.05009,-0.166088 0.01671,-0.166088 z"
     style="fill:#000000;fill-opacity:1;fill-rule:evenodd;stroke:none" />
  <path
     id="path27"
     d="M 6.011135,6.759448 15.545448,2.8067536"
     style="fill:none;stroke:#000000;stroke-width:0.25046375px;stroke-linecap:round;stroke-linejoin:round;stroke-miterlimit:4;stroke-dasharray:none;stroke-opacity:1" />
</svg>
