<?xml version="1.0" encoding="UTF-8" standalone="no"?>
<svg
   xmlns:dc="http://purl.org/dc/elements/1.1/"
   xmlns:cc="http://creativecommons.org/ns#"
   xmlns:rdf="http://www.w3.org/1999/02/22-rdf-syntax-ns#"
   xmlns:svg="http://www.w3.org/2000/svg"
   xmlns="http://www.w3.org/2000/svg"
   viewBox="0 0 21.723684 13.702632"
   id="svg2"
   height="13.702632mm"
   width="21.723684mm"
   version="1.0">
  <metadata
     id="metadata51">
    <rdf:RDF>
      <cc:Work
         rdf:about="">
        <dc:format>image/svg+xml</dc:format>
        <dc:type
           rdf:resource="http://purl.org/dc/dcmitype/StillImage" />
        <dc:title></dc:title>
      </cc:Work>
    </rdf:RDF>
  </metadata>
  <defs
     id="defs4">
    <pattern
       y="0"
       x="0"
       height="6"
       width="6"
       patternUnits="userSpaceOnUse"
       id="WMFhbasepattern" />
  </defs>
  <path
     id="path7"
     d="m 0.43413603,0.43180847 0,12.65528753 20.68830597,0 0,-12.65528753 -20.68830597,0 z"
     style="fill:#ccffcc;fill-opacity:1;fill-rule:evenodd;stroke:none" />
  <path
     id="path9"
     d="m 0.43413603,13.087096 20.68830597,0 0,-12.65528753 -20.68830597,0 0,12.65528753 z"
     style="fill:none;stroke:#000000;stroke-width:0.08348791px;stroke-linecap:round;stroke-linejoin:round;stroke-miterlimit:4;stroke-dasharray:none;stroke-opacity:1" />
  <path
     id="path11"
     d="m 3.3228272,3.3049916 0,6.5269533 3.2894129,0"
     style="fill:none;stroke:#ff0000;stroke-width:0.25046375px;stroke-linecap:round;stroke-linejoin:round;stroke-miterlimit:4;stroke-dasharray:none;stroke-opacity:1" />
  <path
     id="path13"
     d="m 4.6085188,7.8555991 0,3.9526919 3.9907351,0 0,-3.9526919 -3.9907351,0 z"
     style="fill:#ffffff;fill-opacity:1;fill-rule:evenodd;stroke:none" />
  <path
     id="path15"
     d="m 4.6085188,11.808291 3.9907351,0 0,-3.9526919 -3.9907351,0 0,3.9526919 z"
     style="fill:none;stroke:#000000;stroke-width:0.25046375px;stroke-linecap:round;stroke-linejoin:round;stroke-miterlimit:4;stroke-dasharray:none;stroke-opacity:1" />
  <path
     id="path17"
     d="M 1.2356217,3.3049916 1.252318,3.0890916 1.2857134,2.8897862 1.335805,2.6904978 1.4025957,2.491201 1.4860827,2.3085129 1.5862687,2.1424336 1.8534316,1.8434897 2.153987,1.5777605 l 0.1669767,-0.099647 0.1836731,-0.083041 0.2003721,-0.066432 0.2003834,-0.049824 0.2003496,-0.033215 0.2170853,-0.016609 0.2170571,0.016609 0.2003778,0.033215 0.2003778,0.049824 0.2003495,0.066432 0.1836703,0.083041 0.1669909,0.099647 0.3005666,0.2657292 0.2671516,0.2989439 0.1001889,0.1660793 0.083481,0.1826881 0.066802,0.1992968 0.066774,0.1992884 0.016708,0.1993054 0.016708,0.2159 0,0 -0.016708,0.2159 L 5.3766148,3.7201969 5.309841,3.9195022 5.243039,4.1187793 5.1595577,4.3014618 5.0593688,4.4675496 4.7922172,4.7665076 4.4916506,5.0322198 4.3246597,5.1318724 4.1409894,5.2149022 3.9406399,5.2813373 3.7402621,5.3477724 3.5398843,5.3643953 3.3228272,5.38099 3.1057419,5.3643953 2.9053923,5.3477724 2.7050089,5.2813373 2.5046368,5.2149022 2.3209637,5.1318724 2.153987,5.0322198 1.8534316,4.7665076 1.5862687,4.4675496 1.4860827,4.3014618 1.4025957,4.1187793 1.335805,3.9195022 1.2857134,3.7201969 1.252318,3.5208916 l -0.016696,-0.2159 z"
     style="fill:#d8d8d8;fill-opacity:1;fill-rule:evenodd;stroke:none" />
  <path
     id="path19"
     d="M 1.2356217,3.3049916 1.252318,3.0890916 1.2857134,2.8897862 1.335805,2.6904978 1.4025957,2.491201 1.4860827,2.3085129 1.5862687,2.1424336 1.8534316,1.8434897 2.153987,1.5777605 l 0.1669767,-0.099647 0.1836731,-0.083041 0.2003721,-0.066432 0.2003834,-0.049824 0.2003496,-0.033215 0.2170853,-0.016609 0.2170571,0.016609 0.2003778,0.033215 0.2003778,0.049824 0.2003495,0.066432 0.1836703,0.083041 0.1669909,0.099647 0.3005666,0.2657292 0.2671516,0.2989439 0.1001889,0.1660793 0.083481,0.1826881 0.066802,0.1992968 0.066774,0.1992884 0.016708,0.1993054 0.016708,0.2159 0,0 -0.016708,0.2159 L 5.3766148,3.7201969 5.309841,3.9195022 5.243039,4.1187793 5.1595577,4.3014618 5.0593688,4.4675496 4.7922172,4.7665076 4.4916506,5.0322198 4.3246597,5.1318724 4.1409894,5.2149022 3.9406399,5.2813373 3.7402621,5.3477724 3.5398843,5.3643953 3.3228272,5.38099 3.1057419,5.3643953 2.9053923,5.3477724 2.7050089,5.2813373 2.5046368,5.2149022 2.3209637,5.1318724 2.153987,5.0322198 1.8534316,4.7665076 1.5862687,4.4675496 1.4860827,4.3014618 1.4025957,4.1187793 1.335805,3.9195022 1.2857134,3.7201969 1.252318,3.5208916 1.235622,3.3049916"
     style="fill:none;stroke:#000000;stroke-width:0.25046375px;stroke-linecap:round;stroke-linejoin:round;stroke-miterlimit:4;stroke-dasharray:none;stroke-opacity:1" />
  <path
     id="path21"
     d="m 15.061211,3.3049916 0,6.5269533 3.272734,0"
     style="fill:none;stroke:#ff0000;stroke-width:0.25046375px;stroke-linecap:round;stroke-linejoin:round;stroke-miterlimit:4;stroke-dasharray:none;stroke-opacity:1" />
  <path
     id="path23"
     d="m 16.346931,7.8555991 0,3.9526919 3.974028,0 0,-3.9526919 -3.974028,0 z"
     style="fill:#ffffff;fill-opacity:1;fill-rule:evenodd;stroke:none" />
  <path
     id="path25"
     d="m 16.346931,11.808291 3.974028,0 0,-3.9526919 -3.974028,0 0,3.9526919 z"
     style="fill:none;stroke:#000000;stroke-width:0.25046375px;stroke-linecap:round;stroke-linejoin:round;stroke-miterlimit:4;stroke-dasharray:none;stroke-opacity:1" />
  <path
     id="path27"
     d="m 12.974009,3.3049916 0,-0.2159 0.03341,-0.1993054 0.05009,-0.1992884 0.06677,-0.1992968 0.100189,-0.1826881 0.100189,-0.1660793 0.250472,-0.2989439 0.317246,-0.2657292 0.166963,-0.099647 0.183698,-0.083041 0.18367,-0.066432 0.20035,-0.049824 0.217085,-0.033215 0.217057,-0.016609 0.200378,0.016609 0.217057,0.033215 0.200378,0.049824 0.18367,0.066432 0.183671,0.083041 0.16699,0.099647 0.317246,0.2657292 0.250473,0.2989439 0.100189,0.1660793 0.100188,0.1826881 0.06677,0.1992968 0.0501,0.1992884 0.03339,0.1993054 0.01671,0.2159 0,0 -0.01671,0.2159 -0.03339,0.1993053 -0.0501,0.1993053 -0.06677,0.1992771 -0.100188,0.1826825 -0.100189,0.1660878 -0.250473,0.298958 -0.317246,0.2657122 -0.16699,0.099653 -0.183671,0.08303 -0.18367,0.066435 -0.200378,0.066435 -0.217057,0.016623 -0.200378,0.016595 -0.217057,-0.016595 -0.217085,-0.016623 -0.20035,-0.066435 -0.18367,-0.066435 -0.183698,-0.08303 -0.166963,-0.099653 -0.317246,-0.2657122 -0.250472,-0.298958 -0.100189,-0.1660878 -0.100189,-0.1826825 -0.06677,-0.1992771 -0.05009,-0.1993053 -0.03341,-0.1993053 0,-0.2159 z"
     style="fill:#d8d8d8;fill-opacity:1;fill-rule:evenodd;stroke:none" />
  <path
     id="path29"
     d="m 12.974009,3.3049916 0,-0.2159 0.03341,-0.1993054 0.05009,-0.1992884 0.06677,-0.1992968 0.100189,-0.1826881 0.100189,-0.1660793 0.250472,-0.2989439 0.317246,-0.2657292 0.166963,-0.099647 0.183698,-0.083041 0.18367,-0.066432 0.20035,-0.049824 0.217085,-0.033215 0.217057,-0.016609 0.200378,0.016609 0.217057,0.033215 0.200378,0.049824 0.18367,0.066432 0.183671,0.083041 0.16699,0.099647 0.317246,0.2657292 0.250473,0.2989439 0.100189,0.1660793 0.100188,0.1826881 0.06677,0.1992968 0.0501,0.1992884 0.03339,0.1993054 0.01671,0.2159 0,0 -0.01671,0.2159 -0.03339,0.1993053 -0.0501,0.1993053 -0.06677,0.1992771 -0.100188,0.1826825 -0.100189,0.1660878 -0.250473,0.298958 -0.317246,0.2657122 -0.16699,0.099653 -0.183671,0.08303 -0.18367,0.066435 -0.200378,0.066435 -0.217057,0.016623 -0.200378,0.016595 -0.217057,-0.016595 -0.217085,-0.016623 -0.20035,-0.066435 -0.18367,-0.066435 -0.183698,-0.08303 -0.166963,-0.099653 -0.317246,-0.2657122 -0.250472,-0.298958 -0.100189,-0.1660878 -0.100189,-0.1826825 -0.06677,-0.1992771 -0.05009,-0.1993053 -0.03341,-0.1993053 0,-0.2159"
     style="fill:none;stroke:#000000;stroke-width:0.25046375px;stroke-linecap:round;stroke-linejoin:round;stroke-miterlimit:4;stroke-dasharray:none;stroke-opacity:1" />
  <path
     id="path31"
     d="m 12.974009,3.3049916 -7.5639791,0"
     style="fill:none;stroke:#000000;stroke-width:0.25046375px;stroke-linecap:round;stroke-linejoin:round;stroke-miterlimit:4;stroke-dasharray:none;stroke-opacity:1" />
  <path
     id="path33"
     d="m 5.6103794,3.3049916 1.1855309,0.5978877 0,-1.1957727 -1.1855309,0.597885 z"
     style="fill:#000000;fill-opacity:1;fill-rule:evenodd;stroke:none" />
  <path
     id="path35"
     d="m 5.6103794,3.3049916 1.1855309,0.5978877 0,-1.1957727 -1.1855309,0.597885 z"
     style="fill:none;stroke:#000000;stroke-width:0.25046375px;stroke-linecap:round;stroke-linejoin:round;stroke-miterlimit:4;stroke-dasharray:none;stroke-opacity:1" />
  <text
     id="text37"
     y="10.985977 10.985977"
     x="5.3998871 5.3998871"
     style="font-style:normal;font-variant:normal;font-weight:400;font-size:3.38666677px;font-family:Arial;text-align:start;letter-spacing:0px;word-spacing:0px;text-anchor:start;fill:#000000;fill-opacity:1;stroke:none"
     xml:space="preserve"><tspan
       id="tspan39"
       y="10.985977 10.985977"
       x="5.3998871 5.3998871"><tspan
         id="tspan41"
         style="font-style:normal;font-variant:normal;font-weight:400;font-family:Arial;fill:#000000"
         dy="0 0"
         dx="0 0">A</tspan></tspan></text>
  <text
     id="text43"
     y="10.985977 10.985977"
     x="17.185316 249146.59"
     style="font-style:normal;font-variant:normal;font-weight:400;font-size:3.38666677px;font-family:Arial;text-align:start;letter-spacing:0px;word-spacing:0px;text-anchor:start;fill:#000000;fill-opacity:1;stroke:none"
     xml:space="preserve"><tspan
       id="tspan45"
       y="10.985977 10.985977"
       x="17.185316 249146.59"><tspan
         id="tspan47"
         style="font-style:normal;font-variant:normal;font-weight:400;font-family:Arial;fill:#000000"
         dy="0 0"
         dx="0 0">B</tspan></tspan></text>
</svg>
