<?xml version="1.0" encoding="UTF-8" standalone="no"?>
<svg
   xmlns:dc="http://purl.org/dc/elements/1.1/"
   xmlns:cc="http://creativecommons.org/ns#"
   xmlns:rdf="http://www.w3.org/1999/02/22-rdf-syntax-ns#"
   xmlns:svg="http://www.w3.org/2000/svg"
   xmlns="http://www.w3.org/2000/svg"
   viewBox="0 0 21.723684 13.702632"
   id="svg2"
   height="13.702632mm"
   width="21.723684mm"
   version="1.0">
  <metadata
     id="metadata23">
    <rdf:RDF>
      <cc:Work
         rdf:about="">
        <dc:format>image/svg+xml</dc:format>
        <dc:type
           rdf:resource="http://purl.org/dc/dcmitype/StillImage" />
        <dc:title></dc:title>
      </cc:Work>
    </rdf:RDF>
  </metadata>
  <defs
     id="defs4">
    <pattern
       y="0"
       x="0"
       height="6"
       width="6"
       patternUnits="userSpaceOnUse"
       id="WMFhbasepattern" />
  </defs>
  <path
     id="path7"
     d="m 0.43413603,0.43180847 0,12.65528753 20.68830597,0 0,-12.65528753 -20.68830597,0 z"
     style="fill:#ccffcc;fill-opacity:1;fill-rule:evenodd;stroke:none" />
  <path
     id="path9"
     d="m 0.43413603,13.087096 20.68830597,0 0,-12.65528753 -20.68830597,0 0,12.65528753 z"
     style="fill:none;stroke:#000000;stroke-width:0.08348791px;stroke-linecap:round;stroke-linejoin:round;stroke-miterlimit:4;stroke-dasharray:none;stroke-opacity:1" />
  <path
     id="path11"
     d="m 3.6233657,4.4011144 14.3098233,0"
     style="fill:none;stroke:#808080;stroke-width:0.25046375px;stroke-linecap:round;stroke-linejoin:round;stroke-miterlimit:4;stroke-dasharray:none;stroke-opacity:1" />
  <path
     id="path13"
     d="m 17.933189,4.4011144 -1.185502,0.5812932 0,-1.1791809 1.185502,0.5978877 z"
     style="fill:#808080;fill-opacity:1;fill-rule:evenodd;stroke:none" />
  <path
     id="path15"
     d="m 17.933189,4.4011144 -1.185502,0.5812932 0,-1.1791809 1.185502,0.5978877 z"
     style="fill:none;stroke:#808080;stroke-width:0.25046375px;stroke-linecap:round;stroke-linejoin:round;stroke-miterlimit:4;stroke-dasharray:none;stroke-opacity:1" />
  <path
     id="path17"
     d="m 7.5973932,7.1580587 1.5862865,-1.5777634 3.1892243,0 1.586286,1.5777634 0,3.1721213 -1.586286,1.577763 -3.1892243,0 -1.5862865,-1.577763 0,-3.1721213 z"
     style="fill:#ff0000;fill-opacity:1;fill-rule:evenodd;stroke:none" />
  <path
     id="path19"
     d="m 7.5973932,7.1580587 1.5862865,-1.5777634 3.1892243,0 1.586286,1.5777634 0,3.1721213 -1.586286,1.577763 -3.1892243,0 -1.5862865,-1.577763 0,-3.1721213 z"
     style="fill:none;stroke:#000000;stroke-width:0.25046375px;stroke-linecap:round;stroke-linejoin:round;stroke-miterlimit:4;stroke-dasharray:none;stroke-opacity:1" />
</svg>
