<?xml version="1.0" encoding="UTF-8" standalone="no"?>
<svg
   xmlns:dc="http://purl.org/dc/elements/1.1/"
   xmlns:cc="http://creativecommons.org/ns#"
   xmlns:rdf="http://www.w3.org/1999/02/22-rdf-syntax-ns#"
   xmlns:svg="http://www.w3.org/2000/svg"
   xmlns="http://www.w3.org/2000/svg"
   viewBox="0 0 21.723684 13.702632"
   id="svg2"
   height="13.702632mm"
   width="21.723684mm"
   version="1.0">
  <metadata
     id="metadata29">
    <rdf:RDF>
      <cc:Work
         rdf:about="">
        <dc:format>image/svg+xml</dc:format>
        <dc:type
           rdf:resource="http://purl.org/dc/dcmitype/StillImage" />
        <dc:title></dc:title>
      </cc:Work>
    </rdf:RDF>
  </metadata>
  <defs
     id="defs4">
    <pattern
       y="0"
       x="0"
       height="6"
       width="6"
       patternUnits="userSpaceOnUse"
       id="WMFhbasepattern" />
  </defs>
  <path
     id="path7"
     d="m 0.43413603,0.43180847 0,12.65528753 20.68830597,0 0,-12.65528753 -20.68830597,0 z"
     style="fill:#ccffcc;fill-opacity:1;fill-rule:evenodd;stroke:none" />
  <path
     id="path9"
     d="m 0.43413603,13.087096 20.68830597,0 0,-12.65528753 -20.68830597,0 0,12.65528753 z"
     style="fill:none;stroke:#000000;stroke-width:0.08348791px;stroke-linecap:round;stroke-linejoin:round;stroke-miterlimit:4;stroke-dasharray:none;stroke-opacity:1" />
  <path
     id="path11"
     d="m 2.0371046,10.728762 3.9740304,0"
     style="fill:none;stroke:#000000;stroke-width:0.25046375px;stroke-linecap:round;stroke-linejoin:round;stroke-miterlimit:4;stroke-dasharray:none;stroke-opacity:1" />
  <path
     id="path13"
     d="m 5.1428501,10.728762 0.016708,0.166088 0.050094,0.166088 0.083481,0.13287 0.1001889,0.132842 0.1335758,0.09965 0.1502833,0.08306 0.1502834,0.04981 0.1836702,0.0166 0.1669627,-0.0166 0.1669909,-0.04981 0.1502833,-0.08306 0.1168682,-0.09965 0.1001889,-0.132842 0.083481,-0.13287 0.050095,-0.166088 0.016707,-0.166088 0,0 L 6.8460048,10.54608 6.7959103,10.396615 6.712429,10.24715 6.6122401,10.11428 6.4953719,10.014627 6.3450886,9.9315976 6.1780977,9.8817571 6.011135,9.8651624 l -0.1836702,0.016595 -0.1502834,0.049841 -0.1502833,0.083029 -0.1335758,0.09965 -0.1001889,0.13287 -0.083481,0.149465 -0.050094,0.149465 -0.016708,0.182682 z"
     style="fill:#000000;fill-opacity:1;fill-rule:evenodd;stroke:none" />
  <path
     id="path15"
     d="m 15.545448,2.8067536 3.974028,0"
     style="fill:none;stroke:#000000;stroke-width:0.25046375px;stroke-linecap:round;stroke-linejoin:round;stroke-miterlimit:4;stroke-dasharray:none;stroke-opacity:1" />
  <path
     id="path17"
     d="m 16.413733,2.8067536 -0.01671,-0.1660793 -0.05009,-0.1660821 -0.08348,-0.1328618 -0.100189,-0.1328646 -0.133576,-0.09965 -0.150283,-0.083038 -0.150283,-0.049824 -0.183671,-0.016609 -0.166962,0.016609 -0.166991,0.049824 -0.133576,0.083038 -0.133576,0.09965 -0.100189,0.1328646 -0.08348,0.1328618 -0.05009,0.1660821 -0.01671,0.1660793 0,0 0.01671,0.1826853 0.05009,0.1494649 0.08348,0.1494931 0.100189,0.132842 0.133576,0.099653 0.133576,0.083058 0.166991,0.049812 0.166962,0.016595 0.183671,-0.016595 0.150283,-0.049812 0.150283,-0.083058 0.133576,-0.099653 0.100189,-0.132842 0.08348,-0.1494931 0.05009,-0.1494649 0.01671,-0.1826853 z"
     style="fill:#000000;fill-opacity:1;fill-rule:evenodd;stroke:none" />
  <path
     id="path19"
     d="m 15.545448,10.728762 3.974028,0"
     style="fill:none;stroke:#000000;stroke-width:0.25046375px;stroke-linecap:round;stroke-linejoin:round;stroke-miterlimit:4;stroke-dasharray:none;stroke-opacity:1" />
  <path
     id="path21"
     d="m 16.413733,10.728762 -0.01671,-0.182682 -0.05009,-0.149465 -0.08348,-0.149465 -0.100189,-0.13287 -0.133576,-0.09965 -0.150283,-0.083029 -0.150283,-0.049841 -0.183671,-0.016595 -0.166962,0.016595 -0.166991,0.049841 -0.133576,0.083029 -0.133576,0.09965 -0.100189,0.13287 -0.08348,0.149465 -0.05009,0.149465 -0.01671,0.182682 0,0 0.01671,0.166088 0.05009,0.166088 0.08348,0.13287 0.100189,0.132842 0.133576,0.09965 0.133576,0.08306 0.166991,0.04981 0.166962,0.0166 0.183671,-0.0166 0.150283,-0.04981 0.150283,-0.08306 0.133576,-0.09965 0.100189,-0.132842 0.08348,-0.13287 0.05009,-0.166088 0.01671,-0.166088 z"
     style="fill:#000000;fill-opacity:1;fill-rule:evenodd;stroke:none" />
  <path
     id="path23"
     d="m 5.9276537,10.629138 0.2003495,-0.166088 0.033415,-0.03322 0.050095,0 0.050066,0.01659 0.033415,0.03322 0.033387,0.04984 0,0.03322 -0.016708,0.04981 -0.033387,0.04981 -0.1836703,0.149493 -0.050094,0.03322 -0.050095,0 -0.050094,-0.01662 -0.033387,-0.03322 -0.033387,-0.03322 0,-0.04981 0.016679,-0.04984 0.033415,-0.03319 0,0 z m 0.5843975,-0.498263 0.2003778,-0.1494652 0.033387,-0.033218 0.050094,0 0.050095,0.016623 0.033387,0.033218 0.033415,0.033217 0,0.04981 -0.016708,0.04981 -0.033387,0.03322 -0.1836702,0.166088 -0.050094,0.03322 -0.050095,0 -0.050094,-0.0166 -0.033387,-0.03322 -0.016708,-0.04984 -0.016707,-0.03322 0.016707,-0.04981 0.033387,-0.04984 0,0 z M 7.096477,9.6492624 7.2968548,9.4831747 l 0.050094,-0.016623 0.033387,0 0.050095,0 0.050094,0.033218 0.016679,0.049841 0,0.049812 -0.016679,0.04984 -0.016708,0.033218 -0.2003777,0.1660596 -0.050095,0.016623 -0.050094,0.016595 -0.033387,-0.016595 -0.050095,-0.033218 -0.016679,-0.049841 -0.016707,-0.049812 0.016707,-0.033217 0.033387,-0.049812 0,0 z M 7.6808746,9.167622 7.8812523,9.0015342 l 0.050095,-0.016595 0.050094,-0.016623 0.033387,0.016623 0.050094,0.033217 0.016708,0.049812 0,0.049841 0,0.033189 -0.033387,0.049841 -0.2003778,0.1660877 -0.050094,0.016595 -0.050094,0 -0.033387,-0.016595 -0.050095,-0.016623 -0.016707,-0.049812 0,-0.04984 0,-0.049812 0.033387,-0.033218 0,0 z M 8.2653003,8.6859816 8.4656781,8.519922 l 0.050095,-0.033218 0.050094,0 0.033387,0.016595 0.050094,0.033218 0.016708,0.033217 0.016679,0.049812 -0.016679,0.04984 -0.033415,0.049812 -0.2003496,0.1494649 -0.050094,0.033218 -0.033415,0 -0.050095,-0.016595 -0.050094,-0.033218 -0.016679,-0.033218 0,-0.049812 0.016679,-0.04984 0.016707,-0.033218 0,0 z m 0.6011051,-0.4982352 0.1836703,-0.1494648 0.050094,-0.033218 0.050095,0 0.050094,0.016595 0.033415,0.033218 0.016679,0.033218 0.016708,0.04984 -0.016708,0.049812 -0.033387,0.033218 -0.2003778,0.1660878 -0.033387,0.016595 -0.050095,0.016623 -0.050094,-0.016623 -0.033387,-0.033217 -0.033415,-0.049812 0,-0.033218 0.016708,-0.04984 0.033387,-0.049812 0,0 z M 9.4508312,7.706106 9.6345014,7.5400464 l 0.050095,-0.016623 0.050094,0 0.050095,0 0.033387,0.033218 0.033415,0.049841 0,0.049812 -0.016708,0.049812 -0.033387,0.033218 -0.2003777,0.1660877 -0.033387,0.016595 -0.050095,0.016623 -0.050094,-0.016623 -0.033415,-0.033189 -0.033387,-0.04984 0,-0.049812 0.016707,-0.04984 0.033387,-0.033218 0,0 z m 0.5844258,-0.4816122 0.18367,-0.1660878 0.05009,-0.016623 0.05009,-0.016595 0.0501,0.016595 0.03339,0.033218 0.03339,0.04984 0,0.049812 -0.01671,0.033218 -0.03339,0.04984 -0.18367,0.1660596 -0.0501,0.016623 -0.05009,0 -0.0501,-0.016623 -0.03339,-0.016595 -0.033386,-0.04984 0,-0.049812 0.016679,-0.049812 0.03341,-0.033218 0,0 z m 0.584398,-0.4816405 0.200377,-0.1660877 0.03339,-0.033218 0.05009,0 0.05009,0.016623 0.03339,0.033218 0.03341,0.033218 0,0.049812 -0.01671,0.049812 -0.03339,0.033218 -0.183671,0.1660878 -0.05009,0.033218 -0.05009,0 -0.0501,-0.016595 -0.03339,-0.033218 -0.03342,-0.033218 0,-0.04984 0.01671,-0.049812 0.03339,-0.033218 0,0 z m 0.584425,-0.4982351 0.200378,-0.1494931 0.03339,-0.033189 0.05009,0 0.05009,0.016595 0.03339,0.016595 0.03339,0.049841 0,0.049812 -0.01668,0.04984 -0.03341,0.033218 -0.18367,0.1660595 -0.05009,0.016623 -0.0501,0.016595 -0.05007,-0.016595 -0.03342,-0.033218 -0.01668,-0.049812 -0.01671,-0.04984 0.01671,-0.033218 0.03339,-0.049812 0,0 z m 0.584426,-0.4816404 0.20035,-0.1660878 0.05009,-0.016595 0.03341,-0.016623 0.05007,0.016623 0.05009,0.033218 0.01671,0.049812 0,0.049841 -0.01671,0.049812 -0.01668,0.033218 -0.200378,0.1660878 -0.0501,0.016595 -0.05009,0 -0.03339,0 -0.05009,-0.033218 -0.01671,-0.049812 -0.01668,-0.04984 0.01668,-0.049812 0.03341,-0.033218 0,0 z m 0.584398,-0.4816405 0.200377,-0.1660595 0.0501,-0.016623 0.05009,-0.016595 0.03339,0.016595 0.0501,0.033218 0.01671,0.049812 0,0.04984 0,0.033218 -0.03341,0.049812 -0.200349,0.1494931 -0.05009,0.033189 -0.05009,0 -0.03341,-0.016595 -0.05007,-0.033218 -0.01671,-0.033218 0,-0.049812 0,-0.04984 0.03339,-0.033218 0,0 z m 0.584425,-0.4982351 0.200378,-0.1494649 0.05007,-0.033218 0.0501,0 0.03341,0.016595 0.05009,0.033218 0.01668,0.033218 0.01671,0.04984 -0.01671,0.049812 -0.03339,0.033218 -0.200378,0.1660878 -0.05009,0.033218 -0.03339,0 -0.05009,-0.016623 -0.05009,-0.033217 -0.01671,-0.033218 0,-0.049812 0.01671,-0.049812 0.01671,-0.049841 0,0 z m 0.601106,-0.4816404 0.18367,-0.1660596 0.05009,-0.016623 0.0501,0 0.05009,0.016623 0.03339,0.016595 0.01671,0.04984 0.01671,0.049812 -0.01671,0.049812 -0.03339,0.033218 -0.200378,0.1660878 -0.03339,0.016623 -0.05009,0.016595 -0.0501,-0.016595 -0.03341,-0.033218 -0.03339,-0.04984 0,-0.049812 0.01671,-0.033218 0.03339,-0.04984 0,0 z m 0.584425,-0.4816122 0.183671,-0.1660878 0.05009,-0.016595 0.05009,-0.016623 0.05009,0.016623 0.03339,0.033189 0.03339,0.04984 0,0.049812 -0.01668,0.033218 -0.03341,0.04984 -0.200349,0.1660596 -0.03341,0.016623 -0.0501,0 -0.05009,0 -0.03339,-0.033218 -0.03339,-0.049812 0,-0.049841 0.01668,-0.049812 0.03342,-0.033218 0,0 z m 0.584398,-0.4816405 0.18367,-0.1660878 0.0501,-0.033218 0.05009,0 0.05009,0.016623 0.03342,0.033218 0.03339,0.049812 0,0.033218 -0.01671,0.04984 -0.03339,0.049812 -0.18367,0.1494649 -0.0501,0.033217 -0.05009,0 -0.0501,-0.016595 -0.03339,-0.033218 -0.03342,-0.033218 0,-0.04984 0.01671,-0.049812 0.03339,-0.033218 0,0 z m 0.584426,-0.4982351 0.150283,-0.1328674 0.05009,-0.016609 0.0501,0 0.05009,0.016609 0.03339,0.016606 0.03339,0.049824 0,0.049815 -0.01668,0.049841 -0.03341,0.033217 -0.150284,0.1328702 -0.05009,0.033189 -0.05007,0 -0.0501,-0.016595 -0.03341,-0.033218 -0.03339,-0.049812 0,-0.033218 0.01671,-0.04984 0.03339,-0.049812 0,0 z"
     style="fill:#000000;fill-opacity:1;fill-rule:nonzero;stroke:#000000;stroke-width:0.01669758px;stroke-linecap:round;stroke-linejoin:round;stroke-miterlimit:4;stroke-dasharray:none;stroke-opacity:1" />
  <path
     id="path25"
     d="m 6.3450886,10.728762 9.5343134,0"
     style="fill:none;stroke:#000000;stroke-width:0.25046375px;stroke-linecap:round;stroke-linejoin:round;stroke-miterlimit:4;stroke-dasharray:none;stroke-opacity:1" />
</svg>
