<?xml version="1.0" encoding="UTF-8" standalone="no"?>
<svg
   xmlns:dc="http://purl.org/dc/elements/1.1/"
   xmlns:cc="http://creativecommons.org/ns#"
   xmlns:rdf="http://www.w3.org/1999/02/22-rdf-syntax-ns#"
   xmlns:svg="http://www.w3.org/2000/svg"
   xmlns="http://www.w3.org/2000/svg"
   viewBox="0 0 21.599998 13.6"
   id="svg2"
   height="13.6mm"
   width="21.599998mm"
   version="1.0">
  <metadata
     id="metadata49">
    <rdf:RDF>
      <cc:Work
         rdf:about="">
        <dc:format>image/svg+xml</dc:format>
        <dc:type
           rdf:resource="http://purl.org/dc/dcmitype/StillImage" />
        <dc:title></dc:title>
      </cc:Work>
    </rdf:RDF>
  </metadata>
  <defs
     id="defs4">
    <pattern
       y="0"
       x="0"
       height="6"
       width="6"
       patternUnits="userSpaceOnUse"
       id="WMFhbasepattern" />
  </defs>
  <path
     id="path7"
     d="m 0.43754527,0.43416784 0,12.53165716 20.52490473,0 0,-12.53165716 -20.52490473,0 z"
     style="fill:#ccffcc;fill-opacity:1;fill-rule:evenodd;stroke:none" />
  <path
     id="path9"
     d="m 0.43754527,12.965825 20.52490473,0 0,-12.53165716 -20.52490473,0 0,12.53165716 z"
     style="fill:none;stroke:#000000;stroke-width:0.0795539px;stroke-linecap:round;stroke-linejoin:round;stroke-miterlimit:4;stroke-dasharray:none;stroke-opacity:1" />
  <path
     id="path11"
     d="M 17.521738,2.8812913 17.481973,2.6247429 17.402414,2.3879246 17.283091,2.1708392 17.14387,1.9932255 16.944988,1.8353447 16.72621,1.7169356 16.487534,1.637998 l -0.258543,-0.019736 -0.258544,0.019736 -0.238676,0.078938 -0.21875,0.1184091 -0.198882,0.1578808 -0.159117,0.1776137 -0.119323,0.2170854 -0.07956,0.2368183 -0.0199,0.2565484 0.0199,0.2565683 0.07956,0.25654 0.119323,0.2170853 0.159117,0.1776307 0.198882,0.1578751 0.21875,0.1183922 0.238676,0.078937 0.258544,0.019756 0.258543,-0.019756 0.238676,-0.078937 0.218778,-0.1183922 0.198882,-0.1578751 0.139221,-0.1776307 0.119323,-0.2170853 0.07956,-0.25654 0.03976,-0.2565683 z"
     style="fill:#c0c0c0;fill-opacity:1;fill-rule:evenodd;stroke:none" />
  <path
     id="path13"
     d="M 17.521738,2.8812913 17.481973,2.6247429 17.402414,2.3879246 17.283091,2.1708392 17.14387,1.9932255 16.944988,1.8353447 16.72621,1.7169356 16.487534,1.637998 16.228991,1.618262 l -0.258544,0.019736 -0.238676,0.078938 -0.21875,0.1184091 -0.198882,0.1578808 -0.159117,0.1776137 -0.119323,0.2170854 -0.07956,0.2368183 -0.0199,0.2565484 0.0199,0.2565683 0.07956,0.25654 0.119323,0.2170853 0.159117,0.1776307 0.198882,0.1578751 0.21875,0.1183922 0.238676,0.078937 0.258544,0.019756 0.258543,-0.019756 L 16.72621,4.0653833 16.944988,3.9469911 17.14387,3.789116 17.283091,3.6114853 17.402414,3.3944 l 0.07956,-0.25654 0.03976,-0.2565683"
     style="fill:none;stroke:#000000;stroke-width:0.0795539px;stroke-linecap:round;stroke-linejoin:round;stroke-miterlimit:4;stroke-dasharray:none;stroke-opacity:1" />
  <path
     id="path15"
     d="m 17.104077,2.9207742 -0.01987,-0.197358 -0.05966,-0.1776137 -0.07956,-0.1776137 -0.09945,-0.138145 -0.13922,-0.1184092 -0.13922,-0.07894 -0.159089,-0.059205 -0.179013,-0.019733 -0.178986,0.019733 -0.159117,0.059205 -0.159117,0.07894 -0.119323,0.1184092 -0.119324,0.138145 -0.07956,0.1776137 -0.03976,0.1776137 -0.0199,0.197358 0.0199,0.1973298 0.03976,0.1776307 0.07956,0.1578751 0.119324,0.1381478 0.119323,0.1183922 0.159117,0.098693 0.159117,0.05921 0.178986,0.019727 0.179013,-0.019727 0.159089,-0.05921 0.13922,-0.098693 0.13922,-0.1183922 0.09945,-0.1381478 0.07956,-0.1578751 0.05966,-0.1776307 0.01987,-0.1973298 z"
     style="fill:#ccffcc;fill-opacity:1;fill-rule:evenodd;stroke:none" />
  <path
     id="path17"
     d="m 17.104077,2.9207742 -0.01987,-0.197358 -0.05966,-0.1776137 -0.07956,-0.1776137 -0.09945,-0.138145 -0.13922,-0.1184092 -0.13922,-0.07894 -0.159089,-0.059205 -0.179013,-0.019733 -0.178986,0.019733 -0.159117,0.059205 -0.159117,0.07894 -0.119323,0.1184092 -0.119324,0.138145 -0.07956,0.1776137 -0.03976,0.1776137 -0.0199,0.197358 0.0199,0.1973298 0.03976,0.1776307 0.07956,0.1578751 0.119324,0.1381478 0.119323,0.1183922 0.159117,0.098693 0.159117,0.05921 0.178986,0.019727 0.179013,-0.019727 0.159089,-0.05921 0.13922,-0.098693 0.13922,-0.1183922 0.09945,-0.1381478 0.07956,-0.1578751 0.05966,-0.1776307 0.01987,-0.1973298"
     style="fill:none;stroke:#000000;stroke-width:0.0795539px;stroke-linecap:round;stroke-linejoin:round;stroke-miterlimit:4;stroke-dasharray:none;stroke-opacity:1" />
  <path
     id="path19"
     d="m 17.521738,4.6574287 0.0199,0 0,-1.7366545 -2.625287,0 0,1.7366545 0,0 0,0.1578751 0.03979,0.1381478 0.07956,0.1381477 0.13922,0.1381478 0.159088,0.098665 0.218779,0.078966 0.218779,0.078938 0.258544,0.039455 0.27844,0 0.258544,-0.019727 0.238675,-0.05921 0.198882,-0.078938 0.198882,-0.098665 0.13922,-0.1184204 0.119324,-0.1184205 0.05966,-0.1578751 0.0199,-0.1183922 -0.0199,-0.098693 0,0 z"
     style="fill:#c0c0c0;fill-opacity:1;fill-rule:evenodd;stroke:none" />
  <path
     id="path21"
     d="m 17.521738,4.6574287 0.0199,0 0,-1.7366545 -2.625287,0 0,1.7366545 0,0 0,0.1578751 0.03979,0.1381478 0.07956,0.1381477 0.13922,0.1381478 0.159088,0.098665 0.218779,0.078966 0.218779,0.078938 0.258544,0.039455 0.27844,0 0.258544,-0.019727 0.238675,-0.05921 0.198882,-0.078938 0.198882,-0.098665 0.13922,-0.1184204 0.119324,-0.1184205 0.05966,-0.1578751 0.0199,-0.1183922 -0.0199,-0.098693 0,0"
     style="fill:none;stroke:#000000;stroke-width:0.0795539px;stroke-linecap:round;stroke-linejoin:round;stroke-miterlimit:4;stroke-dasharray:none;stroke-opacity:1" />
  <path
     id="path23"
     d="m 16.507431,4.4008887 -0.0199,-0.078938 -0.05966,-0.078937 -0.07956,-0.05921 -0.09943,-0.019727 -0.09945,0.019727 -0.07956,0.05921 -0.03976,0.078937 -0.0199,0.078938 0.0199,0.098665 0.03976,0.078938 0.07956,0.05921 0.09945,0.019727 0.09943,-0.019727 0.07956,-0.05921 0.05966,-0.078938 0.0199,-0.098665 z"
     style="fill:#000000;fill-opacity:1;fill-rule:evenodd;stroke:none" />
  <path
     id="path25"
     d="m 16.507431,4.4008887 -0.0199,-0.078938 -0.05966,-0.078937 -0.07956,-0.05921 -0.09943,-0.019727 -0.09945,0.019727 -0.07956,0.05921 -0.03976,0.078937 -0.0199,0.078938 0.0199,0.098665 0.03976,0.078938 0.07956,0.05921 0.09945,0.019727 0.09943,-0.019727 0.07956,-0.05921 0.05966,-0.078938 0.0199,-0.098665"
     style="fill:none;stroke:#c0c0c0;stroke-width:0.0795539px;stroke-linecap:round;stroke-linejoin:round;stroke-miterlimit:4;stroke-dasharray:none;stroke-opacity:1" />
  <path
     id="path27"
     d="m 16.388107,4.617974 0,0.5723184 -0.258543,0 -0.0199,-0.5723184 0.27844,0 z"
     style="fill:#000000;fill-opacity:1;fill-rule:evenodd;stroke:none" />
  <path
     id="path29"
     d="m 16.388107,4.617974 0,0.5723184 -0.258543,0 -0.0199,-0.5723184 0.27844,0 z"
     style="fill:none;stroke:#000000;stroke-width:0.2585502px;stroke-linecap:round;stroke-linejoin:round;stroke-miterlimit:4;stroke-dasharray:none;stroke-opacity:1" />
  <path
     id="path31"
     d="m 10.302239,3.76936 3.560036,0"
     style="fill:none;stroke:#333333;stroke-width:0.2585502px;stroke-linecap:round;stroke-linejoin:round;stroke-miterlimit:4;stroke-dasharray:none;stroke-opacity:1" />
  <path
     id="path33"
     d="m 14.260039,3.76936 -1.19332,0.5723184 0,-1.1643642 1.19332,0.5920458 z"
     style="fill:#333333;fill-opacity:1;fill-rule:evenodd;stroke:none" />
  <path
     id="path35"
     d="m 14.260039,3.76936 -1.19332,0.5723184 0,-1.1643642 1.19332,0.5920458 z"
     style="fill:none;stroke:#333333;stroke-width:0.2585502px;stroke-linecap:round;stroke-linejoin:round;stroke-miterlimit:4;stroke-dasharray:none;stroke-opacity:1" />
  <path
     id="path37"
     d="m 10.302239,9.6306358 3.560036,0"
     style="fill:none;stroke:#333333;stroke-width:0.2585502px;stroke-linecap:round;stroke-linejoin:round;stroke-miterlimit:4;stroke-dasharray:none;stroke-opacity:1" />
  <path
     id="path39"
     d="m 14.260039,9.6306358 -1.19332,0.5920462 0,-1.1643647 1.19332,0.5723185 z"
     style="fill:#333333;fill-opacity:1;fill-rule:evenodd;stroke:none" />
  <path
     id="path41"
     d="m 14.260039,9.6306358 -1.19332,0.5920462 0,-1.1643647 1.19332,0.5723185 z"
     style="fill:none;stroke:#333333;stroke-width:0.2585502px;stroke-linecap:round;stroke-linejoin:round;stroke-miterlimit:4;stroke-dasharray:none;stroke-opacity:1" />
  <path
     id="path43"
     d="m 10.302239,3.76936 0,5.8612758"
     style="fill:none;stroke:#333333;stroke-width:0.2585502px;stroke-linecap:round;stroke-linejoin:round;stroke-miterlimit:4;stroke-dasharray:none;stroke-opacity:1" />
  <path
     id="path45"
     d="m 10.302239,6.7098616 -6.7024389,0"
     style="fill:none;stroke:#333333;stroke-width:0.2585502px;stroke-linecap:round;stroke-linejoin:round;stroke-miterlimit:4;stroke-dasharray:none;stroke-opacity:1" />
</svg>
