<?xml version="1.0" encoding="UTF-8" standalone="no"?>
<svg
   xmlns:dc="http://purl.org/dc/elements/1.1/"
   xmlns:cc="http://creativecommons.org/ns#"
   xmlns:rdf="http://www.w3.org/1999/02/22-rdf-syntax-ns#"
   xmlns:svg="http://www.w3.org/2000/svg"
   xmlns="http://www.w3.org/2000/svg"
   viewBox="0 0 8.4666672 11.893651"
   id="svg2"
   height="11.893651mm"
   width="8.4666672mm"
   version="1.0">
  <metadata
     id="metadata25">
    <rdf:RDF>
      <cc:Work
         rdf:about="">
        <dc:format>image/svg+xml</dc:format>
        <dc:type
           rdf:resource="http://purl.org/dc/dcmitype/StillImage" />
        <dc:title></dc:title>
      </cc:Work>
    </rdf:RDF>
  </metadata>
  <defs
     id="defs4">
    <pattern
       y="0"
       x="0"
       height="6"
       width="6"
       patternUnits="userSpaceOnUse"
       id="WMFhbasepattern" />
  </defs>
  <path
     id="path7"
     d="m 2.5643445,2.6071491 0,6.5780271 3.2350117,0"
     style="fill:none;stroke:#ff0000;stroke-width:0.25643444px;stroke-linecap:round;stroke-linejoin:round;stroke-miterlimit:4;stroke-dasharray:none;stroke-opacity:1" />
  <path
     id="path9"
     d="m 3.8465196,7.1997429 0,3.9708951 3.9057015,0 0,-3.9708951 -3.9057015,0 z"
     style="fill:#ffffff;fill-opacity:1;fill-rule:evenodd;stroke:none" />
  <path
     id="path11"
     d="m 3.8465196,11.170638 3.9057015,0 0,-3.9708951 -3.9057015,0 0,3.9708951 z"
     style="fill:none;stroke:#000000;stroke-width:0.25643444px;stroke-linecap:round;stroke-linejoin:round;stroke-miterlimit:4;stroke-dasharray:none;stroke-opacity:1" />
  <path
     id="path13"
     d="M 0.51286833,2.6071491 0.53259567,2.4065992 0.55232018,2.1859946 0.67067571,1.8049494 0.86793211,1.443959 1.1243677,1.1431355 1.4202523,0.88241858 1.7753161,0.68186864 2.1501044,0.56154038 l 0.2169837,-0.0200547 0.1972564,-0.0200547 0.2169837,0.0200547 0.1972451,0.0200547 0.3945185,0.12032826 0.3550638,0.20054994 0.2958817,0.26071692 0.2564554,0.3008235 0.1775177,0.3609904 0.118364,0.3810452 0.039455,0.2206046 0.019727,0.2005499 0,0 L 4.6158291,2.8277538 4.5763744,3.0283009 4.4580104,3.4293951 4.2804927,3.7903856 4.0240373,4.0912062 3.7281556,4.3519231 3.3730918,4.5324324 2.9785733,4.652772 2.7813282,4.6928758 2.5643445,4.7129136 2.3670881,4.6928758 2.1501044,4.652772 1.7753161,4.5324324 1.4202523,4.3519231 1.1243677,4.0912062 0.86793211,3.7903856 0.67067571,3.4293951 0.55232018,3.0283009 0.53259567,2.8277538 0.51286833,2.6071491 Z"
     style="fill:#d8d8d8;fill-opacity:1;fill-rule:evenodd;stroke:none" />
  <path
     id="path15"
     d="M 0.51286833,2.6071491 0.53259567,2.4065992 0.55232018,2.1859946 0.67067571,1.8049494 0.86793211,1.443959 1.1243677,1.1431355 1.4202523,0.88241858 1.7753161,0.68186864 2.1501044,0.56154038 l 0.2169837,-0.0200547 0.1972564,-0.0200547 0.2169837,0.0200547 0.1972451,0.0200547 0.3945185,0.12032826 0.3550638,0.20054994 0.2958817,0.26071692 0.2564554,0.3008235 0.1775177,0.3609904 0.118364,0.3810452 0.039455,0.2206046 0.019727,0.2005499 0,0 L 4.6158291,2.8277538 4.5763744,3.0283009 4.4580104,3.4293951 4.2804927,3.7903856 4.0240373,4.0912062 3.7281556,4.3519231 3.3730918,4.5324324 2.9785733,4.652772 2.7813282,4.6928758 2.5643445,4.7129136 2.3670881,4.6928758 2.1501044,4.652772 1.7753161,4.5324324 1.4202523,4.3519231 1.1243677,4.0912062 0.86793211,3.7903856 0.67067571,3.4293951 0.55232018,3.0283009 0.53259567,2.8277538 0.51286833,2.6071491"
     style="fill:none;stroke:#000000;stroke-width:0.25643444px;stroke-linecap:round;stroke-linejoin:round;stroke-miterlimit:4;stroke-dasharray:none;stroke-opacity:1" />
  <text
     id="text17"
     y="10.381746 10.381746"
     x="4.636508 4.636508"
     style="font-style:normal;font-variant:normal;font-weight:400;font-size:3.38666677px;font-family:Arial;text-align:start;letter-spacing:0px;word-spacing:0px;text-anchor:start;fill:#000000;fill-opacity:1;stroke:none"
     xml:space="preserve"><tspan
       id="tspan19"
       y="10.381746 10.381746"
       x="4.636508 4.636508"><tspan
         id="tspan21"
         style="font-style:normal;font-variant:normal;font-weight:400;font-family:Arial;fill:#000000"
         dy="0 0"
         dx="0 0">E</tspan></tspan></text>
</svg>
