<?xml version="1.0" encoding="UTF-8" standalone="no"?>
<svg
   xmlns:dc="http://purl.org/dc/elements/1.1/"
   xmlns:cc="http://creativecommons.org/ns#"
   xmlns:rdf="http://www.w3.org/1999/02/22-rdf-syntax-ns#"
   xmlns:svg="http://www.w3.org/2000/svg"
   xmlns="http://www.w3.org/2000/svg"
   viewBox="0 0 21.599998 13.6"
   id="svg2"
   height="13.6mm"
   width="21.599998mm"
   version="1.0">
  <metadata
     id="metadata445">
    <rdf:RDF>
      <cc:Work
         rdf:about="">
        <dc:format>image/svg+xml</dc:format>
        <dc:type
           rdf:resource="http://purl.org/dc/dcmitype/StillImage" />
        <dc:title></dc:title>
      </cc:Work>
    </rdf:RDF>
  </metadata>
  <defs
     id="defs4">
    <clipPath
       id="clipWmfPath1"
       clipPathUnits="userSpaceOnUse">
      <path
         id="path7"
         d="m 29.5273,23.7751 16.7721,0 0,15.2441 -16.7721,0 z" />
    </clipPath>
    <clipPath
       id="clipWmfPath2"
       clipPathUnits="userSpaceOnUse">
      <path
         id="path10"
         d="m 29.527344,23.775391 0,13.146484 0.07031,0 0,0.208984 -0.07031,0 0,1.888672 16.771484,0 0,-15.24414 -16.771484,0 z" />
    </clipPath>
    <clipPath
       id="clipWmfPath3"
       clipPathUnits="userSpaceOnUse">
      <path
         id="path13"
         d="m 29.527344,23.775391 0,13.146484 0.07031,0 0,0.208984 0.07031,0 0,0.140625 -0.140625,0 0,1.748047 16.771484,0 0,-15.24414 -16.771484,0 z" />
    </clipPath>
    <clipPath
       id="clipWmfPath4"
       clipPathUnits="userSpaceOnUse">
      <path
         id="path16"
         d="m 29.527344,23.775391 0,13.146484 0.07031,0 0,0.208984 0.07031,0 0,0.140625 -0.140625,0 0,1.748047 16.771484,0 0,-1.748047 -0.07031,0 0,-0.140625 0.07031,0 0,-13.355468 -16.771484,0 z" />
    </clipPath>
    <clipPath
       id="clipWmfPath5"
       clipPathUnits="userSpaceOnUse">
      <path
         id="path19"
         d="m 29.527344,23.775391 0,13.146484 0.07031,0 0,0.208984 0.07031,0 0,0.140625 0.07031,0 0,0.07031 -0.210937,0 0,1.677734 16.771484,0 0,-1.748047 -0.07031,0 0,-0.140625 0.07031,0 0,-13.355468 -16.771484,0 z" />
    </clipPath>
    <clipPath
       id="clipWmfPath6"
       clipPathUnits="userSpaceOnUse">
      <path
         id="path22"
         d="m 29.527344,23.775391 0,13.146484 0.07031,0 0,0.208984 0.07031,0 0,0.140625 0.07031,0 0,0.07031 -0.210937,0 0,1.677734 16.771484,0 0,-1.677734 -0.140625,0 0,-0.07031 0.07031,0 0,-0.140625 0.07031,0 0,-13.355468 -16.771484,0 z" />
    </clipPath>
    <clipPath
       id="clipWmfPath7"
       clipPathUnits="userSpaceOnUse">
      <path
         id="path25"
         d="m 29.527344,23.775391 0,13.146484 0.07031,0 0,0.208984 0.07031,0 0,0.140625 0.07031,0 0,0.07031 0.07031,0 0,0.06836 -0.28125,0 0,1.609375 16.771484,0 0,-1.677734 -0.140625,0 0,-0.07031 0.07031,0 0,-0.140625 0.07031,0 0,-13.355468 -16.771484,0 z" />
    </clipPath>
    <clipPath
       id="clipWmfPath8"
       clipPathUnits="userSpaceOnUse">
      <path
         id="path28"
         d="m 29.527344,23.775391 0,13.146484 0.07031,0 0,0.208984 0.07031,0 0,0.140625 0.07031,0 0,0.07031 0.07031,0 0,0.06836 -0.28125,0 0,1.609375 16.771484,0 0,-1.609375 -0.210937,0 0,-0.06836 0.07031,0 0,-0.07031 0.07031,0 0,-0.140625 0.07031,0 0,-13.355468 -16.771484,0 z" />
    </clipPath>
    <clipPath
       id="clipWmfPath9"
       clipPathUnits="userSpaceOnUse">
      <path
         id="path31"
         d="m 29.527344,23.775391 0,13.146484 0.07031,0 0,0.208984 0.07031,0 0,0.140625 0.07031,0 0,0.07031 0.07031,0 0,0.06836 0.07031,0 0,0.07031 -0.351562,0 0,1.539062 16.771484,0 0,-1.609375 -0.210937,0 0,-0.06836 0.07031,0 0,-0.07031 0.07031,0 0,-0.140625 0.07031,0 0,-13.355468 -16.771484,0 z" />
    </clipPath>
    <clipPath
       id="clipWmfPath10"
       clipPathUnits="userSpaceOnUse">
      <path
         id="path34"
         d="m 29.527344,23.775391 0,13.146484 0.07031,0 0,0.208984 0.07031,0 0,0.140625 0.07031,0 0,0.07031 0.07031,0 0,0.06836 0.07031,0 0,0.07031 -0.351562,0 0,1.539062 16.771484,0 0,-1.539062 -0.28125,0 0,-0.07031 0.07031,0 0,-0.06836 0.07031,0 0,-0.07031 0.07031,0 0,-0.140625 0.07031,0 0,-13.355468 -16.771484,0 z" />
    </clipPath>
    <clipPath
       id="clipWmfPath11"
       clipPathUnits="userSpaceOnUse">
      <path
         id="path37"
         d="m 29.527344,23.775391 0,13.146484 0.07031,0 0,0.208984 0.07031,0 0,0.140625 0.07031,0 0,0.07031 0.07031,0 0,0.06836 0.07031,0 0,0.07031 0.07227,0 0,0.07031 -0.423828,0 0,1.46875 16.771484,0 0,-1.539062 -0.28125,0 0,-0.07031 0.07031,0 0,-0.06836 0.07031,0 0,-0.07031 0.07031,0 0,-0.140625 0.07031,0 0,-13.355468 -16.771484,0 z" />
    </clipPath>
    <clipPath
       id="clipWmfPath12"
       clipPathUnits="userSpaceOnUse">
      <path
         id="path40"
         d="m 29.527344,23.775391 0,13.146484 0.07031,0 0,0.208984 0.07031,0 0,0.140625 0.07031,0 0,0.07031 0.07031,0 0,0.06836 0.07031,0 0,0.07031 0.07227,0 0,0.07031 -0.423828,0 0,1.46875 16.771484,0 0,-1.46875 -0.351562,0 0,-0.07031 0.07031,0 0,-0.07031 0.07031,0 0,-0.06836 0.07031,0 0,-0.07031 0.07031,0 0,-0.140625 0.07031,0 0,-13.355468 -16.771484,0 z" />
    </clipPath>
    <clipPath
       id="clipWmfPath13"
       clipPathUnits="userSpaceOnUse">
      <path
         id="path43"
         d="m 29.527344,23.775391 0,13.146484 0.07031,0 0,0.208984 0.07031,0 0,0.140625 0.07031,0 0,0.07031 0.07031,0 0,0.06836 0.07031,0 0,0.07031 0.07227,0 0,0.07031 0.07031,0 0,0.07031 -0.49414,0 0,1.398437 16.771484,0 0,-1.46875 -0.351562,0 0,-0.07031 0.07031,0 0,-0.07031 0.07031,0 0,-0.06836 0.07031,0 0,-0.07031 0.07031,0 0,-0.140625 0.07031,0 0,-13.355468 -16.771484,0 z" />
    </clipPath>
    <clipPath
       id="clipWmfPath14"
       clipPathUnits="userSpaceOnUse">
      <path
         id="path46"
         d="m 29.527344,23.775391 0,13.146484 0.07031,0 0,0.208984 0.07031,0 0,0.140625 0.07031,0 0,0.07031 0.07031,0 0,0.06836 0.07031,0 0,0.07031 0.07227,0 0,0.07031 0.07031,0 0,0.07031 -0.49414,0 0,1.398437 16.771484,0 0,-1.398437 -0.421875,0 0,-0.07031 0.07031,0 0,-0.07031 0.07031,0 0,-0.07031 0.07031,0 0,-0.06836 0.07031,0 0,-0.07031 0.07031,0 0,-0.140625 0.07031,0 0,-13.355468 -16.771484,0 z" />
    </clipPath>
    <clipPath
       id="clipWmfPath15"
       clipPathUnits="userSpaceOnUse">
      <path
         id="path49"
         d="m 29.527344,23.775391 0,13.146484 0.07031,0 0,0.208984 0.07031,0 0,0.140625 0.07031,0 0,0.07031 0.07031,0 0,0.06836 0.07031,0 0,0.07031 0.07227,0 0,0.07031 0.07031,0 0,0.07031 0.140625,0 0,0.07031 -0.634765,0 0,1.328125 16.771484,0 0,-1.398437 -0.421875,0 0,-0.07031 0.07031,0 0,-0.07031 0.07031,0 0,-0.07031 0.07031,0 0,-0.06836 0.07031,0 0,-0.07031 0.07031,0 0,-0.140625 0.07031,0 0,-13.355468 -16.771484,0 z" />
    </clipPath>
    <clipPath
       id="clipWmfPath16"
       clipPathUnits="userSpaceOnUse">
      <path
         id="path52"
         d="m 29.527344,23.775391 0,13.146484 0.07031,0 0,0.208984 0.07031,0 0,0.140625 0.07031,0 0,0.07031 0.07031,0 0,0.06836 0.07031,0 0,0.07031 0.07227,0 0,0.07031 0.07031,0 0,0.07031 0.140625,0 0,0.07031 -0.634765,0 0,1.328125 16.771484,0 0,-1.328125 -0.492187,0 0,-0.07031 0.07031,0 0,-0.07031 0.07031,0 0,-0.07031 0.07031,0 0,-0.07031 0.07031,0 0,-0.06836 0.07031,0 0,-0.07031 0.07031,0 0,-0.140625 0.07031,0 0,-13.355468 -16.771484,0 z" />
    </clipPath>
    <clipPath
       id="clipWmfPath17"
       clipPathUnits="userSpaceOnUse">
      <path
         id="path55"
         d="m 29.527344,23.775391 0,13.146484 0.07031,0 0,0.208984 0.07031,0 0,0.140625 0.07031,0 0,0.07031 0.07031,0 0,0.06836 0.07031,0 0,0.07031 0.07227,0 0,0.07031 0.07031,0 0,0.07031 0.140625,0 0,0.07031 0.07031,0 0,0.06836 -0.705078,0 0,1.259765 16.771484,0 0,-1.328125 -0.492187,0 0,-0.07031 0.07031,0 0,-0.07031 0.07031,0 0,-0.07031 0.07031,0 0,-0.07031 0.07031,0 0,-0.06836 0.07031,0 0,-0.07031 0.07031,0 0,-0.140625 0.07031,0 0,-13.355468 -16.771484,0 z" />
    </clipPath>
    <clipPath
       id="clipWmfPath18"
       clipPathUnits="userSpaceOnUse">
      <path
         id="path58"
         d="m 29.527344,23.775391 0,13.146484 0.07031,0 0,0.208984 0.07031,0 0,0.140625 0.07031,0 0,0.07031 0.07031,0 0,0.06836 0.07031,0 0,0.07031 0.07227,0 0,0.07031 0.07031,0 0,0.07031 0.140625,0 0,0.07031 0.07031,0 0,0.06836 -0.705078,0 0,1.259765 16.771484,0 0,-1.259765 -0.632812,0 0,-0.06836 0.140625,0 0,-0.07031 0.07031,0 0,-0.07031 0.07031,0 0,-0.07031 0.07031,0 0,-0.07031 0.07031,0 0,-0.06836 0.07031,0 0,-0.07031 0.07031,0 0,-0.140625 0.07031,0 0,-13.355468 -16.771484,0 z" />
    </clipPath>
    <clipPath
       id="clipWmfPath19"
       clipPathUnits="userSpaceOnUse">
      <path
         id="path61"
         d="m 29.527344,23.775391 0,13.146484 0.07031,0 0,0.208984 0.07031,0 0,0.140625 0.07031,0 0,0.07031 0.07031,0 0,0.06836 0.07031,0 0,0.07031 0.07227,0 0,0.07031 0.07031,0 0,0.07031 0.140625,0 0,0.07031 0.07031,0 0,0.06836 0.140625,0 0,0.07031 -0.845703,0 0,1.189453 16.771484,0 0,-1.259765 -0.632812,0 0,-0.06836 0.140625,0 0,-0.07031 0.07031,0 0,-0.07031 0.07031,0 0,-0.07031 0.07031,0 0,-0.07031 0.07031,0 0,-0.06836 0.07031,0 0,-0.07031 0.07031,0 0,-0.140625 0.07031,0 0,-13.355468 -16.771484,0 z" />
    </clipPath>
    <clipPath
       id="clipWmfPath20"
       clipPathUnits="userSpaceOnUse">
      <path
         id="path64"
         d="m 29.527344,23.775391 0,13.146484 0.07031,0 0,0.208984 0.07031,0 0,0.140625 0.07031,0 0,0.07031 0.07031,0 0,0.06836 0.07031,0 0,0.07031 0.07227,0 0,0.07031 0.07031,0 0,0.07031 0.140625,0 0,0.07031 0.07031,0 0,0.06836 0.140625,0 0,0.07031 -0.845703,0 0,1.189453 16.771484,0 0,-1.189453 -0.77539,0 0,-0.07031 0.142578,0 0,-0.06836 0.140625,0 0,-0.07031 0.07031,0 0,-0.07031 0.07031,0 0,-0.07031 0.07031,0 0,-0.07031 0.07031,0 0,-0.06836 0.07031,0 0,-0.07031 0.07031,0 0,-0.140625 0.07031,0 0,-13.355468 -16.771484,0 z" />
    </clipPath>
    <clipPath
       id="clipWmfPath21"
       clipPathUnits="userSpaceOnUse">
      <path
         id="path67"
         d="m 29.527344,23.775391 0,13.146484 0.07031,0 0,0.208984 0.07031,0 0,0.140625 0.07031,0 0,0.07031 0.07031,0 0,0.06836 0.07031,0 0,0.07031 0.07227,0 0,0.07031 0.07031,0 0,0.07031 0.140625,0 0,0.07031 0.07031,0 0,0.06836 0.140625,0 0,0.07031 0.140625,0 0,0.07031 -0.986328,0 0,1.11914 16.771484,0 0,-1.189453 -0.77539,0 0,-0.07031 0.142578,0 0,-0.06836 0.140625,0 0,-0.07031 0.07031,0 0,-0.07031 0.07031,0 0,-0.07031 0.07031,0 0,-0.07031 0.07031,0 0,-0.06836 0.07031,0 0,-0.07031 0.07031,0 0,-0.140625 0.07031,0 0,-13.355468 -16.771484,0 z" />
    </clipPath>
    <clipPath
       id="clipWmfPath22"
       clipPathUnits="userSpaceOnUse">
      <path
         id="path70"
         d="m 29.527344,23.775391 0,13.146484 0.07031,0 0,0.208984 0.07031,0 0,0.140625 0.07031,0 0,0.07031 0.07031,0 0,0.06836 0.07031,0 0,0.07031 0.07227,0 0,0.07031 0.07031,0 0,0.07031 0.140625,0 0,0.07031 0.07031,0 0,0.06836 0.140625,0 0,0.07031 0.140625,0 0,0.07031 -0.986328,0 0,1.11914 16.771484,0 0,-1.11914 -0.845703,0 0,-0.07031 0.07031,0 0,-0.07031 0.142578,0 0,-0.06836 0.140625,0 0,-0.07031 0.07031,0 0,-0.07031 0.07031,0 0,-0.07031 0.07031,0 0,-0.07031 0.07031,0 0,-0.06836 0.07031,0 0,-0.07031 0.07031,0 0,-0.140625 0.07031,0 0,-13.355468 -16.771484,0 z" />
    </clipPath>
    <clipPath
       id="clipWmfPath23"
       clipPathUnits="userSpaceOnUse">
      <path
         id="path73"
         d="m 29.527344,23.775391 0,13.146484 0.07031,0 0,0.208984 0.07031,0 0,0.140625 0.07031,0 0,0.07031 0.07031,0 0,0.06836 0.07031,0 0,0.07031 0.07227,0 0,0.07031 0.07031,0 0,0.07031 0.140625,0 0,0.07031 0.07031,0 0,0.06836 0.140625,0 0,0.07031 0.140625,0 0,0.07031 0.140625,0 0,0.07031 -1.126953,0 0,1.048828 16.771484,0 0,-1.11914 -0.845703,0 0,-0.07031 0.07031,0 0,-0.07031 0.142578,0 0,-0.06836 0.140625,0 0,-0.07031 0.07031,0 0,-0.07031 0.07031,0 0,-0.07031 0.07031,0 0,-0.07031 0.07031,0 0,-0.06836 0.07031,0 0,-0.07031 0.07031,0 0,-0.140625 0.07031,0 0,-13.355468 -16.771484,0 z" />
    </clipPath>
    <clipPath
       id="clipWmfPath24"
       clipPathUnits="userSpaceOnUse">
      <path
         id="path76"
         d="m 29.527344,23.775391 0,13.146484 0.07031,0 0,0.208984 0.07031,0 0,0.140625 0.07031,0 0,0.07031 0.07031,0 0,0.06836 0.07031,0 0,0.07031 0.07227,0 0,0.07031 0.07031,0 0,0.07031 0.140625,0 0,0.07031 0.07031,0 0,0.06836 0.140625,0 0,0.07031 0.140625,0 0,0.07031 0.140625,0 0,0.07031 -1.126953,0 0,1.048828 16.771484,0 0,-1.048828 -0.986328,0 0,-0.07031 0.140625,0 0,-0.07031 0.07031,0 0,-0.07031 0.142578,0 0,-0.06836 0.140625,0 0,-0.07031 0.07031,0 0,-0.07031 0.07031,0 0,-0.07031 0.07031,0 0,-0.07031 0.07031,0 0,-0.06836 0.07031,0 0,-0.07031 0.07031,0 0,-0.140625 0.07031,0 0,-13.355468 -16.771484,0 z" />
    </clipPath>
    <clipPath
       id="clipWmfPath25"
       clipPathUnits="userSpaceOnUse">
      <path
         id="path79"
         d="m 29.527344,23.775391 0,13.146484 0.07031,0 0,0.208984 0.07031,0 0,0.140625 0.07031,0 0,0.07031 0.07031,0 0,0.06836 0.07031,0 0,0.07031 0.07227,0 0,0.07031 0.07031,0 0,0.07031 0.140625,0 0,0.07031 0.07031,0 0,0.06836 0.140625,0 0,0.07031 0.140625,0 0,0.07031 0.140625,0 0,0.07031 0.140625,0 0,0.07031 -1.267578,0 0,0.978515 16.771484,0 0,-1.048828 -0.986328,0 0,-0.07031 0.140625,0 0,-0.07031 0.07031,0 0,-0.07031 0.142578,0 0,-0.06836 0.140625,0 0,-0.07031 0.07031,0 0,-0.07031 0.07031,0 0,-0.07031 0.07031,0 0,-0.07031 0.07031,0 0,-0.06836 0.07031,0 0,-0.07031 0.07031,0 0,-0.140625 0.07031,0 0,-13.355468 -16.771484,0 z" />
    </clipPath>
    <clipPath
       id="clipWmfPath26"
       clipPathUnits="userSpaceOnUse">
      <path
         id="path82"
         d="m 29.527344,23.775391 0,13.146484 0.07031,0 0,0.208984 0.07031,0 0,0.140625 0.07031,0 0,0.07031 0.07031,0 0,0.06836 0.07031,0 0,0.07031 0.07227,0 0,0.07031 0.07031,0 0,0.07031 0.140625,0 0,0.07031 0.07031,0 0,0.06836 0.140625,0 0,0.07031 0.140625,0 0,0.07031 0.140625,0 0,0.07031 0.140625,0 0,0.07031 -1.267578,0 0,0.978515 16.771484,0 0,-0.978515 -1.197266,0 0,-0.07031 0.210938,0 0,-0.07031 0.140625,0 0,-0.07031 0.07031,0 0,-0.07031 0.142578,0 0,-0.06836 0.140625,0 0,-0.07031 0.07031,0 0,-0.07031 0.07031,0 0,-0.07031 0.07031,0 0,-0.07031 0.07031,0 0,-0.06836 0.07031,0 0,-0.07031 0.07031,0 0,-0.140625 0.07031,0 0,-13.355468 -16.771484,0 z" />
    </clipPath>
    <clipPath
       id="clipWmfPath27"
       clipPathUnits="userSpaceOnUse">
      <path
         id="path85"
         d="m 29.527344,23.775391 0,13.146484 0.07031,0 0,0.208984 0.07031,0 0,0.140625 0.07031,0 0,0.07031 0.07031,0 0,0.06836 0.07031,0 0,0.07031 0.07227,0 0,0.07031 0.07031,0 0,0.07031 0.140625,0 0,0.07031 0.07031,0 0,0.06836 0.140625,0 0,0.07031 0.140625,0 0,0.07031 0.140625,0 0,0.07031 0.140625,0 0,0.07031 0.142578,0 0,0.06836 -1.410156,0 0,0.910156 16.771484,0 0,-0.978515 -1.197266,0 0,-0.07031 0.210938,0 0,-0.07031 0.140625,0 0,-0.07031 0.07031,0 0,-0.07031 0.142578,0 0,-0.06836 0.140625,0 0,-0.07031 0.07031,0 0,-0.07031 0.07031,0 0,-0.07031 0.07031,0 0,-0.07031 0.07031,0 0,-0.06836 0.07031,0 0,-0.07031 0.07031,0 0,-0.140625 0.07031,0 0,-13.355468 -16.771484,0 z" />
    </clipPath>
    <clipPath
       id="clipWmfPath28"
       clipPathUnits="userSpaceOnUse">
      <path
         id="path88"
         d="m 29.527344,23.775391 0,13.146484 0.07031,0 0,0.208984 0.07031,0 0,0.140625 0.07031,0 0,0.07031 0.07031,0 0,0.06836 0.07031,0 0,0.07031 0.07227,0 0,0.07031 0.07031,0 0,0.07031 0.140625,0 0,0.07031 0.07031,0 0,0.06836 0.140625,0 0,0.07031 0.140625,0 0,0.07031 0.140625,0 0,0.07031 0.140625,0 0,0.07031 0.142578,0 0,0.06836 -1.410156,0 0,0.910156 16.771484,0 0,-0.910156 -1.33789,0 0,-0.06836 0.140624,0 0,-0.07031 0.210938,0 0,-0.07031 0.140625,0 0,-0.07031 0.07031,0 0,-0.07031 0.142578,0 0,-0.06836 0.140625,0 0,-0.07031 0.07031,0 0,-0.07031 0.07031,0 0,-0.07031 0.07031,0 0,-0.07031 0.07031,0 0,-0.06836 0.07031,0 0,-0.07031 0.07031,0 0,-0.140625 0.07031,0 0,-13.355468 -16.771484,0 z" />
    </clipPath>
    <clipPath
       id="clipWmfPath29"
       clipPathUnits="userSpaceOnUse">
      <path
         id="path91"
         d="m 29.527344,23.775391 0,13.146484 0.07031,0 0,0.208984 0.07031,0 0,0.140625 0.07031,0 0,0.07031 0.07031,0 0,0.06836 0.07031,0 0,0.07031 0.07227,0 0,0.07031 0.07031,0 0,0.07031 0.140625,0 0,0.07031 0.07031,0 0,0.06836 0.140625,0 0,0.07031 0.140625,0 0,0.07031 0.140625,0 0,0.07031 0.140625,0 0,0.07031 0.142578,0 0,0.06836 0.210938,0 0,0.07031 -1.621094,0 0,0.839843 16.771484,0 0,-0.910156 -1.33789,0 0,-0.06836 0.140624,0 0,-0.07031 0.210938,0 0,-0.07031 0.140625,0 0,-0.07031 0.07031,0 0,-0.07031 0.142578,0 0,-0.06836 0.140625,0 0,-0.07031 0.07031,0 0,-0.07031 0.07031,0 0,-0.07031 0.07031,0 0,-0.07031 0.07031,0 0,-0.06836 0.07031,0 0,-0.07031 0.07031,0 0,-0.140625 0.07031,0 0,-13.355468 -16.771484,0 z" />
    </clipPath>
    <clipPath
       id="clipWmfPath30"
       clipPathUnits="userSpaceOnUse">
      <path
         id="path94"
         d="m 29.527344,23.775391 0,13.146484 0.07031,0 0,0.208984 0.07031,0 0,0.140625 0.07031,0 0,0.07031 0.07031,0 0,0.06836 0.07031,0 0,0.07031 0.07227,0 0,0.07031 0.07031,0 0,0.07031 0.140625,0 0,0.07031 0.07031,0 0,0.06836 0.140625,0 0,0.07031 0.140625,0 0,0.07031 0.140625,0 0,0.07031 0.140625,0 0,0.07031 0.142578,0 0,0.06836 0.210938,0 0,0.07031 -1.621094,0 0,0.839843 16.771484,0 0,-0.839843 -1.548828,0 0,-0.07031 0.210938,0 0,-0.06836 0.140624,0 0,-0.07031 0.210938,0 0,-0.07031 0.140625,0 0,-0.07031 0.07031,0 0,-0.07031 0.142578,0 0,-0.06836 0.140625,0 0,-0.07031 0.07031,0 0,-0.07031 0.07031,0 0,-0.07031 0.07031,0 0,-0.07031 0.07031,0 0,-0.06836 0.07031,0 0,-0.07031 0.07031,0 0,-0.140625 0.07031,0 0,-13.355468 -16.771484,0 z" />
    </clipPath>
    <clipPath
       id="clipWmfPath31"
       clipPathUnits="userSpaceOnUse">
      <path
         id="path97"
         d="m 29.527344,23.775391 0,13.146484 0.07031,0 0,0.208984 0.07031,0 0,0.140625 0.07031,0 0,0.07031 0.07031,0 0,0.06836 0.07031,0 0,0.07031 0.07227,0 0,0.07031 0.07031,0 0,0.07031 0.140625,0 0,0.07031 0.07031,0 0,0.06836 0.140625,0 0,0.07031 0.140625,0 0,0.07031 0.140625,0 0,0.07031 0.140625,0 0,0.07031 0.142578,0 0,0.06836 0.210938,0 0,0.07031 0.28125,0 0,0.07031 -1.902344,0 0,0.769531 16.771484,0 0,-0.839843 -1.548828,0 0,-0.07031 0.210938,0 0,-0.06836 0.140624,0 0,-0.07031 0.210938,0 0,-0.07031 0.140625,0 0,-0.07031 0.07031,0 0,-0.07031 0.142578,0 0,-0.06836 0.140625,0 0,-0.07031 0.07031,0 0,-0.07031 0.07031,0 0,-0.07031 0.07031,0 0,-0.07031 0.07031,0 0,-0.06836 0.07031,0 0,-0.07031 0.07031,0 0,-0.140625 0.07031,0 0,-13.355468 -16.771484,0 z" />
    </clipPath>
    <clipPath
       id="clipWmfPath32"
       clipPathUnits="userSpaceOnUse">
      <path
         id="path100"
         d="m 29.527344,23.775391 0,13.146484 0.07031,0 0,0.208984 0.07031,0 0,0.140625 0.07031,0 0,0.07031 0.07031,0 0,0.06836 0.07031,0 0,0.07031 0.07227,0 0,0.07031 0.07031,0 0,0.07031 0.140625,0 0,0.07031 0.07031,0 0,0.06836 0.140625,0 0,0.07031 0.140625,0 0,0.07031 0.140625,0 0,0.07031 0.140625,0 0,0.07031 0.142578,0 0,0.06836 0.210938,0 0,0.07031 0.28125,0 0,0.07031 -1.902344,0 0,0.769531 16.771484,0 0,-0.769531 -1.761719,0 0,-0.07031 0.212891,0 0,-0.07031 0.210938,0 0,-0.06836 0.140624,0 0,-0.07031 0.210938,0 0,-0.07031 0.140625,0 0,-0.07031 0.07031,0 0,-0.07031 0.142578,0 0,-0.06836 0.140625,0 0,-0.07031 0.07031,0 0,-0.07031 0.07031,0 0,-0.07031 0.07031,0 0,-0.07031 0.07031,0 0,-0.06836 0.07031,0 0,-0.07031 0.07031,0 0,-0.140625 0.07031,0 0,-13.355468 -16.771484,0 z" />
    </clipPath>
    <clipPath
       id="clipWmfPath33"
       clipPathUnits="userSpaceOnUse">
      <path
         id="path103"
         d="m 29.527344,23.775391 0,13.146484 0.07031,0 0,0.208984 0.07031,0 0,0.140625 0.07031,0 0,0.07031 0.07031,0 0,0.06836 0.07031,0 0,0.07031 0.07227,0 0,0.07031 0.07031,0 0,0.07031 0.140625,0 0,0.07031 0.07031,0 0,0.06836 0.140625,0 0,0.07031 0.140625,0 0,0.07031 0.140625,0 0,0.07031 0.140625,0 0,0.07031 0.142578,0 0,0.06836 0.210938,0 0,0.07031 0.28125,0 0,0.07031 0.210937,0 0,0.07031 -2.113281,0 0,0.699219 16.771484,0 0,-0.769531 -1.761719,0 0,-0.07031 0.212891,0 0,-0.07031 0.210938,0 0,-0.06836 0.140624,0 0,-0.07031 0.210938,0 0,-0.07031 0.140625,0 0,-0.07031 0.07031,0 0,-0.07031 0.142578,0 0,-0.06836 0.140625,0 0,-0.07031 0.07031,0 0,-0.07031 0.07031,0 0,-0.07031 0.07031,0 0,-0.07031 0.07031,0 0,-0.06836 0.07031,0 0,-0.07031 0.07031,0 0,-0.140625 0.07031,0 0,-13.355468 -16.771484,0 z" />
    </clipPath>
    <clipPath
       id="clipWmfPath34"
       clipPathUnits="userSpaceOnUse">
      <path
         id="path106"
         d="m 29.527344,23.775391 0,13.146484 0.07031,0 0,0.208984 0.07031,0 0,0.140625 0.07031,0 0,0.07031 0.07031,0 0,0.06836 0.07031,0 0,0.07031 0.07227,0 0,0.07031 0.07031,0 0,0.07031 0.140625,0 0,0.07031 0.07031,0 0,0.06836 0.140625,0 0,0.07031 0.140625,0 0,0.07031 0.140625,0 0,0.07031 0.140625,0 0,0.07031 0.142578,0 0,0.06836 0.210938,0 0,0.07031 0.28125,0 0,0.07031 0.210937,0 0,0.07031 -2.113281,0 0,0.699219 16.771484,0 0,-0.699219 -1.972656,0 0,-0.07031 0.210937,0 0,-0.07031 0.212891,0 0,-0.07031 0.210938,0 0,-0.06836 0.140624,0 0,-0.07031 0.210938,0 0,-0.07031 0.140625,0 0,-0.07031 0.07031,0 0,-0.07031 0.142578,0 0,-0.06836 0.140625,0 0,-0.07031 0.07031,0 0,-0.07031 0.07031,0 0,-0.07031 0.07031,0 0,-0.07031 0.07031,0 0,-0.06836 0.07031,0 0,-0.07031 0.07031,0 0,-0.140625 0.07031,0 0,-13.355468 -16.771484,0 z" />
    </clipPath>
    <clipPath
       id="clipWmfPath35"
       clipPathUnits="userSpaceOnUse">
      <path
         id="path109"
         d="m 29.527344,23.775391 0,13.146484 0.07031,0 0,0.208984 0.07031,0 0,0.140625 0.07031,0 0,0.07031 0.07031,0 0,0.06836 0.07031,0 0,0.07031 0.07227,0 0,0.07031 0.07031,0 0,0.07031 0.140625,0 0,0.07031 0.07031,0 0,0.06836 0.140625,0 0,0.07031 0.140625,0 0,0.07031 0.140625,0 0,0.07031 0.140625,0 0,0.07031 0.142578,0 0,0.06836 0.210938,0 0,0.07031 0.28125,0 0,0.07031 0.210937,0 0,0.07031 0.212891,0 0,0.07031 -2.326172,0 0,0.628906 16.771484,0 0,-0.699219 -1.972656,0 0,-0.07031 0.210937,0 0,-0.07031 0.212891,0 0,-0.07031 0.210938,0 0,-0.06836 0.140624,0 0,-0.07031 0.210938,0 0,-0.07031 0.140625,0 0,-0.07031 0.07031,0 0,-0.07031 0.142578,0 0,-0.06836 0.140625,0 0,-0.07031 0.07031,0 0,-0.07031 0.07031,0 0,-0.07031 0.07031,0 0,-0.07031 0.07031,0 0,-0.06836 0.07031,0 0,-0.07031 0.07031,0 0,-0.140625 0.07031,0 0,-13.355468 -16.771484,0 z" />
    </clipPath>
    <clipPath
       id="clipWmfPath36"
       clipPathUnits="userSpaceOnUse">
      <path
         id="path112"
         d="m 29.527344,23.775391 0,13.146484 0.07031,0 0,0.208984 0.07031,0 0,0.140625 0.07031,0 0,0.07031 0.07031,0 0,0.06836 0.07031,0 0,0.07031 0.07227,0 0,0.07031 0.07031,0 0,0.07031 0.140625,0 0,0.07031 0.07031,0 0,0.06836 0.140625,0 0,0.07031 0.140625,0 0,0.07031 0.140625,0 0,0.07031 0.140625,0 0,0.07031 0.142578,0 0,0.06836 0.210938,0 0,0.07031 0.28125,0 0,0.07031 0.210937,0 0,0.07031 0.212891,0 0,0.07031 -2.326172,0 0,0.628906 16.771484,0 0,-0.628906 -2.253906,0 0,-0.07031 0.28125,0 0,-0.07031 0.210937,0 0,-0.07031 0.212891,0 0,-0.07031 0.210938,0 0,-0.06836 0.140624,0 0,-0.07031 0.210938,0 0,-0.07031 0.140625,0 0,-0.07031 0.07031,0 0,-0.07031 0.142578,0 0,-0.06836 0.140625,0 0,-0.07031 0.07031,0 0,-0.07031 0.07031,0 0,-0.07031 0.07031,0 0,-0.07031 0.07031,0 0,-0.06836 0.07031,0 0,-0.07031 0.07031,0 0,-0.140625 0.07031,0 0,-13.355468 -16.771484,0 z" />
    </clipPath>
    <clipPath
       id="clipWmfPath37"
       clipPathUnits="userSpaceOnUse">
      <path
         id="path115"
         d="m 29.527344,23.775391 0,13.146484 0.07031,0 0,0.208984 0.07031,0 0,0.140625 0.07031,0 0,0.07031 0.07031,0 0,0.06836 0.07031,0 0,0.07031 0.07227,0 0,0.07031 0.07031,0 0,0.07031 0.140625,0 0,0.07031 0.07031,0 0,0.06836 0.140625,0 0,0.07031 0.140625,0 0,0.07031 0.140625,0 0,0.07031 0.140625,0 0,0.07031 0.142578,0 0,0.06836 0.210938,0 0,0.07031 0.28125,0 0,0.07031 0.210937,0 0,0.07031 0.212891,0 0,0.07031 0.210937,0 0,0.06836 -2.537109,0 0,0.560547 16.771484,0 0,-0.628906 -2.253906,0 0,-0.07031 0.28125,0 0,-0.07031 0.210937,0 0,-0.07031 0.212891,0 0,-0.07031 0.210938,0 0,-0.06836 0.140624,0 0,-0.07031 0.210938,0 0,-0.07031 0.140625,0 0,-0.07031 0.07031,0 0,-0.07031 0.142578,0 0,-0.06836 0.140625,0 0,-0.07031 0.07031,0 0,-0.07031 0.07031,0 0,-0.07031 0.07031,0 0,-0.07031 0.07031,0 0,-0.06836 0.07031,0 0,-0.07031 0.07031,0 0,-0.140625 0.07031,0 0,-13.355468 -16.771484,0 z" />
    </clipPath>
    <clipPath
       id="clipWmfPath38"
       clipPathUnits="userSpaceOnUse">
      <path
         id="path118"
         d="m 29.527344,23.775391 0,13.146484 0.07031,0 0,0.208984 0.07031,0 0,0.140625 0.07031,0 0,0.07031 0.07031,0 0,0.06836 0.07031,0 0,0.07031 0.07227,0 0,0.07031 0.07031,0 0,0.07031 0.140625,0 0,0.07031 0.07031,0 0,0.06836 0.140625,0 0,0.07031 0.140625,0 0,0.07031 0.140625,0 0,0.07031 0.140625,0 0,0.07031 0.142578,0 0,0.06836 0.210938,0 0,0.07031 0.28125,0 0,0.07031 0.210937,0 0,0.07031 0.212891,0 0,0.07031 0.210937,0 0,0.06836 -2.537109,0 0,0.560547 16.771484,0 0,-0.560547 -2.466797,0 0,-0.06836 0.212891,0 0,-0.07031 0.28125,0 0,-0.07031 0.210937,0 0,-0.07031 0.212891,0 0,-0.07031 0.210938,0 0,-0.06836 0.140624,0 0,-0.07031 0.210938,0 0,-0.07031 0.140625,0 0,-0.07031 0.07031,0 0,-0.07031 0.142578,0 0,-0.06836 0.140625,0 0,-0.07031 0.07031,0 0,-0.07031 0.07031,0 0,-0.07031 0.07031,0 0,-0.07031 0.07031,0 0,-0.06836 0.07031,0 0,-0.07031 0.07031,0 0,-0.140625 0.07031,0 0,-13.355468 -16.771484,0 z" />
    </clipPath>
    <clipPath
       id="clipWmfPath39"
       clipPathUnits="userSpaceOnUse">
      <path
         id="path121"
         d="m 29.527344,23.775391 0,13.146484 0.07031,0 0,0.208984 0.07031,0 0,0.140625 0.07031,0 0,0.07031 0.07031,0 0,0.06836 0.07031,0 0,0.07031 0.07227,0 0,0.07031 0.07031,0 0,0.07031 0.140625,0 0,0.07031 0.07031,0 0,0.06836 0.140625,0 0,0.07031 0.140625,0 0,0.07031 0.140625,0 0,0.07031 0.140625,0 0,0.07031 0.142578,0 0,0.06836 0.210938,0 0,0.07031 0.28125,0 0,0.07031 0.210937,0 0,0.07031 0.212891,0 0,0.07031 0.210937,0 0,0.06836 0.351563,0 0,0.07031 -2.888672,0 0,0.490234 16.771484,0 0,-0.560547 -2.466797,0 0,-0.06836 0.212891,0 0,-0.07031 0.28125,0 0,-0.07031 0.210937,0 0,-0.07031 0.212891,0 0,-0.07031 0.210938,0 0,-0.06836 0.140624,0 0,-0.07031 0.210938,0 0,-0.07031 0.140625,0 0,-0.07031 0.07031,0 0,-0.07031 0.142578,0 0,-0.06836 0.140625,0 0,-0.07031 0.07031,0 0,-0.07031 0.07031,0 0,-0.07031 0.07031,0 0,-0.07031 0.07031,0 0,-0.06836 0.07031,0 0,-0.07031 0.07031,0 0,-0.140625 0.07031,0 0,-13.355468 -16.771484,0 z" />
    </clipPath>
    <clipPath
       id="clipWmfPath40"
       clipPathUnits="userSpaceOnUse">
      <path
         id="path124"
         d="m 29.527344,23.775391 0,13.146484 0.07031,0 0,0.208984 0.07031,0 0,0.140625 0.07031,0 0,0.07031 0.07031,0 0,0.06836 0.07031,0 0,0.07031 0.07227,0 0,0.07031 0.07031,0 0,0.07031 0.140625,0 0,0.07031 0.07031,0 0,0.06836 0.140625,0 0,0.07031 0.140625,0 0,0.07031 0.140625,0 0,0.07031 0.140625,0 0,0.07031 0.142578,0 0,0.06836 0.210938,0 0,0.07031 0.28125,0 0,0.07031 0.210937,0 0,0.07031 0.212891,0 0,0.07031 0.210937,0 0,0.06836 0.351563,0 0,0.07031 -2.888672,0 0,0.490234 16.771484,0 0,-0.490234 -2.748047,0 0,-0.07031 0.28125,0 0,-0.06836 0.212891,0 0,-0.07031 0.28125,0 0,-0.07031 0.210937,0 0,-0.07031 0.212891,0 0,-0.07031 0.210938,0 0,-0.06836 0.140624,0 0,-0.07031 0.210938,0 0,-0.07031 0.140625,0 0,-0.07031 0.07031,0 0,-0.07031 0.142578,0 0,-0.06836 0.140625,0 0,-0.07031 0.07031,0 0,-0.07031 0.07031,0 0,-0.07031 0.07031,0 0,-0.07031 0.07031,0 0,-0.06836 0.07031,0 0,-0.07031 0.07031,0 0,-0.140625 0.07031,0 0,-13.355468 -16.771484,0 z" />
    </clipPath>
    <clipPath
       id="clipWmfPath41"
       clipPathUnits="userSpaceOnUse">
      <path
         id="path127"
         d="m 29.527344,23.775391 0,13.146484 0.07031,0 0,0.208984 0.07031,0 0,0.140625 0.07031,0 0,0.07031 0.07031,0 0,0.06836 0.07031,0 0,0.07031 0.07227,0 0,0.07031 0.07031,0 0,0.07031 0.140625,0 0,0.07031 0.07031,0 0,0.06836 0.140625,0 0,0.07031 0.140625,0 0,0.07031 0.140625,0 0,0.07031 0.140625,0 0,0.07031 0.142578,0 0,0.06836 0.210938,0 0,0.07031 0.28125,0 0,0.07031 0.210937,0 0,0.07031 0.212891,0 0,0.07031 0.210937,0 0,0.06836 0.351563,0 0,0.07031 0.283203,0 0,0.07031 -3.171875,0 0,0.419922 16.771484,0 0,-0.490234 -2.748047,0 0,-0.07031 0.28125,0 0,-0.06836 0.212891,0 0,-0.07031 0.28125,0 0,-0.07031 0.210937,0 0,-0.07031 0.212891,0 0,-0.07031 0.210938,0 0,-0.06836 0.140624,0 0,-0.07031 0.210938,0 0,-0.07031 0.140625,0 0,-0.07031 0.07031,0 0,-0.07031 0.142578,0 0,-0.06836 0.140625,0 0,-0.07031 0.07031,0 0,-0.07031 0.07031,0 0,-0.07031 0.07031,0 0,-0.07031 0.07031,0 0,-0.06836 0.07031,0 0,-0.07031 0.07031,0 0,-0.140625 0.07031,0 0,-13.355468 -16.771484,0 z" />
    </clipPath>
    <clipPath
       id="clipWmfPath42"
       clipPathUnits="userSpaceOnUse">
      <path
         id="path130"
         d="m 29.527344,23.775391 0,13.146484 0.07031,0 0,0.208984 0.07031,0 0,0.140625 0.07031,0 0,0.07031 0.07031,0 0,0.06836 0.07031,0 0,0.07031 0.07227,0 0,0.07031 0.07031,0 0,0.07031 0.140625,0 0,0.07031 0.07031,0 0,0.06836 0.140625,0 0,0.07031 0.140625,0 0,0.07031 0.140625,0 0,0.07031 0.140625,0 0,0.07031 0.142578,0 0,0.06836 0.210938,0 0,0.07031 0.28125,0 0,0.07031 0.210937,0 0,0.07031 0.212891,0 0,0.07031 0.210937,0 0,0.06836 0.351563,0 0,0.07031 0.283203,0 0,0.07031 -3.171875,0 0,0.419922 16.771484,0 0,-0.419922 -3.099609,0 0,-0.07031 0.351562,0 0,-0.07031 0.28125,0 0,-0.06836 0.212891,0 0,-0.07031 0.28125,0 0,-0.07031 0.210937,0 0,-0.07031 0.212891,0 0,-0.07031 0.210938,0 0,-0.06836 0.140624,0 0,-0.07031 0.210938,0 0,-0.07031 0.140625,0 0,-0.07031 0.07031,0 0,-0.07031 0.142578,0 0,-0.06836 0.140625,0 0,-0.07031 0.07031,0 0,-0.07031 0.07031,0 0,-0.07031 0.07031,0 0,-0.07031 0.07031,0 0,-0.06836 0.07031,0 0,-0.07031 0.07031,0 0,-0.140625 0.07031,0 0,-13.355468 -16.771484,0 z" />
    </clipPath>
    <clipPath
       id="clipWmfPath43"
       clipPathUnits="userSpaceOnUse">
      <path
         id="path133"
         d="m 29.527344,23.775391 0,13.146484 0.07031,0 0,0.208984 0.07031,0 0,0.140625 0.07031,0 0,0.07031 0.07031,0 0,0.06836 0.07031,0 0,0.07031 0.07227,0 0,0.07031 0.07031,0 0,0.07031 0.140625,0 0,0.07031 0.07031,0 0,0.06836 0.140625,0 0,0.07031 0.140625,0 0,0.07031 0.140625,0 0,0.07031 0.140625,0 0,0.07031 0.142578,0 0,0.06836 0.210938,0 0,0.07031 0.28125,0 0,0.07031 0.210937,0 0,0.07031 0.212891,0 0,0.07031 0.210937,0 0,0.06836 0.351563,0 0,0.07031 0.283203,0 0,0.07031 0.351562,0 0,0.07031 -3.523437,0 0,0.349609 16.771484,0 0,-0.419922 -3.099609,0 0,-0.07031 0.351562,0 0,-0.07031 0.28125,0 0,-0.06836 0.212891,0 0,-0.07031 0.28125,0 0,-0.07031 0.210937,0 0,-0.07031 0.212891,0 0,-0.07031 0.210938,0 0,-0.06836 0.140624,0 0,-0.07031 0.210938,0 0,-0.07031 0.140625,0 0,-0.07031 0.07031,0 0,-0.07031 0.142578,0 0,-0.06836 0.140625,0 0,-0.07031 0.07031,0 0,-0.07031 0.07031,0 0,-0.07031 0.07031,0 0,-0.07031 0.07031,0 0,-0.06836 0.07031,0 0,-0.07031 0.07031,0 0,-0.140625 0.07031,0 0,-13.355468 -16.771484,0 z" />
    </clipPath>
    <clipPath
       id="clipWmfPath44"
       clipPathUnits="userSpaceOnUse">
      <path
         id="path136"
         d="m 29.527344,23.775391 0,13.146484 0.07031,0 0,0.208984 0.07031,0 0,0.140625 0.07031,0 0,0.07031 0.07031,0 0,0.06836 0.07031,0 0,0.07031 0.07227,0 0,0.07031 0.07031,0 0,0.07031 0.140625,0 0,0.07031 0.07031,0 0,0.06836 0.140625,0 0,0.07031 0.140625,0 0,0.07031 0.140625,0 0,0.07031 0.140625,0 0,0.07031 0.142578,0 0,0.06836 0.210938,0 0,0.07031 0.28125,0 0,0.07031 0.210937,0 0,0.07031 0.212891,0 0,0.07031 0.210937,0 0,0.06836 0.351563,0 0,0.07031 0.283203,0 0,0.07031 0.351562,0 0,0.07031 -3.523437,0 0,0.349609 16.771484,0 0,-0.349609 -3.453125,0 0,-0.07031 0.353516,0 0,-0.07031 0.351562,0 0,-0.07031 0.28125,0 0,-0.06836 0.212891,0 0,-0.07031 0.28125,0 0,-0.07031 0.210937,0 0,-0.07031 0.212891,0 0,-0.07031 0.210938,0 0,-0.06836 0.140624,0 0,-0.07031 0.210938,0 0,-0.07031 0.140625,0 0,-0.07031 0.07031,0 0,-0.07031 0.142578,0 0,-0.06836 0.140625,0 0,-0.07031 0.07031,0 0,-0.07031 0.07031,0 0,-0.07031 0.07031,0 0,-0.07031 0.07031,0 0,-0.06836 0.07031,0 0,-0.07031 0.07031,0 0,-0.140625 0.07031,0 0,-13.355468 -16.771484,0 z" />
    </clipPath>
    <clipPath
       id="clipWmfPath45"
       clipPathUnits="userSpaceOnUse">
      <path
         id="path139"
         d="m 29.527344,23.775391 0,13.146484 0.07031,0 0,0.208984 0.07031,0 0,0.140625 0.07031,0 0,0.07031 0.07031,0 0,0.06836 0.07031,0 0,0.07031 0.07227,0 0,0.07031 0.07031,0 0,0.07031 0.140625,0 0,0.07031 0.07031,0 0,0.06836 0.140625,0 0,0.07031 0.140625,0 0,0.07031 0.140625,0 0,0.07031 0.140625,0 0,0.07031 0.142578,0 0,0.06836 0.210938,0 0,0.07031 0.28125,0 0,0.07031 0.210937,0 0,0.07031 0.212891,0 0,0.07031 0.210937,0 0,0.06836 0.351563,0 0,0.07031 0.283203,0 0,0.07031 0.351562,0 0,0.07031 0.423828,0 0,0.07031 -3.947265,0 0,0.279297 16.771484,0 0,-0.349609 -3.453125,0 0,-0.07031 0.353516,0 0,-0.07031 0.351562,0 0,-0.07031 0.28125,0 0,-0.06836 0.212891,0 0,-0.07031 0.28125,0 0,-0.07031 0.210937,0 0,-0.07031 0.212891,0 0,-0.07031 0.210938,0 0,-0.06836 0.140624,0 0,-0.07031 0.210938,0 0,-0.07031 0.140625,0 0,-0.07031 0.07031,0 0,-0.07031 0.142578,0 0,-0.06836 0.140625,0 0,-0.07031 0.07031,0 0,-0.07031 0.07031,0 0,-0.07031 0.07031,0 0,-0.07031 0.07031,0 0,-0.06836 0.07031,0 0,-0.07031 0.07031,0 0,-0.140625 0.07031,0 0,-13.355468 -16.771484,0 z" />
    </clipPath>
    <clipPath
       id="clipWmfPath46"
       clipPathUnits="userSpaceOnUse">
      <path
         id="path142"
         d="m 29.527344,23.775391 0,13.146484 0.07031,0 0,0.208984 0.07031,0 0,0.140625 0.07031,0 0,0.07031 0.07031,0 0,0.06836 0.07031,0 0,0.07031 0.07227,0 0,0.07031 0.07031,0 0,0.07031 0.140625,0 0,0.07031 0.07031,0 0,0.06836 0.140625,0 0,0.07031 0.140625,0 0,0.07031 0.140625,0 0,0.07031 0.140625,0 0,0.07031 0.142578,0 0,0.06836 0.210938,0 0,0.07031 0.28125,0 0,0.07031 0.210937,0 0,0.07031 0.212891,0 0,0.07031 0.210937,0 0,0.06836 0.351563,0 0,0.07031 0.283203,0 0,0.07031 0.351562,0 0,0.07031 0.423828,0 0,0.07031 -3.947265,0 0,0.279297 16.771484,0 0,-0.279297 -3.804687,0 0,-0.07031 0.351562,0 0,-0.07031 0.353516,0 0,-0.07031 0.351562,0 0,-0.07031 0.28125,0 0,-0.06836 0.212891,0 0,-0.07031 0.28125,0 0,-0.07031 0.210937,0 0,-0.07031 0.212891,0 0,-0.07031 0.210938,0 0,-0.06836 0.140624,0 0,-0.07031 0.210938,0 0,-0.07031 0.140625,0 0,-0.07031 0.07031,0 0,-0.07031 0.142578,0 0,-0.06836 0.140625,0 0,-0.07031 0.07031,0 0,-0.07031 0.07031,0 0,-0.07031 0.07031,0 0,-0.07031 0.07031,0 0,-0.06836 0.07031,0 0,-0.07031 0.07031,0 0,-0.140625 0.07031,0 0,-13.355468 -16.771484,0 z" />
    </clipPath>
    <clipPath
       id="clipWmfPath47"
       clipPathUnits="userSpaceOnUse">
      <path
         id="path145"
         d="m 29.527344,23.775391 0,13.146484 0.07031,0 0,0.208984 0.07031,0 0,0.140625 0.07031,0 0,0.07031 0.07031,0 0,0.06836 0.07031,0 0,0.07031 0.07227,0 0,0.07031 0.07031,0 0,0.07031 0.140625,0 0,0.07031 0.07031,0 0,0.06836 0.140625,0 0,0.07031 0.140625,0 0,0.07031 0.140625,0 0,0.07031 0.140625,0 0,0.07031 0.142578,0 0,0.06836 0.210938,0 0,0.07031 0.28125,0 0,0.07031 0.210937,0 0,0.07031 0.212891,0 0,0.07031 0.210937,0 0,0.06836 0.351563,0 0,0.07031 0.283203,0 0,0.07031 0.351562,0 0,0.07031 0.423828,0 0,0.07031 0.492188,0 0,0.06836 -4.439453,0 0,0.210937 16.771484,0 0,-0.279297 -3.804687,0 0,-0.07031 0.351562,0 0,-0.07031 0.353516,0 0,-0.07031 0.351562,0 0,-0.07031 0.28125,0 0,-0.06836 0.212891,0 0,-0.07031 0.28125,0 0,-0.07031 0.210937,0 0,-0.07031 0.212891,0 0,-0.07031 0.210938,0 0,-0.06836 0.140624,0 0,-0.07031 0.210938,0 0,-0.07031 0.140625,0 0,-0.07031 0.07031,0 0,-0.07031 0.142578,0 0,-0.06836 0.140625,0 0,-0.07031 0.07031,0 0,-0.07031 0.07031,0 0,-0.07031 0.07031,0 0,-0.07031 0.07031,0 0,-0.06836 0.07031,0 0,-0.07031 0.07031,0 0,-0.140625 0.07031,0 0,-13.355468 -16.771484,0 z" />
    </clipPath>
    <clipPath
       id="clipWmfPath48"
       clipPathUnits="userSpaceOnUse">
      <path
         id="path148"
         d="m 29.527344,23.775391 0,13.146484 0.07031,0 0,0.208984 0.07031,0 0,0.140625 0.07031,0 0,0.07031 0.07031,0 0,0.06836 0.07031,0 0,0.07031 0.07227,0 0,0.07031 0.07031,0 0,0.07031 0.140625,0 0,0.07031 0.07031,0 0,0.06836 0.140625,0 0,0.07031 0.140625,0 0,0.07031 0.140625,0 0,0.07031 0.140625,0 0,0.07031 0.142578,0 0,0.06836 0.210938,0 0,0.07031 0.28125,0 0,0.07031 0.210937,0 0,0.07031 0.212891,0 0,0.07031 0.210937,0 0,0.06836 0.351563,0 0,0.07031 0.283203,0 0,0.07031 0.351562,0 0,0.07031 0.423828,0 0,0.07031 0.492188,0 0,0.06836 -4.439453,0 0,0.210937 16.771484,0 0,-0.210937 -4.298828,0 0,-0.06836 0.494141,0 0,-0.07031 0.351562,0 0,-0.07031 0.353516,0 0,-0.07031 0.351562,0 0,-0.07031 0.28125,0 0,-0.06836 0.212891,0 0,-0.07031 0.28125,0 0,-0.07031 0.210937,0 0,-0.07031 0.212891,0 0,-0.07031 0.210938,0 0,-0.06836 0.140624,0 0,-0.07031 0.210938,0 0,-0.07031 0.140625,0 0,-0.07031 0.07031,0 0,-0.07031 0.142578,0 0,-0.06836 0.140625,0 0,-0.07031 0.07031,0 0,-0.07031 0.07031,0 0,-0.07031 0.07031,0 0,-0.07031 0.07031,0 0,-0.06836 0.07031,0 0,-0.07031 0.07031,0 0,-0.140625 0.07031,0 0,-13.355468 -16.771484,0 z" />
    </clipPath>
    <clipPath
       id="clipWmfPath49"
       clipPathUnits="userSpaceOnUse">
      <path
         id="path151"
         d="m 29.527344,23.775391 0,13.146484 0.07031,0 0,0.208984 0.07031,0 0,0.140625 0.07031,0 0,0.07031 0.07031,0 0,0.06836 0.07031,0 0,0.07031 0.07227,0 0,0.07031 0.07031,0 0,0.07031 0.140625,0 0,0.07031 0.07031,0 0,0.06836 0.140625,0 0,0.07031 0.140625,0 0,0.07031 0.140625,0 0,0.07031 0.140625,0 0,0.07031 0.142578,0 0,0.06836 0.210938,0 0,0.07031 0.28125,0 0,0.07031 0.210937,0 0,0.07031 0.212891,0 0,0.07031 0.210937,0 0,0.06836 0.351563,0 0,0.07031 0.283203,0 0,0.07031 0.351562,0 0,0.07031 0.423828,0 0,0.07031 0.492188,0 0,0.06836 0.494141,0 0,0.07031 -4.933594,0 0,0.140625 16.771484,0 0,-0.210937 -4.298828,0 0,-0.06836 0.494141,0 0,-0.07031 0.351562,0 0,-0.07031 0.353516,0 0,-0.07031 0.351562,0 0,-0.07031 0.28125,0 0,-0.06836 0.212891,0 0,-0.07031 0.28125,0 0,-0.07031 0.210937,0 0,-0.07031 0.212891,0 0,-0.07031 0.210938,0 0,-0.06836 0.140624,0 0,-0.07031 0.210938,0 0,-0.07031 0.140625,0 0,-0.07031 0.07031,0 0,-0.07031 0.142578,0 0,-0.06836 0.140625,0 0,-0.07031 0.07031,0 0,-0.07031 0.07031,0 0,-0.07031 0.07031,0 0,-0.07031 0.07031,0 0,-0.06836 0.07031,0 0,-0.07031 0.07031,0 0,-0.140625 0.07031,0 0,-13.355468 -16.771484,0 z" />
    </clipPath>
    <clipPath
       id="clipWmfPath50"
       clipPathUnits="userSpaceOnUse">
      <path
         id="path154"
         d="m 29.527344,23.775391 0,13.146484 0.07031,0 0,0.208984 0.07031,0 0,0.140625 0.07031,0 0,0.07031 0.07031,0 0,0.06836 0.07031,0 0,0.07031 0.07227,0 0,0.07031 0.07031,0 0,0.07031 0.140625,0 0,0.07031 0.07031,0 0,0.06836 0.140625,0 0,0.07031 0.140625,0 0,0.07031 0.140625,0 0,0.07031 0.140625,0 0,0.07031 0.142578,0 0,0.06836 0.210938,0 0,0.07031 0.28125,0 0,0.07031 0.210937,0 0,0.07031 0.212891,0 0,0.07031 0.210937,0 0,0.06836 0.351563,0 0,0.07031 0.283203,0 0,0.07031 0.351562,0 0,0.07031 0.423828,0 0,0.07031 0.492188,0 0,0.06836 0.494141,0 0,0.07031 -4.933594,0 0,0.140625 16.771484,0 0,-0.140625 -4.791016,0 0,-0.07031 0.492188,0 0,-0.06836 0.494141,0 0,-0.07031 0.351562,0 0,-0.07031 0.353516,0 0,-0.07031 0.351562,0 0,-0.07031 0.28125,0 0,-0.06836 0.212891,0 0,-0.07031 0.28125,0 0,-0.07031 0.210937,0 0,-0.07031 0.212891,0 0,-0.07031 0.210938,0 0,-0.06836 0.140624,0 0,-0.07031 0.210938,0 0,-0.07031 0.140625,0 0,-0.07031 0.07031,0 0,-0.07031 0.142578,0 0,-0.06836 0.140625,0 0,-0.07031 0.07031,0 0,-0.07031 0.07031,0 0,-0.07031 0.07031,0 0,-0.07031 0.07031,0 0,-0.06836 0.07031,0 0,-0.07031 0.07031,0 0,-0.140625 0.07031,0 0,-13.355468 -16.771484,0 z" />
    </clipPath>
    <clipPath
       id="clipWmfPath51"
       clipPathUnits="userSpaceOnUse">
      <path
         id="path157"
         d="m 29.527344,23.775391 0,13.146484 0.07031,0 0,0.208984 0.07031,0 0,0.140625 0.07031,0 0,0.07031 0.07031,0 0,0.06836 0.07031,0 0,0.07031 0.07227,0 0,0.07031 0.07031,0 0,0.07031 0.140625,0 0,0.07031 0.07031,0 0,0.06836 0.140625,0 0,0.07031 0.140625,0 0,0.07031 0.140625,0 0,0.07031 0.140625,0 0,0.07031 0.142578,0 0,0.06836 0.210938,0 0,0.07031 0.28125,0 0,0.07031 0.210937,0 0,0.07031 0.212891,0 0,0.07031 0.210937,0 0,0.06836 0.351563,0 0,0.07031 0.283203,0 0,0.07031 0.351562,0 0,0.07031 0.423828,0 0,0.07031 0.492188,0 0,0.06836 0.494141,0 0,0.07031 0.632812,0 0,0.07031 -5.566406,0 0,0.07031 16.771484,0 0,-0.140625 -4.791016,0 0,-0.07031 0.492188,0 0,-0.06836 0.494141,0 0,-0.07031 0.351562,0 0,-0.07031 0.353516,0 0,-0.07031 0.351562,0 0,-0.07031 0.28125,0 0,-0.06836 0.212891,0 0,-0.07031 0.28125,0 0,-0.07031 0.210937,0 0,-0.07031 0.212891,0 0,-0.07031 0.210938,0 0,-0.06836 0.140624,0 0,-0.07031 0.210938,0 0,-0.07031 0.140625,0 0,-0.07031 0.07031,0 0,-0.07031 0.142578,0 0,-0.06836 0.140625,0 0,-0.07031 0.07031,0 0,-0.07031 0.07031,0 0,-0.07031 0.07031,0 0,-0.07031 0.07031,0 0,-0.06836 0.07031,0 0,-0.07031 0.07031,0 0,-0.140625 0.07031,0 0,-13.355468 -16.771484,0 z" />
    </clipPath>
    <clipPath
       id="clipWmfPath52"
       clipPathUnits="userSpaceOnUse">
      <path
         id="path160"
         d="m 29.527344,23.775391 0,13.146484 0.07031,0 0,0.208984 0.07031,0 0,0.140625 0.07031,0 0,0.07031 0.07031,0 0,0.06836 0.07031,0 0,0.07031 0.07227,0 0,0.07031 0.07031,0 0,0.07031 0.140625,0 0,0.07031 0.07031,0 0,0.06836 0.140625,0 0,0.07031 0.140625,0 0,0.07031 0.140625,0 0,0.07031 0.140625,0 0,0.07031 0.142578,0 0,0.06836 0.210938,0 0,0.07031 0.28125,0 0,0.07031 0.210937,0 0,0.07031 0.212891,0 0,0.07031 0.210937,0 0,0.06836 0.351563,0 0,0.07031 0.283203,0 0,0.07031 0.351562,0 0,0.07031 0.423828,0 0,0.07031 0.492188,0 0,0.06836 0.494141,0 0,0.07031 0.632812,0 0,0.07031 -5.566406,0 0,0.07031 16.771484,0 0,-0.07031 -5.425781,0 0,-0.07031 0.634765,0 0,-0.07031 0.492188,0 0,-0.06836 0.494141,0 0,-0.07031 0.351562,0 0,-0.07031 0.353516,0 0,-0.07031 0.351562,0 0,-0.07031 0.28125,0 0,-0.06836 0.212891,0 0,-0.07031 0.28125,0 0,-0.07031 0.210937,0 0,-0.07031 0.212891,0 0,-0.07031 0.210938,0 0,-0.06836 0.140624,0 0,-0.07031 0.210938,0 0,-0.07031 0.140625,0 0,-0.07031 0.07031,0 0,-0.07031 0.142578,0 0,-0.06836 0.140625,0 0,-0.07031 0.07031,0 0,-0.07031 0.07031,0 0,-0.07031 0.07031,0 0,-0.07031 0.07031,0 0,-0.06836 0.07031,0 0,-0.07031 0.07031,0 0,-0.140625 0.07031,0 0,-13.355468 -16.771484,0 z" />
    </clipPath>
    <clipPath
       id="clipWmfPath53"
       clipPathUnits="userSpaceOnUse">
      <path
         id="path163"
         d="m 29.527344,23.775391 0,13.146484 0.07031,0 0,0.208984 0.07031,0 0,0.140625 0.07031,0 0,0.07031 0.07031,0 0,0.06836 0.07031,0 0,0.07031 0.07227,0 0,0.07031 0.07031,0 0,0.07031 0.140625,0 0,0.07031 0.07031,0 0,0.06836 0.140625,0 0,0.07031 0.140625,0 0,0.07031 0.140625,0 0,0.07031 0.140625,0 0,0.07031 0.142578,0 0,0.06836 0.210938,0 0,0.07031 0.28125,0 0,0.07031 0.210937,0 0,0.07031 0.212891,0 0,0.07031 0.210937,0 0,0.06836 0.351563,0 0,0.07031 0.283203,0 0,0.07031 0.351562,0 0,0.07031 0.423828,0 0,0.07031 0.492188,0 0,0.06836 0.494141,0 0,0.07031 0.632812,0 0,0.07031 0.845703,0 0,0.07031 10.359375,0 0,-0.07031 -5.425781,0 0,-0.07031 0.634765,0 0,-0.07031 0.492188,0 0,-0.06836 0.494141,0 0,-0.07031 0.351562,0 0,-0.07031 0.353516,0 0,-0.07031 0.351562,0 0,-0.07031 0.28125,0 0,-0.06836 0.212891,0 0,-0.07031 0.28125,0 0,-0.07031 0.210937,0 0,-0.07031 0.212891,0 0,-0.07031 0.210938,0 0,-0.06836 0.140624,0 0,-0.07031 0.210938,0 0,-0.07031 0.140625,0 0,-0.07031 0.07031,0 0,-0.07031 0.142578,0 0,-0.06836 0.140625,0 0,-0.07031 0.07031,0 0,-0.07031 0.07031,0 0,-0.07031 0.07031,0 0,-0.07031 0.07031,0 0,-0.06836 0.07031,0 0,-0.07031 0.07031,0 0,-0.140625 0.07031,0 0,-13.355468 -16.771484,0 z" />
    </clipPath>
    <clipPath
       id="clipWmfPath54"
       clipPathUnits="userSpaceOnUse">
      <path
         id="path166"
         d="m 29.527344,23.775391 0,13.146484 0.07031,0 0,0.208984 0.07031,0 0,0.140625 0.07031,0 0,0.07031 0.07031,0 0,0.06836 0.07031,0 0,0.07031 0.07227,0 0,0.07031 0.07031,0 0,0.07031 0.140625,0 0,0.07031 0.07031,0 0,0.06836 0.140625,0 0,0.07031 0.140625,0 0,0.07031 0.140625,0 0,0.07031 0.140625,0 0,0.07031 0.142578,0 0,0.06836 0.210938,0 0,0.07031 0.28125,0 0,0.07031 0.210937,0 0,0.07031 0.212891,0 0,0.07031 0.210937,0 0,0.06836 0.351563,0 0,0.07031 0.283203,0 0,0.07031 0.351562,0 0,0.07031 0.423828,0 0,0.07031 0.492188,0 0,0.06836 0.494141,0 0,0.07031 0.632812,0 0,0.07031 0.845703,0 0,0.07031 4.017578,0 0,-0.07031 0.916016,0 0,-0.07031 0.634765,0 0,-0.07031 0.492188,0 0,-0.06836 0.494141,0 0,-0.07031 0.351562,0 0,-0.07031 0.353516,0 0,-0.07031 0.351562,0 0,-0.07031 0.28125,0 0,-0.06836 0.212891,0 0,-0.07031 0.28125,0 0,-0.07031 0.210937,0 0,-0.07031 0.212891,0 0,-0.07031 0.210938,0 0,-0.06836 0.140624,0 0,-0.07031 0.210938,0 0,-0.07031 0.140625,0 0,-0.07031 0.07031,0 0,-0.07031 0.142578,0 0,-0.06836 0.140625,0 0,-0.07031 0.07031,0 0,-0.07031 0.07031,0 0,-0.07031 0.07031,0 0,-0.07031 0.07031,0 0,-0.06836 0.07031,0 0,-0.07031 0.07031,0 0,-0.140625 0.07031,0 0,-13.355468 -16.771484,0 z" />
    </clipPath>
    <pattern
       y="0"
       x="0"
       height="6"
       width="6"
       patternUnits="userSpaceOnUse"
       id="WMFhbasepattern" />
  </defs>
  <path
     id="path169"
     d="m 0.43754527,0.43416784 0,12.53165716 20.52490473,0 0,-12.53165716 -20.52490473,0 z"
     style="fill:#ccffcc;fill-opacity:1;fill-rule:evenodd;stroke:none" />
  <path
     id="path171"
     d="m 0.43754527,12.965825 20.52490473,0 0,-12.53165716 -20.52490473,0 0,12.53165716 z"
     style="fill:none;stroke:#000000;stroke-width:0.0795539px;stroke-linecap:round;stroke-linejoin:round;stroke-miterlimit:4;stroke-dasharray:none;stroke-opacity:1" />
  <path
     id="path173"
     d="m 3.5998001,4.3416784 14.2003779,0"
     style="fill:none;stroke:#808080;stroke-width:0.2585502px;stroke-linecap:round;stroke-linejoin:round;stroke-miterlimit:4;stroke-dasharray:none;stroke-opacity:1" />
  <path
     id="path175"
     d="m 17.800178,4.3416784 -1.173423,0.5920458 0,-1.1643642 1.173423,0.5723184 z"
     style="fill:#808080;fill-opacity:1;fill-rule:evenodd;stroke:none" />
  <path
     id="path177"
     d="m 17.800178,4.3416784 -1.173423,0.5920458 0,-1.1643642 1.173423,0.5723184 z"
     style="fill:none;stroke:#808080;stroke-width:0.2585502px;stroke-linecap:round;stroke-linejoin:round;stroke-miterlimit:4;stroke-dasharray:none;stroke-opacity:1" />
  <path
     transform="matrix(0.28222222,0,0,0.28222222,-7.7275411e-7,0)"
     id="path179"
     d="m 29.3864,23.6353 0,15.4538 0.2114,0 0,-15.4538 -0.2114,0 z"
     clip-path="url(#clipWmfPath54)"
     style="fill:#4e4e4e;fill-opacity:1;fill-rule:evenodd;stroke:none" />
  <path
     transform="matrix(0.28222222,0,0,0.28222222,-7.7275411e-7,0)"
     id="path181"
     d="m 29.5978,23.6353 0,15.4538 0.0705,0 0,-15.4538 -0.0705,0 z"
     clip-path="url(#clipWmfPath54)"
     style="fill:#505050;fill-opacity:1;fill-rule:evenodd;stroke:none" />
  <path
     transform="matrix(0.28222222,0,0,0.28222222,-7.7275411e-7,0)"
     id="path183"
     d="m 29.6683,23.6353 0,15.4538 0.1409,0 0,-15.4538 -0.1409,0 z"
     clip-path="url(#clipWmfPath54)"
     style="fill:#525252;fill-opacity:1;fill-rule:evenodd;stroke:none" />
  <path
     transform="matrix(0.28222222,0,0,0.28222222,-7.7275411e-7,0)"
     id="path185"
     d="m 29.8092,23.6353 0,15.4538 0.141,0 0,-15.4538 -0.141,0 z"
     clip-path="url(#clipWmfPath54)"
     style="fill:#555555;fill-opacity:1;fill-rule:evenodd;stroke:none" />
  <path
     transform="matrix(0.28222222,0,0,0.28222222,-7.7275411e-7,0)"
     id="path187"
     d="m 29.9502,23.6353 0,15.4538 0.0704,0 0,-15.4538 -0.0704,0 z"
     clip-path="url(#clipWmfPath54)"
     style="fill:#575757;fill-opacity:1;fill-rule:evenodd;stroke:none" />
  <path
     transform="matrix(0.28222222,0,0,0.28222222,-7.7275411e-7,0)"
     id="path189"
     d="m 30.0206,23.6353 0,15.4538 0.141,0 0,-15.4538 -0.141,0 z"
     clip-path="url(#clipWmfPath54)"
     style="fill:#595959;fill-opacity:1;fill-rule:evenodd;stroke:none" />
  <path
     transform="matrix(0.28222222,0,0,0.28222222,-7.7275411e-7,0)"
     id="path191"
     d="m 30.1616,23.6353 0,15.4538 0.1409,0 0,-15.4538 -0.1409,0 z"
     clip-path="url(#clipWmfPath54)"
     style="fill:#5c5c5c;fill-opacity:1;fill-rule:evenodd;stroke:none" />
  <path
     transform="matrix(0.28222222,0,0,0.28222222,-7.7275411e-7,0)"
     id="path193"
     d="m 30.3025,23.6353 0,15.4538 0.141,0 0,-15.4538 -0.141,0 z"
     clip-path="url(#clipWmfPath54)"
     style="fill:#5f5f5f;fill-opacity:1;fill-rule:evenodd;stroke:none" />
  <path
     transform="matrix(0.28222222,0,0,0.28222222,-7.7275411e-7,0)"
     id="path195"
     d="m 30.4435,23.6353 0,15.4538 0.1409,0 0,-15.4538 -0.1409,0 z"
     clip-path="url(#clipWmfPath54)"
     style="fill:#626262;fill-opacity:1;fill-rule:evenodd;stroke:none" />
  <path
     transform="matrix(0.28222222,0,0,0.28222222,-7.7275411e-7,0)"
     id="path197"
     d="m 30.5844,23.6353 0,15.4538 0.1409,0 0,-15.4538 -0.1409,0 z"
     clip-path="url(#clipWmfPath54)"
     style="fill:#656565;fill-opacity:1;fill-rule:evenodd;stroke:none" />
  <path
     transform="matrix(0.28222222,0,0,0.28222222,-7.7275411e-7,0)"
     id="path199"
     d="m 30.7253,23.6353 0,15.4538 0.141,0 0,-15.4538 -0.141,0 z"
     clip-path="url(#clipWmfPath54)"
     style="fill:#686868;fill-opacity:1;fill-rule:evenodd;stroke:none" />
  <path
     transform="matrix(0.28222222,0,0,0.28222222,-7.7275411e-7,0)"
     id="path201"
     d="m 30.8663,23.6353 0,15.4538 0.1409,0 0,-15.4538 -0.1409,0 z"
     clip-path="url(#clipWmfPath54)"
     style="fill:#6b6b6b;fill-opacity:1;fill-rule:evenodd;stroke:none" />
  <path
     transform="matrix(0.28222222,0,0,0.28222222,-7.7275411e-7,0)"
     id="path203"
     d="m 31.0072,23.6353 0,15.4538 0.141,0 0,-15.4538 -0.141,0 z"
     clip-path="url(#clipWmfPath54)"
     style="fill:#6e6e6e;fill-opacity:1;fill-rule:evenodd;stroke:none" />
  <path
     transform="matrix(0.28222222,0,0,0.28222222,-7.7275411e-7,0)"
     id="path205"
     d="m 31.1482,23.6353 0,15.4538 0.0704,0 0,-15.4538 -0.0704,0 z"
     clip-path="url(#clipWmfPath54)"
     style="fill:#717171;fill-opacity:1;fill-rule:evenodd;stroke:none" />
  <path
     transform="matrix(0.28222222,0,0,0.28222222,-7.7275411e-7,0)"
     id="path207"
     d="m 31.2186,23.6353 0,15.4538 0.141,0 0,-15.4538 -0.141,0 z"
     clip-path="url(#clipWmfPath54)"
     style="fill:#737373;fill-opacity:1;fill-rule:evenodd;stroke:none" />
  <path
     transform="matrix(0.28222222,0,0,0.28222222,-7.7275411e-7,0)"
     id="path209"
     d="m 31.3596,23.6353 0,15.4538 0.1409,0 0,-15.4538 -0.1409,0 z"
     clip-path="url(#clipWmfPath54)"
     style="fill:#767676;fill-opacity:1;fill-rule:evenodd;stroke:none" />
  <path
     transform="matrix(0.28222222,0,0,0.28222222,-7.7275411e-7,0)"
     id="path211"
     d="m 31.5005,23.6353 0,15.4538 0.141,0 0,-15.4538 -0.141,0 z"
     clip-path="url(#clipWmfPath54)"
     style="fill:#797979;fill-opacity:1;fill-rule:evenodd;stroke:none" />
  <path
     transform="matrix(0.28222222,0,0,0.28222222,-7.7275411e-7,0)"
     id="path213"
     d="m 31.6415,23.6353 0,15.4538 0.1409,0 0,-15.4538 -0.1409,0 z"
     clip-path="url(#clipWmfPath54)"
     style="fill:#7c7c7c;fill-opacity:1;fill-rule:evenodd;stroke:none" />
  <path
     transform="matrix(0.28222222,0,0,0.28222222,-7.7275411e-7,0)"
     id="path215"
     d="m 31.7824,23.6353 0,15.4538 0.141,0 0,-15.4538 -0.141,0 z"
     clip-path="url(#clipWmfPath54)"
     style="fill:#7f7f7f;fill-opacity:1;fill-rule:evenodd;stroke:none" />
  <path
     transform="matrix(0.28222222,0,0,0.28222222,-7.7275411e-7,0)"
     id="path217"
     d="m 31.9234,23.6353 0,15.4538 0.0704,0 0,-15.4538 -0.0704,0 z"
     clip-path="url(#clipWmfPath54)"
     style="fill:#818181;fill-opacity:1;fill-rule:evenodd;stroke:none" />
  <path
     transform="matrix(0.28222222,0,0,0.28222222,-7.7275411e-7,0)"
     id="path219"
     d="m 31.9938,23.6353 0,15.4538 0.141,0 0,-15.4538 -0.141,0 z"
     clip-path="url(#clipWmfPath54)"
     style="fill:#838383;fill-opacity:1;fill-rule:evenodd;stroke:none" />
  <path
     transform="matrix(0.28222222,0,0,0.28222222,-7.7275411e-7,0)"
     id="path221"
     d="m 32.1348,23.6353 0,15.4538 0.1409,0 0,-15.4538 -0.1409,0 z"
     clip-path="url(#clipWmfPath54)"
     style="fill:#868686;fill-opacity:1;fill-rule:evenodd;stroke:none" />
  <path
     transform="matrix(0.28222222,0,0,0.28222222,-7.7275411e-7,0)"
     id="path223"
     d="m 32.2757,23.6353 0,15.4538 0.1409,0 0,-15.4538 -0.1409,0 z"
     clip-path="url(#clipWmfPath54)"
     style="fill:#898989;fill-opacity:1;fill-rule:evenodd;stroke:none" />
  <path
     transform="matrix(0.28222222,0,0,0.28222222,-7.7275411e-7,0)"
     id="path225"
     d="m 32.4166,23.6353 0,15.4538 0.141,0 0,-15.4538 -0.141,0 z"
     clip-path="url(#clipWmfPath54)"
     style="fill:#8c8c8c;fill-opacity:1;fill-rule:evenodd;stroke:none" />
  <path
     transform="matrix(0.28222222,0,0,0.28222222,-7.7275411e-7,0)"
     id="path227"
     d="m 32.5576,23.6353 0,15.4538 0.1409,0 0,-15.4538 -0.1409,0 z"
     clip-path="url(#clipWmfPath54)"
     style="fill:#8f8f8f;fill-opacity:1;fill-rule:evenodd;stroke:none" />
  <path
     transform="matrix(0.28222222,0,0,0.28222222,-7.7275411e-7,0)"
     id="path229"
     d="m 32.6985,23.6353 0,15.4538 0.141,0 0,-15.4538 -0.141,0 z"
     clip-path="url(#clipWmfPath54)"
     style="fill:#929292;fill-opacity:1;fill-rule:evenodd;stroke:none" />
  <path
     transform="matrix(0.28222222,0,0,0.28222222,-7.7275411e-7,0)"
     id="path231"
     d="m 32.8395,23.6353 0,15.4538 0.1409,0 0,-15.4538 -0.1409,0 z"
     clip-path="url(#clipWmfPath54)"
     style="fill:#959595;fill-opacity:1;fill-rule:evenodd;stroke:none" />
  <path
     transform="matrix(0.28222222,0,0,0.28222222,-7.7275411e-7,0)"
     id="path233"
     d="m 32.9804,23.6353 0,15.4538 0.0705,0 0,-15.4538 -0.0705,0 z"
     clip-path="url(#clipWmfPath54)"
     style="fill:#979797;fill-opacity:1;fill-rule:evenodd;stroke:none" />
  <path
     transform="matrix(0.28222222,0,0,0.28222222,-7.7275411e-7,0)"
     id="path235"
     d="m 33.0509,23.6353 0,15.4538 0.1409,0 0,-15.4538 -0.1409,0 z"
     clip-path="url(#clipWmfPath54)"
     style="fill:#999999;fill-opacity:1;fill-rule:evenodd;stroke:none" />
  <path
     transform="matrix(0.28222222,0,0,0.28222222,-7.7275411e-7,0)"
     id="path237"
     d="m 33.1918,23.6353 0,15.4538 0.141,0 0,-15.4538 -0.141,0 z"
     clip-path="url(#clipWmfPath54)"
     style="fill:#9c9c9c;fill-opacity:1;fill-rule:evenodd;stroke:none" />
  <path
     transform="matrix(0.28222222,0,0,0.28222222,-7.7275411e-7,0)"
     id="path239"
     d="m 33.3328,23.6353 0,15.4538 0.1409,0 0,-15.4538 -0.1409,0 z"
     clip-path="url(#clipWmfPath54)"
     style="fill:#9f9f9f;fill-opacity:1;fill-rule:evenodd;stroke:none" />
  <path
     transform="matrix(0.28222222,0,0,0.28222222,-7.7275411e-7,0)"
     id="path241"
     d="m 33.4737,23.6353 0,15.4538 0.141,0 0,-15.4538 -0.141,0 z"
     clip-path="url(#clipWmfPath54)"
     style="fill:#a2a2a2;fill-opacity:1;fill-rule:evenodd;stroke:none" />
  <path
     transform="matrix(0.28222222,0,0,0.28222222,-7.7275411e-7,0)"
     id="path243"
     d="m 33.6147,23.6353 0,15.4538 0.1409,0 0,-15.4538 -0.1409,0 z"
     clip-path="url(#clipWmfPath54)"
     style="fill:#a5a5a5;fill-opacity:1;fill-rule:evenodd;stroke:none" />
  <path
     transform="matrix(0.28222222,0,0,0.28222222,-7.7275411e-7,0)"
     id="path245"
     d="m 33.7556,23.6353 0,15.4538 0.1409,0 0,-15.4538 -0.1409,0 z"
     clip-path="url(#clipWmfPath54)"
     style="fill:#a8a8a8;fill-opacity:1;fill-rule:evenodd;stroke:none" />
  <path
     transform="matrix(0.28222222,0,0,0.28222222,-7.7275411e-7,0)"
     id="path247"
     d="m 33.8965,23.6353 0,15.4538 0.141,0 0,-15.4538 -0.141,0 z"
     clip-path="url(#clipWmfPath54)"
     style="fill:#ababab;fill-opacity:1;fill-rule:evenodd;stroke:none" />
  <path
     transform="matrix(0.28222222,0,0,0.28222222,-7.7275411e-7,0)"
     id="path249"
     d="m 34.0375,23.6353 0,15.4538 0.0705,0 0,-15.4538 -0.0705,0 z"
     clip-path="url(#clipWmfPath54)"
     style="fill:#adadad;fill-opacity:1;fill-rule:evenodd;stroke:none" />
  <path
     transform="matrix(0.28222222,0,0,0.28222222,-7.7275411e-7,0)"
     id="path251"
     d="m 34.108,23.6353 0,15.4538 0.1409,0 0,-15.4538 -0.1409,0 z"
     clip-path="url(#clipWmfPath54)"
     style="fill:#afafaf;fill-opacity:1;fill-rule:evenodd;stroke:none" />
  <path
     transform="matrix(0.28222222,0,0,0.28222222,-7.7275411e-7,0)"
     id="path253"
     d="m 34.2489,23.6353 0,15.4538 0.1409,0 0,-15.4538 -0.1409,0 z"
     clip-path="url(#clipWmfPath54)"
     style="fill:#b2b2b2;fill-opacity:1;fill-rule:evenodd;stroke:none" />
  <path
     transform="matrix(0.28222222,0,0,0.28222222,-7.7275411e-7,0)"
     id="path255"
     d="m 34.3898,23.6353 0,15.4538 0.141,0 0,-15.4538 -0.141,0 z"
     clip-path="url(#clipWmfPath54)"
     style="fill:#b5b5b5;fill-opacity:1;fill-rule:evenodd;stroke:none" />
  <path
     transform="matrix(0.28222222,0,0,0.28222222,-7.7275411e-7,0)"
     id="path257"
     d="m 34.5308,23.6353 0,15.4538 0.1409,0 0,-15.4538 -0.1409,0 z"
     clip-path="url(#clipWmfPath54)"
     style="fill:#b8b8b8;fill-opacity:1;fill-rule:evenodd;stroke:none" />
  <path
     transform="matrix(0.28222222,0,0,0.28222222,-7.7275411e-7,0)"
     id="path259"
     d="m 34.6717,23.6353 0,15.4538 0.141,0 0,-15.4538 -0.141,0 z"
     clip-path="url(#clipWmfPath54)"
     style="fill:#bbbbbb;fill-opacity:1;fill-rule:evenodd;stroke:none" />
  <path
     transform="matrix(0.28222222,0,0,0.28222222,-7.7275411e-7,0)"
     id="path261"
     d="m 34.8127,23.6353 0,15.4538 0.1409,0 0,-15.4538 -0.1409,0 z"
     clip-path="url(#clipWmfPath54)"
     style="fill:#bebebe;fill-opacity:1;fill-rule:evenodd;stroke:none" />
  <path
     transform="matrix(0.28222222,0,0,0.28222222,-7.7275411e-7,0)"
     id="path263"
     d="m 34.9536,23.6353 0,15.4538 0.1409,0 0,-15.4538 -0.1409,0 z"
     clip-path="url(#clipWmfPath54)"
     style="fill:#c1c1c1;fill-opacity:1;fill-rule:evenodd;stroke:none" />
  <path
     transform="matrix(0.28222222,0,0,0.28222222,-7.7275411e-7,0)"
     id="path265"
     d="m 35.0945,23.6353 0,15.4538 0.141,0 0,-15.4538 -0.141,0 z"
     clip-path="url(#clipWmfPath54)"
     style="fill:#c4c4c4;fill-opacity:1;fill-rule:evenodd;stroke:none" />
  <path
     transform="matrix(0.28222222,0,0,0.28222222,-7.7275411e-7,0)"
     id="path267"
     d="m 35.2355,23.6353 0,15.4538 0.1409,0 0,-15.4538 -0.1409,0 z"
     clip-path="url(#clipWmfPath54)"
     style="fill:#c7c7c7;fill-opacity:1;fill-rule:evenodd;stroke:none" />
  <path
     transform="matrix(0.28222222,0,0,0.28222222,-7.7275411e-7,0)"
     id="path269"
     d="m 35.3764,23.6353 0,15.4538 0.141,0 0,-15.4538 -0.141,0 z"
     clip-path="url(#clipWmfPath54)"
     style="fill:#cacaca;fill-opacity:1;fill-rule:evenodd;stroke:none" />
  <path
     transform="matrix(0.28222222,0,0,0.28222222,-7.7275411e-7,0)"
     id="path271"
     d="m 35.5174,23.6353 0,15.4538 0.0704,0 0,-15.4538 -0.0704,0 z"
     clip-path="url(#clipWmfPath54)"
     style="fill:#cdcdcd;fill-opacity:1;fill-rule:evenodd;stroke:none" />
  <path
     transform="matrix(0.28222222,0,0,0.28222222,-7.7275411e-7,0)"
     id="path273"
     d="m 35.5878,23.6353 0,15.4538 0.141,0 0,-15.4538 -0.141,0 z"
     clip-path="url(#clipWmfPath54)"
     style="fill:#cfcfcf;fill-opacity:1;fill-rule:evenodd;stroke:none" />
  <path
     transform="matrix(0.28222222,0,0,0.28222222,-7.7275411e-7,0)"
     id="path275"
     d="m 35.7288,23.6353 0,15.4538 0.1409,0 0,-15.4538 -0.1409,0 z"
     clip-path="url(#clipWmfPath54)"
     style="fill:#d2d2d2;fill-opacity:1;fill-rule:evenodd;stroke:none" />
  <path
     transform="matrix(0.28222222,0,0,0.28222222,-7.7275411e-7,0)"
     id="path277"
     d="m 35.8697,23.6353 0,15.4538 0.141,0 0,-15.4538 -0.141,0 z"
     clip-path="url(#clipWmfPath54)"
     style="fill:#d5d5d5;fill-opacity:1;fill-rule:evenodd;stroke:none" />
  <path
     transform="matrix(0.28222222,0,0,0.28222222,-7.7275411e-7,0)"
     id="path279"
     d="m 36.0107,23.6353 0,15.4538 0.1409,0 0,-15.4538 -0.1409,0 z"
     clip-path="url(#clipWmfPath54)"
     style="fill:#d8d8d8;fill-opacity:1;fill-rule:evenodd;stroke:none" />
  <path
     transform="matrix(0.28222222,0,0,0.28222222,-7.7275411e-7,0)"
     id="path281"
     d="m 36.1516,23.6353 0,15.4538 0.0705,0 0,-15.4538 -0.0705,0 z"
     clip-path="url(#clipWmfPath54)"
     style="fill:#dadada;fill-opacity:1;fill-rule:evenodd;stroke:none" />
  <path
     transform="matrix(0.28222222,0,0,0.28222222,-7.7275411e-7,0)"
     id="path283"
     d="m 36.2221,23.6353 0,15.4538 0.1409,0 0,-15.4538 -0.1409,0 z"
     clip-path="url(#clipWmfPath54)"
     style="fill:#dcdcdc;fill-opacity:1;fill-rule:evenodd;stroke:none" />
  <path
     transform="matrix(0.28222222,0,0,0.28222222,-7.7275411e-7,0)"
     id="path285"
     d="m 36.363,23.6353 0,15.4538 0.141,0 0,-15.4538 -0.141,0 z"
     clip-path="url(#clipWmfPath54)"
     style="fill:#dfdfdf;fill-opacity:1;fill-rule:evenodd;stroke:none" />
  <path
     transform="matrix(0.28222222,0,0,0.28222222,-7.7275411e-7,0)"
     id="path287"
     d="m 36.504,23.6353 0,15.4538 0.1409,0 0,-15.4538 -0.1409,0 z"
     clip-path="url(#clipWmfPath54)"
     style="fill:#e2e2e2;fill-opacity:1;fill-rule:evenodd;stroke:none" />
  <path
     transform="matrix(0.28222222,0,0,0.28222222,-7.7275411e-7,0)"
     id="path289"
     d="m 36.6449,23.6353 0,15.4538 0.141,0 0,-15.4538 -0.141,0 z"
     clip-path="url(#clipWmfPath54)"
     style="fill:#e5e5e5;fill-opacity:1;fill-rule:evenodd;stroke:none" />
  <path
     transform="matrix(0.28222222,0,0,0.28222222,-7.7275411e-7,0)"
     id="path291"
     d="m 36.7859,23.6353 0,15.4538 0.1409,0 0,-15.4538 -0.1409,0 z"
     clip-path="url(#clipWmfPath54)"
     style="fill:#e8e8e8;fill-opacity:1;fill-rule:evenodd;stroke:none" />
  <path
     transform="matrix(0.28222222,0,0,0.28222222,-7.7275411e-7,0)"
     id="path293"
     d="m 36.9268,23.6353 0,15.4538 0.1409,0 0,-15.4538 -0.1409,0 z"
     clip-path="url(#clipWmfPath54)"
     style="fill:#ebebeb;fill-opacity:1;fill-rule:evenodd;stroke:none" />
  <path
     transform="matrix(0.28222222,0,0,0.28222222,-7.7275411e-7,0)"
     id="path295"
     d="m 37.0677,23.6353 0,15.4538 0.141,0 0,-15.4538 -0.141,0 z"
     clip-path="url(#clipWmfPath54)"
     style="fill:#eeeeee;fill-opacity:1;fill-rule:evenodd;stroke:none" />
  <path
     transform="matrix(0.28222222,0,0,0.28222222,-7.7275411e-7,0)"
     id="path297"
     d="m 37.2087,23.6353 0,15.4538 0.0704,0 0,-15.4538 -0.0704,0 z"
     clip-path="url(#clipWmfPath54)"
     style="fill:#f0f0f0;fill-opacity:1;fill-rule:evenodd;stroke:none" />
  <path
     transform="matrix(0.28222222,0,0,0.28222222,-7.7275411e-7,0)"
     id="path299"
     d="m 37.2791,23.6353 0,15.4538 0.141,0 0,-15.4538 -0.141,0 z"
     clip-path="url(#clipWmfPath54)"
     style="fill:#f2f2f2;fill-opacity:1;fill-rule:evenodd;stroke:none" />
  <path
     transform="matrix(0.28222222,0,0,0.28222222,-7.7275411e-7,0)"
     id="path301"
     d="m 37.4201,23.6353 0,15.4538 0.1409,0 0,-15.4538 -0.1409,0 z"
     clip-path="url(#clipWmfPath54)"
     style="fill:#f5f5f5;fill-opacity:1;fill-rule:evenodd;stroke:none" />
  <path
     transform="matrix(0.28222222,0,0,0.28222222,-7.7275411e-7,0)"
     id="path303"
     d="m 37.561,23.6353 0,15.4538 0.141,0 0,-15.4538 -0.141,0 z"
     clip-path="url(#clipWmfPath54)"
     style="fill:#f8f8f8;fill-opacity:1;fill-rule:evenodd;stroke:none" />
  <path
     transform="matrix(0.28222222,0,0,0.28222222,-7.7275411e-7,0)"
     id="path305"
     d="m 37.702,23.6353 0,15.4538 0.1409,0 0,-15.4538 -0.1409,0 z"
     clip-path="url(#clipWmfPath54)"
     style="fill:#fbfbfb;fill-opacity:1;fill-rule:evenodd;stroke:none" />
  <path
     transform="matrix(0.28222222,0,0,0.28222222,-7.7275411e-7,0)"
     id="path307"
     d="m 37.8429,23.6353 0,15.4538 0.2114,0 0,-15.4538 -0.2114,0 z"
     clip-path="url(#clipWmfPath54)"
     style="fill:#fefefe;fill-opacity:1;fill-rule:evenodd;stroke:none" />
  <path
     transform="matrix(0.28222222,0,0,0.28222222,-7.7275411e-7,0)"
     id="path309"
     d="m 38.0543,23.6353 0,15.4538 0.0705,0 0,-15.4538 -0.0705,0 z"
     clip-path="url(#clipWmfPath54)"
     style="fill:#fcfcfc;fill-opacity:1;fill-rule:evenodd;stroke:none" />
  <path
     transform="matrix(0.28222222,0,0,0.28222222,-7.7275411e-7,0)"
     id="path311"
     d="m 38.1248,23.6353 0,15.4538 0.1409,0 0,-15.4538 -0.1409,0 z"
     clip-path="url(#clipWmfPath54)"
     style="fill:#fafafa;fill-opacity:1;fill-rule:evenodd;stroke:none" />
  <path
     transform="matrix(0.28222222,0,0,0.28222222,-7.7275411e-7,0)"
     id="path313"
     d="m 38.2657,23.6353 0,15.4538 0.0705,0 0,-15.4538 -0.0705,0 z"
     clip-path="url(#clipWmfPath54)"
     style="fill:#f8f8f8;fill-opacity:1;fill-rule:evenodd;stroke:none" />
  <path
     transform="matrix(0.28222222,0,0,0.28222222,-7.7275411e-7,0)"
     id="path315"
     d="m 38.3362,23.6353 0,15.4538 0.141,0 0,-15.4538 -0.141,0 z"
     clip-path="url(#clipWmfPath54)"
     style="fill:#f6f6f6;fill-opacity:1;fill-rule:evenodd;stroke:none" />
  <path
     transform="matrix(0.28222222,0,0,0.28222222,-7.7275411e-7,0)"
     id="path317"
     d="m 38.4772,23.6353 0,15.4538 0.1409,0 0,-15.4538 -0.1409,0 z"
     clip-path="url(#clipWmfPath54)"
     style="fill:#f3f3f3;fill-opacity:1;fill-rule:evenodd;stroke:none" />
  <path
     transform="matrix(0.28222222,0,0,0.28222222,-7.7275411e-7,0)"
     id="path319"
     d="m 38.6181,23.6353 0,15.4538 0.1409,0 0,-15.4538 -0.1409,0 z"
     clip-path="url(#clipWmfPath54)"
     style="fill:#f0f0f0;fill-opacity:1;fill-rule:evenodd;stroke:none" />
  <path
     transform="matrix(0.28222222,0,0,0.28222222,-7.7275411e-7,0)"
     id="path321"
     d="m 38.759,23.6353 0,15.4538 0.141,0 0,-15.4538 -0.141,0 z"
     clip-path="url(#clipWmfPath54)"
     style="fill:#ededed;fill-opacity:1;fill-rule:evenodd;stroke:none" />
  <path
     transform="matrix(0.28222222,0,0,0.28222222,-7.7275411e-7,0)"
     id="path323"
     d="m 38.9,23.6353 0,15.4538 0.1409,0 0,-15.4538 -0.1409,0 z"
     clip-path="url(#clipWmfPath54)"
     style="fill:#eaeaea;fill-opacity:1;fill-rule:evenodd;stroke:none" />
  <path
     transform="matrix(0.28222222,0,0,0.28222222,-7.7275411e-7,0)"
     id="path325"
     d="m 39.0409,23.6353 0,15.4538 0.141,0 0,-15.4538 -0.141,0 z"
     clip-path="url(#clipWmfPath54)"
     style="fill:#e7e7e7;fill-opacity:1;fill-rule:evenodd;stroke:none" />
  <path
     transform="matrix(0.28222222,0,0,0.28222222,-7.7275411e-7,0)"
     id="path327"
     d="m 39.1819,23.6353 0,15.4538 0.0704,0 0,-15.4538 -0.0704,0 z"
     clip-path="url(#clipWmfPath54)"
     style="fill:#e5e5e5;fill-opacity:1;fill-rule:evenodd;stroke:none" />
  <path
     transform="matrix(0.28222222,0,0,0.28222222,-7.7275411e-7,0)"
     id="path329"
     d="m 39.2523,23.6353 0,15.4538 0.141,0 0,-15.4538 -0.141,0 z"
     clip-path="url(#clipWmfPath54)"
     style="fill:#e3e3e3;fill-opacity:1;fill-rule:evenodd;stroke:none" />
  <path
     transform="matrix(0.28222222,0,0,0.28222222,-7.7275411e-7,0)"
     id="path331"
     d="m 39.3933,23.6353 0,15.4538 0.1409,0 0,-15.4538 -0.1409,0 z"
     clip-path="url(#clipWmfPath54)"
     style="fill:#e0e0e0;fill-opacity:1;fill-rule:evenodd;stroke:none" />
  <path
     transform="matrix(0.28222222,0,0,0.28222222,-7.7275411e-7,0)"
     id="path333"
     d="m 39.5342,23.6353 0,15.4538 0.141,0 0,-15.4538 -0.141,0 z"
     clip-path="url(#clipWmfPath54)"
     style="fill:#dddddd;fill-opacity:1;fill-rule:evenodd;stroke:none" />
  <path
     transform="matrix(0.28222222,0,0,0.28222222,-7.7275411e-7,0)"
     id="path335"
     d="m 39.6752,23.6353 0,15.4538 0.1409,0 0,-15.4538 -0.1409,0 z"
     clip-path="url(#clipWmfPath54)"
     style="fill:#dadada;fill-opacity:1;fill-rule:evenodd;stroke:none" />
  <path
     transform="matrix(0.28222222,0,0,0.28222222,-7.7275411e-7,0)"
     id="path337"
     d="m 39.8161,23.6353 0,15.4538 0.1409,0 0,-15.4538 -0.1409,0 z"
     clip-path="url(#clipWmfPath54)"
     style="fill:#d7d7d7;fill-opacity:1;fill-rule:evenodd;stroke:none" />
  <path
     transform="matrix(0.28222222,0,0,0.28222222,-7.7275411e-7,0)"
     id="path339"
     d="m 39.957,23.6353 0,15.4538 0.141,0 0,-15.4538 -0.141,0 z"
     clip-path="url(#clipWmfPath54)"
     style="fill:#d4d4d4;fill-opacity:1;fill-rule:evenodd;stroke:none" />
  <path
     transform="matrix(0.28222222,0,0,0.28222222,-7.7275411e-7,0)"
     id="path341"
     d="m 40.098,23.6353 0,15.4538 0.1409,0 0,-15.4538 -0.1409,0 z"
     clip-path="url(#clipWmfPath54)"
     style="fill:#d1d1d1;fill-opacity:1;fill-rule:evenodd;stroke:none" />
  <path
     transform="matrix(0.28222222,0,0,0.28222222,-7.7275411e-7,0)"
     id="path343"
     d="m 40.2389,23.6353 0,15.4538 0.141,0 0,-15.4538 -0.141,0 z"
     clip-path="url(#clipWmfPath54)"
     style="fill:#cecece;fill-opacity:1;fill-rule:evenodd;stroke:none" />
  <path
     transform="matrix(0.28222222,0,0,0.28222222,-7.7275411e-7,0)"
     id="path345"
     d="m 40.3799,23.6353 0,15.4538 0.1409,0 0,-15.4538 -0.1409,0 z"
     clip-path="url(#clipWmfPath54)"
     style="fill:#cbcbcb;fill-opacity:1;fill-rule:evenodd;stroke:none" />
  <path
     transform="matrix(0.28222222,0,0,0.28222222,-7.7275411e-7,0)"
     id="path347"
     d="m 40.5208,23.6353 0,15.4538 0.141,0 0,-15.4538 -0.141,0 z"
     clip-path="url(#clipWmfPath54)"
     style="fill:#c8c8c8;fill-opacity:1;fill-rule:evenodd;stroke:none" />
  <path
     transform="matrix(0.28222222,0,0,0.28222222,-7.7275411e-7,0)"
     id="path349"
     d="m 40.6618,23.6353 0,15.4538 0.1409,0 0,-15.4538 -0.1409,0 z"
     clip-path="url(#clipWmfPath54)"
     style="fill:#c5c5c5;fill-opacity:1;fill-rule:evenodd;stroke:none" />
  <path
     transform="matrix(0.28222222,0,0,0.28222222,-7.7275411e-7,0)"
     id="path351"
     d="m 40.8027,23.6353 0,15.4538 0.0705,0 0,-15.4538 -0.0705,0 z"
     clip-path="url(#clipWmfPath54)"
     style="fill:#c2c2c2;fill-opacity:1;fill-rule:evenodd;stroke:none" />
  <path
     transform="matrix(0.28222222,0,0,0.28222222,-7.7275411e-7,0)"
     id="path353"
     d="m 40.8732,23.6353 0,15.4538 0.1409,0 0,-15.4538 -0.1409,0 z"
     clip-path="url(#clipWmfPath54)"
     style="fill:#c0c0c0;fill-opacity:1;fill-rule:evenodd;stroke:none" />
  <path
     transform="matrix(0.28222222,0,0,0.28222222,-7.7275411e-7,0)"
     id="path355"
     d="m 41.0141,23.6353 0,15.4538 0.141,0 0,-15.4538 -0.141,0 z"
     clip-path="url(#clipWmfPath54)"
     style="fill:#bdbdbd;fill-opacity:1;fill-rule:evenodd;stroke:none" />
  <path
     transform="matrix(0.28222222,0,0,0.28222222,-7.7275411e-7,0)"
     id="path357"
     d="m 41.1551,23.6353 0,15.4538 0.1409,0 0,-15.4538 -0.1409,0 z"
     clip-path="url(#clipWmfPath54)"
     style="fill:#bababa;fill-opacity:1;fill-rule:evenodd;stroke:none" />
  <path
     transform="matrix(0.28222222,0,0,0.28222222,-7.7275411e-7,0)"
     id="path359"
     d="m 41.296,23.6353 0,15.4538 0.0705,0 0,-15.4538 -0.0705,0 z"
     clip-path="url(#clipWmfPath54)"
     style="fill:#b8b8b8;fill-opacity:1;fill-rule:evenodd;stroke:none" />
  <path
     transform="matrix(0.28222222,0,0,0.28222222,-7.7275411e-7,0)"
     id="path361"
     d="m 41.3665,23.6353 0,15.4538 0.1409,0 0,-15.4538 -0.1409,0 z"
     clip-path="url(#clipWmfPath54)"
     style="fill:#b6b6b6;fill-opacity:1;fill-rule:evenodd;stroke:none" />
  <path
     transform="matrix(0.28222222,0,0,0.28222222,-7.7275411e-7,0)"
     id="path363"
     d="m 41.5074,23.6353 0,15.4538 0.1409,0 0,-15.4538 -0.1409,0 z"
     clip-path="url(#clipWmfPath54)"
     style="fill:#b3b3b3;fill-opacity:1;fill-rule:evenodd;stroke:none" />
  <path
     transform="matrix(0.28222222,0,0,0.28222222,-7.7275411e-7,0)"
     id="path365"
     d="m 41.6483,23.6353 0,15.4538 0.141,0 0,-15.4538 -0.141,0 z"
     clip-path="url(#clipWmfPath54)"
     style="fill:#b0b0b0;fill-opacity:1;fill-rule:evenodd;stroke:none" />
  <path
     transform="matrix(0.28222222,0,0,0.28222222,-7.7275411e-7,0)"
     id="path367"
     d="m 41.7893,23.6353 0,15.4538 0.1409,0 0,-15.4538 -0.1409,0 z"
     clip-path="url(#clipWmfPath54)"
     style="fill:#adadad;fill-opacity:1;fill-rule:evenodd;stroke:none" />
  <path
     transform="matrix(0.28222222,0,0,0.28222222,-7.7275411e-7,0)"
     id="path369"
     d="m 41.9302,23.6353 0,15.4538 0.141,0 0,-15.4538 -0.141,0 z"
     clip-path="url(#clipWmfPath54)"
     style="fill:#aaaaaa;fill-opacity:1;fill-rule:evenodd;stroke:none" />
  <path
     transform="matrix(0.28222222,0,0,0.28222222,-7.7275411e-7,0)"
     id="path371"
     d="m 42.0712,23.6353 0,15.4538 0.1409,0 0,-15.4538 -0.1409,0 z"
     clip-path="url(#clipWmfPath54)"
     style="fill:#a7a7a7;fill-opacity:1;fill-rule:evenodd;stroke:none" />
  <path
     transform="matrix(0.28222222,0,0,0.28222222,-7.7275411e-7,0)"
     id="path373"
     d="m 42.2121,23.6353 0,15.4538 0.141,0 0,-15.4538 -0.141,0 z"
     clip-path="url(#clipWmfPath54)"
     style="fill:#a4a4a4;fill-opacity:1;fill-rule:evenodd;stroke:none" />
  <path
     transform="matrix(0.28222222,0,0,0.28222222,-7.7275411e-7,0)"
     id="path375"
     d="m 42.3531,23.6353 0,15.4538 0.0704,0 0,-15.4538 -0.0704,0 z"
     clip-path="url(#clipWmfPath54)"
     style="fill:#a2a2a2;fill-opacity:1;fill-rule:evenodd;stroke:none" />
  <path
     transform="matrix(0.28222222,0,0,0.28222222,-7.7275411e-7,0)"
     id="path377"
     d="m 42.4235,23.6353 0,15.4538 0.141,0 0,-15.4538 -0.141,0 z"
     clip-path="url(#clipWmfPath54)"
     style="fill:#a0a0a0;fill-opacity:1;fill-rule:evenodd;stroke:none" />
  <path
     transform="matrix(0.28222222,0,0,0.28222222,-7.7275411e-7,0)"
     id="path379"
     d="m 42.5645,23.6353 0,15.4538 0.1409,0 0,-15.4538 -0.1409,0 z"
     clip-path="url(#clipWmfPath54)"
     style="fill:#9d9d9d;fill-opacity:1;fill-rule:evenodd;stroke:none" />
  <path
     transform="matrix(0.28222222,0,0,0.28222222,-7.7275411e-7,0)"
     id="path381"
     d="m 42.7054,23.6353 0,15.4538 0.141,0 0,-15.4538 -0.141,0 z"
     clip-path="url(#clipWmfPath54)"
     style="fill:#9a9a9a;fill-opacity:1;fill-rule:evenodd;stroke:none" />
  <path
     transform="matrix(0.28222222,0,0,0.28222222,-7.7275411e-7,0)"
     id="path383"
     d="m 42.8464,23.6353 0,15.4538 0.1409,0 0,-15.4538 -0.1409,0 z"
     clip-path="url(#clipWmfPath54)"
     style="fill:#979797;fill-opacity:1;fill-rule:evenodd;stroke:none" />
  <path
     transform="matrix(0.28222222,0,0,0.28222222,-7.7275411e-7,0)"
     id="path385"
     d="m 42.9873,23.6353 0,15.4538 0.1409,0 0,-15.4538 -0.1409,0 z"
     clip-path="url(#clipWmfPath54)"
     style="fill:#949494;fill-opacity:1;fill-rule:evenodd;stroke:none" />
  <path
     transform="matrix(0.28222222,0,0,0.28222222,-7.7275411e-7,0)"
     id="path387"
     d="m 43.1282,23.6353 0,15.4538 0.141,0 0,-15.4538 -0.141,0 z"
     clip-path="url(#clipWmfPath54)"
     style="fill:#919191;fill-opacity:1;fill-rule:evenodd;stroke:none" />
  <path
     transform="matrix(0.28222222,0,0,0.28222222,-7.7275411e-7,0)"
     id="path389"
     d="m 43.2692,23.6353 0,15.4538 0.1409,0 0,-15.4538 -0.1409,0 z"
     clip-path="url(#clipWmfPath54)"
     style="fill:#8e8e8e;fill-opacity:1;fill-rule:evenodd;stroke:none" />
  <path
     transform="matrix(0.28222222,0,0,0.28222222,-7.7275411e-7,0)"
     id="path391"
     d="m 43.4101,23.6353 0,15.4538 0.0705,0 0,-15.4538 -0.0705,0 z"
     clip-path="url(#clipWmfPath54)"
     style="fill:#8c8c8c;fill-opacity:1;fill-rule:evenodd;stroke:none" />
  <path
     transform="matrix(0.28222222,0,0,0.28222222,-7.7275411e-7,0)"
     id="path393"
     d="m 43.4806,23.6353 0,15.4538 0.1409,0 0,-15.4538 -0.1409,0 z"
     clip-path="url(#clipWmfPath54)"
     style="fill:#8a8a8a;fill-opacity:1;fill-rule:evenodd;stroke:none" />
  <path
     transform="matrix(0.28222222,0,0,0.28222222,-7.7275411e-7,0)"
     id="path395"
     d="m 43.6215,23.6353 0,15.4538 0.141,0 0,-15.4538 -0.141,0 z"
     clip-path="url(#clipWmfPath54)"
     style="fill:#878787;fill-opacity:1;fill-rule:evenodd;stroke:none" />
  <path
     transform="matrix(0.28222222,0,0,0.28222222,-7.7275411e-7,0)"
     id="path397"
     d="m 43.7625,23.6353 0,15.4538 0.1409,0 0,-15.4538 -0.1409,0 z"
     clip-path="url(#clipWmfPath54)"
     style="fill:#848484;fill-opacity:1;fill-rule:evenodd;stroke:none" />
  <path
     transform="matrix(0.28222222,0,0,0.28222222,-7.7275411e-7,0)"
     id="path399"
     d="m 43.9034,23.6353 0,15.4538 0.141,0 0,-15.4538 -0.141,0 z"
     clip-path="url(#clipWmfPath54)"
     style="fill:#818181;fill-opacity:1;fill-rule:evenodd;stroke:none" />
  <path
     transform="matrix(0.28222222,0,0,0.28222222,-7.7275411e-7,0)"
     id="path401"
     d="m 44.0444,23.6353 0,15.4538 0.1409,0 0,-15.4538 -0.1409,0 z"
     clip-path="url(#clipWmfPath54)"
     style="fill:#7e7e7e;fill-opacity:1;fill-rule:evenodd;stroke:none" />
  <path
     transform="matrix(0.28222222,0,0,0.28222222,-7.7275411e-7,0)"
     id="path403"
     d="m 44.1853,23.6353 0,15.4538 0.1409,0 0,-15.4538 -0.1409,0 z"
     clip-path="url(#clipWmfPath54)"
     style="fill:#7b7b7b;fill-opacity:1;fill-rule:evenodd;stroke:none" />
  <path
     transform="matrix(0.28222222,0,0,0.28222222,-7.7275411e-7,0)"
     id="path405"
     d="m 44.3262,23.6353 0,15.4538 0.141,0 0,-15.4538 -0.141,0 z"
     clip-path="url(#clipWmfPath54)"
     style="fill:#787878;fill-opacity:1;fill-rule:evenodd;stroke:none" />
  <path
     transform="matrix(0.28222222,0,0,0.28222222,-7.7275411e-7,0)"
     id="path407"
     d="m 44.4672,23.6353 0,15.4538 0.1409,0 0,-15.4538 -0.1409,0 z"
     clip-path="url(#clipWmfPath54)"
     style="fill:#757575;fill-opacity:1;fill-rule:evenodd;stroke:none" />
  <path
     transform="matrix(0.28222222,0,0,0.28222222,-7.7275411e-7,0)"
     id="path409"
     d="m 44.6081,23.6353 0,15.4538 0.141,0 0,-15.4538 -0.141,0 z"
     clip-path="url(#clipWmfPath54)"
     style="fill:#727272;fill-opacity:1;fill-rule:evenodd;stroke:none" />
  <path
     transform="matrix(0.28222222,0,0,0.28222222,-7.7275411e-7,0)"
     id="path411"
     d="m 44.7491,23.6353 0,15.4538 0.1409,0 0,-15.4538 -0.1409,0 z"
     clip-path="url(#clipWmfPath54)"
     style="fill:#6f6f6f;fill-opacity:1;fill-rule:evenodd;stroke:none" />
  <path
     transform="matrix(0.28222222,0,0,0.28222222,-7.7275411e-7,0)"
     id="path413"
     d="m 44.89,23.6353 0,15.4538 0.141,0 0,-15.4538 -0.141,0 z"
     clip-path="url(#clipWmfPath54)"
     style="fill:#6c6c6c;fill-opacity:1;fill-rule:evenodd;stroke:none" />
  <path
     transform="matrix(0.28222222,0,0,0.28222222,-7.7275411e-7,0)"
     id="path415"
     d="m 45.031,23.6353 0,15.4538 0.1409,0 0,-15.4538 -0.1409,0 z"
     clip-path="url(#clipWmfPath54)"
     style="fill:#696969;fill-opacity:1;fill-rule:evenodd;stroke:none" />
  <path
     transform="matrix(0.28222222,0,0,0.28222222,-7.7275411e-7,0)"
     id="path417"
     d="m 45.1719,23.6353 0,15.4538 0.1409,0 0,-15.4538 -0.1409,0 z"
     clip-path="url(#clipWmfPath54)"
     style="fill:#666666;fill-opacity:1;fill-rule:evenodd;stroke:none" />
  <path
     transform="matrix(0.28222222,0,0,0.28222222,-7.7275411e-7,0)"
     id="path419"
     d="m 45.3128,23.6353 0,15.4538 0.0705,0 0,-15.4538 -0.0705,0 z"
     clip-path="url(#clipWmfPath54)"
     style="fill:#636363;fill-opacity:1;fill-rule:evenodd;stroke:none" />
  <path
     transform="matrix(0.28222222,0,0,0.28222222,-7.7275411e-7,0)"
     id="path421"
     d="m 45.3833,23.6353 0,15.4538 0.141,0 0,-15.4538 -0.141,0 z"
     clip-path="url(#clipWmfPath54)"
     style="fill:#616161;fill-opacity:1;fill-rule:evenodd;stroke:none" />
  <path
     transform="matrix(0.28222222,0,0,0.28222222,-7.7275411e-7,0)"
     id="path423"
     d="m 45.5243,23.6353 0,15.4538 0.0704,0 0,-15.4538 -0.0704,0 z"
     clip-path="url(#clipWmfPath54)"
     style="fill:#5f5f5f;fill-opacity:1;fill-rule:evenodd;stroke:none" />
  <path
     transform="matrix(0.28222222,0,0,0.28222222,-7.7275411e-7,0)"
     id="path425"
     d="m 45.5947,23.6353 0,15.4538 0.141,0 0,-15.4538 -0.141,0 z"
     clip-path="url(#clipWmfPath54)"
     style="fill:#5d5d5d;fill-opacity:1;fill-rule:evenodd;stroke:none" />
  <path
     transform="matrix(0.28222222,0,0,0.28222222,-7.7275411e-7,0)"
     id="path427"
     d="m 45.7357,23.6353 0,15.4538 0.1409,0 0,-15.4538 -0.1409,0 z"
     clip-path="url(#clipWmfPath54)"
     style="fill:#5a5a5a;fill-opacity:1;fill-rule:evenodd;stroke:none" />
  <path
     transform="matrix(0.28222222,0,0,0.28222222,-7.7275411e-7,0)"
     id="path429"
     d="m 45.8766,23.6353 0,15.4538 0.1409,0 0,-15.4538 -0.1409,0 z"
     clip-path="url(#clipWmfPath54)"
     style="fill:#575757;fill-opacity:1;fill-rule:evenodd;stroke:none" />
  <path
     transform="matrix(0.28222222,0,0,0.28222222,-7.7275411e-7,0)"
     id="path431"
     d="m 46.0175,23.6353 0,15.4538 0.141,0 0,-15.4538 -0.141,0 z"
     clip-path="url(#clipWmfPath54)"
     style="fill:#545454;fill-opacity:1;fill-rule:evenodd;stroke:none" />
  <path
     transform="matrix(0.28222222,0,0,0.28222222,-7.7275411e-7,0)"
     id="path433"
     d="m 46.1585,23.6353 0,15.4538 0.1409,0 0,-15.4538 -0.1409,0 z"
     clip-path="url(#clipWmfPath54)"
     style="fill:#515151;fill-opacity:1;fill-rule:evenodd;stroke:none" />
  <path
     id="path435"
     d="m 46.2994,23.6353 0,15.4538 0.0705,0 0,-15.4538 -0.0705,0 z"
     clip-path="url(#clipWmfPath54)"
     style="fill:#4e4e4e;fill-opacity:1;fill-rule:evenodd;stroke:none" />
  <path
     id="path437"
     d="m 13.066719,10.400284 0,-3.6904224 -4.7334596,0 0,3.6904224 0.019897,0.05921 0.019897,0.05921 0.059662,0.05921 0.079558,0.05921 0.099427,0.03946 0.1193518,0.05921 0.2983089,0.09867 0.3381022,0.05921 0.4176606,0.05921 0.4375581,0.03946 0.477322,0.01975 0.477323,-0.01975 0.437557,-0.03946 0.417632,-0.05921 0.338103,-0.05921 0.298337,-0.09867 0.119323,-0.05921 0.09946,-0.03946 0.07956,-0.05921 0.05966,-0.05921 0.0199,-0.05921 0.01987,-0.05921 0,0 0,0"
     style="fill:none;stroke:#333333;stroke-width:0.0795539px;stroke-linecap:round;stroke-linejoin:round;stroke-miterlimit:4;stroke-dasharray:none;stroke-opacity:1" />
  <path
     id="path439"
     d="m 13.066719,6.7098616 -0.01987,-0.098665 -0.0199,-0.05921 -0.05966,-0.078937 -0.07956,-0.078938 -0.09946,-0.05921 -0.119323,-0.078937 -0.298337,-0.1184205 -0.338103,-0.078938 -0.417632,-0.078938 -0.437557,-0.039455 -0.477323,-0.019755 -0.477322,0.019755 -0.4375576,0.039455 -0.4176606,0.078938 -0.3381022,0.078938 -0.2983089,0.1184205 -0.1193518,0.078937 -0.099427,0.05921 -0.079558,0.078938 -0.059662,0.078937 -0.019897,0.05921 -0.019897,0.098665 0.019897,0.078938 0.019897,0.078938 0.059662,0.05921 0.079558,0.078938 0.099427,0.05921 0.1193518,0.078937 0.2983089,0.1184205 0.3381022,0.078938 0.4176606,0.078938 0.4375576,0.039455 0.477322,0.019756 0.477323,-0.019756 0.437557,-0.039455 0.417632,-0.078938 0.338103,-0.078938 0.298337,-0.1184205 0.119323,-0.078937 0.09946,-0.05921 0.07956,-0.078938 0.05966,-0.05921 0.0199,-0.078938 0.01987,-0.078938 z"
     style="fill:#c0c0c0;fill-opacity:1;fill-rule:evenodd;stroke:none" />
  <path
     id="path441"
     d="m 13.066719,6.7098616 -0.01987,-0.098665 -0.0199,-0.05921 -0.05966,-0.078937 -0.07956,-0.078938 -0.09946,-0.05921 -0.119323,-0.078937 -0.298337,-0.1184205 -0.338103,-0.078938 -0.417632,-0.078938 -0.437557,-0.039455 -0.477323,-0.019755 -0.477322,0.019755 -0.4375576,0.039455 -0.4176606,0.078938 -0.3381022,0.078938 -0.2983089,0.1184205 -0.1193518,0.078937 -0.099427,0.05921 -0.079558,0.078938 -0.059662,0.078937 -0.019897,0.05921 -0.019897,0.098665 0.019897,0.078938 0.019897,0.078938 0.059662,0.05921 0.079558,0.078938 0.099427,0.05921 0.1193518,0.078937 0.2983089,0.1184205 0.3381022,0.078938 0.4176606,0.078938 0.4375576,0.039455 0.477322,0.019756 0.477323,-0.019756 0.437557,-0.039455 0.417632,-0.078938 0.338103,-0.078938 0.298337,-0.1184205 0.119323,-0.078937 0.09946,-0.05921 0.07956,-0.078938 0.05966,-0.05921 0.0199,-0.078938 0.01987,-0.078938"
     style="fill:none;stroke:#333333;stroke-width:0.0795539px;stroke-linecap:round;stroke-linejoin:round;stroke-miterlimit:4;stroke-dasharray:none;stroke-opacity:1" />
</svg>
