<?xml version="1.0" encoding="UTF-8" standalone="no"?>
<svg
   xmlns:dc="http://purl.org/dc/elements/1.1/"
   xmlns:cc="http://creativecommons.org/ns#"
   xmlns:rdf="http://www.w3.org/1999/02/22-rdf-syntax-ns#"
   xmlns:svg="http://www.w3.org/2000/svg"
   xmlns="http://www.w3.org/2000/svg"
   viewBox="0 0 21.599998 13.6"
   id="svg2"
   height="13.6mm"
   width="21.599998mm"
   version="1.0">
  <metadata
     id="metadata29">
    <rdf:RDF>
      <cc:Work
         rdf:about="">
        <dc:format>image/svg+xml</dc:format>
        <dc:type
           rdf:resource="http://purl.org/dc/dcmitype/StillImage" />
        <dc:title></dc:title>
      </cc:Work>
    </rdf:RDF>
  </metadata>
  <defs
     id="defs4">
    <pattern
       y="0"
       x="0"
       height="6"
       width="6"
       patternUnits="userSpaceOnUse"
       id="WMFhbasepattern" />
  </defs>
  <path
     id="path7"
     d="m 0.43754527,0.43416784 0,12.53165716 20.52490473,0 0,-12.53165716 -20.52490473,0 z"
     style="fill:#ccffcc;fill-opacity:1;fill-rule:evenodd;stroke:none" />
  <path
     id="path9"
     d="m 0.43754527,12.965825 20.52490473,0 0,-12.53165716 -20.52490473,0 0,12.53165716 z"
     style="fill:none;stroke:#000000;stroke-width:0.0795539px;stroke-linecap:round;stroke-linejoin:round;stroke-miterlimit:4;stroke-dasharray:none;stroke-opacity:1" />
  <path
     id="path11"
     d="m 3.5998001,4.3416784 14.2003779,0"
     style="fill:none;stroke:#808080;stroke-width:0.2585502px;stroke-linecap:round;stroke-linejoin:round;stroke-miterlimit:4;stroke-dasharray:none;stroke-opacity:1" />
  <path
     id="path13"
     d="m 17.800178,4.3416784 -1.173423,0.5920458 0,-1.1643642 1.173423,0.5723184 z"
     style="fill:#808080;fill-opacity:1;fill-rule:evenodd;stroke:none" />
  <path
     id="path15"
     d="m 17.800178,4.3416784 -1.173423,0.5920458 0,-1.1643642 1.173423,0.5723184 z"
     style="fill:none;stroke:#808080;stroke-width:0.2585502px;stroke-linecap:round;stroke-linejoin:round;stroke-miterlimit:4;stroke-dasharray:none;stroke-opacity:1" />
  <path
     id="path17"
     d="M 7.4979663,9.9069313 9.2879043,6.374384 9.4669179,6.0980884 9.6657999,5.8810031 9.9243437,5.7034007 10.202784,5.5849802 l 0.298337,-0.05921 0.298309,-0.019727 0.298337,0.05921 0.298337,0.098665 0.218779,0.1381478 0.198882,0.1578751 0.159089,0.197358 0.13922,0.2170853 0,0 1.789966,3.5325473 0.119324,0.2960227 0.03979,0.31575 0,0.296023 -0.07956,0.296023 -0.119324,0.276296 -0.179014,0.25654 -0.21875,0.197358 -0.27844,0.177602 -0.159117,0.07894 -0.178986,0.03948 -0.179013,0.03948 -0.178986,0 0,0 -3.579932,0 -0.3182056,-0.01976 -0.2983371,-0.09867 -0.2585437,-0.138148 -0.2386754,-0.197358 -0.198882,-0.236812 -0.1392202,-0.25654 -0.099427,-0.296023 -0.019897,-0.315779 0,-0.177602 0.039765,-0.177631 0.039793,-0.177602 0.079558,-0.1776027 0,0 z"
     style="fill:#ffff99;fill-opacity:1;fill-rule:evenodd;stroke:none" />
  <path
     id="path19"
     d="M 7.4979663,9.9069313 9.2879043,6.374384 9.4669179,6.0980884 9.6657999,5.8810031 9.9243437,5.7034007 10.202784,5.5849802 l 0.298337,-0.05921 0.298309,-0.019727 0.298337,0.05921 0.298337,0.098665 0.218779,0.1381478 0.198882,0.1578751 0.159089,0.197358 0.13922,0.2170853 0,0 1.789966,3.5325473 0.119324,0.2960223 0.03979,0.31575 0,0.296023 -0.07956,0.296023 -0.119324,0.276296 -0.179014,0.25654 -0.21875,0.197358 -0.27844,0.177602 -0.159117,0.07894 -0.178986,0.03948 -0.179013,0.03948 -0.178986,0 0,0 -3.579932,0 L 8.5918264,12.156686 8.2934893,12.058016 8.0349456,11.919868 7.7962702,11.72251 7.5973882,11.485698 7.458168,11.229158 7.358741,10.933135 7.338844,10.617356 l 0,-0.177602 0.039765,-0.177631 0.039793,-0.177602 0.079558,-0.1776023 0,0"
     style="fill:none;stroke:#333333;stroke-width:0.2585502px;stroke-linecap:round;stroke-linejoin:round;stroke-miterlimit:4;stroke-dasharray:none;stroke-opacity:1" />
  <text
     id="text21"
     y="10.985142 10.985142"
     x="9.9359999 9.9359999"
     style="font-style:normal;font-variant:normal;font-weight:400;font-size:5.64444447px;font-family:Arial;text-align:start;letter-spacing:0px;word-spacing:0px;text-anchor:start;fill:#000000;fill-opacity:1;stroke:none"
     xml:space="preserve"><tspan
       id="tspan23"
       y="10.985142 10.985142"
       x="9.9359999 9.9359999"><tspan
         id="tspan25"
         style="font-style:normal;font-variant:normal;font-weight:400;font-size:5.64444447px;font-family:Arial;fill:#000000"
         dy="0 0"
         dx="0 0">!</tspan></tspan></text>
</svg>
