<?xml version="1.0" encoding="UTF-8" standalone="no"?>
<svg
   xmlns:dc="http://purl.org/dc/elements/1.1/"
   xmlns:cc="http://creativecommons.org/ns#"
   xmlns:rdf="http://www.w3.org/1999/02/22-rdf-syntax-ns#"
   xmlns:svg="http://www.w3.org/2000/svg"
   xmlns="http://www.w3.org/2000/svg"
   viewBox="0 0 21.599998 13.6"
   id="svg2"
   height="13.6mm"
   width="21.599998mm"
   version="1.0">
  <metadata
     id="metadata59">
    <rdf:RDF>
      <cc:Work
         rdf:about="">
        <dc:format>image/svg+xml</dc:format>
        <dc:type
           rdf:resource="http://purl.org/dc/dcmitype/StillImage" />
        <dc:title></dc:title>
      </cc:Work>
    </rdf:RDF>
  </metadata>
  <defs
     id="defs4">
    <pattern
       y="0"
       x="0"
       height="6"
       width="6"
       patternUnits="userSpaceOnUse"
       id="WMFhbasepattern" />
  </defs>
  <path
     id="path7"
     d="m 0.43754527,0.43416784 0,12.53165716 20.52490473,0 0,-12.53165716 -20.52490473,0 z"
     style="fill:#ccffcc;fill-opacity:1;fill-rule:evenodd;stroke:none" />
  <path
     id="path9"
     d="m 0.43754527,12.965825 20.52490473,0 0,-12.53165716 -20.52490473,0 0,12.53165716 z"
     style="fill:none;stroke:#000000;stroke-width:0.0795539px;stroke-linecap:round;stroke-linejoin:round;stroke-miterlimit:4;stroke-dasharray:none;stroke-opacity:1" />
  <path
     id="path11"
     d="m 4.3754597,5.52577 0,2.3484558 2.3866122,0 0,-2.3484558 -2.3866122,0 z"
     style="fill:#ffffff;fill-opacity:1;fill-rule:evenodd;stroke:none" />
  <path
     id="path13"
     d="m 4.3754597,7.8742258 2.3866122,0 0,-2.3484558 -2.3866122,0 0,2.3484558 z"
     style="fill:none;stroke:#333333;stroke-width:0.0795539px;stroke-linecap:round;stroke-linejoin:round;stroke-miterlimit:4;stroke-dasharray:none;stroke-opacity:1" />
  <path
     id="path15"
     d="m 9.506683,5.52577 0,2.3484558 2.366744,0 0,-2.3484558 -2.366744,0 z"
     style="fill:#ffffff;fill-opacity:1;fill-rule:evenodd;stroke:none" />
  <path
     id="path17"
     d="m 9.506683,7.8742258 2.366744,0 0,-2.3484558 -2.366744,0 0,2.3484558 z"
     style="fill:none;stroke:#333333;stroke-width:0.0795539px;stroke-linecap:round;stroke-linejoin:round;stroke-miterlimit:4;stroke-dasharray:none;stroke-opacity:1" />
  <path
     id="path19"
     d="m 14.637906,5.52577 0,2.3484558 2.366744,0 0,-2.3484558 -2.366744,0 z"
     style="fill:#ffffff;fill-opacity:1;fill-rule:evenodd;stroke:none" />
  <path
     id="path21"
     d="m 14.637906,7.8742258 2.366744,0 0,-2.3484558 -2.366744,0 0,2.3484558 z"
     style="fill:none;stroke:#333333;stroke-width:0.0795539px;stroke-linecap:round;stroke-linejoin:round;stroke-miterlimit:4;stroke-dasharray:none;stroke-opacity:1" />
  <text
     id="text23"
     y="7.6887221 7.6887221"
     x="4.7414107 4.7414107"
     style="font-style:normal;font-variant:normal;font-weight:400;font-size:2.82222223px;font-family:Arial;text-align:start;letter-spacing:0px;word-spacing:0px;text-anchor:start;fill:#000000;fill-opacity:1;stroke:none"
     xml:space="preserve"><tspan
       id="tspan25"
       y="7.6887221 7.6887221"
       x="4.7414107 4.7414107"><tspan
         id="tspan27"
         style="font-style:normal;font-variant:normal;font-weight:400;font-size:2.82222223px;font-family:Arial;fill:#000000"
         dy="0 0"
         dx="0 0">1</tspan></tspan></text>
  <text
     id="text29"
     y="7.7030544 7.7030544"
     x="9.9230204 51231.563"
     style="font-style:normal;font-variant:normal;font-weight:400;font-size:2.82222223px;font-family:Arial;text-align:start;letter-spacing:0px;word-spacing:0px;text-anchor:start;fill:#000000;fill-opacity:1;stroke:none"
     xml:space="preserve"><tspan
       id="tspan31"
       y="7.7030544 7.7030544"
       x="9.9230204 51231.563"><tspan
         id="tspan33"
         style="font-style:normal;font-variant:normal;font-weight:400;font-size:2.82222223px;font-family:Arial;fill:#000000"
         dy="0 0"
         dx="0 0">2</tspan></tspan></text>
  <text
     id="text35"
     y="7.684978 7.684978"
     x="15.055718 269134"
     style="font-style:normal;font-variant:normal;font-weight:400;font-size:2.82222223px;font-family:Arial;text-align:start;letter-spacing:0px;word-spacing:0px;text-anchor:start;fill:#000000;fill-opacity:1;stroke:none"
     xml:space="preserve"><tspan
       id="tspan37"
       y="7.684978 7.684978"
       x="15.055718 269134"><tspan
         id="tspan39"
         style="font-style:normal;font-variant:normal;font-weight:400;font-size:2.82222223px;font-family:Arial;fill:#000000"
         dy="0 0"
         dx="0 0">3</tspan></tspan></text>
  <path
     id="path41"
     d="m 10.878989,5.52577 0,-0.197358 0.03979,-0.1973298 0.05966,-0.197358 0.07956,-0.1776024 0.09943,-0.1578751 0.119324,-0.1579034 0.27844,-0.2960229 0.357999,-0.2368126 0.397764,-0.1776025 0.457454,-0.1184204 0.21875,-0.039455 0.258572,0 0,0 0.05966,0.019727 -0.05966,-0.019727"
     style="fill:none;stroke:#333333;stroke-width:0.2585502px;stroke-linecap:round;stroke-linejoin:round;stroke-miterlimit:4;stroke-dasharray:none;stroke-opacity:1" />
  <path
     id="path43"
     d="m 15.254449,5.52577 0.0199,-0.197358 -0.0199,-0.1776024 L 15.214684,4.9732071 15.174919,4.7955764 15.015802,4.4798262 14.777127,4.2035307 14.478818,3.966718 14.140715,3.76936 13.742923,3.6509678 l -0.437529,-0.05921 0,0"
     style="fill:none;stroke:#333333;stroke-width:0.2585502px;stroke-linecap:round;stroke-linejoin:round;stroke-miterlimit:4;stroke-dasharray:none;stroke-opacity:1" />
  <path
     id="path45"
     d="m 10.898885,5.3876222 0.07956,-1.3222393 1.034203,0.5920458 -1.113762,0.7301935 z"
     style="fill:#000000;fill-opacity:1;fill-rule:evenodd;stroke:none" />
  <path
     id="path47"
     d="m 10.898885,5.3876222 0.07956,-1.3222393 1.034203,0.5920458 -1.113762,0.7301935 z"
     style="fill:none;stroke:#000000;stroke-width:0.2585502px;stroke-linecap:round;stroke-linejoin:round;stroke-miterlimit:4;stroke-dasharray:none;stroke-opacity:1" />
  <path
     id="path49"
     d="M 5.5091181,5.52577 5.5289866,5.328412 5.5687799,5.1310822 5.6284417,4.9337242 5.7080001,4.7561218 5.807427,4.5982467 5.9267788,4.4403433 6.205191,4.1443204 6.5631899,3.9075078 6.9609539,3.7299053 7.3985112,3.6114849 l 0.2386754,-0.039455 0.2386471,0 0,0 0.079558,0.019727 -0.079558,-0.019727"
     style="fill:none;stroke:#333333;stroke-width:0.2585502px;stroke-linecap:round;stroke-linejoin:round;stroke-miterlimit:4;stroke-dasharray:none;stroke-opacity:1" />
  <path
     id="path51"
     d="m 9.904447,5.52577 0,-0.197358 0,-0.1776024 L 9.8646819,4.9732071 9.8249168,4.7955764 9.6657999,4.4798262 9.4271246,4.2035307 9.1288157,3.966718 8.7907134,3.76936 8.3929494,3.6509678 l -0.4375573,-0.05921 0,0"
     style="fill:none;stroke:#333333;stroke-width:0.2585502px;stroke-linecap:round;stroke-linejoin:round;stroke-miterlimit:4;stroke-dasharray:none;stroke-opacity:1" />
  <path
     id="path53"
     d="M 5.5488832,5.3876222 5.6284417,4.0653829 6.6427483,4.6574287 5.5488832,5.3876222 Z"
     style="fill:#000000;fill-opacity:1;fill-rule:evenodd;stroke:none" />
  <path
     id="path55"
     d="M 5.5488832,5.3876222 5.6284417,4.0653829 6.6427483,4.6574287 5.5488832,5.3876222 Z"
     style="fill:none;stroke:#000000;stroke-width:0.2585502px;stroke-linecap:round;stroke-linejoin:round;stroke-miterlimit:4;stroke-dasharray:none;stroke-opacity:1" />
</svg>
