<?xml version="1.0" encoding="UTF-8" standalone="no"?>
<svg
   xmlns:dc="http://purl.org/dc/elements/1.1/"
   xmlns:cc="http://creativecommons.org/ns#"
   xmlns:rdf="http://www.w3.org/1999/02/22-rdf-syntax-ns#"
   xmlns:svg="http://www.w3.org/2000/svg"
   xmlns="http://www.w3.org/2000/svg"
   viewBox="0 0 21.599998 13.6"
   id="svg2"
   height="13.6mm"
   width="21.599998mm"
   version="1.0">
  <metadata
     id="metadata25">
    <rdf:RDF>
      <cc:Work
         rdf:about="">
        <dc:format>image/svg+xml</dc:format>
        <dc:type
           rdf:resource="http://purl.org/dc/dcmitype/StillImage" />
        <dc:title></dc:title>
      </cc:Work>
    </rdf:RDF>
  </metadata>
  <defs
     id="defs4">
    <pattern
       y="0"
       x="0"
       height="6"
       width="6"
       patternUnits="userSpaceOnUse"
       id="WMFhbasepattern" />
  </defs>
  <path
     id="path7"
     d="m 0.43754527,0.43416784 0,12.53165716 20.52490473,0 0,-12.53165716 -20.52490473,0 z"
     style="fill:#ccffcc;fill-opacity:1;fill-rule:evenodd;stroke:none" />
  <path
     id="path9"
     d="m 0.43754527,12.965825 20.52490473,0 0,-12.53165716 -20.52490473,0 0,12.53165716 z"
     style="fill:none;stroke:#000000;stroke-width:0.0795539px;stroke-linecap:round;stroke-linejoin:round;stroke-miterlimit:4;stroke-dasharray:none;stroke-opacity:1" />
  <path
     id="path11"
     d="m 2.8042749,1.9932255 0,9.4135475 6.3245408,0 0,-9.4135475 -6.3245408,0 z"
     style="fill:#ffffff;fill-opacity:1;fill-rule:evenodd;stroke:none" />
  <path
     id="path13"
     d="m 2.8042749,11.406773 6.3245408,0 0,-9.4135475 -6.3245408,0 0,9.4135475 z"
     style="fill:none;stroke:#000000;stroke-width:0.0795539px;stroke-linecap:round;stroke-linejoin:round;stroke-miterlimit:4;stroke-dasharray:none;stroke-opacity:1" />
  <path
     id="path15"
     d="m 12.271191,1.9932255 0,9.4135475 6.324543,0 0,-9.4135475 -6.324543,0 z"
     style="fill:#ffffff;fill-opacity:1;fill-rule:evenodd;stroke:none" />
  <path
     id="path17"
     d="m 12.271191,11.406773 6.324543,0 0,-9.4135475 -6.324543,0 0,9.4135475 z"
     style="fill:none;stroke:#000000;stroke-width:0.0795539px;stroke-linecap:round;stroke-linejoin:round;stroke-miterlimit:4;stroke-dasharray:none;stroke-opacity:1" />
  <path
     id="path19"
     d="M 5.9665439,3.5720302 16.228991,9.8279938"
     style="fill:none;stroke:#000000;stroke-width:0.2585502px;stroke-linecap:round;stroke-linejoin:round;stroke-miterlimit:4;stroke-dasharray:none;stroke-opacity:1" />
  <path
     id="path21"
     d="M 5.9665439,9.8279938 16.228991,3.5720302"
     style="fill:none;stroke:#000000;stroke-width:0.2585502px;stroke-linecap:round;stroke-linejoin:round;stroke-miterlimit:4;stroke-dasharray:none;stroke-opacity:1" />
</svg>
