<?xml version="1.0" encoding="UTF-8" standalone="no"?>
<svg
   xmlns:dc="http://purl.org/dc/elements/1.1/"
   xmlns:cc="http://creativecommons.org/ns#"
   xmlns:rdf="http://www.w3.org/1999/02/22-rdf-syntax-ns#"
   xmlns:svg="http://www.w3.org/2000/svg"
   xmlns="http://www.w3.org/2000/svg"
   viewBox="0 0 21.599998 13.6"
   id="svg2"
   height="13.6mm"
   width="21.599998mm"
   version="1.0">
  <metadata
     id="metadata33">
    <rdf:RDF>
      <cc:Work
         rdf:about="">
        <dc:format>image/svg+xml</dc:format>
        <dc:type
           rdf:resource="http://purl.org/dc/dcmitype/StillImage" />
        <dc:title></dc:title>
      </cc:Work>
    </rdf:RDF>
  </metadata>
  <defs
     id="defs4">
    <pattern
       y="0"
       x="0"
       height="6"
       width="6"
       patternUnits="userSpaceOnUse"
       id="WMFhbasepattern" />
  </defs>
  <path
     id="path7"
     d="m 0.43754527,0.43416784 0,12.53165716 20.52490473,0 0,-12.53165716 -20.52490473,0 z"
     style="fill:#ccffcc;fill-opacity:1;fill-rule:evenodd;stroke:none" />
  <path
     id="path9"
     d="m 20.96245,12.965825 -20.52490473,0 0,-12.53165716 20.52490473,0 0,12.53165716 z"
     style="fill:none;stroke:#000000;stroke-width:0.0795539px;stroke-linecap:round;stroke-linejoin:round;stroke-miterlimit:4;stroke-dasharray:none;stroke-opacity:1" />
  <path
     id="path11"
     d="m 16.626755,5.52577 0,2.3484558 2.366743,0 0,-2.3484558 -2.366743,0 z"
     style="fill:#ffffff;fill-opacity:1;fill-rule:evenodd;stroke:none" />
  <path
     id="path13"
     d="m 18.993498,7.8742258 -2.366743,0 0,-2.3484558 2.366743,0 0,2.3484558 z"
     style="fill:none;stroke:#000000;stroke-width:0.0795539px;stroke-linecap:round;stroke-linejoin:round;stroke-miterlimit:4;stroke-dasharray:none;stroke-opacity:1" />
  <path
     id="path15"
     d="m 9.1288157,6.7098616 3.1821403,0"
     style="fill:none;stroke:#000000;stroke-width:0.2585502px;stroke-linecap:round;stroke-linejoin:round;stroke-miterlimit:4;stroke-dasharray:none;stroke-opacity:1" />
  <path
     id="path17"
     d="m 12.032515,5.5652529 3.400948,1.1446087 -3.400948,1.1248813 0,-2.26949 z"
     style="fill:#000000;fill-opacity:1;fill-rule:evenodd;stroke:none" />
  <path
     id="path19"
     d="M 6.0659708,8.3676067 4.3754597,6.7098616 6.0659708,5.0323891 7.7366134,6.7098616 6.0659708,8.3676067 Z"
     style="fill:#ffffff;fill-opacity:1;fill-rule:evenodd;stroke:none" />
  <path
     id="path21"
     d="M 6.0659708,8.3676067 4.3754597,6.7098616 6.0659708,5.0323891 7.7366134,6.7098616 6.0659708,8.3676067 Z"
     style="fill:none;stroke:#000000;stroke-width:0.0795539px;stroke-linecap:round;stroke-linejoin:round;stroke-miterlimit:4;stroke-dasharray:none;stroke-opacity:1" />
  <path
     id="path23"
     d="M 4.7732237,3.1773142 4.7533552,2.9405016 4.6936934,2.7234162 4.5743417,2.5260667 4.4351214,2.348453 4.2561361,2.210308 4.0572541,2.0918988 3.8384754,2.0326943 3.5998001,1.9932255 3.361153,2.0326943 3.1423743,2.0918988 2.9235957,2.210308 2.7644985,2.348453 2.6053901,2.5260667 l -0.099444,0.1973495 -0.079553,0.2170854 -0.019888,0.2368126 0.019888,0.2368127 0.079553,0.2170853 0.099444,0.197358 0.1591084,0.1776025 0.1590972,0.1381477 0.2187786,0.1184205 0.2187787,0.05921 0.2386471,0.019727 0.2386753,-0.019727 0.2187787,-0.05921 0.198882,-0.1184205 0.1789853,-0.1381477 0.1392203,-0.1776025 0.1193517,-0.197358 0.059662,-0.2170853 0.019869,-0.2368127 z"
     style="fill:#ffffff;fill-opacity:1;fill-rule:evenodd;stroke:none" />
  <path
     id="path25"
     d="M 4.7732237,3.1773142 4.7533552,2.9405016 4.6936934,2.7234162 4.5743417,2.5260667 4.4351214,2.348453 4.2561361,2.210308 4.0572541,2.0918988 3.8384754,2.0326943 3.5998001,1.9932255 3.361153,2.0326943 3.1423743,2.0918988 2.9235957,2.210308 2.7644985,2.348453 2.6053901,2.5260667 l -0.099444,0.1973495 -0.079553,0.2170854 -0.019888,0.2368126 0.019888,0.2368127 0.079553,0.2170853 0.099444,0.197358 0.1591084,0.1776025 0.1590972,0.1381477 0.2187786,0.1184205 0.2187787,0.05921 0.2386471,0.019727 0.2386753,-0.019727 0.2187787,-0.05921 0.198882,-0.1184205 0.1789853,-0.1381477 0.1392203,-0.1776025 0.1193517,-0.197358 0.059662,-0.2170853 0.019869,-0.2368127"
     style="fill:none;stroke:#333333;stroke-width:0.0795539px;stroke-linecap:round;stroke-linejoin:round;stroke-miterlimit:4;stroke-dasharray:none;stroke-opacity:1" />
  <path
     id="path27"
     d="m 5.1710159,11.406773 -2.366741,0 1.1933174,-2.3484557 1.1734236,2.3484557 z"
     style="fill:#ffffff;fill-opacity:1;fill-rule:evenodd;stroke:none" />
  <path
     id="path29"
     d="m 5.1710159,11.406773 -2.366741,0 1.1933174,-2.3484557 1.1734236,2.3484557 z"
     style="fill:none;stroke:#333333;stroke-width:0.0795539px;stroke-linecap:round;stroke-linejoin:round;stroke-miterlimit:4;stroke-dasharray:none;stroke-opacity:1" />
</svg>
