<?xml version="1.0" encoding="UTF-8" standalone="no"?>
<svg
   xmlns:dc="http://purl.org/dc/elements/1.1/"
   xmlns:cc="http://creativecommons.org/ns#"
   xmlns:rdf="http://www.w3.org/1999/02/22-rdf-syntax-ns#"
   xmlns:svg="http://www.w3.org/2000/svg"
   xmlns="http://www.w3.org/2000/svg"
   viewBox="0 0 21.799999 13.6"
   id="svg2"
   height="13.6mm"
   width="21.799999mm"
   version="1.0">
  <metadata
     id="metadata35">
    <rdf:RDF>
      <cc:Work
         rdf:about="">
        <dc:format>image/svg+xml</dc:format>
        <dc:type
           rdf:resource="http://purl.org/dc/dcmitype/StillImage" />
        <dc:title></dc:title>
      </cc:Work>
    </rdf:RDF>
  </metadata>
  <defs
     id="defs4">
    <pattern
       y="0"
       x="0"
       height="6"
       width="6"
       patternUnits="userSpaceOnUse"
       id="WMFhbasepattern" />
  </defs>
  <path
     id="path7"
     d="m 0.51999932,0.43416784 0,12.53165716 20.64000568,0 0,-12.53165716 -20.64000568,0 z"
     style="fill:#ccffcc;fill-opacity:1;fill-rule:evenodd;stroke:none" />
  <path
     id="path9"
     d="m 0.51999932,12.965825 20.64000568,0 0,-12.53165716 -20.64000568,0 0,12.53165716 z"
     style="fill:none;stroke:#000000;stroke-width:0.08000001px;stroke-linecap:round;stroke-linejoin:round;stroke-miterlimit:4;stroke-dasharray:none;stroke-opacity:1" />
  <path
     id="path11"
     d="m 0.51999932,6.7098616 6.36001328,0"
     style="fill:none;stroke:#808080;stroke-width:0.25999999px;stroke-linecap:round;stroke-linejoin:round;stroke-miterlimit:4;stroke-dasharray:none;stroke-opacity:1" />
  <path
     id="path13"
     d="m 15.600002,6.7098616 -0.02001,-0.4736254 -0.06,-0.4341706 L 15.399991,5.3678949 15.239999,4.9534516 15.059998,4.5587638 14.819996,4.1838033 14.560013,3.8285702 14.260011,3.51282 13.939999,3.2167971 13.600006,2.9602289 13.219994,2.743152 12.82,2.5458025 12.399997,2.4076575 11.960013,2.2892484 11.49999,2.2300438 11.039996,2.190575 10.580002,2.2300438 10.120008,2.2892484 9.6799957,2.4076575 9.2599926,2.5458025 8.859999,2.743152 8.4999963,2.9602289 8.1399937,3.2167971 7.8200101,3.51282 7.5200079,3.8285702 7.2599966,4.1838033 7.0199948,4.5587638 6.8399934,4.9534516 6.6800017,5.3678949 l -0.099991,0.4341707 -0.08001,0.4341706 -0.020009,0.4736254 0.020009,0.453898 0.08001,0.4539262 0.099991,0.4144151 0.1599917,0.4144433 0.1800014,0.3946878 0.2400018,0.3749604 0.2600113,0.3552332 0.3000022,0.3157502 0.3199836,0.2960232 0.3600026,0.256568 0.3600027,0.217085 0.3999936,0.197358 0.4200031,0.13812 0.4400123,0.11842 0.459994,0.07894 0.459994,0.01973 0.459994,-0.01973 0.460023,-0.07894 0.439984,-0.11842 0.420003,-0.13812 0.399994,-0.197358 0.380012,-0.217085 0.339993,-0.256568 0.320012,-0.2960232 0.300002,-0.3157502 0.259983,-0.3552332 0.240002,-0.3749604 0.180001,-0.3946878 0.159992,-0.4144433 0.120001,-0.4144151 0.06,-0.4539262 0.02001,-0.453898 z"
     style="fill:#ccffcc;fill-opacity:1;fill-rule:evenodd;stroke:none" />
  <path
     id="path15"
     d="m 15.600002,6.7098616 -0.02001,-0.4736254 -0.06,-0.4341706 L 15.399991,5.3678949 15.239999,4.9534516 15.059998,4.5587638 14.819996,4.1838033 14.560013,3.8285702 14.260011,3.51282 13.939999,3.2167971 13.600006,2.9602289 13.219994,2.743152 12.82,2.5458025 12.399997,2.4076575 11.960013,2.2892484 11.49999,2.2300438 11.039996,2.190575 10.580002,2.2300438 10.120008,2.2892484 9.6799957,2.4076575 9.2599926,2.5458025 8.859999,2.743152 8.4999963,2.9602289 8.1399937,3.2167971 7.8200101,3.51282 7.5200079,3.8285702 7.2599966,4.1838033 7.0199948,4.5587638 6.8399934,4.9534516 6.6800017,5.3678949 l -0.099991,0.4341707 -0.08001,0.4341706 -0.020009,0.4736254 0.020009,0.453898 0.08001,0.4539262 0.099991,0.4144151 0.1599917,0.4144433 0.1800014,0.3946878 0.2400018,0.3749604 0.2600113,0.3552332 0.3000022,0.3157502 0.3199836,0.2960232 0.3600026,0.256568 0.3600027,0.217085 0.3999936,0.197358 0.4200031,0.13812 0.4400123,0.11842 0.459994,0.07894 0.459994,0.01973 0.459994,-0.01973 0.460023,-0.07894 0.439984,-0.11842 0.420003,-0.13812 0.399994,-0.197358 0.380012,-0.217085 0.339993,-0.256568 0.320012,-0.2960232 0.300002,-0.3157502 0.259983,-0.3552332 0.240002,-0.3749604 0.180001,-0.3946878 0.159992,-0.4144433 0.120001,-0.4144151 0.06,-0.4539262 0.02001,-0.453898"
     style="fill:none;stroke:#333333;stroke-width:0.25999999px;stroke-linecap:round;stroke-linejoin:round;stroke-miterlimit:4;stroke-dasharray:none;stroke-opacity:1" />
  <path
     id="path17"
     d="m 16.860011,7.8150156 1.119999,-1.105154 -1.119999,-1.1248814 -1.119999,1.1248814 1.119999,1.105154 z"
     style="fill:#000000;fill-opacity:1;fill-rule:evenodd;stroke:none" />
  <path
     id="path19"
     d="m 16.860011,7.8150156 1.119999,-1.105154 -1.119999,-1.1248814 -1.119999,1.1248814 1.119999,1.105154 z"
     style="fill:none;stroke:#000000;stroke-width:0.25999999px;stroke-linecap:round;stroke-linejoin:round;stroke-miterlimit:4;stroke-dasharray:none;stroke-opacity:1" />
  <path
     id="path21"
     d="m 5.2800101,4.3416784 5.5599749,2.3681832 -5.5599749,2.3484557 0,-4.7166389 z"
     style="fill:#ccffcc;fill-opacity:1;fill-rule:evenodd;stroke:none" />
  <path
     id="path23"
     d="m 5.2800101,4.3416784 5.5599749,2.3681832 -5.5599749,2.3484557 0,-4.7166389 z"
     style="fill:none;stroke:#ccffcc;stroke-width:0.25999999px;stroke-linecap:round;stroke-linejoin:round;stroke-miterlimit:4;stroke-dasharray:none;stroke-opacity:1" />
  <path
     id="path25"
     d="m 7.6599901,6.7098616 -2.37998,1.1643642 0,-2.3484558 2.37998,1.1840916 z"
     style="fill:#808080;fill-opacity:1;fill-rule:evenodd;stroke:none" />
  <path
     id="path27"
     d="m 7.6599901,6.7098616 -2.37998,1.1643642 0,-2.3484558 2.37998,1.1840916 z"
     style="fill:none;stroke:#808080;stroke-width:0.25999999px;stroke-linecap:round;stroke-linejoin:round;stroke-miterlimit:4;stroke-dasharray:none;stroke-opacity:1" />
  <path
     id="path29"
     d="M 6.5600008,5.6639178 6.6400108,4.3416784 7.6599901,4.9337242 6.5600008,5.6639178 Z"
     style="fill:#000000;fill-opacity:1;fill-rule:evenodd;stroke:none" />
  <path
     id="path31"
     d="M 6.5600008,5.6639178 6.6400108,4.3416784 7.6599901,4.9337242 6.5600008,5.6639178 Z"
     style="fill:none;stroke:#000000;stroke-width:0.25999999px;stroke-linecap:round;stroke-linejoin:round;stroke-miterlimit:4;stroke-dasharray:none;stroke-opacity:1" />
</svg>
