<?xml version="1.0" encoding="UTF-8" standalone="no"?>
<svg
   xmlns:dc="http://purl.org/dc/elements/1.1/"
   xmlns:cc="http://creativecommons.org/ns#"
   xmlns:rdf="http://www.w3.org/1999/02/22-rdf-syntax-ns#"
   xmlns:svg="http://www.w3.org/2000/svg"
   xmlns="http://www.w3.org/2000/svg"
   viewBox="0 0 21.599998 13.6"
   id="svg2"
   height="13.6mm"
   width="21.599998mm"
   version="1.0">
  <metadata
     id="metadata43">
    <rdf:RDF>
      <cc:Work
         rdf:about="">
        <dc:format>image/svg+xml</dc:format>
        <dc:type
           rdf:resource="http://purl.org/dc/dcmitype/StillImage" />
        <dc:title></dc:title>
      </cc:Work>
    </rdf:RDF>
  </metadata>
  <defs
     id="defs4">
    <pattern
       y="0"
       x="0"
       height="6"
       width="6"
       patternUnits="userSpaceOnUse"
       id="WMFhbasepattern" />
  </defs>
  <path
     id="path7"
     d="m 0.43754527,0.43416784 0,12.53165716 20.52490473,0 0,-12.53165716 -20.52490473,0 z"
     style="fill:#ccffcc;fill-opacity:1;fill-rule:evenodd;stroke:none" />
  <path
     id="path9"
     d="m 0.43754527,12.965825 20.52490473,0 0,-12.53165716 -20.52490473,0 0,12.53165716 z"
     style="fill:none;stroke:#000000;stroke-width:0.0795539px;stroke-linecap:round;stroke-linejoin:round;stroke-miterlimit:4;stroke-dasharray:none;stroke-opacity:1" />
  <path
     id="path11"
     d="m 2.4065053,9.4332778 0,2.3484562 3.5600386,0 0,-2.3484562 -3.5600386,0 z"
     style="fill:#ffffff;fill-opacity:1;fill-rule:evenodd;stroke:none" />
  <path
     id="path13"
     d="m 2.4065053,11.781734 3.5600386,0 0,-2.3484562 -3.5600386,0 0,2.3484562 z"
     style="fill:none;stroke:#000000;stroke-width:0.0795539px;stroke-linecap:round;stroke-linejoin:round;stroke-miterlimit:4;stroke-dasharray:none;stroke-opacity:1" />
  <path
     id="path15"
     d="m 8.7310517,9.4332778 0,2.3484562 3.5401393,0 0,-2.3484562 -3.5401393,0 z"
     style="fill:#ffffff;fill-opacity:1;fill-rule:evenodd;stroke:none" />
  <path
     id="path17"
     d="m 8.7310517,11.781734 3.5401393,0 0,-2.3484562 -3.5401393,0 0,2.3484562 z"
     style="fill:none;stroke:#000000;stroke-width:0.0795539px;stroke-linecap:round;stroke-linejoin:round;stroke-miterlimit:4;stroke-dasharray:none;stroke-opacity:1" />
  <path
     id="path19"
     d="m 15.035699,9.4332778 0,2.3484562 3.560035,0 0,-2.3484562 -3.560035,0 z"
     style="fill:#ffffff;fill-opacity:1;fill-rule:evenodd;stroke:none" />
  <path
     id="path21"
     d="m 15.035699,11.781734 3.560035,0 0,-2.3484562 -3.560035,0 0,2.3484562 z"
     style="fill:none;stroke:#000000;stroke-width:0.0795539px;stroke-linecap:round;stroke-linejoin:round;stroke-miterlimit:4;stroke-dasharray:none;stroke-opacity:1" />
  <path
     id="path23"
     d="M 11.873427,2.7826208 11.85353,2.5458025 11.793868,2.32872 11.674545,2.1313704 11.535325,1.9537567 11.356311,1.8156118 11.157429,1.6972026 10.93865,1.637998 10.700003,1.6182622 10.461328,1.637998 10.242577,1.6972026 10.043667,1.8156118 9.8646819,1.9537567 9.7254617,2.1313704 9.6061381,2.32872 9.5464763,2.5458025 9.506683,2.7826208 l 0.039793,0.2368183 0.059662,0.2170853 0.1193236,0.197358 0.1392202,0.1776025 0.1789851,0.1381478 0.19891,0.1184204 0.218751,0.059182 0.238675,0.039483 0.238647,-0.039483 0.218779,-0.059182 0.198882,-0.1184204 0.179014,-0.1381478 0.13922,-0.1776025 0.119323,-0.197358 0.05966,-0.2170853 0.0199,-0.2368183 z"
     style="fill:#ffffff;fill-opacity:1;fill-rule:evenodd;stroke:none" />
  <path
     id="path25"
     d="M 11.873427,2.7826208 11.85353,2.5458025 11.793868,2.32872 11.674545,2.1313704 11.535325,1.9537567 11.356311,1.8156118 11.157429,1.6972026 10.93865,1.637998 10.700003,1.6182622 10.461328,1.637998 10.242577,1.6972026 10.043667,1.8156118 9.8646819,1.9537567 9.7254617,2.1313704 9.6061381,2.32872 9.5464763,2.5458025 9.506683,2.7826208 l 0.039793,0.2368183 0.059662,0.2170853 0.1193236,0.197358 0.1392202,0.1776025 0.1789852,0.1381478 0.19891,0.1184204 0.218751,0.059182 0.238675,0.039483 0.238647,-0.039483 0.218779,-0.059182 0.198882,-0.1184204 0.179014,-0.1381478 0.13922,-0.1776025 0.119323,-0.197358 0.05966,-0.2170853 0.0199,-0.2368183"
     style="fill:none;stroke:#000000;stroke-width:0.0795539px;stroke-linecap:round;stroke-linejoin:round;stroke-miterlimit:4;stroke-dasharray:none;stroke-opacity:1" />
  <path
     id="path27"
     d="m 4.3754597,9.4332778 0,-2.7234162"
     style="fill:none;stroke:#000000;stroke-width:0.2585502px;stroke-linecap:round;stroke-linejoin:round;stroke-miterlimit:4;stroke-dasharray:none;stroke-opacity:1" />
  <path
     id="path29"
     d="m 17.00465,9.4332778 0,-2.7234162"
     style="fill:none;stroke:#000000;stroke-width:0.2585502px;stroke-linecap:round;stroke-linejoin:round;stroke-miterlimit:4;stroke-dasharray:none;stroke-opacity:1" />
  <path
     id="path31"
     d="m 4.3754597,6.7098616 12.6291903,0"
     style="fill:none;stroke:#000000;stroke-width:0.2585502px;stroke-linecap:round;stroke-linejoin:round;stroke-miterlimit:4;stroke-dasharray:none;stroke-opacity:1" />
  <path
     id="path33"
     d="m 10.700003,6.7098616 0,2.7234162"
     style="fill:none;stroke:#000000;stroke-width:0.2585502px;stroke-linecap:round;stroke-linejoin:round;stroke-miterlimit:4;stroke-dasharray:none;stroke-opacity:1" />
  <path
     id="path35"
     d="m 10.700003,6.7098616 0,-2.7431436"
     style="fill:none;stroke:#000000;stroke-width:0.2585502px;stroke-linecap:round;stroke-linejoin:round;stroke-miterlimit:4;stroke-dasharray:none;stroke-opacity:1" />
  <path
     id="path37"
     d="M 8.1940392,6.7098616 10.700003,4.8350593 13.205939,6.7098616 10.700003,8.5649364 8.1940392,6.7098616 Z"
     style="fill:#ffffff;fill-opacity:1;fill-rule:evenodd;stroke:none" />
  <path
     id="path39"
     d="M 8.1940392,6.7098616 10.700003,4.8350593 13.205939,6.7098616 10.700003,8.5649364 8.1940392,6.7098616 Z"
     style="fill:none;stroke:#000000;stroke-width:0.0795539px;stroke-linecap:round;stroke-linejoin:round;stroke-miterlimit:4;stroke-dasharray:none;stroke-opacity:1" />
</svg>
