<?xml version="1.0" encoding="UTF-8" standalone="no"?>
<svg
   xmlns:dc="http://purl.org/dc/elements/1.1/"
   xmlns:cc="http://creativecommons.org/ns#"
   xmlns:rdf="http://www.w3.org/1999/02/22-rdf-syntax-ns#"
   xmlns:svg="http://www.w3.org/2000/svg"
   xmlns="http://www.w3.org/2000/svg"
   viewBox="0 0 21.599998 13.6"
   id="svg2"
   height="13.6mm"
   width="21.599998mm"
   version="1.0">
  <metadata
     id="metadata33">
    <rdf:RDF>
      <cc:Work
         rdf:about="">
        <dc:format>image/svg+xml</dc:format>
        <dc:type
           rdf:resource="http://purl.org/dc/dcmitype/StillImage" />
        <dc:title></dc:title>
      </cc:Work>
    </rdf:RDF>
  </metadata>
  <defs
     id="defs4">
    <pattern
       y="0"
       x="0"
       height="6"
       width="6"
       patternUnits="userSpaceOnUse"
       id="WMFhbasepattern" />
  </defs>
  <path
     id="path7"
     d="m 0.43754527,0.43416784 0,12.53165716 20.52490473,0 0,-12.53165716 -20.52490473,0 z"
     style="fill:#ccffcc;fill-opacity:1;fill-rule:evenodd;stroke:none" />
  <path
     id="path9"
     d="m 0.43754527,12.965825 20.52490473,0 0,-12.53165716 -20.52490473,0 0,12.53165716 z"
     style="fill:none;stroke:#000000;stroke-width:0.0795539px;stroke-linecap:round;stroke-linejoin:round;stroke-miterlimit:4;stroke-dasharray:none;stroke-opacity:1" />
  <path
     id="path11"
     d="m 2.0087356,6.7098616 3.9578083,0"
     style="fill:none;stroke:#000000;stroke-width:0.2585502px;stroke-linecap:round;stroke-linejoin:round;stroke-miterlimit:4;stroke-dasharray:none;stroke-opacity:1" />
  <path
     id="path13"
     d="m 5.1113259,6.7098616 0.019897,0.1578751 0.039793,0.1579033 0.07953,0.1578751 0.1193518,0.1183922 0.1193235,0.098693 0.1392203,0.078938 0.1591169,0.059182 0.1789853,0 0.1591169,0 0.1789853,-0.059182 0.1392202,-0.078938 0.1193236,-0.098693 0.099455,-0.1183922 0.079558,-0.1578751 0.059662,-0.1579033 0.019869,-0.1578751 0,0 L 6.8018652,6.5322591 6.7422034,6.374384 6.662645,6.2362362 6.5631899,6.0980884 6.4438663,5.9994236 6.3046461,5.9204578 6.1256608,5.8810031 5.9665439,5.8612758 5.7875586,5.8810031 5.6284417,5.9204578 5.4892214,5.9994236 5.3698979,6.0980884 5.2505461,6.2362362 5.1710159,6.374384 5.1312226,6.5322591 5.1113259,6.7098616 Z"
     style="fill:#000000;fill-opacity:1;fill-rule:evenodd;stroke:none" />
  <path
     id="path15"
     d="m 15.433463,2.7826208 3.957799,0"
     style="fill:none;stroke:#000000;stroke-width:0.2585502px;stroke-linecap:round;stroke-linejoin:round;stroke-miterlimit:4;stroke-dasharray:none;stroke-opacity:1" />
  <path
     id="path17"
     d="m 16.288652,2.7826208 -0.01987,-0.1776137 -0.03979,-0.157878 -0.07956,-0.1381449 -0.119323,-0.1184092 -0.119324,-0.098676 -0.13922,-0.078937 -0.159117,-0.059205 -0.178985,-0.019736 -0.179014,0.019736 -0.159089,0.059205 -0.13922,0.078937 -0.119352,0.098676 -0.09943,0.1184092 -0.07956,0.1381449 -0.05966,0.157878 -0.0199,0.1776137 0,0 0.0199,0.1776081 0.05966,0.1578751 0.07956,0.1381478 0.09943,0.1184204 0.119352,0.1183922 0.13922,0.078966 0.159089,0.039455 0.179014,0.019727 0.178985,-0.019727 0.159117,-0.039455 0.13922,-0.078966 0.119324,-0.1183922 0.119323,-0.1184204 0.07956,-0.1381478 0.03979,-0.1578751 0.01987,-0.1776081 z"
     style="fill:#000000;fill-opacity:1;fill-rule:evenodd;stroke:none" />
  <path
     id="path19"
     d="m 15.433463,6.7098616 3.957799,0"
     style="fill:none;stroke:#000000;stroke-width:0.2585502px;stroke-linecap:round;stroke-linejoin:round;stroke-miterlimit:4;stroke-dasharray:none;stroke-opacity:1" />
  <path
     id="path21"
     d="m 16.288652,6.7098616 -0.01987,-0.1776025 -0.03979,-0.1578751 -0.07956,-0.1381478 -0.119323,-0.1381478 -0.119324,-0.098665 -0.13922,-0.078966 -0.159117,-0.039455 -0.178985,-0.019727 -0.179014,0.019727 -0.159089,0.039455 -0.13922,0.078966 -0.119352,0.098665 -0.09943,0.1381478 -0.07956,0.1381478 -0.05966,0.1578751 -0.0199,0.1776025 0,0 0.0199,0.1578751 0.05966,0.1579033 0.07956,0.1578751 0.09943,0.1183922 0.119352,0.098693 0.13922,0.078938 0.159089,0.059182 0.179014,0 0.178985,0 0.159117,-0.059182 0.13922,-0.078938 0.119324,-0.098693 0.119323,-0.1183922 0.07956,-0.1578751 0.03979,-0.1579033 0.01987,-0.1578751 z"
     style="fill:#000000;fill-opacity:1;fill-rule:evenodd;stroke:none" />
  <path
     id="path23"
     d="m 15.433463,10.617369 3.957799,0"
     style="fill:none;stroke:#000000;stroke-width:0.2585502px;stroke-linecap:round;stroke-linejoin:round;stroke-miterlimit:4;stroke-dasharray:none;stroke-opacity:1" />
  <path
     id="path25"
     d="m 16.288652,10.617369 -0.01987,-0.177602 -0.03979,-0.157875 -0.07956,-0.138148 -0.119323,-0.11842 -0.119324,-0.1183927 -0.13922,-0.078938 -0.159117,-0.039483 -0.178985,-0.019727 -0.179014,0.019727 -0.159089,0.039483 -0.13922,0.078938 -0.119352,0.1183927 -0.09943,0.11842 -0.07956,0.138148 -0.05966,0.157875 -0.0199,0.177602 0,0 0.0199,0.177631 0.05966,0.157875 0.07956,0.138148 0.09943,0.118392 0.119352,0.118421 0.13922,0.05921 0.159089,0.05921 0.179014,0.01973 0.178985,-0.01973 0.159117,-0.05921 0.13922,-0.05921 0.119324,-0.118421 0.119323,-0.118392 0.07956,-0.138148 0.03979,-0.157875 0.01987,-0.177631 z"
     style="fill:#000000;fill-opacity:1;fill-rule:evenodd;stroke:none" />
  <path
     id="path27"
     d="M 5.9665439,6.7098616 15.433463,2.7826208"
     style="fill:none;stroke:#000000;stroke-width:0.2585502px;stroke-linecap:round;stroke-linejoin:round;stroke-miterlimit:4;stroke-dasharray:none;stroke-opacity:1" />
  <path
     id="path29"
     d="m 15.433463,10.617369 -9.4669191,-3.9075074 9.4669191,0"
     style="fill:none;stroke:#000000;stroke-width:0.2585502px;stroke-linecap:round;stroke-linejoin:round;stroke-miterlimit:4;stroke-dasharray:none;stroke-opacity:1" />
</svg>
