<?xml version="1.0" encoding="UTF-8" standalone="no"?>
<svg
   xmlns:dc="http://purl.org/dc/elements/1.1/"
   xmlns:cc="http://creativecommons.org/ns#"
   xmlns:rdf="http://www.w3.org/1999/02/22-rdf-syntax-ns#"
   xmlns:svg="http://www.w3.org/2000/svg"
   xmlns="http://www.w3.org/2000/svg"
   viewBox="0 0 21.799999 13.6"
   id="svg2"
   height="13.6mm"
   width="21.799999mm"
   version="1.0">
  <metadata
     id="metadata27">
    <rdf:RDF>
      <cc:Work
         rdf:about="">
        <dc:format>image/svg+xml</dc:format>
        <dc:type
           rdf:resource="http://purl.org/dc/dcmitype/StillImage" />
        <dc:title></dc:title>
      </cc:Work>
    </rdf:RDF>
  </metadata>
  <defs
     id="defs4">
    <pattern
       y="0"
       x="0"
       height="6"
       width="6"
       patternUnits="userSpaceOnUse"
       id="WMFhbasepattern" />
  </defs>
  <path
     id="path7"
     d="m 0.51999932,0.43416784 0,12.53165716 20.64000568,0 0,-12.53165716 -20.64000568,0 z"
     style="fill:#ccffcc;fill-opacity:1;fill-rule:evenodd;stroke:none" />
  <path
     id="path9"
     d="m 0.51999932,12.965825 20.64000568,0 0,-12.53165716 -20.64000568,0 0,12.53165716 z"
     style="fill:none;stroke:#000000;stroke-width:0.08000001px;stroke-linecap:round;stroke-linejoin:round;stroke-miterlimit:4;stroke-dasharray:none;stroke-opacity:1" />
  <path
     id="path11"
     d="M 19.179991,6.7098616 19.160009,6.433566 19.14,6.1572987 l -0.06,-0.2565683 -0.08001,-0.25654 L 18.800007,5.1310822 18.519986,4.6377013 18.179993,4.1838033 17.75999,3.7496327 17.279986,3.3351893 16.74001,2.9602289 16.140006,2.6247429 15.500011,2.3089842 14.819996,2.0524301 14.080009,1.8353447 13.320013,1.657731 12.519998,1.5195889 11.700001,1.4406485 10.839985,1.4209127 10.000007,1.4406485 9.1600012,1.5195889 8.3599859,1.657731 7.5999897,1.8353447 6.8800126,2.0524301 6.1799886,2.3089842 5.5399932,2.6247429 4.9599983,2.9602289 4.4199943,3.3351893 3.9399908,3.7496327 3.5199877,4.1838033 3.1600132,4.6377013 2.8799923,5.1310822 2.6799984,5.6441904 l -0.079999,0.25654 -0.039999,0.2565683 -0.040002,0.2762673 -0.019998,0.2762956 0.019998,0.2565682 0.040002,0.2762673 0.039999,0.2565682 0.079999,0.2762956 0.1999939,0.4933527 0.2800209,0.4933808 0.3599745,0.453898 0.4200031,0.4341707 0.4800035,0.4144429 0.540004,0.374961 0.5799949,0.335477 0.6399954,0.315779 0.700024,0.25654 0.7199771,0.217085 0.7599962,0.177631 0.8000153,0.138119 0.8400058,0.07897 0.839978,0.01973 0.860016,-0.01973 0.819997,-0.07897 0.800015,-0.138119 0.759996,-0.177631 0.739987,-0.217085 0.680015,-0.25654 0.639995,-0.315779 0.600004,-0.335477 0.539976,-0.374961 0.480004,-0.4144429 0.420003,-0.4341707 0.339993,-0.453898 0.280021,-0.4933808 0.199982,-0.4933527 0.08001,-0.2762956 0.06,-0.2565682 0.02001,-0.2762673 0.01998,-0.2565682 z"
     style="fill:#ccffff;fill-opacity:1;fill-rule:evenodd;stroke:none" />
  <path
     id="path13"
     d="M 19.179991,6.7098616 19.160009,6.433566 19.14,6.1572987 19.08,5.9007304 18.99999,5.6441904 18.800007,5.1310822 18.519986,4.6377013 18.179993,4.1838033 17.75999,3.7496327 17.279986,3.3351893 16.74001,2.9602289 16.140006,2.6247429 15.500011,2.3089842 14.819996,2.0524301 14.080009,1.8353447 13.320013,1.657731 12.519998,1.5195889 11.700001,1.4406485 10.839985,1.4209127 10.000007,1.4406485 9.1600012,1.5195889 8.3599859,1.657731 7.5999897,1.8353447 6.8800126,2.0524301 6.1799886,2.3089842 5.5399932,2.6247429 4.9599983,2.9602289 4.4199943,3.3351893 3.9399908,3.7496327 3.5199877,4.1838033 3.1600132,4.6377013 2.8799923,5.1310822 2.6799984,5.6441904 l -0.079999,0.25654 -0.039999,0.2565683 -0.040002,0.2762673 -0.019998,0.2762956 0.019998,0.2565682 0.040002,0.2762673 0.039999,0.2565682 0.079999,0.2762956 0.1999939,0.4933527 0.2800209,0.4933808 0.3599745,0.453898 0.4200031,0.4341707 0.4800035,0.4144429 0.540004,0.374961 0.5799949,0.335477 0.6399954,0.315779 0.700024,0.25654 0.7199771,0.217085 0.7599962,0.177631 0.8000153,0.138119 0.8400058,0.07897 0.839978,0.01973 0.860016,-0.01973 0.819997,-0.07897 0.800015,-0.138119 0.759996,-0.177631 0.739987,-0.217085 0.680015,-0.25654 0.639995,-0.315779 0.600004,-0.335477 0.539976,-0.374961 0.480004,-0.4144429 0.420003,-0.4341707 0.339993,-0.453898 0.280021,-0.4933808 0.199982,-0.4933527 0.08001,-0.2762956 0.06,-0.2565682 0.02001,-0.2762673 0.01998,-0.2565682"
     style="fill:none;stroke:#000000;stroke-width:0.08000001px;stroke-linecap:round;stroke-linejoin:round;stroke-miterlimit:4;stroke-dasharray:none;stroke-opacity:1" />
  <path
     id="path15"
     d="m 10.839985,4.3416784 0,4.7166389 4.760017,0 0,-4.7166389 -4.760017,0 z"
     style="fill:#ffffff;fill-opacity:1;fill-rule:evenodd;stroke:none" />
  <path
     id="path17"
     d="m 15.600002,9.0583173 -4.760017,0 0,-4.7166389 4.760017,0 0,4.7166389 z"
     style="fill:none;stroke:#000000;stroke-width:0.08000001px;stroke-linecap:round;stroke-linejoin:round;stroke-miterlimit:4;stroke-dasharray:none;stroke-opacity:1" />
  <path
     id="path19"
     d="m 0.51999932,6.7098616 6.36001328,0"
     style="fill:none;stroke:#808080;stroke-width:0.25999999px;stroke-linecap:round;stroke-linejoin:round;stroke-miterlimit:4;stroke-dasharray:none;stroke-opacity:1" />
  <path
     id="path21"
     d="m 9.2599926,6.7098616 -2.37998,1.1643642 0,-2.3484558 2.37998,1.1840916 z"
     style="fill:#808080;fill-opacity:1;fill-rule:evenodd;stroke:none" />
  <path
     id="path23"
     d="m 9.2599926,6.7098616 -2.37998,1.1643642 0,-2.3484558 2.37998,1.1840916 z"
     style="fill:none;stroke:#808080;stroke-width:0.25999999px;stroke-linecap:round;stroke-linejoin:round;stroke-miterlimit:4;stroke-dasharray:none;stroke-opacity:1" />
</svg>
