<?xml version="1.0" encoding="UTF-8" standalone="no"?>
<svg
   xmlns:dc="http://purl.org/dc/elements/1.1/"
   xmlns:cc="http://creativecommons.org/ns#"
   xmlns:rdf="http://www.w3.org/1999/02/22-rdf-syntax-ns#"
   xmlns:svg="http://www.w3.org/2000/svg"
   xmlns="http://www.w3.org/2000/svg"
   viewBox="0 0 21.599998 13.6"
   id="svg2"
   height="13.6mm"
   width="21.599998mm"
   version="1.0">
  <metadata
     id="metadata25">
    <rdf:RDF>
      <cc:Work
         rdf:about="">
        <dc:format>image/svg+xml</dc:format>
        <dc:type
           rdf:resource="http://purl.org/dc/dcmitype/StillImage" />
        <dc:title></dc:title>
      </cc:Work>
    </rdf:RDF>
  </metadata>
  <defs
     id="defs4">
    <pattern
       y="0"
       x="0"
       height="6"
       width="6"
       patternUnits="userSpaceOnUse"
       id="WMFhbasepattern" />
  </defs>
  <path
     id="path7"
     d="m 0.43754527,0.43416784 0,12.53165716 20.52490473,0 0,-12.53165716 -20.52490473,0 z"
     style="fill:#ccffcc;fill-opacity:1;fill-rule:evenodd;stroke:none" />
  <path
     id="path9"
     d="m 0.43754527,12.965825 20.52490473,0 0,-12.53165716 -20.52490473,0 0,12.53165716 z"
     style="fill:none;stroke:#000000;stroke-width:0.0795539px;stroke-linecap:round;stroke-linejoin:round;stroke-miterlimit:4;stroke-dasharray:none;stroke-opacity:1" />
  <path
     id="path11"
     d="m 2.0087356,6.7098616 17.3825264,0"
     style="fill:none;stroke:#000000;stroke-width:0.2585502px;stroke-linecap:round;stroke-linejoin:round;stroke-miterlimit:4;stroke-dasharray:none;stroke-opacity:1" />
  <path
     id="path13"
     d="m 11.097767,6.7098616 -0.03976,-0.1578752 -0.07956,-0.1381477 -0.119324,-0.078938 -0.159117,-0.019727 -0.159117,0.019727 -0.119323,0.078938 -0.07956,0.1381477 -0.03976,0.1578752 0.03976,0.1381477 0.07956,0.1381478 0.119323,0.078938 0.159117,0.019727 0.159117,-0.019727 0.119324,-0.078938 0.07956,-0.1381478 0.03976,-0.1381477 z"
     style="fill:#000000;fill-opacity:1;fill-rule:evenodd;stroke:none" />
  <path
     id="path15"
     d="m 11.097767,6.7098616 -0.03976,-0.1578752 -0.07956,-0.1381477 -0.119324,-0.078938 -0.159117,-0.019727 -0.159117,0.019727 -0.119323,0.078938 -0.07956,0.1381477 -0.03976,0.1578752 0.03976,0.1381477 0.07956,0.1381478 0.119323,0.078938 0.159117,0.019727 0.159117,-0.019727 0.119324,-0.078938 0.07956,-0.1381478 0.03976,-0.1381477"
     style="fill:none;stroke:#000000;stroke-width:0.2585502px;stroke-linecap:round;stroke-linejoin:round;stroke-miterlimit:4;stroke-dasharray:none;stroke-opacity:1" />
  <path
     id="path17"
     d="m 10.700003,6.7098616 0,3.1181322"
     style="fill:none;stroke:#000000;stroke-width:0.2585502px;stroke-linecap:round;stroke-linejoin:round;stroke-miterlimit:4;stroke-dasharray:none;stroke-opacity:1" />
  <path
     id="path19"
     d="m 10.700003,11.012085 0.596646,-1.1840912 -1.193292,0 0.596646,1.1840912 z"
     style="fill:#333333;fill-opacity:1;fill-rule:evenodd;stroke:none" />
  <path
     id="path21"
     d="m 10.700003,11.012085 0.596646,-1.1840912 -1.193292,0 0.596646,1.1840912 z"
     style="fill:none;stroke:#333333;stroke-width:0.2585502px;stroke-linecap:round;stroke-linejoin:round;stroke-miterlimit:4;stroke-dasharray:none;stroke-opacity:1" />
</svg>
